<!--?xml version="1.0" encoding="utf-8"?-->
<!-- Generator: Adobe Illustrator 23.0.3, SVG Export Plug-In . SVG Version: 6.00 Build 0)  -->
<svg version="1.1" id="圖層_1" xmlns="http://www.w3.org/2000/svg" xmlns:xlink="http://www.w3.org/1999/xlink" x="0px" y="0px" viewBox="0 0 328 105" style="" xml:space="preserve">
<style type="text/css">
	.st0{fill:none;stroke:#FFFFFF;}
</style>
<g>
	<path class="st0 QxiiCilc_0" d="M3.6,90.1c0-0.4,0.4-0.6,0.7-0.6c0.2,0,0.5,0.1,0.5,0.5c0,2,1.5,2.5,2.8,2.5c3.4,0,4.7-3.8,4.7-7.1
		c0-2.3,0.5-4.1,1.4-5.5c-4,1.8-6.6,3.6-8.5,5.3c-0.5,0.4-0.8,0.6-1,0.6c-0.2,0-0.5-0.1-0.5-0.3c0-0.1,0.1-0.3,0.5-0.7
		c2.9-2.6,7.1-4.9,10.3-6.1c2-2.3,4.9-3.3,7.5-3.3c0.8,0,1,0.3,1,0.5c0,0.4-0.4,0.6-1,0.8c-1.1,0.4-3.4,1.1-4.9,1.6
		c-1.3,1.7-1.3,5.2-1.3,8c0,4-3.2,5.8-5.5,6.5c4.5-0.3,8.3-2.4,14.5-7.7c0.8-0.6,1-0.8,1.3-0.8c0.2,0,0.4,0.1,0.4,0.3
		c0,0,0,0.2-0.2,0.4c-9.4,8.4-13.6,8.5-17.2,8.5C3.6,93.5,3.6,90.6,3.6,90.1z"></path>
	<path class="st0 QxiiCilc_1" d="M37.8,92.1c3.2-2.1,6.5-4.2,9.9-6.2l6.2-3.9c-1.1,0.2-1.5,0.3-2.4,0.3c-2.6,0-4.1-0.9-4.9-2l-5,4.5
		c-0.8,0.7-1.3,1.1-1.6,1.1c-0.4,0-0.5-0.1-0.5-0.3c0-0.1,0.1-0.2,0.8-0.8c1-0.8,3.9-3.4,6-5.4c-0.1-0.3-0.1-0.6-0.1-0.9
		c0-1,1-1.5,1.7-1.5c0.4,0,0.8,0.2,0.8,0.5s-0.2,0.7-0.2,0.9c-0.1,0.4-0.2,0.7-0.2,1.1c0,1.3,1.4,2,3.3,2c3.1,0,4.6-1,7.3-2.8
		c0.4-0.3,0.8-0.3,1.3-0.3c1,0,2.3,0.3,2.3,0.8c0,0.1-0.2,0.4-0.4,0.5c-3.8,2.5-8.1,5.3-12.6,8l-5.1,3.1h0.4c2.4,0,3.5,0.8,4.4,1.4
		c0.8,0.5,1.2,0.8,1.9,0.8c2.5,0,8.5-4.7,12.7-8c0.2-0.1,0.6-0.2,1-0.2c0.2,0,0.4,0.1,0.4,0.2c0,0-0.2,0.3-0.9,0.8
		c-5.1,4.2-10.2,8.1-13.1,8.1c-1.4,0-2.3-0.5-3-1c-0.8-0.5-1.7-1.1-3.3-1.1c-1,0-2,0.2-4,1.6c-0.5,0.3-0.9,0.4-1.4,0.4
		c-1,0-1.7-0.5-1.7-1C37.5,92.5,37.5,92.3,37.8,92.1z"></path>
	<path class="st0 QxiiCilc_2" d="M78.2,90.1c0-0.4,0.4-0.6,0.7-0.6c0.2,0,0.5,0.1,0.5,0.5c0,2,1.5,2.5,2.8,2.5c3.4,0,4.7-3.8,4.7-7.1
		c0-2.3,0.5-4.1,1.4-5.5c-4,1.8-6.6,3.6-8.5,5.3c-0.5,0.4-0.8,0.6-1,0.6c-0.2,0-0.5-0.1-0.5-0.3c0-0.1,0.1-0.3,0.5-0.7
		c2.9-2.6,7.1-4.9,10.3-6.1c2-2.3,4.9-3.3,7.5-3.3c0.8,0,1,0.3,1,0.5c0,0.4-0.4,0.6-1,0.8c-1.1,0.4-3.4,1.1-4.9,1.6
		c-1.3,1.7-1.3,5.2-1.3,8c0,4-3.2,5.8-5.5,6.5c4.5-0.3,8.3-2.4,14.5-7.7c0.7-0.6,1-0.8,1.3-0.8c0.2,0,0.4,0.1,0.4,0.3
		c0,0,0,0.2-0.2,0.4c-9.4,8.4-13.6,8.5-17.2,8.5C78.2,93.5,78.2,90.6,78.2,90.1z"></path>
	<path class="st0 QxiiCilc_3" d="M118.6,93c0-0.6,1.7-1.1,3-1.1h0.4c5.6-3.6,8.4-10.4,8.4-11.8c0-0.7-0.5-1.1-1.3-1.1c-2.3,0-6.3,3.2-10.7,6.8
		c-2.3,1.9-3.1,2.7-5.2,5.5c-1,1.3-1.3,1.5-2.2,1.8c-0.9,0.3-1.4,0.5-1.8,0.5c-0.4,0-0.6-0.1-0.6-0.4c0-0.3,0.2-0.6,0.5-1.1
		c0.6-0.8,2-2.9,3.1-4.6c1.2-1.8,6.1-9,9.9-14.6c9.2-13.4,15.8-20,24.7-20c2.7,0,4.7,0.4,6.4,1.3c0.4,0.2,0.5,0.4,0.5,0.5
		c0,0.2-0.2,0.3-0.5,0.3c-0.2,0-0.5-0.1-0.8-0.3c-1.4-0.7-3.5-1.2-5.3-1.2c-8,0-13.6,7.9-17.1,13c-4.1,6-8.9,13.1-12.7,18.7
		c5.9-4.9,9.4-7.2,12.1-7.2c1.1,0,3.8,0.6,3.8,3.8c0,3.3-4.3,8.1-8.7,10.4c0.7,0.2,1.6,0.5,2.6,0.5c3.4,0,6.6-2.7,10.3-5.8l2.3-2
		c0.7-0.5,0.8-0.6,1.2-0.6c0.2,0,0.4,0.1,0.4,0.3c0,0.1,0,0.1-0.2,0.4l-2.3,1.9c-4.2,3.5-8,6.7-11.7,6.7c-1.5,0-3-0.4-3.8-0.6
		c-1.2,0.4-2.4,0.7-3.5,0.7C119.1,93.6,118.6,93.3,118.6,93z"></path>
	<path class="st0 QxiiCilc_4" d="M151.5,91.4c0-1,0.7-2.5,2-4.5l5.2-7.1c0.2-0.3,0.6-0.6,1.3-0.7s1.9-0.3,2.3-0.3s0.7,0.1,0.7,0.4
		c0,0.6-1,1.9-3.8,5.5c-2.3,3-4.8,6.2-4.8,7c0,0.5,0.5,0.7,0.8,0.7c2,0,4.3-1.9,7.5-4.4l3.9-3.2c0.6-0.5,0.8-0.6,1.2-0.6
		c0.2,0,0.4,0.1,0.4,0.3c0,0.1,0,0.1-0.2,0.4l-2.8,2.3c-4.3,3.6-7.3,6.1-10.4,6.1C152.6,93.4,151.5,92.8,151.5,91.4z M161.3,74.5
		c0-0.9,1.2-1.9,2.7-1.9c1.3,0,2,0.7,2,1.5c0,1.2-1.3,1.8-2.6,1.8C162,75.9,161.3,75.1,161.3,74.5z"></path>
	<path class="st0 QxiiCilc_5" d="M179.9,89.9c0-6,7.9-11.6,14.3-11.6c2.5,0,3.4,1.1,3.4,3c0,1.6-1,3.8-2.5,5.8c0.1,0.7,0.7,1.1,1.3,1.1
		c1.5,0,3.3-1.6,5.1-3.1c0.6-0.5,0.9-0.8,1.1-0.8c0.3,0,0.5,0.1,0.5,0.3c0,0.1,0,0.2-0.2,0.4c-2.4,2.1-4.5,3.9-6.7,3.9
		c-1,0-1.6-0.4-1.9-0.9c-2.5,2.9-6.1,5.4-9.3,5.4S179.9,92.2,179.9,89.9z M193.8,86.9c-0.1-0.3-0.1-0.5-0.1-0.8
		c0-3.3,0.8-4.9,2.6-5.3c-0.1-1-0.5-1.8-2-1.8c-3.9,0-11.1,5.6-11.1,11.2c0,1.3,0.5,2.3,2,2.3C188.1,92.7,191.6,90.1,193.8,86.9z"></path>
	<path class="st0 QxiiCilc_6" d="M219.8,91.9c0-1.4,2.4-4.6,4.7-7.5c2-2.6,3.8-4.9,3.8-5.9c0-0.5-0.2-0.7-0.8-0.7c-1,0-3,1.4-6.8,4.6l-3,2.5
		c-0.5,0.4-0.8,0.6-1.1,0.6c-0.2,0-0.4-0.1-0.4-0.3c0-0.1,0.1-0.3,0.4-0.6l3.3-2.8c5-4.2,6.3-5,8-5c1.7,0,2.8,0.8,2.8,2.3
		c0,2.1-2.5,5.4-4.6,8.2c-1.1,1.5-2.2,3-2.7,4c-0.1,0.2-0.2,0.3-0.2,0.4c0,0.2,0.2,0.4,0.5,0.4s0.8-0.2,1.3-0.4
		c3.5-1.6,8.2-5.4,12.8-9.4c1.9-1.7,2.1-1.8,3.7-1.8h1.1c0.4,0,0.5,0.1,0.5,0.3c0,0.1-0.1,0.3-0.2,0.5l-1.9,2.6
		c-3.5,4.6-5.2,6.9-5.2,8c0,0.4,0.2,0.6,0.8,0.6c1.7,0,4.4-2.1,10.6-7.5c0.5-0.4,0.9-0.7,1.2-0.7c0.3,0,0.4,0.1,0.4,0.3
		c0,0.1-0.2,0.3-0.7,0.7c-6.9,6.1-9.7,8.1-12.3,8.1c-2.3,0-3-1.1-3-2.1c0-1.4,1.5-4.1,3-6.1c-4.6,3.6-11,8.5-13.9,8.5
		C220.8,93.8,219.8,93,219.8,91.9z"></path>
	<path class="st0 QxiiCilc_7" d="M258.8,93.7c0-0.2,0.2-0.4,0.8-0.5c3.6-0.7,9.1-8.5,16.4-19.1c-1.2,1.1-2.5,2.4-3.9,3.7
		c-1.5,1.4-5.3,4.9-7.9,7.2c-0.5,0.4-0.8,0.6-1.1,0.6c-0.2,0-0.5-0.1-0.5-0.3c0,0,0.1-0.2,0.3-0.4c2.7-2.4,5.7-5,8.2-7.5
		c1.5-1.5,3.2-3.1,4.7-4.4l2-1.8l-4.2-0.1c-1.1,0-2.1-0.1-2.4-0.1c-0.5,0-0.8-0.2-0.8-0.4s0.3-0.4,0.8-0.4c1,0,4.3,0.1,7.6,0.3
		c1.9-1.7,3.3-2.9,4.2-3.9c0.2-0.3,0.5-0.4,0.7-0.4c0.2,0,0.4,0.1,0.4,0.3c0,0.1,0,0.1-0.1,0.4c-0.9,1.2-1.9,2.8-2.4,3.7
		c0.8,0,1.7,0,2.5,0c3.6,0,6.7-0.6,9-1.7c0.5-0.3,0.8-0.3,0.9-0.3c0.3,0,0.5,0.1,0.5,0.4c0,0.1-0.2,0.3-0.5,0.4c-3.2,1.4-6,2-10,2
		c-1.1,0-2.3,0-2.9,0l-1.5,2.5c-3,5.1-5.5,8.9-8.2,12.3c-2.3,2.9-5.2,5.5-7.6,6.7c0.5,0,1,0,1.6,0.1c0.7,0,1,0,1.5,0
		c3,0,4.9-1.4,12.8-8c0.6-0.5,0.8-0.6,1-0.6c0.3,0,0.5,0.2,0.5,0.3c0,0.1-0.2,0.4-0.5,0.6c-7.3,6.1-10.1,8.5-13.8,8.5
		c-0.6,0-1.2,0-1.8-0.1c-0.7,0-1,0-1.9,0c-1,0-2,0.2-2.5,0.3c-0.6,0.1-0.9,0.2-1.3,0.2C258.9,94,258.8,93.8,258.8,93.7z"></path>
	<path class="st0 QxiiCilc_8" d="M292.4,92.1c3.2-2.1,6.5-4.2,9.9-6.2l6.2-3.9c-1.1,0.2-1.5,0.3-2.4,0.3c-2.6,0-4.1-0.9-4.9-2l-5,4.5
		c-0.8,0.7-1.3,1.1-1.6,1.1c-0.4,0-0.5-0.1-0.5-0.3c0-0.1,0.1-0.2,0.8-0.8c1-0.8,3.9-3.4,6-5.4c-0.1-0.3-0.1-0.6-0.1-0.9
		c0-1,1-1.5,1.7-1.5c0.4,0,0.8,0.2,0.8,0.5s-0.2,0.7-0.2,0.9c-0.1,0.4-0.2,0.7-0.2,1.1c0,1.3,1.4,2,3.3,2c3.1,0,4.6-1,7.3-2.8
		c0.4-0.3,0.8-0.3,1.3-0.3c1,0,2.3,0.3,2.3,0.8c0,0.1-0.2,0.4-0.4,0.5c-3.8,2.5-8.1,5.3-12.6,8l-5.1,3.1h0.4c2.4,0,3.5,0.8,4.4,1.4
		c0.8,0.5,1.2,0.8,1.9,0.8c2.5,0,8.5-4.7,12.7-8c0.2-0.1,0.6-0.2,1-0.2c0.2,0,0.4,0.1,0.4,0.2c0,0-0.2,0.3-0.9,0.8
		c-5.1,4.2-10.2,8.1-13.1,8.1c-1.4,0-2.3-0.5-3-1c-0.8-0.5-1.7-1.1-3.3-1.1c-1,0-2,0.2-4,1.6c-0.5,0.3-0.9,0.4-1.4,0.4
		c-1,0-1.7-0.5-1.7-1C292.1,92.5,292.1,92.3,292.4,92.1z"></path>
</g>
<style data-made-with="vivus-instant">.QxiiCilc_0{stroke-dasharray:126 128;stroke-dashoffset:127;animation:QxiiCilc_draw_0 7200ms linear 0ms infinite,QxiiCilc_fade 7200ms linear 0ms infinite;}.QxiiCilc_1{stroke-dasharray:147 149;stroke-dashoffset:148;animation:QxiiCilc_draw_1 7200ms linear 0ms infinite,QxiiCilc_fade 7200ms linear 0ms infinite;}.QxiiCilc_2{stroke-dasharray:126 128;stroke-dashoffset:127;animation:QxiiCilc_draw_2 7200ms linear 0ms infinite,QxiiCilc_fade 7200ms linear 0ms infinite;}.QxiiCilc_3{stroke-dasharray:244 246;stroke-dashoffset:245;animation:QxiiCilc_draw_3 7200ms linear 0ms infinite,QxiiCilc_fade 7200ms linear 0ms infinite;}.QxiiCilc_4{stroke-dasharray:85 87;stroke-dashoffset:86;animation:QxiiCilc_draw_4 7200ms linear 0ms infinite,QxiiCilc_fade 7200ms linear 0ms infinite;}.QxiiCilc_5{stroke-dasharray:112 114;stroke-dashoffset:113;animation:QxiiCilc_draw_5 7200ms linear 0ms infinite,QxiiCilc_fade 7200ms linear 0ms infinite;}.QxiiCilc_6{stroke-dasharray:166 168;stroke-dashoffset:167;animation:QxiiCilc_draw_6 7200ms linear 0ms infinite,QxiiCilc_fade 7200ms linear 0ms infinite;}.QxiiCilc_7{stroke-dasharray:195 197;stroke-dashoffset:196;animation:QxiiCilc_draw_7 7200ms linear 0ms infinite,QxiiCilc_fade 7200ms linear 0ms infinite;}.QxiiCilc_8{stroke-dasharray:147 149;stroke-dashoffset:148;animation:QxiiCilc_draw_8 7200ms linear 0ms infinite,QxiiCilc_fade 7200ms linear 0ms infinite;}@keyframes QxiiCilc_draw{100%{stroke-dashoffset:0;}}@keyframes QxiiCilc_fade{0%{stroke-opacity:1;}94.44444444444444%{stroke-opacity:1;}100%{stroke-opacity:0;}}@keyframes QxiiCilc_draw_0{11.11111111111111%{stroke-dashoffset: 127}15.010644395316463%{ stroke-dashoffset: 0;}100%{ stroke-dashoffset: 0;}}@keyframes QxiiCilc_draw_1{15.010644395316463%{stroke-dashoffset: 148}19.554982395807745%{ stroke-dashoffset: 0;}100%{ stroke-dashoffset: 0;}}@keyframes QxiiCilc_draw_2{19.554982395807745%{stroke-dashoffset: 127}23.454515680013095%{ stroke-dashoffset: 0;}100%{ stroke-dashoffset: 0;}}@keyframes QxiiCilc_draw_3{23.454515680013102%{stroke-dashoffset: 245}30.977237370015555%{ stroke-dashoffset: 0;}100%{ stroke-dashoffset: 0;}}@keyframes QxiiCilc_draw_4{30.97723737001556%{stroke-dashoffset: 86}33.61786620813887%{ stroke-dashoffset: 0;}100%{ stroke-dashoffset: 0;}}@keyframes QxiiCilc_draw_5{33.61786620813887%{stroke-dashoffset: 113}37.08752968148694%{ stroke-dashoffset: 0;}100%{ stroke-dashoffset: 0;}}@keyframes QxiiCilc_draw_6{37.08752968148694%{stroke-dashoffset: 167}42.215262425284536%{ stroke-dashoffset: 0;}100%{ stroke-dashoffset: 0;}}@keyframes QxiiCilc_draw_7{42.215262425284536%{stroke-dashoffset: 196}48.2334397772865%{ stroke-dashoffset: 0;}100%{ stroke-dashoffset: 0;}}@keyframes QxiiCilc_draw_8{48.2334397772865%{stroke-dashoffset: 148}52.77777777777778%{ stroke-dashoffset: 0;}100%{ stroke-dashoffset: 0;}}</style></svg>
