<?xml version="1.0" encoding="utf-8"?>
<!-- Generator: Adobe Illustrator 23.0.3, SVG Export Plug-In . SVG Version: 6.00 Build 0)  -->
<svg version="1.1" id="圖層_1" xmlns="http://www.w3.org/2000/svg" xmlns:xlink="http://www.w3.org/1999/xlink" x="0px" y="0px"
	 viewBox="0 0 40 40" style="enable-background:new 0 0 40 40;" xml:space="preserve">
<g>
	<g>
		<path d="M7.58,4.32c0.38-0.22,0.58-0.3,1.04-0.44c7.81-4.83,14.8-4.85,22.65-0.07c0.19,0,0.28,0.01,0.45,0.04
			c0.61,0.51,0.91,0.77,1.51,1.3c0.1,0.09,0.15,0.14,0.19,0.19c0.11,0.14-0.05,0.05-0.2-0.04c-0.19-0.12-0.25-0.13-0.22-0.09
			c2.52,3.84,3.45,6.26,4.06,11.4c0.01,0.08-0.17,0.15-0.36,0.18c-1.31,0.01-1.57,0.02-1.61-0.35c-0.04-0.38-0.06-0.57-0.1-0.95
			c-9.75-1.14-20.33-1.14-30.09,0.02c-0.05,0.4-0.07,0.6-0.11,1c-0.02,0.23-0.52,0.32-1.62,0.53c-0.27,0.02-0.37-0.1-0.34-0.35
			C3.46,11.02,4.58,8.36,7.58,4.32z M4.95,14.97c9.65-1.29,20.3-1.3,29.94-0.02c-0.67-4.79-1.42-7.03-3.41-10.74
			c-2.6-1.5-4.08-2.07-7.19-2.64c0.42,2.73,0.6,4.24,0.87,7.42c0.09,0.09,0.14,0.14,0.23,0.23c0.14,0.04,0.21,0.06,0.35,0.11
			c1.46,0.14,2.17,0.23,3.56,0.44c1.3,0.13,1.5-0.14,1.52-0.72c-0.01-0.47-0.02-0.7-0.05-1.14c-0.01-0.03,0.13-0.04,0.28-0.01
			c0.15,0.04,0.3,0.1,0.32,0.16c0.12,0.47,0.18,0.7,0.3,1.18c0.11,0.45,0.34,0.77,0.73,0.93c0.36,0.15,0.58,0.32,0.62,0.49
			c0.01,0.03,0.12,0.56-1.43,0.34c-2.82-0.5-4.32-0.68-7.44-0.86c-0.13-0.01-1.12-0.25-1.15-0.89c-0.15-3.41-0.26-5.02-0.51-7.94
			c-2.36-0.25-3.64-0.22-5.96,0.12c-0.69,4.44-1.73,6.95-4.74,8.64c-1.87,1.11-4.97,2.41-5.36,2.48c-0.16,0.03-0.38,0.02-0.36-0.08
			c0.01-0.05,0.1-0.12,0.18-0.17c6.54-3.15,7.45-5.09,8.51-10.54c-2.74,0.63-4.04,1.16-6.36,2.51C6.39,7.96,5.62,10.2,4.95,14.97z"
			/>
		<path d="M18.34,26.66c-0.01-0.78-0.02-1.18-0.02-1.97c-2.81,0.08-6.75,0.08-11.02-0.28C6,24.3,4.78,24.15,3.69,24.02
			c-0.27-0.03-0.48-0.14-0.49-0.26c-0.02-0.12,0.17-0.16,0.4-0.14c5.83,0.54,20.44,0.45,27.75-1.35c0.84,0.21,1.26,0.31,2.06,0.5
			c0.29,0.08,0.45,0.16,0.44,0.23c-0.01,0.09-0.31,0.24-0.68,0.26c-0.13,0.01-1.1-0.03-1.27-0.02c-3.2,0.58-6.96,1.07-11.18,1.32
			c0,0.85-0.01,1.27-0.01,2.1c5.85-0.04,8.68-0.25,13.61-0.93c1.06-0.51,1.58-0.76,2.6-1.24c0.93,0.18,1.37,0.26,2.21,0.36
			c0.17,0.01,0.25,0.08,0.23,0.17c-0.04,0.16-0.35,0.36-0.89,0.47c-5.6,1.19-9.1,1.61-16.4,1.76c3.88,1.84,8.04,2.16,10.28,2.01
			c1.89-0.13,3.65-0.41,5.21-0.89c0.13-0.05,0.25-0.05,0.22,0c-0.02,0.06-0.29,0.22-0.76,0.45c-0.43,0.21-0.75,0.44-0.85,0.6
			c-0.12,0.18-0.26,0.29-0.43,0.36c-0.41,0.15-8.76,1.28-14.89-2.52c-0.06,0-0.08,0-0.14,0c-0.01,1.76-0.02,2.62-0.04,4.28
			c0,0.29-1.43,0.34-1.69,0.34c-0.35-0.01-0.53-0.11-0.54-0.36c-0.04-1.66-0.06-2.52-0.09-4.27c-0.13,0-0.2,0-0.33-0.01
			c-4.37,3.39-15.11,2.04-15.66,1.81c-0.06-0.03-0.26-0.11-0.32-0.24c-0.03-0.05,0.02-0.07,0.1-0.07c4.23,1.28,10.78,0.22,13.3-1.58
			C9.08,26.9,6.07,26.5,1.14,25.42c-0.16-0.2-0.24-0.3-0.4-0.51C6.67,26.12,10.45,26.55,18.34,26.66z M23.88,32.07
			c0.28-0.17,0.43-0.26,0.71-0.43c0.58,0.14,0.87,0.2,1.44,0.32c0.24,0.03,0.35,0.12,0.34,0.23c-0.01,0.11-0.23,0.25-0.53,0.34
			c-0.33,0.1-0.52,0.22-0.57,0.35c-0.43,0.64-0.64,0.96-1.05,1.58c2.77-0.3,4.1-0.57,6.58-1.32c0.36-0.3,0.55-0.45,0.91-0.74
			c0.57,0.02,0.85,0.01,1.37-0.02c0.27-0.03,0.4,0.01,0.35,0.11c-0.02,0.06-0.29,0.38-0.83,0.6c-0.3,0.12-0.53,0.26-0.63,0.38
			c-0.52,0.75-1.16,1.54-1.77,2.27c-1.09,1.25-1.97,2.67-5.43,3.69c-0.07-0.45-0.83-0.47-2.67-0.53c-0.22-0.01-0.32-0.07-0.32-0.15
			c0-0.07,0.12-0.19,0.38-0.21c0.07-0.01,0.11,0.01,0.18,0c1.42,0.04,2.45-0.09,3.15-0.26c1.94-0.48,2.66-1.5,3.41-2.52
			c0.48-0.67,0.72-1.01,1.2-1.69c0.13-0.15,0.2-0.22,0.34-0.36c-2.48,0.77-3.82,1.05-6.6,1.34c-0.33,0.45-0.49,0.67-0.81,1.11
			c-0.26,0.09-0.39,0.13-0.64,0.21c-1.19,0.12-1.32,0.12-1.31-0.02c0-0.04,0.04-0.09,0.08-0.14c0.96-1.11,1.87-2.31,2.54-3.55
			c-3.35,0.25-5.18,0.23-8.49-0.09c-0.13,1.34-0.98,3.33-2.99,3.9c-2.56,0.73-5.92-1.87-5.97-1.92c-0.12-0.11-0.25-0.24-0.32-0.31
			c-0.05-0.05-0.03-0.04,0.07,0.05c3.59,3.05,6.88,1.54,7.13-1.97c-2.22-0.31-3.3-0.54-5.32-1.08C7.68,31,7.6,30.88,7.45,30.66
			C13.32,32.19,17.15,32.56,23.88,32.07z"/>
	</g>
</g>
</svg>
