<?xml version="1.0" encoding="utf-8"?>
<!-- Generator: Adobe Illustrator 23.0.3, SVG Export Plug-In . SVG Version: 6.00 Build 0)  -->
<svg version="1.1" id="圖層_1" xmlns="http://www.w3.org/2000/svg" xmlns:xlink="http://www.w3.org/1999/xlink" x="0px" y="0px"
	 viewBox="0 0 167.9 57.1" style="enable-background:new 0 0 167.9 57.1;" xml:space="preserve">
<style type="text/css">
	.st0{fill:#231815;}
	.st1{enable-background:new    ;}
</style>
<g>
	<g>
		<path class="st0" d="M14,13.5c0.5-0.2,0.7-0.3,1.1-0.4c9-5.4,16.9-5.4,25.8-0.1c0.2,0,0.3,0,0.6,0c0.7,0.6,1,0.9,1.7,1.5
			c0.1,0.1,0.2,0.1,0.2,0.2c0.1,0.1,0,0.1-0.2,0s-0.3-0.1-0.2-0.1c2.8,4.3,4,7.1,4.7,12.8c0,0.1-0.2,0.1-0.5,0.2
			c-1.5,0-1.8,0-1.8-0.4s-0.1-0.7-0.1-1.1c-11.1-1.2-23-1.2-34.2,0C11,26.5,11,26.8,11,27.2c0,0.2-0.6,0.3-1.8,0.6
			c-0.3,0-0.5-0.1-0.3-0.4C9.3,21.1,10.6,18.1,14,13.5z M11,25.6c11-1.5,23-1.5,33.9,0c-0.8-5.4-1.6-7.9-3.9-12
			c-3-1.7-4.7-2.4-8.2-2.9c0.5,3,0.7,4.7,1,8.3c0.1,0.1,0.1,0.1,0.2,0.2c0.1,0,0.2,0.1,0.5,0.1c1.7,0.1,2.5,0.2,4.1,0.4
			c1.5,0.1,1.7-0.1,1.7-0.8c0-0.6,0-0.8,0-1.2c0,0,0.1,0,0.3,0s0.3,0.1,0.3,0.2c0.1,0.6,0.2,0.8,0.3,1.3c0.1,0.6,0.3,0.9,0.8,1
			s0.7,0.3,0.7,0.6c0,0,0.1,0.7-1.6,0.3c-3.2-0.6-4.9-0.8-8.4-1c-0.1,0-1.2-0.3-1.2-1c-0.1-3.8-0.3-5.6-0.6-8.9
			c-2.7-0.3-4.1-0.2-6.8,0.1c-0.8,4.9-1.9,7.8-5.3,9.7c-2.2,1.2-5.7,2.7-6.1,2.8c-0.2,0-0.5,0-0.5-0.1s0.1-0.1,0.2-0.2
			C20,19,21,16.8,22.3,10.7c-3.1,0.7-4.5,1.3-7.3,2.8C12.7,17.7,11.8,20.2,11,25.6z"/>
		<g>
			<path class="st0" d="M14,13.5c0.5-0.2,0.7-0.3,1.1-0.4c9-5.4,16.9-5.4,25.8-0.1c0.2,0,0.3,0,0.6,0c0.7,0.6,1,0.9,1.7,1.5
				c0.1,0.1,0.2,0.1,0.2,0.2c0.1,0.1,0,0.1-0.2,0s-0.3-0.1-0.2-0.1c2.8,4.3,4,7.1,4.7,12.8c0,0.1-0.2,0.1-0.5,0.2
				c-1.5,0-1.8,0-1.8-0.4s-0.1-0.7-0.1-1.1c-11.1-1.2-23-1.2-34.2,0C11,26.5,11,26.8,11,27.2c0,0.2-0.6,0.3-1.8,0.6
				c-0.3,0-0.5-0.1-0.3-0.4C9.3,21.1,10.6,18.1,14,13.5z M11,25.6c11-1.5,23-1.5,33.9,0c-0.8-5.4-1.6-7.9-3.9-12
				c-3-1.7-4.7-2.4-8.2-2.9c0.5,3,0.7,4.7,1,8.3c0.1,0.1,0.1,0.1,0.2,0.2c0.1,0,0.2,0.1,0.5,0.1c1.7,0.1,2.5,0.2,4.1,0.4
				c1.5,0.1,1.7-0.1,1.7-0.8c0-0.6,0-0.8,0-1.2c0,0,0.1,0,0.3,0s0.3,0.1,0.3,0.2c0.1,0.6,0.2,0.8,0.3,1.3c0.1,0.6,0.3,0.9,0.8,1
				s0.7,0.3,0.7,0.6c0,0,0.1,0.7-1.6,0.3c-3.2-0.6-4.9-0.8-8.4-1c-0.1,0-1.2-0.3-1.2-1c-0.1-3.8-0.3-5.6-0.6-8.9
				c-2.7-0.3-4.1-0.2-6.8,0.1c-0.8,4.9-1.9,7.8-5.3,9.7c-2.2,1.2-5.7,2.7-6.1,2.8c-0.2,0-0.5,0-0.5-0.1s0.1-0.1,0.2-0.2
				C20,19,21,16.8,22.3,10.7c-3.1,0.7-4.5,1.3-7.3,2.8C12.7,17.7,11.8,20.2,11,25.6z"/>
			<g>
				<g>
					<g>
						<path class="st0" d="M11.7,21.6c0,0.1,0,0.2-0.1,0.3C11.7,21.6,11.8,21.5,11.7,21.6z"/>
						<path class="st0" d="M11,25.6c0.1-1,0.5-2.7,0.7-3.7C11.5,22.8,11.1,25.2,11,25.6z"/>
						<path class="st0" d="M11.9,21.5c-0.1,0.4-0.2,0.8-0.3,1.2C11.8,22,11.8,22.1,11.9,21.5z"/>
						<polygon class="st0" points="11.8,21.9 11.7,21.9 11.9,21.2 						"/>
						<path class="st0" d="M31.8,17.7c0-0.1,0-0.2,0.1-0.1L31.8,17.7z"/>
						<path class="st0" d="M32.7,19.9c0.2,0.1,0.5,0,0.6,0.1C33,19.9,32.9,20.1,32.7,19.9z"/>
						<path class="st0" d="M31.6,15v0.6V15z"/>
						<path class="st0" d="M15.1,21.4c0.5-0.2,0.9-0.4,1.2-0.6C15.4,21.4,15.3,21.3,15.1,21.4z"/>
						<path class="st0" d="M41.7,18l-0.1-0.1C41.6,17.8,41.6,17.7,41.7,18z"/>
						<path class="st0" d="M33.3,20.6C33.3,20.6,33.4,20.6,33.3,20.6h0.2H33.3z"/>
						<path class="st0" d="M31.3,12.9L31.3,12.9v-0.4C31.5,12.6,31.5,12.8,31.3,12.9z"/>
						<path class="st0" d="M39.2,19.2c-0.2,0-0.3-0.1-0.5-0.1C39.1,19.2,39.2,19.2,39.2,19.2z"/>
						<path class="st0" d="M33.4,20.1L33.4,20.1C33.3,20.1,33.3,20.1,33.4,20.1C33.3,20.1,33.3,20.1,33.4,20.1z"/>
						<path class="st0" d="M31,17.1c0,0.2,0,0.4,0,0.7C31,17.5,31,17.2,31,17.1z"/>
						<path class="st0" d="M15.1,21.4c-0.1,0.1-0.2,0.1-0.3,0.2C14.9,21.5,15,21.5,15.1,21.4z"/>
						<path class="st0" d="M12.6,18.3c0.1-0.3,0.2-0.4,0.2-0.6C12.8,17.9,12.7,18.1,12.6,18.3z"/>
						<path class="st0" d="M12,25.7h-0.1C12,25.7,12,25.7,12,25.7z"/>
						<path class="st0" d="M28.2,24.8c0.1,0,0.1,0,0.2,0C28.3,24.8,28.2,24.8,28.2,24.8z"/>
						<path class="st0" d="M43,24.8c-1-0.1-2.2-0.3-3.1-0.3l0.3,0.1l-0.9-0.1v0.1c-1.5-0.1-3.4-0.2-4-0.3l0.2,0.1l-1.6-0.1l0.9,0.1
							c-1.8-0.1-4.7-0.2-5-0.2h0.1c-0.3,0-0.6,0-0.8,0l0.2,0.1c-2.7,0-3.5,0.1-6.6,0.1c-0.8,0,0.5,0,0.5,0c-0.5,0.1-1.6,0.1-1.8,0
							c0.2,0.1,1.6,0,0.6,0.1c-0.7,0,0.5,0.1-0.8,0.1l-0.5-0.1c-0.7,0.1-0.1,0.1-1.2,0.1c-1.2,0,1.5-0.2-0.5-0.1c-1,0.1-2,0.4-4,0.6
							c-1.7,0.1,0.9,0-1.4,0.2l1.5-0.1c-0.3,0.1-0.1,0.1-1.1,0.2c-0.3,0-0.9,0-1.5,0.1c2.2-0.2-1.8,0.3,0.1,0.2L12,25.8
							c0.1,0,0.1,0,0.1,0l-1,0.1c0.6,0,2-0.2,1.4,0L11,26.1c0.3,0-0.1,0.1,0,0.1c1.4-0.1,2.8-0.2,4.2-0.3c-0.1,0-0.8,0-0.6,0
							c1.1-0.1,0.9,0,1.9-0.1H16c0.1,0,0.2,0,0,0c-0.3,0.1-0.6,0-0.6,0c0.3-0.1,1.5-0.1,1.7-0.1c1.4-0.1,0.2-0.1,0.6-0.2
							c0.7,0,2.3-0.1,3.2-0.1h-0.6c1-0.1,1.9-0.1,2.6-0.1h-0.2c1.5,0,2.2-0.2,3.3-0.1l0,0c0.6,0,1.5-0.1,2,0c0,0,0.1,0,0.3-0.1
							c0.3,0.1,0.9,0,1.8,0c-0.6,0-0.3-0.1-1-0.1c1.4-0.1,1.2,0.1,2.4,0.1c0.7,0-0.6-0.1-0.8-0.1c1.7,0.1,3.6-0.1,4.8,0.1h-0.8
							c0.7,0.1,1,0.1,1,0.1c-0.2,0-0.3,0-0.3,0c2.2,0,3.3,0.3,5.4,0.6c-0.1,0-0.5-0.1-0.5-0.1c1,0,0.9,0.3,2.5,0.3l-0.3-0.1
							c0.6,0,0.9,0.1,0.8,0.1c0,0,0.2,0,0.6,0c0.2,0,0.5,0,0.8,0.1c0.1,0,0.3,0,0.5,0c0-0.1,0-0.3-0.1-0.4c0-0.3-0.1-0.6-0.1-0.9
							L44.8,24c-0.1-0.4-0.2-0.9-0.3-1.1c0-0.8-0.5-2.9-0.8-3.6c-0.5-0.9,0.1,0.9,0,0.6c-0.2-0.7-0.2-1.1-0.7-2.1c0.1-0.1,1,2,0.2,0
							v-0.6c0.1,0.2,0.2,0.4,0.3,0.8c0.1,0.6-0.2-0.3-0.2-0.4c-0.2-0.7-0.6-1.5-0.9-2.1c0-0.2,0.6,1,0.7,1.2
							c-0.3-0.8-0.9-1.7-1.4-2.6c-0.1-0.2-0.2-0.4-0.5-0.7c-0.2-0.1-0.5-0.2-0.7-0.3c-0.5-0.2-0.8-0.4-1.2-0.7l0.1,0.1
							c-1.9-1-1.2-0.3-2.7-1.1c-0.9-0.2,0.3,0.2-1-0.2c-0.3-0.2,0-0.2,0-0.2c-0.8-0.2-1-0.2-1.1-0.2c-0.2,0-0.2,0-1.1-0.2
							c0.1,0.1,0.2,0.1,0.3,0.2c-0.2,0-0.5-0.1-0.7-0.1c0,0.2,0,0.4,0,0.7c0,0.4,0,0.9,0.1,1.3c0,0.9,0.1,1.8,0.2,2.6
							c0.1-0.1,0-1.1,0-1.5c0,1.1,0.2,2.4,0.3,3.6c0,0.3,0.1,0.7,0.1,0.9l0.1,0.4c0,0.1,0,0.2,0.1,0.2l0.2,0.2
							c0.1,0.1,0.3,0.1,0.5,0.2c0.2,0,0.3,0,0.5,0.1c0.2,0,0.6,0.1,0.8,0.1c-0.6,0,0.9,0.2-0.3,0.2c-0.1-0.1-0.3-0.1-0.7-0.1
							c0,0-0.2,0-0.3,0s-0.1,0-0.2-0.1c-0.1,0-0.2-0.1-0.3-0.2S34,19.1,34,19.1c0,0.1,0.1,0.2,0.2,0.3c0,0.1,0.1,0.1,0.1,0.1
							c0.1,0,0.1,0.1,0.2,0.1c0.1,0,0.1,0.1,0.3,0.1c0.1,0,0.2,0,0.3,0c0.5,0.1,1,0.1,1.6,0.1c1,0.1,2,0.2,2.2,0.3
							c0.1,0,0.2,0,0.3-0.1c0.3,0.1,1.2,0,0.6,0.1c0.2,0,0.5-0.1,0.8-0.2c0.2-0.2,0.3-0.6,0.3-0.8c0-0.4,0-0.8,0-1.1
							c0,0.2,0,0.4,0,0.7c0,0.2,0,0.7-0.3,1S39.9,20,39.7,20s-0.5,0-0.6,0c-0.7-0.1,0.9,0,0.3-0.1c0.8,0.1,1.1-0.2,1.1-0.4
							c0.1-0.3,0-0.6,0-1.2c0.1,0.3,0.1,0,0.1-0.6h-0.2c0,0,0.1,0.1,0.1,0.2l0,0h0.1c0.1,0,0.1,0,0.1,0s0.1,0,0.1,0.1l0,0
							c0.1,0,0.2,0,0.2,0h-0.2c0,0.1,0,0.2,0,0.2c0.1,0.2,0.1,0.7,0.2,1c0,0.4,0.2,0.9,0.5,1c0.1,0.1,0.5,0.3,0.7,0.4
							c0.1,0,0.2,0.1,0.3,0.1l0.1,0.1c0,0,0,0,0.1,0l0.2-0.1c-0.2,0.1-0.2,0-0.2,0l0,0c0,0,0,0-0.1,0l0,0c0,0-0.1,0-0.2,0.1
							c-0.2,0-0.5,0-0.7,0c-0.5,0-0.9-0.1-1.4-0.2c0.6,0.1,1.4,0.3,1.2,0.3c-0.7-0.1-1.5-0.2-1.6-0.2c1.2,0.3,1.4,0.2,1.6,0.2
							c0.1,0,0.1,0,0.3-0.1c0.1,0,0.2,0,0.3,0s0.3-0.1,0.3-0.1l0,0c0,0-0.1,0,0.2,0h-0.2c0-0.1-0.2-0.3-0.6-0.4s-0.7-0.4-0.8-1
							c0.2,0.4,0.2,0.2,0.3,0.4c0.1,0.2,0.2,0.4,0.6,0.6c0.2,0.1,0.6,0.2,0.7,0.6l0,0c0,0.3-0.5,0.4-0.7,0.4c-0.3,0-0.7,0-0.9,0
							c-0.7-0.1-1.2-0.2-1.9-0.3c-0.8-0.2-0.1-0.2-1.9-0.4l1.5,0.1c-1.7-0.2-0.3-0.1-1.7-0.3l0.6,0.1c-0.8-0.1-1.1-0.1-1.6-0.2
							l0.7,0.2c-0.5,0-1.2-0.1-1.2-0.1c-0.1,0-0.1,0-0.1,0c-0.1,0-0.3,0-0.8-0.1c0.3,0,0.6,0,0.6,0.1c-2-0.2-0.5,0.1-1.7,0
							c0.2,0-0.2,0.1-0.6,0c0.1-0.1-0.6-0.2-0.9-0.7c-0.1-0.1,0-0.6-0.1-0.9c0-0.3,0-0.6,0-0.8l0,0v-1.7c0,0.3-0.1,0-0.1-0.6v0.1
							c-0.1-0.6-0.1,0.7-0.2-1V14c0,0.1,0,0,0-0.1V13c-0.1-0.7-0.1-1.2-0.1-1.9c0-0.2,0-0.4,0-0.7v-0.2c0,0,0-0.1-0.1-0.1H31
							c-0.2,0-0.5,0-0.7-0.1c-0.2,0-0.3,0-0.6,0c0.2,0,0.6,0,0.7,0.1c0.2,0,0.3,0.1,0.1,0.1c-0.3,0-0.8-0.1-1-0.1h0.1
							c-1-0.1-2-0.1-3.1-0.1c0.2,0,1.9,0,1.1,0.1c-0.5,0.1-1.4,0-1.8,0.1c0.1,0,1-0.2,0-0.1c-0.1,0-1,0.2-0.6,0.2
							c-0.2,0-0.5,0-0.9,0.1c-0.1,0-0.2,0-0.3,0h-0.2L23.7,11c-0.1,0.6-0.2,1.1-0.5,1.6c0,0.3,0.1-0.1,0.1-0.3v-0.1
							c0.1-0.6,0.1-0.1,0.3-1.2c0.2-0.1-0.2,1.7-0.6,2.7c0.2-0.6,0.3-1,0.5-1.6c-0.2,1.3-0.6,3-1.5,4.5c-0.8,1.5-2.2,2.6-3.3,3.3
							c0.7-0.4,1.2-0.9,1.1-0.9c-0.7,0.6-1,0.7-1.4,0.9c-0.2,0.2-0.6,0.4-1.4,0.8l0.1-0.1c-0.8,0.4-1.9,0.9-2.4,1.2
							c0.3-0.1,1.1-0.6,1.2-0.4c-0.7,0.3-1.4,0.6-2,0.9c0.7-0.2,2-0.9,2.8-1.2c0.6-0.2-1.1,0.6-0.9,0.3c1.8-0.9,2.3-1,3.2-1.5
							c0.6-0.2-0.7,0.6-1,0.7c-1.6,0.7-3.1,1.3-4.9,2.1c-0.3,0.1-0.7,0.3-1,0.3c-0.1-0.1,0.1-0.1,0.1-0.2c0.1,0,0.1,0,0.2-0.1
							c0.1,0,0.2,0,0.3-0.1c0.2-0.1,0.6-0.2,1.4-0.6l-0.6,0.2c0.3-0.2,0.6-0.3,0.8-0.4c-0.7,0.3-1.5,0.7-2.2,0.9
							c0.9-0.6,2.7-1.2,4-2c-0.1,0-0.6,0.3-0.7,0.3c1-0.6,1.9-1.2,2.8-1.9c0.8-0.7,1.5-1.6,1.9-2.4c0.1-0.3,0,0-0.2,0.3
							s-0.6,0.7-0.5,0.6c0.6-0.7,0.9-1.7,1.1-1.9c-0.2,0.3,0.7-2,0-0.3c0.3-0.8,0.5-1.6,0.7-2.5c0.1-0.4,0.2-0.8,0.2-1.2L22,11
							c0-0.1,0,0-0.1,0h-0.1l-0.3,0.1c-1.7,0.3-3.4,0.9-4.9,1.7c0.1,0,0.2,0,0.1,0.1c1-0.6,2.6-1.1,3.3-1.1
							c-0.7,0.2-1.7,0.4-1.9,0.7c0.3-0.1,1-0.3,1.1-0.3c-0.9,0.3-1.5,0.6-2,0.8l0.3-0.2c-1.7,0.8-1.2,0.4-2.5,1.1
							c-0.1,0.2-0.2,0.3-0.3,0.7c-0.3,0.8,0.1,0,0.1,0c-0.3,0.4-1,2-1.2,2.5c0.2-0.4,0.3-0.8,0.6-1.2c-0.5,0.9-0.8,1.7-1.1,2.2
							c0,0,0.1-0.1,0.2-0.3c-0.3,0.7-0.7,1.6-0.8,2V20c0.1-0.4,0.6-1.7,0.7-1.9c0,0.1-0.5,1.5-0.7,2c0.5-1.2,0.7-1.9,1-2.5
							s0.6-1,1-2l-0.2,0.3c0.2-0.7,0.7-1.3,1-1.9c0.6-0.3,1.1-0.6,1.7-0.9c-0.3,0.2-0.3,0.2-0.2,0.2c1.1-0.7,2.4-1.1,3.7-1.6
							c0.3-0.1,0.7-0.2,0.9-0.2l0.3-0.1h0.1h0.1v0.1c0,0.2-0.1,0.4-0.1,0.8c-0.1,0.3-0.1,0.7-0.2,1.1c-0.1,0.3-0.2,0.6-0.3,0.9
							l0.1,0.1c-0.5,1.5-0.2,0.2-0.5,1.1c0.1-0.3,0.1-0.2,0.1-0.3c-0.3,0.8-0.5,1-0.5,1.1c0,0.1,0,0.2-0.2,0.6
							c0.3-0.3,0.8-1.7,0.8-1.2c-0.3,0.8-0.9,1.8-1.5,2.5s-1.1,1.1-1.4,1.1c-1.1,1-2.7,2-4.3,2.7c-0.3,0.2-0.8,0.3-1.1,0.6
							c0,0-0.1,0-0.2,0.1c-0.1,0-0.1,0.1-0.2,0.1c0,0-0.1,0.1-0.1,0.3c0,0.2,0.1,0.3,0.2,0.4c0.2,0.1,0.2,0.1,0.3,0.1
							c0.3,0,0.6-0.1,0.8-0.1c0.8-0.3,1.5-0.6,2.2-0.9c0.3-0.2-0.2,0.1-0.1,0c0.6-0.2,1.4-0.6,2-0.9S19,21,19,21
							c0.5-0.3,0.6-0.4,0.7-0.6c0.7-0.3,1.4-0.8,2-1.5c-0.1,0.1-0.3,0.3-0.5,0.4v-0.1c0.2-0.2,0.5-0.4,0.7-0.7l0,0
							c0.8-0.8,1.4-1.9,1.8-3c0.5-1.1,0.7-2.2,1-3.3c-0.3,1.1,0-0.3-0.2,0.2c0.1-0.2,0.2-0.6,0.2-1c0.1-0.4,0-0.7,0.3-0.7
							c0.9-0.1,2-0.2,3-0.2c0,0,0.1-0.1-0.1-0.1c0.3,0,0.8,0,1.1,0.1l-0.5-0.2c0.5,0,1,0,1.6,0.1c0.3,0,0.3,0,0.5,0.1v0.1V11
							c0,1,0.1,1.9,0.1,2.6c0-0.8,0-0.8,0-0.9c0.1,1.5,0.2,2.8,0.2,4.5c0-0.1,0-0.1,0-0.1c0,0.4,0,1,0,1.5l0.1,0.1
							c0,0.2,0,0.4,0,0.7c0,0.3,0.2,0.7,0.6,0.9c0.2,0.2,0.6,0.3,0.8,0.4c0.5-0.1,0.7-0.1,0.9-0.1c0.5-0.1,2.5,0.2,3.7,0.3
							c0.5,0.1-1-0.2,0.3,0c0.1,0.2,1.7,0.2,1.7,0.4l1.1,0.1l0.2,0.1c0.5,0,0.8,0.1,1.2,0.1c0.2,0,0.5,0,0.7,0c0.1,0,0.3,0,0.6-0.1
							s0.7-0.3,0.5-1l0,0c-0.1-0.3-0.2-0.4-0.5-0.6c0.1,0.1,0.2,0.3,0.1,0.2c-0.2-0.3-0.8-0.6-0.9-0.6c-0.1-0.1-0.1-0.1,0.1,0
							c-0.2-0.1-0.5-0.3-0.6-1c-0.1-0.6-0.2-0.9-0.1-0.3c0-0.1,0.2,1,0.3,1.1c0,0-0.1-0.1-0.2-0.4c-0.1-0.3-0.2-0.7-0.2-0.8
							c0-0.1,0-0.2,0-0.3l-0.1-0.1v-0.1l0,0l0,0c-0.1-0.2-0.2-0.2-0.2-0.3l-0.1-0.1c0.1-0.1,0.1-0.2,0-0.2s-0.2,0-0.2,0h-0.1h-0.1
							h-0.1c0,0-0.1,0-0.1,0.1c-0.1,0.1-0.1,0.2-0.1,0.4v-0.1c0,0.3,0,0.6,0,0.8s0,0.6,0,0.7S40.1,19,40,19c-0.1,0-0.3,0-0.6,0
							c-0.1,0-0.2,0-0.8,0v-0.1L37,18.7l0.7,0.2c-0.8-0.1-1.6-0.2-2.3-0.3L35,18.5c-0.1,0,0,0-0.1,0s-0.2-0.1-0.1-0.1
							c0-0.1,0,0.1,0-0.3c-0.2-0.3-0.2-2.7-0.6-3.8l0.1,1.1c-0.1-1.1-0.2-1.8-0.3-2.5c0-0.3-0.1-0.7-0.1-1c0-0.2,0-0.3-0.1-0.6
							c0-0.2,0-0.1,0-0.2c0,0.1,0,0.1,0,0.1c0,0.2,0,0.3,0.1,0.4c0,0.3,0.1,0.6,0.1,0.8c0.1,0.6,0.2,1.1,0.5,2.5
							c-0.5-1.1-0.6-2.2-0.7-3.4v-0.2c0-0.1,0,0,0,0l0,0l0,0c0.5,0.1,0.8,0.1,1.2,0.2c-0.1,0-0.7-0.2-0.1-0.1
							c0.5,0.1,2.2,0.6,1.8,0.6c0.7,0.2,0.8,0.2,1.2,0.3c0.8,0.3,1.5,0.8,2.2,1.2H40c0.2,0.1,0.5,0.2,0.7,0.3c0,0,0,0,0.1,0.1
							l0.2,0.3c0.2,0.4,0.5,0.9,0.7,1.3c0.5,0.9,0.8,1.8,1.1,2.7c0.6,1.8,1,3.8,1.4,5.8v-0.1v0.4c0,0,0,0,0,0.1
							c0-0.1,0.1,0.1,0.1,0.2h-0.1l0,0H44h-0.3l-1.4-0.2C42.2,24.5,42.3,24.7,43,24.8z M38.3,19.2c0.2,0,0.5,0.1,0.7,0.1
							c0.1,0,0.2,0,0.3,0c-0.1,0-0.2,0-0.3,0C38.6,19.3,38.4,19.3,38.3,19.2z M16.7,19.8c0.3-0.1-0.3,0.2-0.6,0.3
							c0.3-0.2,0.6-0.3,0.9-0.6C17.1,19.5,16.9,19.8,16.7,19.8z M38.3,19.8H38l-0.5-0.1L38.3,19.8z M33.3,14.1l0.1,0.9v-0.1
							L33.3,14.1L33.3,14.1z M39.2,12.9c0,0-0.1,0-0.1-0.1C39.1,12.8,39.2,12.9,39.2,12.9c0.6,0.3,0.9,0.4,1.4,0.8
							C40,13.4,39.5,13.1,39.2,12.9z M35.1,18.8c0.3,0,0.5,0.1,0.7,0.1c-0.1-0.1-0.8-0.2-0.3-0.1c0.3,0.1,1.4,0.2,1.4,0.3
							C35.9,18.9,35.2,19,35.1,18.8z M32.9,20.5h0.2c-0.1,0-0.2,0-0.5-0.1c-0.1,0-0.3-0.1-0.5-0.1C32.5,20.4,32.7,20.5,32.9,20.5z
							 M31.1,17c0-0.4,0-1.7-0.1-2.5c-0.1-0.2-0.1,0.7,0,1.6C31,17.4,31.1,16.6,31.1,17z M33.5,12.9v0.2V12.9v0.9
							c-0.1-0.6-0.1-1.1-0.2-1.6c0-0.3,0-0.8,0-1c0,0.2,0,0.7,0.1,1.1C33.5,12.8,33.5,13,33.5,12.9z M29.4,10.3
							c-0.8-0.1-2.4-0.1-2.3-0.2c0,0.1,1.1,0.1,1.6,0.1C29,10.3,29.1,10.3,29.4,10.3z M29.4,10.2c1.1,0.2,1.5,0,1.4,0.8
							c0-0.3,0-0.3,0-0.6c-0.1,0-0.2,0-0.2-0.1c-0.1,0-0.2-0.1-0.1-0.1C29.7,10.1,29.8,10.2,29.4,10.2L29.4,10.2z M30.5,10.5h0.1
							v0.1c0,0.1,0.1,0.3,0.1,0.6c0,0.2,0,0.4,0,0.9l-0.1-1.3v-0.1C30.7,10.5,30.5,10.5,30.5,10.5z M23.7,14.1
							c0.1-0.1,0.1-0.3,0.2-0.4C23.7,14.1,23.7,14.2,23.7,14.1l-0.1,0.4C23.8,13.4,23.7,14,23.7,14.1z M28.3,10.3
							c0.5,0,0.9,0,1.5,0.1C29.6,10.4,28.7,10.3,28.3,10.3z M23.7,13.8c0.1-0.6,0.5-2.1,0.5-1.9C24.2,12,23.8,13.4,23.7,13.8z
							 M21.9,10.8c0.1,0,0.1,0,0.2,0V11L22,11.4c0-0.1,0-0.2,0-0.3l0.1-0.2C22,10.8,21.9,10.8,21.9,10.8z M17.5,19.7l0.1-0.1
							c0.1-0.1,0.2-0.2,0.5-0.3C17.8,19.4,17.6,19.5,17.5,19.7z M15.9,21.5C15.9,21.6,15.9,21.6,15.9,21.5c0.2,0,0.3-0.1,0.5-0.1
							C16.2,21.5,16,21.5,15.9,21.5c-0.3,0.2-0.8,0.4-1,0.6c0.1,0,0.7-0.3,0.9-0.3c-0.8,0.4-2.8,1-2.2,1c-0.2,0-0.6,0.2-0.9,0.2
							c-0.2,0-0.3,0-0.5-0.1c-0.1-0.1,0-0.1,0-0.1s0,0.1,0.1,0.1c0.3,0.1,0.7,0,0.9-0.1c0.3-0.1,0.7-0.2,1-0.4
							C15,22.1,15.6,21.7,15.9,21.5c0,0,0.1-0.1,0.2-0.1C16.1,21.4,16,21.5,15.9,21.5z M23.8,11.9c0.1-0.3,0.1-0.6,0.1-0.6
							C24,11,24,10.7,24,10.9c0,0.7,0,0.2,0,0.4C24,11.4,24,11.6,23.8,11.9z M25,10.2c-0.3,0.1-1-0.1-0.9,0.6c0.1-0.2,0-0.4,0.3-0.4
							c-0.1,0-0.2,0-0.2,0v0.2L24.1,11l-0.2,0.9c0.1-0.6,0.1-1,0.3-1.6c0-0.1,0.1-0.1,0.1-0.1h0.2c0.1,0,0.2,0,0.3,0
							C24.9,10.2,25,10.2,25,10.2z M25.4,10.1h0.2H25.4L25.4,10.1L25.4,10.1c0.7-0.1,1.4-0.1,2-0.1C26.8,9.9,26.1,10.1,25.4,10.1z
							 M37.6,20.5c0.8-0.1-1.8-0.3-2.2-0.4c-0.1,0.1-0.9,0.1,1.1,0.3c-1.7-0.1-1.1-0.2-2.2-0.1c0.8,0,1.8,0.2,1.9,0.2l-0.9-0.1
							C36,20.5,36.9,20.4,37.6,20.5z M40.4,18.3c0,0.4,0.1,0.9-0.1,1.2C40.5,19.2,40.4,18.7,40.4,18.3L40.4,18.3z M43.9,19.8
							c0-0.1,0.6,1.5,0.6,1.9C44.3,20.8,44.1,20.1,43.9,19.8z M37.2,24.8l1.5,0.1c-0.3,0.1-1.2-0.1-1.9-0.1
							C36.4,24.8,37,24.9,37.2,24.8z M27.7,24.5h-0.5H27.7L27.7,24.5z M28.4,24.7c-0.3,0,0.7,0.1,0.9,0.1L28.4,24.7z M19.9,25h0.6
							H19.9L19.9,25z M20.8,24.9c0.1,0.1,0.1,0.1,1.5,0c0-0.1-0.3-0.1,0.2-0.2c-0.5,0-0.8,0-1,0.1c0.3,0,0.7,0,0.8,0
							C21.7,24.8,21.1,24.9,20.8,24.9c0,0-0.1,0-0.3,0C20.4,24.8,20.6,24.9,20.8,24.9z M25.9,24.5c0.2,0,0.3,0,0.5,0h0.1
							C26.1,24.5,26,24.5,25.9,24.5c-0.2,0-0.5,0-0.7,0c-0.1,0.1,0.8,0.1,1,0.1c-0.5,0-0.8-0.1-1.5,0c0.1,0,0,0,0.3,0h-0.8
							c-0.9-0.1,0-0.1,0.8-0.1c0,0,0.1,0,0.2,0C25.5,24.5,25.7,24.5,25.9,24.5z M19.2,24.7h0.5c0.2,0,0.1,0,0.2,0.1
							C19.2,24.8,18.5,24.8,19.2,24.7z M44.7,24.1c0.1,0.3,0-0.4-0.1-1l0.1,0.3c0,0,0.1,1.3,0.2,1.6C45,25.1,44.8,24.5,44.7,24.1z
							 M37.1,19.5c0.2,0.1,1.9,0.3,2.4,0.3C38.6,19.8,36.6,19.5,37.1,19.5z M40.1,19.5c0.3-0.2,0.2-0.4,0.2-0.3c0.1-0.2,0-0.6,0-0.8
							c0,0.4,0,0.7,0,0.8S40.2,19.4,40.1,19.5c-0.1,0-0.2,0.1-0.3,0.1C39.9,19.6,40,19.5,40.1,19.5z M36.7,11.5l0.6,0.3
							c0.3,0.1,0.6,0.2,0.9,0.3C37.7,12,37.2,11.7,36.7,11.5z M43.3,18.7c0-0.1,0.3,1,0.5,1.2c0-0.1-0.2-0.8-0.3-1.3
							c0-0.1,0-0.2-0.1-0.3c0,0.1,0.1,0.2,0.1,0.3C43.4,18.8,43.3,18.7,43.3,18.7l-0.1-0.3l0.2,0.8L43.3,18.7z M33.5,24.2
							c-0.7,0-0.8,0-1.2,0C32.4,24.2,33,24.2,33.5,24.2z M40.9,13.8c0.5,0.9-0.1-0.4,0.2,0.1L41,13.7l-0.2-0.1
							c0.1,0.1,0.1,0.1,0.2,0.1c0,0.1,0,0.1,0.1,0.1c0,0.1,0.1,0.2,0.1,0.2c0,0.1,0.1,0.2,0.2,0.6l-0.2-0.4
							c-0.2-0.3,0.3,0.7,0.2,0.8c-0.1-0.2-0.3-0.6-0.5-0.9C40.9,13.8,40.9,13.8,40.9,13.8L40.9,13.8z M32.4,24.1
							c-1.1,0-0.9-0.1-1.6-0.1C31.7,24,31.6,24.1,32.4,24.1z M43.5,20.3L43.5,20.3c0,0.2,0.1,0.6,0.1,0.8v0.1L43.5,20.3z"/>
						<path class="st0" d="M31,24.8c-0.2,0-0.5,0-0.6,0C30.5,24.8,30.8,24.8,31,24.8z"/>
						<path class="st0" d="M40.9,17.9l0.1-0.1l-0.2,0.1c0,0,0,0.1,0.1,0.2c0,0,0,0-0.1-0.2l0.2-0.1C41,17.8,40.9,17.8,40.9,17.9z"/>
						<path class="st0" d="M41.4,20.1L41.4,20.1c0.1,0.1,0.1,0.1,0.1,0.1C41.4,20.2,41.4,20.1,41.4,20.1z"/>
						<path class="st0" d="M12.8,17.6c-0.2,0.4,0.1-0.4,0.3-0.8C12.9,17.1,12.9,17.4,12.8,17.6z"/>
						<path class="st0" d="M14.2,14.9c-0.1,0.2-0.2,0.4-0.5,0.8C13.9,15.6,14,15.3,14.2,14.9z"/>
						<path class="st0" d="M13.1,17.1c0.2-0.6,0.5-1,0.6-1.3C13.5,16.1,13.4,16.3,13.1,17.1z"/>
						<path class="st0" d="M20.9,11c-0.5,0.1-1.4,0.3-1.4,0.3c1.9-0.6-0.5,0-0.6,0C20.1,11.1,20.2,11.1,20.9,11z"/>
						<path class="st0" d="M21.9,12c0-0.2,0.1-0.4,0.1-0.6C22,11.6,21.9,11.9,21.9,12z"/>
						<path class="st0" d="M21.8,12.8c-0.2,0.7-0.3,0.9-0.5,1.1c0.2-0.8,0.3-1.2,0.6-1.9C21.8,12.4,21.7,12.9,21.8,12.8z"/>
						<path class="st0" d="M18.2,20.1c-0.1,0.1-0.5,0.2-0.5,0.2c0.3-0.2,0.7-0.3,1-0.6C19.1,19.5,18.3,19.9,18.2,20.1z"/>
						<path class="st0" d="M21.5,17.6c0.6-0.7,0.2-0.3,0.5-0.8l0.1,0.1C21.8,17.2,21.6,17.5,21.5,17.6z"/>
						<path class="st0" d="M21.6,18.4l-0.2,0.2C21.3,18.5,21.5,18.4,21.6,18.4L21.6,18.4z"/>
						<path class="st0" d="M23.2,13.8l-0.3,0.6C23.2,13.5,23.2,13.7,23.2,13.8z"/>
						<path class="st0" d="M23.8,10.2L23.7,11l0.1-0.6c0-0.1,0-0.2,0.1-0.3h0.3l0.9-0.2L24.5,10L24,10.1
							C24.1,10.1,23.8,9.9,23.8,10.2z"/>
						<path class="st0" d="M28.3,9.7h0.1c0.3,0,0.8,0,1.1,0.1C29.2,9.7,28.7,9.7,28.3,9.7z"/>
						<path class="st0" d="M33.7,10.4c0.1,0,0,0-0.2,0c-0.1,0-0.2,0-0.3,0s-0.1,0-0.2,0h-0.1v0.1c0.1,0.6,0.1,1.2,0.2,1.6
							c-0.1-0.2-0.1-0.4-0.1-1v-0.3v-0.2l0,0h0C33.2,10.4,33.5,10.4,33.7,10.4z"/>
						<path class="st0" d="M32.6,24.8l1.7,0.1C32.9,24.9,33.9,24.9,32.6,24.8z"/>
					</g>
				</g>
			</g>
			<g>
				<g>
					<g>
						<path class="st0" d="M12.5,15.7l0.1-0.1C12.5,15.7,12.5,15.8,12.5,15.7z"/>
						<path class="st0" d="M14.1,13.7c-0.3,0.6-0.9,1.3-1.4,1.9C12.9,15,13.9,13.7,14.1,13.7z"/>
						<path class="st0" d="M12.3,15.7l0.5-0.7C12.5,15.4,12.5,15.3,12.3,15.7z"/>
						<polygon class="st0" points="12.6,15.4 12.6,15.6 12.3,15.9 						"/>
						<path class="st0" d="M37,25.1C36.9,25.1,36.9,25,37,25.1L37,25.1z"/>
						<path class="st0" d="M38.9,25.4c0.2,0,0.3,0,0.5,0C39.2,25.4,39.1,25.4,38.9,25.4z"/>
						<path class="st0" d="M35.2,25h0.3C35.4,25,35.3,25,35.2,25z"/>
						<path class="st0" d="M13.7,25.7c-0.3,0-0.7,0-0.9,0C13.5,25.6,13.6,25.7,13.7,25.7z"/>
						<path class="st0" d="M46.7,28.1L46.7,28.1C46.8,28,46.9,28.1,46.7,28.1z"/>
						<path class="st0" d="M39.3,26C39.3,26,39.4,26,39.3,26C39.4,26,39.4,26,39.3,26L39.3,26z"/>
						<path class="st0" d="M33.8,25L33.8,25h-0.3C33.7,25,33.8,25,33.8,25z"/>
						<path class="st0" d="M47.8,25.6c0-0.1,0-0.2,0-0.3C47.8,25.4,47.8,25.7,47.8,25.6z"/>
						<path class="st0" d="M39.4,25.4L39.4,25.4C39.4,25.4,39.3,25.4,39.4,25.4C39.3,25.4,39.4,25.4,39.4,25.4z"/>
						<path class="st0" d="M36.6,25.8c0.1,0,0.2,0,0.5,0C36.8,25.9,36.7,25.8,36.6,25.8z"/>
						<path class="st0" d="M13.7,25.7c0.1,0,0.2,0,0.2,0S13.9,25.7,13.7,25.7z"/>
						<path class="st0" d="M11.5,17.6c-0.1,0.2-0.2,0.3-0.2,0.3C11.2,17.8,11.4,17.7,11.5,17.6z"/>
						<path class="st0" d="M14.6,13.5L14.6,13.5L14.6,13.5z"/>
						<path class="st0" d="M24.2,9.7h0.1H24.2z"/>
						<path class="st0" d="M33.7,9.3C33,9.2,32.3,9,31.8,8.9l0.2,0l-0.6-0.1v0.1c-0.5-0.1-1-0.1-1.6-0.2c-0.5,0-0.9,0-1-0.1L29,8.7
							c-0.3,0-0.7-0.1-1-0.1c0.2,0,0.5,0,0.6,0.1c-0.6,0-1.4,0-2,0c-0.7,0.1-1.1,0.1-1.2,0.1h0.1c-0.2,0-0.3,0-0.6,0.1H25
							c-1.8,0.3-2.3,0.6-4.1,1.1c-0.5,0.2,0.3-0.1,0.3-0.1c-0.2,0.1-0.9,0.3-1.1,0.3c0.2,0,0.9-0.2,0.3,0c-0.5,0.1,0.3,0-0.5,0.2
							h-0.3c-0.5,0.2,0,0.1-0.7,0.3c-0.8,0.2,0.8-0.6-0.3,0C18,11,17.5,11.5,16.3,12c-0.9,0.6,0.6-0.1-0.7,0.6l0.9-0.4
							c-0.2,0.1,0,0.1-0.6,0.4c-0.2,0-0.6,0.2-0.9,0.3c0.3-0.1,0.5-0.1,0.5-0.1s-0.1,0.1-0.3,0.2c-0.3,0.1-0.6,0.2,0,0.1
							c-0.1,0-0.3,0.1-0.5,0.1c0,0,0.1,0,0,0c-0.2,0.1-0.3,0.1-0.6,0.2c0.3-0.2,1.1-0.4,0.8-0.2c-0.2,0.1-0.5,0.2-0.8,0.3
							c0.2-0.1,0,0.1,0,0.1c0.2-0.1,0.3-0.2,0.6-0.2l0.3-0.1h0.1c0.1,0,0.2,0,0.3-0.1l1.1-0.7c-0.1,0-0.5,0.2-0.3,0.1
							c0.6-0.3,0.6-0.2,1.1-0.6l-0.1,0.2c0,0,0.1,0,0,0c-0.2,0.1-0.3,0.1-0.3,0.1c0.1-0.2,0.8-0.4,1-0.4c0.8-0.4,0.1-0.2,0.2-0.3
							c0.5-0.1,1.4-0.6,1.8-0.8l-0.3,0.1c0.6-0.3,1.1-0.4,1.5-0.6H21c0.9-0.3,1.2-0.6,1.9-0.6h-0.1c0.3-0.1,0.9-0.3,1.2-0.3
							c0,0,0.1-0.1,0.2-0.1c0.2,0,0.6-0.1,1.1-0.2C25,9.1,25.1,9,24.6,9c0.8-0.2,0.8,0,1.5-0.1c0.5-0.1-0.3,0-0.5,0
							C26.9,9,28,8.8,28.7,9h-0.5C28.8,9.2,29,9.2,29,9.2c-0.1,0-0.2,0-0.2,0c0.7,0,1.2,0.1,1.7,0.1c0.6,0.1,1,0.2,1.7,0.3
							c-0.1,0-0.2,0-0.2,0c0.6,0.1,0.6,0.3,1.6,0.4l-0.2-0.1c0.3,0.1,0.6,0.2,0.5,0.2c0.1-0.2,2,0.7,2.7,0.8c0.2,0.1,0.7,0.3,1,0.6
							c0.5,0.2,0.8,0.4,1,0.6c0.6,0.2-0.5-0.3-0.2-0.3c0.5,0.2,0.7,0.4,1.2,0.8c0,0.1-1.4-0.6-0.2,0.2h0.2c-0.1-0.1-0.3-0.1-0.5-0.2
							c-0.3-0.2,0.2,0.1,0.3,0.1l0.7,0.3c0.2,0.1,0.3,0.2,0.7,0.3c0,0,0,0-0.1,0s-0.2-0.1-0.3-0.1C40.2,13.1,40,13,40,13
							c0.1,0.1,0.2,0.1,0.3,0.2l0.2,0.1c0.1,0.1,0.2,0.1,0.3,0.1c0.2,0,0.2,0,0.3,0l0.3,0.2c0.2,0.2,0.5,0.4,0.7,0.6
							c0.2,0.2,0.3,0.3,0.5,0.4l0,0c0.1,0.1,0.1,0.1,0.1,0.2c-0.1,0-0.1-0.1-0.2-0.1l-0.1-0.1l0,0l0,0v0.1l0,0
							c0.1,0.1,0.2,0.2,0.5,0.7c0.3,0.4,0-0.2,0.5,0.4c0.1,0.2,0,0.1,0,0.1c0.6,0.9,0.3,0.3,0.8,1.2V17c0.6,1,0.9,2.2,1.2,3.1
							c0.1-0.1-0.2-0.7-0.2-0.9c0.5,1.3,1.1,3.1,1.2,4.4c-0.1-0.3,0,0.6-0.2-0.1c0.1-0.2-0.1-0.6-0.2-1c0,0.7,0.7,2.8,0.6,3l0.1,0.2
							c0,0.2,0,0.7,0,0.3l0.1,0.6V27v0.1v0.1v-0.1c0,0,0-0.4,0-0.8c0-0.3,0-0.6-0.1-0.7c0-0.4,0.1,0.6,0.2,0.2
							c0,0.9,0.1,0.7,0.2,1.3v0.1c0-0.1-0.1-0.1-0.1-0.1s0,0.1-0.1,0.1c-0.2,0-0.5,0-0.5,0c-0.3,0-1.1,0-1.1-0.1l-0.1,0.1
							c0,0,0.1-0.1,0.1,0c0,0,0-0.2,0-0.3c0-0.3-0.1-0.7-0.1-1.1c-0.3,0-0.7-0.1-0.9-0.1s-0.5,0-0.7-0.1c0.3,0.1,0.9,0.2,0.8,0.2
							c-0.5-0.1-0.9-0.1-1-0.1c1.4,0.3,0.7,0,1.7,0.1c0,0.1,0,0.3,0,0.6c0,0.2,0,0.3,0,0.7c0,0.1,0,0.2,0.1,0.2
							c0.1,0.1,0.2,0.1,0.5,0.1c-0.3,0-0.2,0.1-0.3,0.1s-0.2-0.1-0.3-0.2c0-0.1,0-0.2,0-0.3c0-0.2,0-0.6-0.1-0.9
							c-0.7-0.1-1.4-0.1-1.9-0.2s-0.1-0.2-1.2-0.3h1c-1,0-0.2-0.1-1.1-0.2l0.3,0.1c-0.6,0-0.7-0.1-1-0.1l0.5,0.1
							c-0.3,0-0.8,0-0.8-0.1c-0.1,0-0.1,0-0.1,0.1c0,0-0.2,0-0.6-0.1c0.2,0,0.3,0,0.3,0.1c-1.2-0.1-0.3,0.1-1.1,0c0.1,0-0.1,0-0.3,0
							c0-0.2-1.6-0.3-1.9-0.4l0,0L36,25c0.2,0,0,0.1-0.3,0.1l0,0c-0.3,0,0.5,0.2-0.7,0.1L34.5,25c0.1,0,0,0,0,0h-0.7
							c-0.9,0.1-1.6-0.1-2.6-0.1c0.3,0,0.7,0,0.6,0.1c-0.2,0-0.5,0-0.7,0l0,0l-1.9-0.1C29.3,25,30.4,25,30,25c-0.3,0.1-0.8,0-1.1,0
							c0,0,0.7-0.1,0-0.1c-0.1,0-0.7,0.1-0.5,0.1c-0.7,0-1.6-0.1-2.2-0.1c-0.2,0,0.1,0,0.2,0l0,0c0.5,0,0.1,0.1,0.8,0.1
							c0.1,0.1-1.1,0-1.8,0.1l1.1,0.1c-1.8,0.2-4.3,0.1-6.1,0.1c0.6-0.1,1,0,0.9-0.1c-1.1,0-1,0-2.2,0h0.1c-0.6,0.1-1.4,0-1.7,0.1
							c0.2,0,0.8-0.1,0.8,0l-1.5,0.1c0.5,0,1.5-0.1,1.9-0.1c0.3,0-0.8,0-0.6-0.1c1.4-0.1,1.6,0,2.3,0.1c0.5,0.1-0.6,0.1-0.8,0.1
							c-0.8-0.1-2-0.1-3.4,0.1l-0.7,0.1c-0.7,0-0.3-0.2-1.6-0.1h0.3c-0.2,0-0.5,0.1-0.6,0.1c0.5,0,1,0,1.5,0c-0.7,0.2-1.9,0.1-3,0.2
							c0,0,0.3,0,0.5,0C12.3,26,11.7,26,11.2,26c-0.2,0.1-0.7-0.1-0.7,0.3c0,0.2-0.1,0.6-0.1,0.8c0,0.1-0.1,0.2-0.2,0.2
							c-0.1,0-0.2,0.1-0.3,0.1c-0.2,0.1,0,0,0.2,0s0.5-0.2,0.3-0.1c-0.2,0.2-0.6,0.2-0.8,0.3c-0.2,0.1-0.5,0.1-0.6,0.1
							c0.1,0-0.2,0.1-0.5,0.1c-0.1,0-0.2,0-0.2,0s0.1,0,0.3,0c-0.1,0-0.3,0.1-0.5,0c-0.1,0-0.2-0.2-0.2-0.3c0-0.3,0.1-0.6,0.1-0.9
							c0.1-0.6,0.1-1.1,0.2-1.7c0.2-1.1,0.5-2.2,0.8-3.3c-0.1,0.1-0.1,0.1-0.1,0c-0.2,0.7-0.5,1.7-0.6,2.1c0-0.4,0.3-1.1,0.3-1.2
							c-0.1,0.2-0.2,0.7-0.2,0.7C8.7,22.6,8.9,22.4,9,22v0.2c0.5-1.3,0.5-0.7,0.8-2c0.1-0.6-0.1,0-0.1,0c0.1-0.3,0.5-1.3,0.7-1.7
							c-0.1,0.2-0.2,0.6-0.3,0.8c0.2-0.6,0.6-1.1,0.8-1.5c0,0-0.1,0-0.1,0.1c0.2-0.4,0.6-1,0.7-1.1v-0.2c-0.1,0.2-0.6,1-0.7,1.1
							c0-0.1,0.5-0.9,0.6-1.2c-0.9,1.5-1,1.5-1.6,2.8l0-0.3c-0.3,0.9-0.7,1.7-0.9,2.5c0-0.2,0-0.2,0-0.2C8.4,23,8.1,24.7,8,26.7
							c0,0.2-0.1,0.6-0.1,0.8H8c0.1,0.3,0.3,0.3,0.5,0.3c0.1,0,0.1,0,0.1,0s-0.1,0.1,0.3,0c-0.3,0-0.2,0-0.3,0c0.2,0,0.3,0,0.5,0
							c0.1,0,0.2,0,0.2,0c0.1,0,0.2,0,0.2-0.1c0.1,0,0.1-0.1,0.5-0.1c-0.1,0-0.5,0.1-0.7,0.1s-0.5,0.1-0.2,0c0.3,0,0.6-0.1,0.9-0.1
							c0.2,0,0.8-0.2,0.8-0.6c0-0.2,0-0.3,0.1-0.4c0-0.1,0-0.2,0-0.2c0-0.1,0.1-0.1,0.1,0h0c0,0,0.5-0.1,0.7-0.1s0.6-0.1,0.8-0.1
							c0.6,0,1.1-0.1,1.7-0.1c1.1-0.1,2.3-0.1,3.1-0.2c0.2,0-0.1,0-0.1,0c0.7,0.1,2.4-0.2,2.4-0.1c0.3,0,0.5-0.1,0.6-0.1
							c0.5,0,1,0,1.6,0h-0.5l0,0h0.6l0,0c1.4,0,3.1-0.1,4.3,0c-0.8-0.1,0.2-0.1-0.1-0.1c0.7,0.1,2.3,0.1,3.5,0.1c0,0,0.1-0.1,0-0.1
							l0.7,0.1h-0.1c1.4,0,2.7,0.2,3.6,0.2c-0.6,0-0.6-0.1-0.6-0.1c0.9,0,1.8,0.1,3,0.2c-0.1,0-0.1,0-0.1,0c0.3,0,0.7,0.1,0.9,0.1
							V26c0.6,0.1,1.2,0.1,1.9,0.2c0.2-0.1,1.6,0.2,2.4,0.2c0.3,0-0.7-0.1,0.2-0.1c0.1,0.2,1,0.1,1.1,0.3h0.7l0.1,0.1
							c0.2,0,0.3,0,0.6,0c0.1,0,0.1,0,0.1,0.1v0.1l0,0c0,0.1,0,0.1,0,0.2V27c0,0.1,0,0.2,0,0.2c0,0.1,0,0.2,0,0.3
							c0,0.1,0.1,0.3,0.1,0.2c0,0-0.1-0.2-0.2-0.4c0,0.1,0,0.3,0.2,0.6s0.5,0.3,0.6,0.3c0.3,0.1,0.6,0.1,0.8,0.1
							c0.5,0,0.7,0,0.2-0.1c0,0-0.6,0-1-0.1c0.1,0,0.9,0,1.1,0c0,0,0.1,0,0.2,0h0.1c0.6,0.1,1.2-0.2,1.1-0.8c0-0.3-0.1-0.7-0.1-1
							c0-0.2,0-0.4,0-0.7c0,0-0.1-0.2-0.1-0.6h0.1c-0.1-0.3-0.1-0.7-0.2-1v0.4c-0.2-1-0.2-1.8-0.5-2.7c-0.2-0.2-0.5-1.7-0.9-2.4
							l0.2,0.7c-0.6-1.3-0.7-1.6-1.4-2.8c0.6,1,0.6,1,1.4,2.6c-0.7-1.6-1.1-2.8-2-4c0,0.1,0.2,0.4,0,0.1c-0.1-0.3-0.8-1.2-0.6-1.1
							c-0.1-0.2-0.2-0.3-0.3-0.3l-0.1-0.1l0,0l0,0l-0.3,0.2l0,0l0,0l0,0l0,0l0.5-0.1l0,0l0,0h0.2h0.1l0,0l0,0v0.1l0.1,0.1l0,0l0,0
							h-0.2c-0.1,0-0.1,0-0.1,0l0,0l0,0l0,0l0,0l0,0l0,0l0,0l0,0c0.2,0-0.5,0,0.5,0l0,0l0,0l0,0l0,0l-0.1-0.2c0-0.1-0.2-0.3-0.5-0.4
							l-0.5-0.4l0,0c-0.2-0.2-0.6-0.4-0.8-0.7c-0.1-0.1-0.3-0.2-0.5-0.4c-0.2-0.1-0.7-0.1-0.6-0.1l0,0l0,0l-0.2-0.1L40,12.1
							c-0.2-0.2-0.6-0.3-0.8-0.6c-0.6-0.3-1.1-0.7-1.7-0.9c-0.3-0.2-0.9-0.6-1.6-0.8v0.1l-0.7-0.3c0.5,0.2-0.2,0-0.3,0
							c-0.6-0.2-1.1-0.4-1.7-0.7C33.2,9,33.3,9.2,33.7,9.3z M47.7,25l0.1,0.4c0,0.1,0,0.2,0,0.2v-0.2C47.7,25.2,47.6,25.1,47.7,25z
							 M12.4,26.3c-0.2,0,0.3,0,0.5-0.1l-0.7,0.1C12,26.3,12.3,26.3,12.4,26.3z M47,25.1l-0.1-0.2v-0.3L47,25.1z M45.5,19.5
							c0.1,0.2,0.1,0.3,0.2,0.6l0,0C45.5,19.8,45.5,19.6,45.5,19.5L45.5,19.5z M43.6,14.4v0.1C43.6,14.5,43.6,14.5,43.6,14.4
							c-0.2-0.2-0.5-0.4-0.6-0.6c-0.2-0.1-0.2-0.2-0.3-0.3C42.9,13.7,43.5,14.2,43.6,14.4z M47.1,23c0,0.2,0,0.3,0.1,0.4
							c0-0.1,0-0.6,0.1-0.2c0,0.2,0.1,0.9,0.1,0.9C47.3,23.5,47,23.1,47.1,23z M39.1,25.9L39.1,25.9l-0.5-0.1L39.1,25.9z M36.6,25.7
							c-0.3-0.1-1.1-0.1-1.6-0.1c-0.1,0.1,0.5,0.2,1,0.2C36.7,25.8,36.2,25.7,36.6,25.7z M45.5,18.7v0.1V18.7c0,0.2,0.1,0.4,0.1,0.6
							c-0.3-0.7-0.5-1.2-0.7-1.6C45.2,17.9,45.5,18.9,45.5,18.7z M31.1,25.4c-0.6-0.1-1.5-0.1-1.5-0.2c0,0.1,0.8,0.1,1,0.2
							C30.8,25.4,30.9,25.4,31.1,25.4z M31.1,25.2c0.8,0.1,0.8,0.1,1.5,0.2c-0.8,0-1-0.1-0.9-0.2c-0.6-0.1-0.5,0-0.7,0H31.1z
							 M32,25.6h0.3c0.3,0,0.5-0.1,1,0h-1C32.2,25.6,32.1,25.6,32,25.6z M25.3,25.6h0.3C25.3,25.6,25.3,25.6,25.3,25.6h-0.2
							C25.8,25.4,25.4,25.6,25.3,25.6z M30.4,25.6h0.9C31.2,25.4,30.7,25.4,30.4,25.6z M25.5,25.4c0.3,0,1.1,0,1.2,0
							C26.7,25.4,25.8,25.4,25.5,25.4z M8.9,25.3l-0.1,0.6v-0.3L8.9,25.3z M11.9,26.1h-0.1h-0.3H11.9z M18.2,25.6L18.2,25.6
							c0.1,0,0.2,0.1,0.2,0.1C18.4,25.6,18.3,25.6,18.2,25.6c-0.2,0-0.6,0.1-0.8,0.1c0.1,0,0.5,0,0.7,0c-0.6,0.1-1.9,0-1.5,0.2
							c-0.2,0-1.1,0-0.8-0.1C16.5,25.8,17.7,25.6,18.2,25.6c0,0,0.1,0,0.2,0C18.4,25.6,18.3,25.6,18.2,25.6z M26.8,25.1
							c0.2,0,0.3,0,0.3,0c0.2,0,0.3,0,0.3,0.1c-0.5,0-0.2-0.1-0.3-0.1C27,25.2,26.9,25.1,26.8,25.1z M28.3,25.1h-0.8h0.3L26.7,25
							C27.4,25,28.2,25.1,28.3,25.1z M28.6,25.1l0.1,0.1L28.6,25.1L28.6,25.1L28.6,25.1h1.2H28.6z M42.1,25.9
							c0.6-0.1-1.1-0.2-1.4-0.3c-0.1,0.1-0.6,0.1,0.7,0.2c-1.1,0-0.7-0.2-1.4-0.1c0.6,0,1.1,0.1,1.2,0.1h-0.7
							C41,25.9,41.7,25.8,42.1,25.9z M47.5,27.2L47.5,27.2l-0.1-0.8L47.5,27.2L47.5,27.2L47.5,27.2z M38.3,11.6
							c0,0.1-0.9-0.3-1.1-0.4C37.6,11.3,38.1,11.6,38.3,11.6z M29.9,9.2l0.9,0.1c-0.2,0.1-0.8-0.1-1.2-0.1
							C29.4,9.2,29.7,9.2,29.9,9.2z M23.8,9.5h-0.3H23.8L23.8,9.5z M24.3,9.6c-0.2,0.1,0.5,0,0.6,0H24.3z M19.2,11.3l0.3-0.1h-0.3
							V11.3z M19.6,11c0.1,0,0.1,0.1,0.9-0.2c0-0.1-0.2,0,0.1-0.2c-0.2,0.1-0.5,0.2-0.7,0.2c0.2-0.1,0.5-0.2,0.5-0.1
							C20.2,10.8,19.9,11,19.6,11c0,0-0.1,0-0.2,0C19.5,11.1,19.5,11.1,19.6,11z M22.7,9.8c0.1,0,0.2-0.1,0.2-0.1l0,0
							C22.9,9.8,22.8,9.8,22.7,9.8s-0.2,0.1-0.5,0.1c-0.1,0.1,0.6,0,0.7,0C22.7,10,22.3,10,22,10.1c0,0,0,0,0.2,0l-0.5,0.1
							c-0.6,0.1,0-0.1,0.5-0.2c0,0,0,0,0.1-0.1C22.5,9.8,22.6,9.8,22.7,9.8z M18.6,11.2l0.2-0.1c0.1,0,0.1,0,0.1,0
							C18.7,11.3,18.3,11.4,18.6,11.2z M35.8,10.4c-0.2,0,0.2,0.1,0.6,0.3h-0.2c0-0.1-0.8-0.3-0.9-0.4
							C35.1,10.2,35.4,10.4,35.8,10.4z M47.1,24.4c-0.1,0.2,0.1,1.2,0.1,1.5C47.2,25.3,46.9,24.1,47.1,24.4z M47.5,26.2
							c0,0.3,0.1,0.3,0,0.3c0,0.1,0,0.3,0,0.4c0,0,0,0,0,0.1c0,0,0,0,0-0.1C47.3,26.6,47.5,26.6,47.5,26.2c0-0.1,0-0.1,0-0.2
							C47.5,26.1,47.5,26.2,47.5,26.2z M43.5,15.2l-0.2-0.3L43,14.7v-0.1l0,0l0,0l0,0l-0.1,0.1l0,0l0,0h0.2l0,0l0,0l0,0h0.1l0,0l0,0
							l0.1,0.1l-0.1-0.1l0,0l0,0l0,0h-0.1l0,0l0,0h-0.2l0,0l0,0l0,0l0,0H43l0,0l0,0l0,0l0,0l0.1,0.2L43.5,15.2z M39.2,11.7
							c0,0.1-0.7-0.2-0.8-0.3C38.4,11.5,38.9,11.7,39.2,11.7c0.1,0.1,0.1,0.2,0.2,0.2C39.3,11.9,39.3,11.8,39.2,11.7
							C39.1,11.7,39.2,11.7,39.2,11.7l0.2,0.1l-0.6-0.3L39.2,11.7z M27.5,8.7c-0.5,0.1-0.5,0-0.8,0C26.8,8.7,27.1,8.7,27.5,8.7z
							 M42.3,13.4c-0.6-0.4,0.2,0.3-0.2,0l0.3,0.2c-0.6-0.3-0.3-0.3-0.7-0.6l0.2,0.2c0.2,0.1-0.2-0.3-0.3-0.4
							c0.2,0.2,0.3,0.3,0.6,0.4C42.3,13.4,42.5,13.4,42.3,13.4z M26.8,8.7c-0.7,0.1-0.6,0-1,0C26.3,8.6,26.2,8.7,26.8,8.7z
							 M38.4,11.1L38.4,11.1l-0.5-0.3l0,0L38.4,11.1z"/>
						<path class="st0" d="M25.9,9.4c-0.2,0-0.3,0-0.3,0C25.7,9.5,25.8,9.4,25.9,9.4z"/>
						<path class="st0" d="M46.8,27.2L46.8,27.2L46.8,27.2z"/>
						<path class="st0" d="M45.6,27.1L45.6,27.1L45.6,27.1L45.6,27.1z"/>
						<path class="st0" d="M11.4,18c0.2-0.2-0.1,0.2-0.2,0.4C11.2,18.4,11.2,18.3,11.4,18z"/>
						<path class="st0" d="M10.4,19.7c0.1-0.1,0.2-0.3,0.2-0.6C10.6,19.4,10.6,19.5,10.4,19.7z"/>
						<path class="st0" d="M11,18.4c-0.1,0.3-0.2,0.7-0.3,0.9C10.8,18.9,10.8,18.8,11,18.4z"/>
						<path class="st0" d="M9.1,24.7c0.1-0.3,0.2-0.9,0.2-0.9c-0.2,1.2,0.1-0.2,0.2-0.3C9.3,24.2,9.2,24.2,9.1,24.7z"/>
						<path class="st0" d="M8.7,26.3c0-0.1,0-0.2,0-0.3C8.9,26.1,8.9,26.2,8.7,26.3z"/>
						<path class="st0" d="M8.7,26.8c-0.1,0.4-0.1,0.6-0.2,0.8c0-0.6,0.1-0.9,0.2-1.2C8.7,26.6,8.7,26.9,8.7,26.8z"/>
						<path class="st0" d="M19.9,25.1c-0.1,0-0.3,0-0.3,0h0.7C20.6,25,20.1,25,19.9,25.1z"/>
						<path class="st0" d="M22.6,25.1c0.6,0,0.2-0.1,0.6-0.1v0.1H22.6z"/>
						<path class="st0" d="M22.4,25.7h-0.2C22.3,25.7,22.3,25.7,22.4,25.7L22.4,25.7z"/>
						<path class="st0" d="M25.4,24.9L25,24.8C25.5,24.8,25.5,24.9,25.4,24.9z"/>
						<polygon class="st0" points="27.7,24.8 27.4,24.8 28.5,24.8 						"/>
						<polygon class="st0" points="30.4,24.9 30.5,24.9 31.2,24.9 						"/>
						<path class="st0" d="M44.2,17.1c0-0.1,0.6,0.9,0.7,1.2C44.7,18.1,44.5,17.5,44.2,17.1z"/>
						<path class="st0" d="M26.9,9.3H28C27.1,9.4,27.8,9.3,26.9,9.3z"/>
					</g>
				</g>
			</g>
		</g>
	</g>
	<g>
		<path class="st0" d="M26.2,36.5c0-0.9,0-1.3,0-2.2c-3.2,0.1-7.7,0.1-12.5-0.3c-1.5-0.1-2.8-0.3-4.1-0.4c-0.3,0-0.6-0.1-0.6-0.3
			c0-0.1,0.2-0.2,0.5-0.1c6.6,0.6,23.2,0.6,31.6-1.6c0.9,0.2,1.5,0.3,2.4,0.6c0.3,0.1,0.6,0.2,0.5,0.2c0,0.1-0.3,0.2-0.8,0.3
			c-0.1,0-1.2,0-1.5,0c-3.7,0.5-8,1.1-12.7,1.3c0,1,0,1.5,0,2.4c6.7,0,9.9-0.3,15.4-1c1.2-0.6,1.8-0.9,3-1.3c1,0.2,1.6,0.3,2.5,0.4
			c0.2,0,0.3,0.1,0.2,0.2c0,0.2-0.3,0.4-1,0.6c-6.4,1.3-10.3,1.8-18.6,2c4.4,2,9.1,2.5,11.7,2.2c2.2-0.1,4.2-0.4,5.9-1
			c0.1,0,0.3,0,0.2,0c0,0.1-0.3,0.2-0.9,0.6c-0.5,0.2-0.9,0.4-0.9,0.7c-0.1,0.2-0.3,0.3-0.5,0.4c-0.5,0.1-10,1.5-16.9-2.8
			c-0.1,0-0.1,0-0.1,0c0,2,0,2.9,0,4.8c0,0.3-1.6,0.3-1.9,0.3c-0.5,0-0.6-0.1-0.6-0.4c0-1.9-0.1-2.8-0.1-4.8c-0.1,0-0.2,0-0.3,0
			c-5,3.8-17.1,2.2-17.8,2c-0.1,0-0.3-0.1-0.3-0.2c0,0,0-0.1,0.1-0.1c4.8,1.5,12.3,0.2,15.1-1.8c-7.3-0.3-10.7-0.8-16.2-1.9
			c-0.2-0.2-0.2-0.3-0.5-0.6C12.9,35.8,17.3,36.3,26.2,36.5z M32.5,42.5c0.3-0.2,0.5-0.3,0.8-0.4c0.7,0.1,1,0.2,1.6,0.3
			c0.2,0,0.5,0.1,0.3,0.2C35.1,42.7,35,43,34.6,43c-0.3,0.1-0.6,0.2-0.7,0.3c-0.5,0.7-0.7,1.1-1.1,1.8c3.2-0.3,4.7-0.7,7.5-1.5
			c0.5-0.3,0.6-0.6,1-0.8c0.7,0,0.9,0,1.6,0c0.3,0,0.5,0,0.3,0.1c0,0.1-0.3,0.4-0.9,0.7c-0.3,0.1-0.6,0.3-0.7,0.4
			c-0.6,0.9-1.4,1.7-2,2.6c-1.2,1.5-2.3,3-6.1,4.2c-0.1-0.6-0.9-0.6-3.1-0.6c-0.2,0-0.3-0.1-0.3-0.2c0-0.1,0.1-0.2,0.5-0.2
			c0.1,0,0.1,0,0.2,0c1.6,0,2.8-0.1,3.5-0.3c2.2-0.6,3.1-1.7,3.9-2.8c0.6-0.8,0.8-1.1,1.4-1.9c0.1-0.2,0.2-0.2,0.3-0.4
			c-2.8,0.9-4.3,1.1-7.5,1.5c-0.3,0.6-0.6,0.8-0.9,1.2c-0.3,0.1-0.5,0.1-0.7,0.2c-1.4,0.1-1.5,0.1-1.5,0c0,0,0-0.1,0.1-0.1
			c1.1-1.2,2.2-2.6,2.8-3.9c-3.9,0.3-5.9,0.2-9.7-0.1c-0.1,1.5-1.1,3.7-3.4,4.4c-3,0.8-6.7-2.1-6.8-2.1c0-0.3-0.3-0.4-0.3-0.5
			c-0.1,0,0,0,0.1,0c4.1,3.4,7.8,1.7,8.1-2.2c-2.5-0.3-3.7-0.6-6-1.2c-0.1-0.2-0.2-0.4-0.5-0.7C20.6,42.6,24.9,43.1,32.5,42.5z"/>
		<g>
			<path class="st0" d="M26.2,36.5c0-0.9,0-1.3,0-2.2c-3.2,0.1-7.7,0.1-12.5-0.3c-1.5-0.1-2.8-0.3-4.1-0.4c-0.3,0-0.6-0.1-0.6-0.3
				c0-0.1,0.2-0.2,0.5-0.1c6.6,0.6,23.2,0.6,31.6-1.6c0.9,0.2,1.5,0.3,2.4,0.6c0.3,0.1,0.6,0.2,0.5,0.2c0,0.1-0.3,0.2-0.8,0.3
				c-0.1,0-1.2,0-1.5,0c-3.7,0.5-8,1.1-12.7,1.3c0,1,0,1.5,0,2.4c6.7,0,9.9-0.3,15.4-1c1.2-0.6,1.8-0.9,3-1.3c1,0.2,1.6,0.3,2.5,0.4
				c0.2,0,0.3,0.1,0.2,0.2c0,0.2-0.3,0.4-1,0.6c-6.4,1.3-10.3,1.8-18.6,2c4.4,2,9.1,2.5,11.7,2.2c2.2-0.1,4.2-0.4,5.9-1
				c0.1,0,0.3,0,0.2,0c0,0.1-0.3,0.2-0.9,0.6c-0.5,0.2-0.9,0.4-0.9,0.7c-0.1,0.2-0.3,0.3-0.5,0.4c-0.5,0.1-10,1.5-16.9-2.8
				c-0.1,0-0.1,0-0.1,0c0,2,0,2.9,0,4.8c0,0.3-1.6,0.3-1.9,0.3c-0.5,0-0.6-0.1-0.6-0.4c0-1.9-0.1-2.8-0.1-4.8c-0.1,0-0.2,0-0.3,0
				c-5,3.8-17.1,2.2-17.8,2c-0.1,0-0.3-0.1-0.3-0.2c0,0,0-0.1,0.1-0.1c4.8,1.5,12.3,0.2,15.1-1.8c-7.3-0.3-10.7-0.8-16.2-1.9
				c-0.2-0.2-0.2-0.3-0.5-0.6C12.9,35.8,17.3,36.3,26.2,36.5z M32.5,42.5c0.3-0.2,0.5-0.3,0.8-0.4c0.7,0.1,1,0.2,1.6,0.3
				c0.2,0,0.5,0.1,0.3,0.2C35.1,42.7,35,43,34.6,43c-0.3,0.1-0.6,0.2-0.7,0.3c-0.5,0.7-0.7,1.1-1.1,1.8c3.2-0.3,4.7-0.7,7.5-1.5
				c0.5-0.3,0.6-0.6,1-0.8c0.7,0,0.9,0,1.6,0c0.3,0,0.5,0,0.3,0.1c0,0.1-0.3,0.4-0.9,0.7c-0.3,0.1-0.6,0.3-0.7,0.4
				c-0.6,0.9-1.4,1.7-2,2.6c-1.2,1.5-2.3,3-6.1,4.2c-0.1-0.6-0.9-0.6-3.1-0.6c-0.2,0-0.3-0.1-0.3-0.2c0-0.1,0.1-0.2,0.5-0.2
				c0.1,0,0.1,0,0.2,0c1.6,0,2.8-0.1,3.5-0.3c2.2-0.6,3.1-1.7,3.9-2.8c0.6-0.8,0.8-1.1,1.4-1.9c0.1-0.2,0.2-0.2,0.3-0.4
				c-2.8,0.9-4.3,1.1-7.5,1.5c-0.3,0.6-0.6,0.8-0.9,1.2c-0.3,0.1-0.5,0.1-0.7,0.2c-1.4,0.1-1.5,0.1-1.5,0c0,0,0-0.1,0.1-0.1
				c1.1-1.2,2.2-2.6,2.8-3.9c-3.9,0.3-5.9,0.2-9.7-0.1c-0.1,1.5-1.1,3.7-3.4,4.4c-3,0.8-6.7-2.1-6.8-2.1c0-0.3-0.3-0.4-0.3-0.5
				c-0.1,0,0,0,0.1,0c4.1,3.4,7.8,1.7,8.1-2.2c-2.5-0.3-3.7-0.6-6-1.2c-0.1-0.2-0.2-0.4-0.5-0.7C20.6,42.6,24.9,43.1,32.5,42.5z"/>
			<g>
				<g>
					<g>
						<path class="st0" d="M29.4,42.6c0.1,0,0.1,0,0.2,0C29.4,42.7,29.3,42.7,29.4,42.6z"/>
						<path class="st0" d="M32.5,42.5c-0.8,0.1-2,0.1-2.8,0.1C30.3,42.6,32.2,42.4,32.5,42.5z"/>
						<path class="st0" d="M29.3,42.5h1C29.6,42.5,29.7,42.5,29.3,42.5z"/>
						<polygon class="st0" points="29.6,42.6 29.6,42.6 29.1,42.6 						"/>
						<path class="st0" d="M26,43c-0.1,0-0.1,0-0.1-0.1L26,43z"/>
						<path class="st0" d="M28.4,43.2c0.2,0,0.3,0,0.5,0C28.7,43.2,28.5,43.2,28.4,43.2z"/>
						<path class="st0" d="M24,42.9h0.5C24.2,42.9,24.1,42.9,24,42.9z"/>
						<path class="st0" d="M20.4,43.2c0-0.1,0-0.2,0.1-0.3c0-0.1,0.1-0.2-0.1-0.2s-0.5-0.1-0.6-0.1c0.2,0,0.5,0.1,0.6,0.1
							s0.2,0,0.1,0.1v0.1C20.6,43,20.4,43.1,20.4,43.2z"/>
						<path class="st0" d="M30.9,47.8c0,0,0.1,0,0.1-0.1c0.1,0,0.1,0,0.1,0C31.1,47.8,31.1,47.8,30.9,47.8z"/>
						<path class="st0" d="M29,43.8L29,43.8c0.1,0,0.1,0,0.2,0H29z"/>
						<path class="st0" d="M22.4,43.3L22.4,43.3c0,0.2-0.1,0.3-0.1,0.4C22.3,43.6,22.4,43.4,22.4,43.3z"/>
						<path class="st0" d="M33.4,46.3c0.1,0,0.3,0,0.5,0C33.5,46.3,33.4,46.3,33.4,46.3z"/>
						<path class="st0" d="M28.8,43.2L28.8,43.2L28.8,43.2L28.8,43.2z"/>
						<path class="st0" d="M25.5,43.8c0.2,0,0.3,0,0.6,0C25.9,43.8,25.7,43.8,25.5,43.8z"/>
						<path class="st0" d="M20.4,43.2c0,0.1,0,0.2-0.1,0.3C20.4,43.4,20.4,43.3,20.4,43.2z"/>
						<path class="st0" d="M26.7,42.9c-0.3,0-0.5,0-0.5,0C26.5,42.7,26.6,42.7,26.7,42.9z"/>
						<path class="st0" d="M33.3,42.3L33.3,42.3L33.3,42.3z"/>
						<path class="st0" d="M39.3,44.4C39.4,44.4,39.4,44.4,39.3,44.4C39.3,44.4,39.3,44.4,39.3,44.4z"/>
						<path class="st0" d="M39.2,48.1c0.6-0.7,1.1-1.2,1.6-1.8l-0.2,0.1l0.5-0.6l0,0c0.5-0.6,0.9-1.1,1.2-1.6h-0.1
							c0.1,0,0.2-0.1,0.5-0.1c0.1,0,0.2-0.1,0.5-0.1H43c0.2-0.1,0.3-0.1,0.6-0.3c0.1-0.1,0.2-0.1,0.2-0.2l0.1-0.1
							c0-0.1,0.1,0,0.2-0.3v0.1c0-0.1,0.1-0.1,0.1-0.3c0-0.1-0.1-0.3-0.2-0.4c-0.2-0.1-0.3-0.1-0.3-0.2c0.1,0,0.2,0,0.3,0.2
							c0.1,0.1,0.2,0.2,0.2,0.4c0,0.1,0,0.2-0.1,0.3v-0.1c-0.1,0.2-0.1,0.2-0.2,0.3l-0.1,0.1c-0.1,0.1-0.2,0.1-0.2,0.2
							c0.1-0.1,0.1-0.1,0.2-0.2l0.1-0.1c0-0.1,0.1,0,0.2-0.2v0.1c0-0.1,0.1-0.2,0-0.4s-0.2-0.3-0.3-0.3c-0.1-0.1-0.2-0.1-0.3-0.1
							s-0.2,0-0.3,0h-0.5c-0.1,0-0.3,0-0.5,0H42c-0.1,0-0.3,0-0.5,0c-0.6,0.4-1,0.8-1.1,0.8c0,0,0,0,0.1,0c-0.1,0.1,0,0-0.1,0.1
							c-0.1,0-0.2,0-0.3,0.1h0.2c-2,0.6-2.5,0.9-4.9,1.1c-0.7,0.1,0.3,0,0.3,0c-0.1,0-0.5,0.1-0.7,0.1s-0.6,0-0.6,0s0.3,0,0.5,0
							s0.2,0-0.1,0.1c-0.2,0-0.2,0-0.1,0l0,0c-0.1,0-0.2,0-0.3,0s-0.1-0.1-0.1-0.1c-0.1,0-0.2,0-0.2,0.1H34h-0.1c0,0-0.1,0,0,0
							c0.2-0.2,0.1-0.1,0.1-0.1h0.1c0,0,0,0,0.1-0.2c0-0.1,0.1-0.1,0.1-0.2v-0.1l0.1-0.2c0.1-0.1,0.1-0.3,0.2-0.4l0,0l0,0
							c0,0,0.2-0.2,0.3-0.2c0.2-0.1,0.5-0.1,0.8-0.3c0.1-0.1,0.1-0.3,0-0.3c-0.1-0.1-0.1-0.1-0.2-0.1c-0.1,0-0.1,0-0.1,0
							s0,0,0.1,0.1s0.1,0-0.7-0.1c0.2,0,0.3,0.1,0.6,0.1c0.2,0,0.3,0.2,0.2,0.3c0.1-0.1,0-0.1,0-0.1s-0.1-0.1-0.6-0.1
							c-0.2-0.1-0.7-0.2-1.1-0.3c0.8,0.2,0.5,0.2,0.1,0.1c-0.3,0-0.6,0,0,0.1h-0.2c-0.1,0-0.1,0-0.2,0l0,0L33,43.1
							c0.2-0.1,0.6-0.3,0.7-0.3c0.1,0,0.2,0.1,0.1,0.1c-0.1,0-0.1,0-0.2,0.1l-0.5,0.3c0.3-0.1,0,0.1,0,0.1l0.3-0.2
							c0.1-0.1,0.2-0.1,0.2-0.1l0,0l0.3,0.1l0.8,0.2c0.1,0,0.1,0,0.2,0.1l0,0l0,0v-0.1c0.1-0.2,0.2-0.3,0.2-0.3l0,0l0,0l0,0l0,0h0.1
							l0,0l0,0l0,0c0,0-0.1-0.1-0.2-0.1l0.1,0.1c0,0,0,0,0.1,0l0,0l0,0l0,0l0,0l0,0h-0.1l0,0l0,0c0,0,0,0-0.1,0.1s-0.1,0.3-0.1,0.2
							l0,0c0.1-0.3,0.2-0.3,0.2-0.3l0,0l0,0l0,0h0.1l0,0l0,0l0,0l0,0c0,0-0.1,0-0.1-0.1c-0.1,0-0.2-0.2-0.2-0.2h-0.1
							c-0.1,0-0.1,0-0.2,0c-0.1,0-0.3,0.1-0.6,0.2c0.2-0.1,0.3-0.1,0.5-0.1c-0.1,0-0.2,0,0,0c0.3-0.1,0.3-0.1,0.3-0.1
							c-0.1,0.1-0.1,0.1-0.5,0.2c-0.2,0.1-0.6,0.1-0.8,0.6v-0.1c-0.1,0.1-0.1,0.2-0.2,0.2C33.1,44,33,44.4,33,44.3
							c0.1-0.1,0.2-0.2,0.1-0.1c-0.3,0.3-0.7,1-1.1,1.6l0.1,0.2v0.1h0.1c0.2,0,0.3,0,0.6-0.1c0.3,0,0.7-0.1,0.9-0.1H33
							c0.3-0.1,0.7-0.1,0.9-0.1s0.5-0.1,0.7-0.1c0.3,0,0.7-0.1,0.9-0.1h-0.2c1.1-0.1,1.6-0.4,2.5-0.4h-0.1c0.5-0.1,1.1-0.3,1.6-0.4
							c0,0,0.1-0.1,0.2-0.1c0.1,0,0.3,0,0.6-0.1c0.1,0,0.2-0.1,0.5-0.1c0.2-0.1,0.3-0.2,0.5-0.3c-0.3,0.2-0.3,0.2-0.8,0.2
							c0.1,0,0.2-0.1,0.3-0.1c0.1-0.1,0.1-0.1,0.2-0.2c0.1-0.1,0.2-0.1,0.3-0.2c0.2-0.1,0.5-0.3,0.7-0.3c0.1,0,0.1,0,0.1,0h-0.1
							c-0.1,0-0.1,0-0.2,0.1c-0.1,0.1-0.1,0.1-0.2,0.1c0.2-0.1,0.2-0.3,0.5-0.2c0.2,0,0.5,0,0.7,0s0.5,0,0.7,0c0.1,0,0.2,0,0.3,0
							s0.2,0,0.1,0l0,0c-0.2,0.3-0.6,0.6-0.9,0.6c0.1-0.1,0.3-0.2,0.5-0.3c-0.5,0.2-0.7,0.3-0.7,0.3c0.1-0.1,0.2-0.1,0.2-0.1
							c-0.3,0.1-0.7,0.3-0.9,0.6l0,0c-0.7,0.8-1.2,1.3-2,2.4c0.1-0.1,0.2-0.2,0.3-0.2c-0.5,0.6-0.6,0.4-1.4,1.3l0.2-0.1
							c-0.2,0.3-0.5,0.4-0.5,0.4c0,0.1-0.3,0.6-0.9,1c-0.6,0.4-1.2,0.8-1.6,1.1c-0.5,0.1-1.5,0.4-2.2,0.7l0.3,0.2
							c-0.1-0.4-0.5-0.6-0.6-0.6c-0.5-0.1-0.2,0,0,0.1s0.5,0.4,0.2,0.3c-0.2-0.2-0.5-0.2-0.7-0.3s-0.6-0.1-1-0.1
							c0-0.1,1.8-0.1,0.1-0.2H32c0.2,0,0.5,0,0.7,0c0.5,0.1-0.3,0-0.5,0.1h-0.9h-0.5c-0.1,0-0.1,0-0.2,0l0,0l-0.1,0.1
							c0,0,0,0,0.1-0.1c0-0.1,0.1,0,0.2,0c0.2,0,0.6,0,0.6,0c-0.2,0-0.5,0-0.8,0c-0.1,0,0,0-0.1,0.1l0,0c0,0,0.1,0,0.1,0.1
							c0,0,0.1-0.1,0.2-0.1c0,0,0.1,0,0.2,0l0,0c0.9,0,1.8-0.1,2.6-0.1h-0.1c0.8-0.1,1-0.2,1.2-0.2c0.2-0.1,0.3-0.1,1-0.3
							c0.7-0.3-0.2,0,0.7-0.4c0.2-0.1,0.1,0,0.1,0c0.6-0.3,0.7-0.4,0.7-0.6c0.1-0.1,0.2-0.2,0.6-0.6l-0.2,0.1c1-1,1.9-2.2,2.6-3.1
							c0,0-0.2,0.1-0.3,0.3s-0.3,0.3-0.5,0.4c0.2-0.3,0.6-0.7,0.9-1l0.5-0.3L40,44.2c-1.4,0.4-3,0.9-4.1,1c0.5-0.1-0.7,0,0.2-0.2
							c0.2,0.1,0.7-0.1,1.2-0.2c-0.9,0-3.4,0.8-3.7,0.6l-0.2,0.1c-0.2,0-0.8,0-0.5,0l-0.6,0.1c-0.1,0-0.2,0.1-0.2,0.2L31.9,46
							l-0.5,0.7c0.1-0.1,0.2-0.2,0.3-0.4L32,46c0.1-0.1,0.2-0.2,0.3-0.3c0.3,0,0.6,0,0.7,0c0.2,0,0.3,0,0.5-0.1
							c0.5,0-0.7,0.1-0.2,0.2c-0.3,0-0.5,0-0.7,0c-0.1,0-0.1,0-0.2,0c0,0,0,0.1-0.1,0.1c-0.1,0.2-0.1,0.3-0.6,0.8
							c0.1-0.2-0.1,0-0.3,0.2c-0.1,0.1-0.7,0.2-0.6,0.1c-0.2,0.1-0.7,0.1-0.7,0c0,0,0-0.1,0.1-0.1c0.3-0.4,0.9-1.2,1.4-1.8
							c-0.2,0.3-0.7,0.8-0.7,0.7c0.3-0.4,0.7-0.9,0.7-1c-0.7,0.7-0.7,0.8-0.7,0.9c0,0.1,0,0.1-0.1,0.2c-0.1,0.1-0.2,0.3-0.5,0.6
							c-0.1,0.1-0.3,0.2-0.5,0.4c-0.1,0.1-0.2,0.2-0.2,0.3c0.1,0.1,0.3,0,0.5,0c-0.5,0.2-0.3,0.2-0.6,0.2c-0.1,0-0.2,0-0.1-0.2
							c0-0.1,0.1-0.2,0.2-0.3c0.8-0.8,1.5-1.9,2.2-2.8c0.2-0.2,0.2-0.3,0.5-0.4c0.1-0.1,0.1-0.2,0.2-0.3c0.1-0.1,0.1-0.2,0.2-0.3
							c0.2-0.2-0.1-0.1-0.3-0.1h0.5c0,0.1-0.1,0.2-0.1,0.3L32.5,44c0.5-0.8,0.5-0.9,0.6-1c0,0,0.1-0.1,0.1-0.2c-0.1,0-0.2,0-0.7,0
							h0.6c-0.9,0.1-1.2,0.1-1.8,0l0.8,0.1c-0.2,0-0.6,0-0.8,0.1c-0.2,0-0.3,0-0.3,0c-0.1,0-0.1,0-0.1,0.1c-0.1,0-0.2,0-0.7,0
							c0.2,0,0.5,0,0.5,0c-1.6,0-0.3,0.1-1.4,0.1c0.1,0-0.1,0.1-0.5,0.1c0-0.1-1.9-0.2-2.4-0.3l0,0L25,42.7c0.2,0,0,0.1-0.5,0h0.1
							c-0.5,0,0.5,0.2-0.8,0.1h-0.9c0.1,0,0,0,0,0c-0.1,0-0.2,0-0.3,0c0,0.1-0.1,0.3-0.1,0.6c0,0.2,0,0.3,0,0.4c0,0.1,0,0.2-0.1,0.3
							c-0.1,0.2-0.2,0.4-0.3,0.7c-0.2,0.4-0.6,0.8-0.9,1.2c0.2-0.2,0.5-0.7,0.5-0.4c-0.1,0.2-0.3,0.4-0.5,0.6l0,0
							c-0.6,0.6-1.1,0.9-1.8,1c0.1,0,0.5-0.1,0.7-0.2c0.2-0.1,0.3-0.2,0.1,0c-0.2,0.2-0.9,0.3-1.2,0.4c0,0,0.7-0.2,0-0.1
							c-0.1,0-0.8,0.1-0.5,0.1c-0.8,0-1.8-0.2-2.4-0.6c-0.2-0.1,0.1,0.1,0.2,0.1l0,0c0.5,0.1,0,0.1,0.9,0.3c0,0.2-1.2-0.2-2-0.7
							c0.3,0.2,0.8,0.4,1.1,0.6c-1-0.2-2.3-0.8-3.3-1.6c-0.2-0.2-0.5-0.3-0.7-0.7c0,0,0-0.1-0.1-0.1l0,0c0,0,0,0.1,0,0l0,0l0,0l0,0
							l0.2,0.1l0.3,0.3c0.5,0.3,1,0.7,1.5,0.9c-0.6-0.2-1-0.6-1-0.4c1.1,0.8,1,0.7,2.4,1h-0.1c0.7,0.1,1.8,0.2,2.3-0.1
							c-0.3,0-1,0.2-1,0.1c0.6,0,1.1-0.1,1.7-0.4c-0.2,0.1-0.7,0.2-1.1,0.3c-0.2,0-0.5,0-0.7,0.1c-0.2,0-0.5,0-0.6,0
							c-0.5,0,1,0.1,0.8,0.1c-0.8,0-1.4-0.1-1.7-0.3c-0.3-0.1-0.7-0.3-0.9-0.6C14,45.5,15,46,15.2,46.1c0.5,0.2,1,0.4,1.8,0.3
							c0.7,0,1.5-0.2,2.2-0.8c0.2-0.2,0.3-0.4,0.6-0.7c0.2-0.2,0.3-0.3,0.6-0.4c0.1-0.1,0.1-0.2,0.2-0.3s0.2-0.4,0.2-0.8l-0.2,0.4
							c0.1-0.3,0.1-0.6,0.1-0.7c-0.2,0.6-0.5,1.2-0.8,1.6c0.1-0.3,0.5-0.9,0.6-1.5c0.1-0.3,0.1-0.6,0.2-0.9
							c-0.2-0.1-0.7-0.1-0.9-0.2c0,0,0.5,0.1,0.6,0.1c-1.8-0.2-3.5-0.8-4.8-1.1c-0.6-0.1,1.1,0.3,0.8,0.3c-0.7-0.2-1.5-0.3-1.6-0.4
							c0,0.4-0.9-1.3-0.2-0.1L13.9,41l-0.1-0.1h0.1c2.4,0.6,4.9,1.2,7.3,1.6c-0.1,0-0.1-0.1,0-0.1c-0.9-0.1-2.2-0.3-2.6-0.6
							c0.6,0,1.4,0.3,1.5,0.3c-0.3-0.1-0.9-0.2-0.9-0.2c0.8,0.1,1.1,0.2,1.7,0.3h-0.3c1.6,0.3,0.9,0.3,2.6,0.4c0.7,0,0-0.1,0-0.1
							c0.5,0.1,1.7,0,2.2,0.1h-1c0.8,0.1,1.5,0.1,1.9,0.1c0,0-0.1,0-0.2,0c0.6,0,1.4,0,1.7,0.1l0.1-0.1c-0.3,0.1-1.4,0.1-1.6,0
							c0.1-0.1,1.1,0,1.6,0c-2,0-2-0.2-3.9-0.2h0.3c-1.1,0-2.2-0.2-3.1-0.3c0.2,0,0.3,0,0.2,0c-2-0.2-4.1-0.7-6.5-1.1l-0.6-0.3l0,0
							c-0.1,0-0.2-0.1-0.3-0.1l-0.6-0.1l0.3,0.6c0.1,0.2,0.1,0.2,0.1,0.2s0,0,0,0.1c0,0,0,0.1,0.2,0.3c0-0.3,0-0.3,0-0.3s0,0,0-0.1
							c0.1,0.2,0.2,0.3,0.2,0.4c0.2,0,0.3,0.1,0.5,0.1c0.1,0,0.2,0,0.2,0c0.1,0,0.1,0,0.6,0.1c-0.1-0.1-0.6-0.2-0.8-0.2
							c-0.5,0-0.5-0.3-0.3-0.2c1.4,0.6,3.4,0.9,3.6,1.1c0.7,0.1,1.2,0.2,1.9,0.3h0.2c0,0,0,0.1,0,0.2v0.1L20,43.6
							c0,0.1-0.1,0.3-0.1,0.4c-0.5,1.2-1.4,2-2.3,2.2c-0.2,0.1,0.1,0,0.1,0c-0.3,0.1-1,0.1-1.6,0.1c-0.6-0.1-1-0.2-1-0.2
							C14.8,46,14.5,46,14.4,46c-0.2-0.1-0.5-0.2-0.7-0.4c-0.2-0.1-0.5-0.3-0.8-0.6l0.3,0.3l0,0L12.7,45l0,0
							c-0.1-0.1-0.1-0.1-0.2-0.2l0,0l0,0c0,0,0,0-0.1,0s-0.2,0-0.2,0S12,44.9,12,45.1s0,0.1,0,0.1l0,0c0.1,0.1,0,0.1,0.1,0.1
							l0.1,0.1l0.1,0.1c0.1,0.1,0.1,0.1,0.2,0.2l0.2,0.2c0.3,0.2,0.8,0.6,1.1,0.8c0.8,0.4,1.6,0.9,2.4,1.1c-0.9-0.3,0.2,0-0.1-0.2
							c0.3,0.2,1,0.4,1.8,0.6s1.8-0.1,2.5-0.6c0,0,0.1-0.1-0.1,0c0.3-0.1,0.6-0.3,0.8-0.4H21c0.7-0.6,1.2-1.2,1.6-1.9
							c0.2-0.3,0.3-0.7,0.5-1c0.1-0.4,0.1-0.3,0.1-0.4l0,0l0,0c0,0.2-0.1,0.1-0.1,0.2c0-0.1,0-0.2,0.1-0.3c0.8,0.1,1.6,0.1,2.5,0.2
							c-0.1,0-0.1,0-0.1,0c0.3,0,0.8,0.1,1.1,0.1V44c0.7,0.1,1.6,0,2.4,0.1c0.1,0,0.7,0,1.2,0c0.2,0,0.6,0,0.8,0c0.1,0,0.2,0,0.3,0
							c0.1,0-0.2-0.1,0.2-0.1v0.1l-0.1,0.1c0,0.1-0.1,0.2-0.2,0.1l0,0l-0.1,0.2h-0.3l-0.2,0.1c-0.1,0.3-0.3,0.6-0.6,0.8
							c-0.1,0.1-0.2,0.2-0.3,0.3c-0.1,0.1-0.2,0.2-0.3,0.4c-0.1,0.1-0.3,0.3-0.5,0.6c0-0.1,0.2-0.2,0.2-0.1
							c-0.1,0.1-0.1,0.2-0.2,0.3s-0.1,0.2-0.1,0.3c0,0.2,0,0.3-0.1,0.1c0,0.1,0,0.1,0,0.2c0,0.1,0.1,0.2,0.2,0.3s0.6,0.2,1,0.2
							c0.9-0.1,1.5-0.1,0.6-0.1c0.1,0-0.3,0.1-0.8,0.1S29,47.9,29,47.8c0,0,0.2,0.1,0.6,0.1c0.3,0,0.9-0.1,1.1-0.1c0,0,0.2,0,0.3,0
							l0.1-0.1c0.1,0,0.3-0.1,0.5-0.1c0.1,0,0.2,0,0.3-0.1l0.2-0.2c0.1-0.2,0.3-0.4,0.5-0.7l0.1-0.2h0.1c0.1,0,0.5,0,0.6,0
							c0,0,0.2-0.1,0.6-0.1v0.1l1.1-0.2h-0.6c1.2-0.2,2.3-0.2,3.3-0.4c0.2-0.1,1.4-0.3,2.2-0.7l-0.6-1c-0.2,0.2-0.3,0.3-0.5,0.7
							c0.2-0.2,0.3-0.3,0.6-0.6L40,45h-0.1H40l-0.5-0.8c-0.1,0.1-0.3,0.3-0.5,0.4c-0.1,0.1-0.2,0.2-0.3,0.4s-0.3,0.4-0.5,0.7
							c-0.2,0.4-0.6,0.8-1,1.3c0.3-0.6,0.6-0.9,0.8-1.2c0.1-0.2,0.2-0.3,0.5-0.7c0.1-0.1,0.2-0.2,0.2-0.4c0.1-0.1,0.1-0.1,0.2-0.3
							c0.1-0.1,0.1-0.2,0.2-0.3c-0.1,0.1-0.2,0.2-0.2,0.3c-0.1,0.2-0.1,0.2-0.2,0.3c-0.1,0.2-0.2,0.3-0.5,0.6
							c-0.2,0.3-0.6,0.7-0.8,1c-0.6,0.7-1,1.2-1.6,1.8c0.1,0,0.5-0.2,0.1,0c-0.1,0.1-0.5,0.3-0.8,0.4c-0.3,0.1-0.6,0.2-0.5,0.1
							c-0.5,0.2-0.6,0.3-0.9,0.4c-0.6,0.1-1.2,0.1-1.8,0.1H32c-0.6,0.1-1,0.1-1.6,0.1h-0.1v0.2l0,0v-0.1v-0.1l0,0l0,0
							c-0.1,0-0.1,0-0.2,0s-0.2,0-0.5,0.1c-0.1,0-0.1,0.1-0.2,0.1c-0.1,0.1-0.2,0.2-0.2,0.6s0.2,0.4,0.3,0.6s0.2,0.1,0.2,0.1
							c0.1,0,0.2,0,0.3,0c0.3,0,0.7,0,1,0.1c0.3,0,0.7,0,1,0.1c0.1,0,0.3,0.1,0.3,0.1s0,0.1,0.1-0.1c0.1-0.1,0.1,0,0,0l0.7,0.6
							c1.1-0.3,2.3-0.7,3.4-1.3h-0.1c0.2-0.1,0.6-0.2,0.8-0.4c-0.6,0.3,0.2-0.2,0.2-0.3c0.6-0.4,1.1-1,1.7-1.5
							C39.6,47.7,39.5,47.7,39.2,48.1z M34.1,46.2h-0.5c-0.1,0-0.2,0-0.3,0h0.3C33.8,46.2,34.1,46.1,34.1,46.2z M19,43
							c-0.2-0.1,0.3,0,0.6,0.1L18.7,43C18.5,42.9,18.8,42.9,19,43z M33.9,45.6l0.2-0.1h0.3L33.9,45.6z M39.4,45.2
							c0.1-0.2,0.2-0.3,0.5-0.6l0,0C39.6,44.9,39.5,45.1,39.4,45.2L39.4,45.2z M33.2,49.3L33.2,49.3C33.3,49.3,33.3,49.3,33.2,49.3
							c-0.6,0-0.8,0.1-1.1,0C32.6,49.3,32.9,49.3,33.2,49.3z M36.6,45.7c-0.2,0-0.3,0-0.6,0.1c0.1,0,0.6,0,0.2,0.1
							c-0.2,0-1,0.1-1.1,0.1C36,45.9,36.4,45.6,36.6,45.7z M28.6,43.8h0.2h-0.7H28.6z M25.5,43.5c-0.3-0.1-1.2-0.1-1.9-0.2
							c-0.2,0,0.5,0.2,1.2,0.2C25.7,43.8,25.2,43.5,25.5,43.5z M38.6,45.7L38.6,45.7L38.6,45.7l0.5-0.6c-0.5,0.8-1,1.2-1.2,1.6
							C38,46.5,38.8,45.7,38.6,45.7z M21.3,46.5c-0.5,0.6-1.6,1-1.6,0.9c0,0.1,0.9-0.2,1.1-0.4C21.1,46.7,21.2,46.7,21.3,46.5z
							 M21.2,46.3c0.7-0.7,0.7-0.8,1.1-1.3c-0.3,0.9-0.7,1-0.7,0.9c-0.5,0.4-0.3,0.4-0.6,0.7L21.2,46.3z M22.1,45.7
							c0.1-0.1,0.1-0.2,0.2-0.3c0.2-0.4,0.1-0.6,0.5-1.1c-0.1,0.4-0.2,0.8-0.5,1.1C22.3,45.4,22.3,45.6,22.1,45.7z M14.6,47l0.3,0.2
							C14.6,47,14.5,47,14.6,47l-0.2-0.2C15.1,47.1,14.8,47,14.6,47z M20.7,47.1c0.3-0.2,0.7-0.4,0.9-0.8
							C21.6,46.3,21,46.9,20.7,47.1z M14.9,47c0.5,0.2,1.6,0.6,1.5,0.6C16.2,47.6,15.1,47.2,14.9,47z M16.9,41.6l-0.7-0.1h0.3
							L16.9,41.6z M18.5,42.5h-0.2l-0.5-0.1L18.5,42.5z M16.9,46.8L16.9,46.8c-0.1,0-0.2,0-0.3-0.1C16.7,46.7,16.8,46.7,16.9,46.8
							c0.2,0,0.7-0.2,0.9-0.2c-0.1,0-0.6,0.1-0.7,0.1c0.1,0,0.3-0.1,0.6-0.1c0.2-0.1,0.5-0.1,0.6-0.2c0.3-0.2,0.6-0.3,0.3-0.3
							c0.2-0.1,0.9-0.8,0.7-0.6c-0.2,0.3-0.7,0.7-1.1,1C17.7,46.6,17.3,46.8,16.9,46.8c0,0-0.1,0-0.2,0
							C16.7,46.8,16.8,46.8,16.9,46.8z M16.3,47.2c0.2,0.1,0.3,0.1,0.5,0.1c0.2,0.1,0.5,0.1,0.3,0.1c-0.6,0-0.1,0-0.3,0
							C16.7,47.4,16.6,47.4,16.3,47.2z M18.2,47.6c-0.3,0-0.6-0.1-0.9-0.1c0.1,0,0.3,0.1,0.5,0.1c-0.5-0.1-0.9-0.2-1.4-0.3
							C17.1,47.4,18.1,47.5,18.2,47.6z M18.5,47.5h0.2H18.5L18.5,47.5L18.5,47.5c0.5,0,1-0.1,1.5-0.3C19.5,47.4,19,47.5,18.5,47.5z
							 M32.1,43.2c0.5-0.1,0.2-0.1-0.3-0.1c-0.2,0-0.6,0-0.8,0c-0.2,0-0.5,0-0.5,0c0,0.1-0.7,0.2,0.9,0.1c-1.4,0.1-0.9-0.1-1.7,0.1
							c0.7,0,1.5,0,1.5,0h-0.8c0.2,0,0.6,0,0.8,0C31.6,43.3,31.9,43.2,32.1,43.2z M31.9,46.7l0.6-0.8L31.9,46.7L31.9,46.7z
							 M33.6,50.7c-0.1,0,1.1-0.4,1.4-0.6C34.4,50.4,33.7,50.6,33.6,50.7z M41.6,44.3l-0.7,0.9c0-0.2,0.6-0.7,0.8-1.1l0,0l0.1-0.1
							c0.1,0,0,0-0.1,0.1l0,0l0,0C41.6,44.1,41.6,44.2,41.6,44.3z M38.8,44.2l-0.3,0.1L38.8,44.2L38.8,44.2z M39.4,44.2
							c-0.2,0.1,0.6-0.1,0.7-0.1L39.4,44.2z M32.4,45.6C32.2,45.6,32.4,45.6,32.4,45.6h0.2h0.3C32.8,45.6,32.6,45.6,32.4,45.6
							L32.4,45.6z M33.5,45.3c0,0,0,0.1,0.2,0.1c0.1,0,0.2,0,0.5,0c0.1,0,0.2,0,0.3,0s0.2,0,0.3-0.1c0-0.1-0.2,0,0.1-0.2
							c-0.3,0-0.7,0.1-0.9,0.1c0.3,0,0.6-0.1,0.7,0c-0.1,0-0.2,0-0.3,0s-0.2,0-0.3,0C33.8,45.3,33.6,45.3,33.5,45.3c0,0-0.1,0-0.2,0
							S33.3,45.3,33.5,45.3z M37.5,44.7c0.1,0,0.2-0.1,0.3-0.1h0.1C37.7,44.5,37.6,44.5,37.5,44.7c-0.1,0-0.3,0.1-0.5,0.1
							c-0.1,0.1,0.7,0,0.8,0c-0.3,0.1-0.7,0.1-1.1,0.2c0.1,0,0,0,0.3,0l-0.7,0.1c-0.8,0,0-0.1,0.6-0.2c0,0,0.1,0,0.2-0.1
							S37.4,44.7,37.5,44.7z M33.3,44.8L33,45.1c-0.1,0.2-0.1,0.1-0.2,0.2C33.2,44.8,33.5,44.3,33.3,44.8z M36.7,49.5
							c0.2-0.1-0.3,0.1-0.8,0.3l0.2-0.2c0,0.1,0.9-0.4,1-0.6C37.4,49,37,49.3,36.7,49.5z M34.9,45.7c-0.2-0.1-1.5,0.1-1.8,0.1
							C33.8,45.7,35.3,45.4,34.9,45.7z M32.6,46C32.5,46,32.5,46,32.6,46c-0.1,0.1-0.1,0.2-0.2,0.2h-0.1c-0.1,0.1-0.2,0.3-0.3,0.6
							c0.2-0.3,0.3-0.4,0.3-0.6l0.1-0.1C32.5,46,32.6,46,32.6,46c0.1,0,0.2,0,0.3,0C32.8,46,32.7,46,32.6,46z M35.3,49
							c-0.1,0-0.3,0.1-0.5,0.1c-0.2,0.1-0.5,0.1-0.7,0.2C34.5,49.3,35,49.2,35.3,49z M32.8,50.6c0,0,0.1,0,0.3,0s0.2,0.1,0.2,0.2V51
							l0.3-0.1c0,0,0,0,0.1,0c0,0,0,0-0.1,0h-0.3v-0.2c0,0,0-0.1-0.1-0.2C33,50.6,32.8,50.5,32.8,50.6c-0.1-0.1-0.2-0.1-0.3-0.1
							C32.5,50.5,32.6,50.5,32.8,50.6C32.8,50.5,32.7,50.6,32.8,50.6h-0.2c0.2,0,0.5,0.1,0.6,0.1C32.9,50.6,32.8,50.6,32.8,50.6z
							 M42.9,42.5c-0.5,0.1-0.6,0-0.9,0C42,42.5,42.5,42.5,42.9,42.5z M31.7,49.5c-0.9,0,0.5,0.1-0.1,0.1H32c-0.8,0.1-0.6-0.1-1,0
							h0.3c0.2,0-0.2,0-0.5-0.1h-0.1h-0.1h0.1c0,0,0,0.1,0,0v-0.1h0.1C31.2,49.4,31.9,49.5,31.7,49.5z M42,42.5c-0.2,0-0.3,0-0.6,0
							c-0.1,0-0.1,0-0.2,0c-0.1,0-0.1,0.1-0.1,0.1c-0.2,0.1-0.2,0.1-0.5,0.3c0.1-0.1,0.2-0.2,0.3-0.2c0.1-0.1,0.2-0.2,0.3-0.2
							s0.2,0,0.3,0C41.8,42.5,41.9,42.5,42,42.5z M33.9,51.2L33.9,51.2c0.2,0,0.5-0.1,0.7-0.1l0,0C34.4,51.1,34.2,51.2,33.9,51.2z"
							/>
						<path class="st0" d="M41.2,43.4c-0.1,0.1-0.2,0.2-0.3,0.3C41,43.5,41.1,43.4,41.2,43.4z"/>
						<path class="st0" d="M31,46.9c0,0-0.1,0-0.2,0.1C30.9,47,30.9,47,31,46.9z"/>
						<path class="st0" d="M30.2,47L30.2,47C30.1,47,30.1,47,30.2,47C30.1,47,30.2,47,30.2,47z"/>
						<path class="st0" d="M26.2,42.9c0.3,0.1-0.3,0-0.7,0C25.9,42.9,26,42.9,26.2,42.9z"/>
						<path class="st0" d="M24,42.6c0.2,0,0.5,0.1,0.7,0.1C24.4,42.7,24.2,42.7,24,42.6z"/>
						<path class="st0" d="M25.8,42.7c-0.5,0-0.8,0-1.1,0C24.9,42.7,25.2,42.7,25.8,42.7z"/>
						<path class="st0" d="M17.7,41.9c0.3,0.1,1,0.2,1,0.2c-1.5-0.2,0.2,0.1,0.5,0.2C18.3,42.1,18.3,42.1,17.7,41.9z"/>
						<path class="st0" d="M15.8,41.4c0.1,0,0.2,0.1,0.5,0.1C16,41.5,15.9,41.5,15.8,41.4z"/>
						<path class="st0" d="M15.2,41.3c-0.5-0.1-0.7-0.2-0.9-0.3c0.7,0.1,1,0.3,1.5,0.4C15.4,41.3,15.1,41.3,15.2,41.3z"/>
						<path class="st0" d="M14.8,46.9c0.1,0,0.5,0.1,0.5,0.1c-0.3-0.1-0.6-0.2-0.9-0.3C14,46.6,14.5,46.9,14.8,46.9z"/>
						<path class="st0" d="M12.1,44.9L12.1,44.9c0.1-0.1,0.1-0.1,0.1-0.1l0,0l0,0l0,0c0,0,0,0,0.1,0.1l0.1,0.1l0.1,0.1
							c0,0,0,0,0.1,0.1l0,0c-0.1,0-0.1-0.1-0.2-0.2l-0.1-0.1v-0.1l0,0l0,0l0,0L12.1,44.9z"/>
						<path class="st0" d="M12.6,44.9l0.1,0.1C12.7,45,12.7,44.9,12.6,44.9L12.6,44.9z"/>
						<path class="st0" d="M15.1,46.5c-0.1-0.1-0.2-0.2-0.3-0.3C15.2,46.5,15.2,46.6,15.1,46.5z"/>
						<path class="st0" d="M17.5,47.1L17.1,47c0.3,0.1,0.8,0.1,1.1,0.1C18.1,47.2,17.8,47.2,17.5,47.1z"/>
						<path class="st0" d="M20.3,46.6L20.3,46.6c0.3-0.2,0.5-0.4,0.7-0.6C20.9,46.2,20.7,46.5,20.3,46.6z"/>
						<path class="st0" d="M37.5,47.9c-0.1,0,0.8-1,1-1.3C38.4,46.9,37.8,47.5,37.5,47.9z"/>
						<path class="st0" d="M42.2,43.1h0.7h0.3h0.1c0.1-0.2,0.1-0.1,0-0.2h0.1c-0.1,0-0.1,0-0.1-0.1l0,0l0,0l0,0c0,0,0,0,0.1,0h0.1
							h-0.1c0.2,0,0.1,0,0,0.1c0,0.1,0,0-0.1,0h-0.1c-0.1,0-0.1,0-0.1,0C42.8,43.1,42.7,43.1,42.2,43.1z"/>
					</g>
				</g>
			</g>
			<g>
				<g>
					<g>
						<path class="st0" d="M20.2,36.2c0.1,0,0.3,0,0.5,0C20.3,36.2,20.1,36.2,20.2,36.2z"/>
						<path class="st0" d="M26.2,36.5c-1.6,0-4-0.1-5.6-0.2C22,36.3,25.8,36.3,26.2,36.5z"/>
						<path class="st0" d="M20,36l1.9,0.1C20.8,36.1,21,36.1,20,36z"/>
						<polygon class="st0" points="20.7,36.2 20.6,36.2 19.5,36.1 						"/>
						<path class="st0" d="M46.9,38.7c-0.2,0.1-0.3,0.1-0.2,0.1L46.9,38.7z"/>
						<path class="st0" d="M45.4,39.2c-0.5,0.1-0.7,0.1-0.9,0.1C44.7,39.3,45,39.2,45.4,39.2z"/>
						<path class="st0" d="M43.4,39.8h0.8C43.9,39.8,43.6,39.8,43.4,39.8z"/>
						<path class="st0" d="M10.2,39.4c0.7,0.1,1.5,0.2,1.9,0.2C10.8,39.6,10.7,39.5,10.2,39.4z"/>
						<path class="st0" d="M35.7,37.5h0.2C36.1,37.4,36.2,37.4,35.7,37.5z"/>
						<path class="st0" d="M44.3,38.7L44.3,38.7L44,38.8L44.3,38.7z"/>
						<path class="st0" d="M40.3,39.9L40.3,39.9c-0.2,0-0.5,0-0.7-0.1C40,39.9,40.2,39.9,40.3,39.9z"/>
						<path class="st0" d="M41.9,36.9c0.2,0,0.6,0,0.8,0C42.1,37,41.9,37,41.9,36.9z"/>
						<path class="st0" d="M44.4,39.3L44.4,39.3C44.4,39.3,44.5,39.3,44.4,39.3L44.4,39.3z"/>
						<path class="st0" d="M46.8,39.9L46.8,39.9L46.8,39.9l0.2-0.2c0.1-0.1,0.2-0.1,0.3-0.2c-0.1,0.1-0.3,0.2-0.5,0.2
							C46.8,39.7,46.9,39.7,46.8,39.9z"/>
						<path class="st0" d="M10.2,39.4c-0.2,0-0.5-0.1-0.6-0.1C9.9,39.4,10.1,39.4,10.2,39.4z"/>
						<path class="st0" d="M15.1,36c-0.6-0.1-0.8-0.1-0.9-0.1C14.5,35.9,14.9,35.9,15.1,36z"/>
						<path class="st0" d="M26.5,34.9v0.2C26.5,35.1,26.5,35,26.5,34.9z"/>
						<path class="st0" d="M14.8,33.6c0.1,0,0.2,0,0.3,0C14.9,33.6,14.8,33.6,14.8,33.6z"/>
						<path class="st0" d="M36.6,31.7c-1.5,0.2-3.1,0.3-4.4,0.4h0.5l-1.4,0.1v0.1c-2.3,0.1-5,0.3-5.9,0.2l0.2,0.1h-2.4h1.4
							c-2.7,0.1-6.7,0-7.3,0h0.2c-0.5,0-0.8,0-1.2,0l0.3,0.1c-1.7,0-2.8,0-4-0.1c-0.6,0-1.1,0-1.7-0.1c-0.3,0-0.6,0-0.9-0.1
							c-0.1,0-0.3,0-0.5,0c-0.1,0-0.2,0-0.3,0s-0.1,0-0.2,0.1c-0.1,0-0.3,0.3-0.2,0.6l0,0c0,0.3,0.2,0.4,0.3,0.4
							c0.1,0.1,0.2,0.1,0.3,0.1c0.2,0.1,0.3,0.1,0.6,0.1s0.7,0.1,1,0.1c1.2,0.1-0.7-0.1-0.7-0.1c0.7,0,2.3,0.2,2.6,0.3
							c-0.3-0.1-2.3-0.3-0.8-0.2c1,0.1-0.7-0.1,1.1,0l0.7,0.2c1,0.1,0.2-0.1,1.8,0c1.8,0.1-2.3,0,0.7,0.2c1.5,0.1,3.1-0.1,5.9,0
							c2.5-0.1-1.2-0.1,2.2-0.1L22.3,34c0.6,0,0.2-0.1,1.7-0.1c0.5,0,1.4,0.1,2.2,0.1c-1.6,0-0.9,0-0.1-0.1c0.1,0,0.2,0,0.3,0h0.1
							V34c0,0.2,0,0.3,0,0.3s0,0,0-0.1s0-0.2,0-0.3s-0.1-0.1-0.2-0.1s-0.2,0-0.3,0h0.3h0.1V34v0.7c0-0.1,0-0.2,0-0.1v1.5
							c0-0.4,0-1.3,0-1.9c0-0.2,0-0.3,0-0.4c-0.1,0-0.2,0-0.2,0c-0.1,0,0-0.1,0.3,0v2.5c0.1-0.6,0.1,0.2,0.1,0.1v-1.6v-0.7v-0.3
							c0-0.1,0-0.1,0-0.2h-0.2h-1.2c-1,0-2,0-3.1,0c0.2,0,1.1,0.1,0.8,0.1c-1.7,0-1.4-0.1-3,0l0.7,0.1c-0.1,0-0.3,0,0,0
							c0.6,0,0.8,0,0.8,0c-0.6,0.1-2.2,0-2.6-0.1c-2-0.1-0.5,0.1-0.9,0.1c-1-0.1-3.4-0.1-4.7-0.3c0.2,0,0.6,0.1,0.8,0.1
							c-1.6,0-3-0.3-3.7-0.4l0.3,0.1c-0.3,0-0.7-0.1-1-0.1c-0.1,0-0.3,0-0.3,0H9.2c0-0.1-0.1,0.1-0.2,0.1l0,0l0,0l0.1,0.1
							c0,0,0,0,0.1,0s0.2,0,0.3,0c0.2,0,0.5,0,0.7,0c0.5,0,0.9,0.1,1.5,0.2h-0.2c0.9,0,2.3,0,3.1,0.1c0,0,0.2,0,0.6,0
							c0.5,0.1,1.4,0,2.7,0c-0.9,0-0.6-0.1-1.5-0.1c2-0.1,1.8,0.1,3.5,0.1c1,0-0.9,0-1.1-0.1c2.6,0.1,5.3-0.3,6.9-0.2l-1.1,0.1
							c1,0,1.6,0,1.5,0c-0.3,0-0.5,0-0.6,0c3.1-0.2,4.9-0.1,8.1-0.4c-0.2,0-0.7,0-0.7,0c1.5-0.2,1.5,0.1,3.7-0.3h-0.5
							c0.8-0.1,1.4-0.1,1.2-0.1c0-0.1,1.2-0.2,2.6-0.6c0.2,0,0.3-0.1,0.6-0.1l0.2-0.1c0,0,0.1,0,0.2,0c0.3,0.1,0.7,0.1,1,0.2
							c0.7,0.1,1.4,0.2,1.6,0.3c0.1-0.1-0.1,0-0.3,0.1c-0.2,0-0.3,0-0.7,0c-0.2,0-0.5,0-0.8,0h-0.5c-0.2,0-0.2,0-0.5,0.1
							c-1,0.1-2.2,0.3-2.6,0.4c-1.4,0.3,1.2-0.1,0.8,0.1c-1.1,0.2-1.7,0.1-3.4,0.4c0-0.1,3.3-0.7,0.1-0.2l-0.5,0.1
							c0.3,0,0.8-0.1,1.2-0.1c0.9-0.1-0.6,0.1-0.8,0.2c-1.1,0.1-2.3,0.2-3.4,0.3c-0.2-0.1,1.8-0.2,1.9-0.3c-0.9,0.1-1.9,0.2-2.8,0.3
							c-0.5,0-1,0.1-1.5,0.1c-0.6,0-1.1,0.1-1.7,0.1c0,0.4,0,0.9,0,1.5c0,0.4,0,0.9,0,1.3h0.2H28v-0.1V37c1,0,1.5,0,1.8,0
							s0.6,0,0.8-0.1c0.3,0,0.7-0.1,1.9,0c1.4-0.1-0.5-0.1,1.6-0.2c0.6,0,0.2,0,0.1,0c2.5-0.1,1.1-0.1,3.4-0.2l-0.5-0.1
							c1.4-0.1,2.7-0.1,4.1-0.2c0.7,0,1.4-0.1,1.9-0.2c0.1,0,0.3,0,0.5-0.1c0.2,0,0.3-0.1,0.5-0.2c0.2-0.1,0.6-0.2,0.8-0.3
							c-0.1,0-0.5,0.1-0.9,0.3l-0.3,0.1c-0.1,0-0.2,0-0.3,0c-0.2,0-0.5,0-0.6,0l0.6-0.1c0.2,0,0.5-0.1,0.7-0.2
							c0.5-0.2,0.8-0.3,1.2-0.6c0.5-0.2,0.8-0.3,1.2-0.6c0.1-0.1,0.2,0,0.2,0H47l0.6,0.1c0.3,0.1,0.8,0.1,1.1,0.2
							c0.1,0,0.1,0.1,0.1,0.2c0,0.1-0.1,0.1-0.2,0.2c-0.1,0.1-0.3,0.1-0.5,0.2c-0.3,0.1-0.7,0.1-1,0.2c-0.3,0.1-0.8,0.1-1.1,0.2
							c0.8-0.2-1.4,0.1,0.5-0.3c0.7,0,0.9-0.1,1.5-0.2c-0.3,0-0.6,0.1-0.9,0.1c-0.7,0.1-1.5,0.3-2.3,0.4c-1.5,0.3-3,0.6-3.2,0.4
							l-0.5,0.1c-0.5,0-1.6,0.1-0.8,0c-1,0.1-2.2,0.2-3.2,0.3c1.1,0,3.5-0.1,4.3-0.3c0.9,0-1.4,0.2-0.5,0.2
							c-2.2,0.1-1.4,0.2-3.5,0.3c1-0.2-2.3,0-2.2-0.1c-0.7,0.1-2.4,0.1-3,0c-0.6,0-1.5,0-2.5,0.1h-1.5l1.4,0.6
							c1.1,0.6,2.6,1,3.7,1.3c-0.3,0-1.4-0.5-1.3-0.6c0.9,0.4,2,0.7,2.3,0.7c-1.7-0.6-2-0.7-2.3-0.7c-0.2,0-0.5,0-1.8-0.7l-0.9-0.4
							h1h0.1c0.8,0.1,1.7,0.1,3.4,0C33,36.9,33.4,36.9,33,37c-0.8,0-1.8,0-2.8,0h-0.1h0.1c1.6,0.8,3.4,1.2,5,1.7
							c1.1,0.2,0.2,0.3,2.8,0.7c-0.8,0-1.5-0.1-2.3-0.2c2.5,0.3,0.6,0.2,2.6,0.4l-0.8-0.1c1.2,0.1,1.6,0.1,2.4,0.2
							c-0.3,0-0.7-0.1-1-0.1c0.7,0,1.9,0,1.9,0.1c0.2,0,0.2,0,0.2-0.1c0.1,0,0.5,0,1.2,0c-0.5,0-0.8,0-0.8,0c3-0.2,0.7-0.1,2.5-0.3
							c-0.3,0,0.2-0.1,0.9-0.2c0,0.1,0.5,0,1-0.1c0.3,0,0.7-0.1,1-0.2l0.6-0.1l0.2-0.1h0.1l0,0v-0.1c0-0.1,0.1-0.1,0-0.1l0,0
							l-0.2-0.1l0,0h-0.1l-0.2,0.1c-0.1,0-0.2,0.1-0.3,0.1c-0.2,0.1-0.3,0.2-0.6,0.2l0,0c-0.2,0.1-0.3,0.2-0.6,0.4
							c-0.2,0.2-0.2,0.3-0.3,0.3c-0.1,0.1-0.7,0.1-1,0.1c0.5,0,0,0.1-0.8,0.1h0.1c-0.8,0.1,0.9,0.1-1.4,0.2c-0.5,0-0.8,0-1.2,0
							c0.2,0,0,0-0.1,0c-0.5,0-0.8-0.1-1.2-0.1c-1.9,0-3.6-0.4-5.9-0.9c0.7,0.2,1.6,0.3,1.1,0.3c-0.5-0.1-1.1-0.2-1.4-0.3h0.1
							c-1.4-0.4-2.7-1-4-1.7c0.2,0.2,2.5,1.2,1.5,0.8c-0.3-0.1-0.8-0.3-1.1-0.4c-0.2-0.1-0.5-0.2-0.7-0.3s-0.6-0.3-0.7-0.3
							c0-0.1,1.9,0.9,0-0.1c0,0-0.1-0.1-0.3,0c-0.1,0-0.1,0.1-0.1,0.2c0,0.1,0,0.1,0,0.2c0,0.3,0,0.7,0,0.2c0,1.2-0.1,2.8-0.1,4.2
							c0,0.1,0,0.1-0.1,0.1s-0.1,0-0.2,0c-0.2,0-0.1,0,0,0s0.2,0,0.2,0l0,0c0.1,0,0-0.1,0.1-0.1c0-0.1,0-0.1,0-0.3
							c0-0.1,0-0.4,0-1.2c0.1-0.1,0.1,0.7,0.1,1.5c0,0.1,0,0.1,0,0.2c-0.1,0-0.1,0.1-0.2,0.1S27.8,42,27.5,42c-0.5,0-0.9,0.1-1.1,0
							c0.2,0.1,0.7,0,1.1,0c0.2,0,0.5,0,0.6-0.1c0.1,0,0.3-0.1,0.3-0.2c0,0.1,0,0.2-0.1,0.2S28.1,42,28,42c-0.2,0-0.6,0.1-0.8,0.1
							c-0.3,0-0.6,0.1-0.8,0c-0.1,0.1-0.1-0.2-0.1-0.4c0-1.2,0-2.4-0.1-3.6v-0.4c0-0.1,0-0.3-0.2-0.3c-0.1,0-0.1,0-0.2,0l-0.2,0.1
							c0,0-0.1,0.1-0.3,0.1c-0.5,0.3-1.1,0.6-1.6,0.8c-1.1,0.3-2.2,0.7-3.2,0.8c1.1-0.2,2.2-0.6,2-0.6c-1.2,0.3-1.8,0.3-2.4,0.4
							c-0.6,0.1-1.1,0.1-2.4,0.2h0.2c-1.4,0.2-3.2,0.1-4,0.2c0.6,0.1,1.9-0.1,1.9,0c-1.1,0-2.2,0-3.3,0c1,0.1,3.3,0.1,4.5,0
							c0.9,0-1.8,0.1-1.4,0c3.1-0.1,3.7-0.2,5.2-0.3c0.9-0.1-1.2,0.3-1.8,0.3c-1.9,0.1-4.8,0.1-7.8,0c-0.6,0-1.1,0-1.7,0
							c-0.6-0.1-0.8-0.2-1-0.2c-0.1,0-0.2-0.1-0.3-0.1S7.9,39,7.9,38.9l0,0L7.8,39c-0.1,0.1-0.1,0,0,0.1c0,0.1,0,0.1,0,0.1H7.7
							c0.3,0.1,0.8,0.2,1.4,0.3c-0.2-0.1-0.6-0.1-0.8-0.2c0.6,0.1,1,0.1,1.2,0.2C9,39.3,8.3,39,7.7,38.9l0,0H7.6l0,0
							c0.1,0.2,0.3,0.3,0.6,0.3c0.2,0,0.5,0.1,0.7,0.1c-0.2,0-0.5,0-0.7-0.1c-0.2,0-0.6-0.1-0.7-0.3l0,0c0,0,0-0.2,0.1-0.2h0.1l0,0
							l0,0c1.5,0.4,3.4,0.8,5,0.8c-0.1,0-0.9,0-1.1-0.1c1.7,0.1,3.4,0,5-0.2c0.8-0.1,1.6-0.2,2.4-0.4s1.4-0.3,2.2-0.7
							c0.6-0.3,0,0-0.7,0.2c-0.5,0.2-1.1,0.3-0.9,0.2c0.3-0.1,0.7-0.2,1-0.3s0.7-0.2,0.9-0.3c0.6-0.2,1-0.4,1.2-0.6
							c-0.2,0.1-0.1,0,0,0s0.1-0.1,0.2-0.1H23c0,0,0,0-0.1,0h-0.2c-0.7,0-1.2-0.1-0.2,0h0.1h-0.2c-2.2-0.1-4.9-0.2-7.4-0.6
							s-5.1-0.8-7.5-1.3c0.2,0.1,0.2,0.1,0,0.1c1.6,0.3,3.7,0.8,5,1c-1.1-0.1-2.6-0.6-3-0.6c0.6,0.1,1.7,0.3,1.7,0.3
							c-1.5-0.2-2.3-0.4-3.2-0.7l0.6,0.1c-1-0.2-1.5-0.3-1.9-0.4c-0.1,0-0.2,0-0.2-0.1s-0.1-0.1-0.1-0.2c-0.1-0.1-0.2-0.2-0.2-0.3
							l-0.2,0c0.3,0.1,1,0.2,2.2,0.4c1.2,0.1,0-0.1,0-0.1c0.8,0.2,3.3,0.6,4.1,0.7l-2-0.3c1.4,0.2,2.7,0.4,3.7,0.6
							c-0.1,0-0.2-0.1-0.5-0.1c1.1,0.2,2.6,0.3,3.2,0.4L17,36c-0.7,0-2.7-0.2-3.1-0.3c0.2-0.1,2.3,0.2,3.1,0.2c-4-0.3-4-0.6-7.3-1
							l0.6,0.1c-1.5-0.2-3-0.6-4.3-0.8l-0.6-0.1l0.3,0.4L6,34.9l0.5,0.2l0.1,0.1h0.1c0.3,0.1,0.6,0.1,0.8,0.2
							c-0.5-0.1-0.6-0.1-0.3,0c4,0.8,7.9,1.5,12.5,1.6l0.7,0.1l0.3,0.1l0.1-0.1c1.2,0,0.3,0.1,0.6,0.1c0,0,0.2,0,0,0l0,0l0,0l0,0
							l0,0c0,0,0,0,0.1,0h0.1c0,0,0,0-0.1,0s-0.1,0.1-0.1,0.1c-0.1,0-0.1,0.1-0.2,0.1S21,37.6,21,37.6s0,0.1-0.5,0.2
							c0.2,0,0.7-0.2,1-0.3s0.7-0.3,0.6-0.2c-0.5,0.3-1,0.6-1.6,0.7c-0.6,0.2-1.4,0.4-2,0.6c-1.4,0.3-2.4,0.4-2.6,0.3
							c-2.5,0.3-5.4,0.3-8.1-0.4H7.7l0,0c0,0-0.1,0-0.2,0c0,0-0.1,0-0.2,0.2s0,0.3,0,0.3l0,0c0.2,0.3,0.3,0.3,0.6,0.4
							c0.2,0.1,0.5,0.2,0.6,0.2c0.3,0,0.7,0.1,0.9,0.1c0.6,0.1,1.1,0.1,1.7,0.2c1.1,0.1,2.2,0.1,3.1,0.1c0.6,0-0.3,0-0.1,0
							c0.8,0.1,2.2,0,3.3-0.1c1.1-0.1,2.2-0.2,2.2-0.2c0.8-0.1,1.1-0.2,1.2-0.3c1-0.1,2.3-0.4,3.5-1c-0.3,0.1-0.6,0.2-0.9,0.3h0.1
							c0.5-0.1,0.9-0.3,1.2-0.6l0,0c0.2-0.1,0.3-0.1,0.6-0.3l0.3-0.2c0.1,0,0.1-0.1,0.2-0.1c0,0,0,0,0.1,0v0.1v0.1
							c0,0.8,0,1.6,0,2.2c0,0.4,0,0.8,0,1.2v0.3c0,0.1,0,0.3,0,0.4c0.1,0.3,0.5,0.4,0.7,0.6c0.3,0,0.5,0,0.7,0s0.5,0,0.6,0
							c0.2,0,1.4-0.1,1.2-0.8v-0.1c0,0.1,0,0.1,0,0.1c0,0.3-0.1,0.4-0.3,0.6c-0.1,0.1-0.2,0.1-0.2,0.1c-0.1,0,0.1,0,0.2-0.1
							S29,42.1,29,42s0,0-0.1,0.2C29,42.1,29,42,29,41.9c0-0.4,0.1-1,0.1-1.6s0-1.2,0-1.9c0-0.1,0-0.3,0-0.4c0-0.1,0.1,0,0.1,0
							l0.1,0.1l0.3,0.2c0.1,0.1,0.3,0.1,0.5,0.2c0.3,0.1,0.7,0.3,1,0.4c0,0,0.2,0-0.1-0.1c0.6,0.2,1,0.4,1.6,0.7l-0.2-0.1
							c1.5,0.4,3.1,0.9,4.5,1.1c1.5,0.2,2.8,0.3,3.9,0.3c-1.2-0.1-1.2-0.1-1.4-0.1c1.1,0.1,2.2,0.1,3.3,0.1c0.6,0,1.1,0,1.7-0.1
							c0.3,0,0.6,0,0.9-0.1c0.1,0,0.3,0,0.6-0.1s0.3-0.2,0.5-0.4c-0.1,0.1-0.2,0.2-0.2,0.2c0.2-0.1,0.3-0.3,0.3-0.4
							c0.1-0.1,0.2-0.2,0.3-0.2c0.2-0.1,0.7-0.3,0.9-0.4V39l0.1-0.1l0.1-0.1c0,0,0.1,0,0.1-0.2v0.1c0,0,0.1-0.2,0-0.4
							c-0.1-0.1-0.2-0.1-0.2-0.1c-0.1,0-0.1,0-0.1,0c-0.1,0-0.1,0-0.2,0l-0.2,0.1c-0.1,0-0.3,0.1-0.5,0.1c-0.3,0.1-0.7,0.1-1,0.2
							c-0.7,0.1-1.4,0.2-2.2,0.3c-0.3,0.1-1.2,0.2-2.3,0.2c-1,0-2.3-0.1-3.2-0.1c-0.7-0.1,1.5,0.2-0.5,0c-0.2-0.1-2.4-0.3-2.5-0.6
							c-0.6-0.1-1-0.2-1.6-0.3l-0.3-0.2c-1.1-0.2-1.8-0.6-3.2-1.2l-0.2,1.1c0.2,0,0.6,0,0.8,0c-0.1,0-0.3,0-0.2,0c0.7,0,2.3,0,1,0
							c1.1,0,5-0.1,3.3-0.2c0.1,0-1.5,0.1-2.2,0.1c0.1-0.1,1.8-0.1,2.2-0.2c0.1,0,0.2,0,0.5,0l0.2-0.1c2.2,0,4.3-0.3,5.8-0.3
							c0.1,0,0.5-0.1,1.1-0.2V37c0.8-0.1,1.5-0.2,2.3-0.3h-1c1.2-0.2,2.3-0.3,3.3-0.6l0.5-0.1c0.2,0,0.3-0.1,0.6-0.1
							c0.5-0.1,0.8-0.2,1.2-0.3c0.2,0,0.3-0.1,0.5-0.2c0.1-0.1,0.2-0.1,0.2-0.2c0.1-0.1,0.2-0.3,0.2-0.7c0,0,0,0-0.1-0.1l0,0h-0.1
							c-0.2-0.1-0.5-0.1-0.7-0.2c-0.6-0.1-1.2-0.3-1.9-0.6c-0.1,0-0.1,0-0.3-0.1c-0.1,0-0.2-0.1-0.5,0l-0.6,0.2
							c-0.2,0.1-0.6,0.2-0.8,0.3c-0.6,0.2-1,0.4-1.4,0.7l1.5-0.7c-0.3,0.2-0.7,0.3-1,0.4c-0.3,0.1-0.6,0.3-0.7,0.3
							c-0.6,0.1-1,0.1-1.5,0.2c-0.9,0.1-1.8,0.2-3.4,0.3c1.4-0.2,2-0.2,2.8-0.3c0.5-0.1,0.8-0.1,1.5-0.2c0.1,0,0.3,0,0.5-0.1
							c0.1,0,0.1,0,0.2,0c0.1,0,0,0,0.1,0c0.3-0.2,0.7-0.3,1.1-0.6c-0.5,0.2-0.8,0.3-1.1,0.6c-0.5,0.1-0.8,0.1-1.2,0.1
							c-0.9,0.1-1.7,0.2-2.5,0.2c-1.6,0.1-3.2,0.2-5,0.4c0.2,0,1.1,0,0.2,0.1c-0.7,0-3.4,0.1-2.8,0c-1.1,0.1-1.2,0.1-1.9,0.2
							c-0.6,0-1.6,0-1.4,0v-0.1l0,0v-0.2v-0.9v0.1c0-0.2,0-0.1,0-0.1v-0.1h0.1h0.5c0.3,0,0.8-0.1,1.1-0.1c0.8-0.1,1.5-0.1,2.2-0.2
							c1.5-0.1,2.8-0.2,4.3-0.4l2.2-0.2l1-0.1l0.6-0.1c0.2,0,0.2,0,0.5,0h1.1c0.2,0,0.5,0,0.7-0.1c0.1,0,0.2-0.1,0.5-0.2
							c0,0,0.1-0.1,0.2-0.2c0.1-0.1,0.2-0.4,0.1-0.7c-0.2-0.4-0.3-0.3-0.5-0.4c-0.6-0.2-0.8-0.2-1.2-0.3c-0.3-0.1-0.7-0.2-1.1-0.2
							l0.1,0.1L41,30.8c-0.1,0-0.3-0.2-0.7-0.1L40,31.1c1.2-0.2-0.5,0.2-0.6,0.2c-1.4,0.2-2.6,0.3-4,0.6
							C35.3,31.9,35.5,32,36.6,31.7z M43.3,36.7l-1,0.1c-0.2,0-0.3,0.1-0.6,0.1l0.6-0.1C42.8,36.8,43.1,36.7,43.3,36.7z M13.6,39
							c0.5,0-0.7,0-1,0c0.6,0,1,0,1.6,0C14.4,39,13.9,39,13.6,39z M43.1,36.1l0.6-0.1l0.7-0.1L43.1,36.1z M44.1,35.6
							c0.1,0,0.2,0,0.3-0.1l0.3-0.1l0.7-0.2h-0.1l-0.6,0.2c-0.1,0-0.2,0.1-0.3,0.1L44.1,35.6L44.1,35.6z M29.3,36L29.3,36
							C29.3,36,29.4,36,29.3,36C29.4,36,29.3,36,29.3,36L29.3,36c0-0.1,0-0.1,0-0.3s0-0.3,0-0.6c0-0.1,0-0.3,0-0.4
							c0-0.1,0-0.1,0-0.2l0,0l0,0c0,0.1,0,0.1,0,0.3s0,0.4,0,0.6C29.4,35.9,29.3,35.9,29.3,36z M48,35.8c-0.6,0.1-0.7,0.1-1,0.2
							c0.2,0,1.1-0.1,0.5,0c-0.5,0-2,0.3-2,0.2C46.8,36,47.7,35.7,48,35.8z M44.8,38.7h-0.3c0.5,0,0.8-0.1,1.2-0.1L44.8,38.7z
							 M46.6,39.8c-0.1,0.1-0.5,0.3-0.8,0.3s-0.7,0.1-1,0.1c-0.7,0-1.5,0.1-2,0.1c-0.3,0.1,0.9,0.1,2.4,0c0.5,0,0.7-0.1,0.9-0.1
							c0.2-0.1,0.2-0.1,0.2-0.1C46.3,40.1,46.3,40.2,46.6,39.8z M42.3,35.3h0.3H42.3l1.4-0.1c-1.7,0.3-3.1,0.3-4,0.3
							C40.6,35.7,42.8,35.4,42.3,35.3z M34.1,39.5c-1.2-0.3-3.3-1.3-3.1-1.2c-0.1,0,0.3,0.2,0.8,0.4c0.5,0.2,1,0.4,1.2,0.6
							C33.4,39.3,33.6,39.4,34.1,39.5z M34.2,39.3c1.7,0.6,1.8,0.6,3.2,0.9c-1.8-0.2-2.3-0.6-2-0.6c-1.2-0.3-1-0.2-1.6-0.3
							C33.8,39.3,34.2,39.3,34.2,39.3z M35.9,40.1l0.8,0.1c0.9,0.1,1,0,2.3,0.2c-0.8-0.1-1.5-0.1-2.3-0.2
							C36.4,40.2,36.2,40.1,35.9,40.1z M26,42.1c0,0.3,0.5,0.6,0.8,0.7C26.2,42.6,26,42.3,26,42.1C26,42,26,42,26,42.1
							c0-0.1,0-0.3,0-0.4v-0.3c0,0.3,0,0.8,0.1,0.9s0.2,0.2,0.1,0.2C26.2,42.4,26,42.2,26,42.1z M32.4,39c0.7,0.2,1.4,0.4,2,0.7
							C34.4,39.6,33,39.3,32.4,39z M26.5,42.4c0.1,0.1,0.5,0.1,0.7,0.1s0.5,0,0.7,0s0.5,0,0.8-0.1c0.1,0,0.2-0.1,0.3-0.2
							c0.1-0.1,0.1-0.2,0.1-0.3c0-0.4,0-0.6,0-0.4c0,0,0,0.1,0,0.4c0,0.1,0,0.2-0.1,0.3s-0.2,0.2-0.3,0.2c-0.3,0.1-0.6,0.1-0.8,0.1
							s-0.5,0-0.7,0S26.6,42.5,26.5,42.4z M15.8,36.7l1.4,0.1h-0.7L15.8,36.7z M14.6,39.3l0.3-0.1l0.8-0.1
							C15.3,39.3,15,39.3,14.6,39.3z M15.2,39.7C15.1,39.7,15.2,39.7,15.2,39.7c0.3,0.1,0.5,0.1,0.6,0.1
							C15.6,39.7,15.4,39.7,15.2,39.7c-0.5,0-1.4,0-1.8,0.1c0.2,0,1.1,0,1.5,0.1c-1.4,0.1-4.3-0.3-3.5,0c-0.6-0.1-2.5-0.3-1.8-0.3
							C11.1,39.7,14.1,39.7,15.2,39.7c0.1,0,0.2,0,0.5,0C15.6,39.6,15.4,39.6,15.2,39.7z M28.8,41.4c0-0.6,0-0.8,0-0.9
							c0-0.4,0-0.8,0.1-0.7c0,1.1-0.1,0.4-0.1,0.7S28.8,41.2,28.8,41.4z M28.8,37.9l-0.1,1.8l0.1-0.9l-0.1,2.7
							C28.7,40.1,28.8,38.3,28.8,37.9z M28.8,37.2c0-0.1,0-0.2,0.2-0.2l0,0L28.8,37.2v0.2V37.2L28.8,37.2L28.8,37.2
							c0-0.1,0-0.2,0.1-0.2s0.2,0.1,0.3,0.1c0.2,0.1,0.6,0.3,0.8,0.4c0.5,0.2,0.9,0.4,1.4,0.7c-0.5-0.2-0.9-0.3-1.4-0.7
							c-0.2-0.1-0.5-0.2-0.7-0.3c-0.1,0-0.2-0.1-0.3-0.1C28.8,37,28.8,37.1,28.8,37.2z M38,39.2c-0.6,0,0.1,0.2,1,0.2
							c0.9,0.1,2,0.1,2.3,0.1c0.1,0,0.3-0.1,0.3-0.1c-0.1,0-0.6,0-2-0.1c2.6,0,1.6,0.2,3.2-0.1c-1.2,0.1-2.7,0-3,0c0.5,0,1,0,1.5,0
							C40.4,39.3,39.1,39.4,38,39.2z M38.3,36.8l1.9-0.1L38.3,36.8L38.3,36.8z M39.7,32.9c-0.1,0,2.3-0.6,2.8-0.3
							c-0.3,0-0.7,0-0.9,0c-0.3,0-0.6,0.1-0.9,0.1C40.3,32.8,40,32.9,39.7,32.9z M28,33.2c0.7,0,1.5,0,2.2-0.1
							c-0.5,0.1-1.9,0.1-3,0.2C26.9,33.2,27.7,33.2,28,33.2z M14.1,33.3h-0.7H14.1L14.1,33.3z M15,33.5c-0.5,0,1,0.1,1.4,0.1
							L15,33.5z M15.4,33.8h-0.9H15.4L15.4,33.8z M14.1,33.8c-0.2-0.1-0.1-0.2-2.2-0.3c-0.1,0.1,0.5,0.1-0.3,0.1
							c0.7,0.1,1.2,0.1,1.6,0.1c-0.5-0.1-1-0.1-1.1-0.1C12.8,33.6,13.6,33.6,14.1,33.8c0.1,0,0.2,0.1,0.5,0.1
							C14.5,33.9,14.3,33.8,14.1,33.8z M11.2,33.2c0.2,0,0.5,0,0.6,0h0.1C11.8,33.3,11.5,33.3,11.2,33.2c-0.3,0-0.7,0-1,0
							c-0.2,0,1.1,0.2,1.6,0.2c-0.7,0-1.2-0.1-2.2-0.2c0.1,0,0,0,0.6,0.1H9.7c-0.1,0-0.2,0-0.2,0H9.3l0,0l-0.1-0.1l0,0l0,0l0.1-0.1
							l0,0c0,0,0.1,0,0.1,0.1h0.1c0,0-0.2-0.1-0.3-0.1l0,0l0,0c0,0,0,0.1,0,0c0,0,0,0,0.1,0s0.2,0,0.3,0c0.2,0,0.5,0,0.7,0
							c0,0,0.1,0,0.3,0C10.9,33.2,11.1,33.2,11.2,33.2z M16.5,34.1L15.8,34c-0.3,0-0.1-0.1-0.2-0.1C16.3,34.1,17.4,34.2,16.5,34.1z
							 M41.7,31.6c-0.5-0.1,0.6,0.2,1.5,0.4h-0.6c0,0-0.5-0.1-1-0.3c-0.2,0-0.6-0.1-0.7-0.1c-0.2,0-0.3,0.1-0.5,0.1s-0.1,0,0.1-0.1
							C41,31.4,41.3,31.5,41.7,31.6z M44.8,36c-0.3,0-3,0.4-3.5,0.4C42.7,36.2,45.6,35.8,44.8,36z M40.4,36.7
							c-0.7,0.1-0.9,0.1-0.8,0c-0.3,0-0.9,0.1-1.2,0.1C39.7,36.7,39.6,36.7,40.4,36.7c0.2,0,0.3,0,0.7-0.1
							C40.8,36.7,40.6,36.7,40.4,36.7z M33.2,36.2h-0.9h-1.5H33.2z M38,33.4c-0.1,0,1.6-0.2,1.9-0.3c-0.1,0-1.2,0.1-2.2,0.2
							c-0.1,0-0.3,0-0.6,0.1c0.2,0,0.3,0,0.6-0.1c0.3,0,0.1,0,0.1,0.1l-0.5,0.1l1.2-0.1H38z M22.5,33c-1,0.1-1.1,0-1.8,0
							C20.9,33,21.8,33,22.5,33z M29.7,34.3c1.7-0.1-0.8,0,0.3-0.1h-0.8c0.1,0,0.2,0,0.3,0C29.6,34.2,29.7,34.2,29.7,34.3
							c0.3-0.1,0.4-0.1,0.4-0.1c0.2,0,0.3,0,0.9,0l-0.7,0.1c-0.6,0.1,1,0,1.1,0C30.9,34.3,29.1,34.4,29.7,34.3z M20.9,33
							c-1.6,0-1.4-0.1-2.4-0.1C19.9,32.8,19.6,33,20.9,33z M40.3,33.3L40.3,33.3l1.2-0.1h0.1L40.3,33.3z"/>
						<path class="st0" d="M18.8,33.6c-0.5,0-0.7,0-0.9,0C18.2,33.6,18.5,33.6,18.8,33.6z"/>
						<path class="st0" d="M36.3,36.6c0,0-0.2,0-0.3,0C36,36.6,36,36.6,36.3,36.6z"/>
						<path class="st0" d="M33,36.7L33,36.7h-0.2H33z"/>
						<path class="st0" d="M14.1,35.9c0.7,0.1-0.7-0.1-1.2-0.1C13.4,35.9,13.6,35.8,14.1,35.9z"/>
						<path class="st0" d="M9.8,35.1c0.3,0.1,0.8,0.2,1.4,0.2C10.8,35.3,10.3,35.3,9.8,35.1z"/>
						<path class="st0" d="M13.3,35.8c-0.9-0.1-1.6-0.2-2.2-0.3C11.7,35.6,12.1,35.6,13.3,35.8z"/>
						<path class="st0" d="M14.2,36.3c-0.7-0.1-2-0.3-2-0.3c2.8,0.3-0.6-0.2-0.8-0.2C13.2,36.1,13.2,36.1,14.2,36.3z"/>
						<path class="st0" d="M18.1,36.7c-0.3,0-0.6,0-0.8,0C17.6,36.7,17.8,36.7,18.1,36.7z"/>
						<path class="st0" d="M19.2,36.8c1,0.1,1.4,0.1,1.8,0.2c-1.1,0-1.9-0.1-2.8-0.2C18.7,36.8,19.5,36.8,19.2,36.8z"/>
						<path class="st0" d="M19.1,39c-0.2,0-0.8,0.1-0.8,0.1c0.6-0.1,1.1-0.1,1.7-0.2C20.7,38.8,19.4,39,19.1,39z"/>
						<path class="st0" d="M25,37.5c0.7-0.4,0.9-0.6,0.9-0.6c0.1,0,0.1-0.1,0.5,0c0,0-0.1,0-0.1,0.1H26c-0.1,0-0.2,0.1-0.3,0.1
							C25.4,37.1,25.1,37.4,25,37.5z"/>
						<path class="st0" d="M24.6,38.3l-0.5,0.2C24.3,38.4,24.5,38.3,24.6,38.3L24.6,38.3z"/>
						<path class="st0" d="M26.7,42c-0.1-0.1,0-0.2,0-0.7c0,0.1,0,0.2,0,0.3v0.1C26.7,41.9,26.8,41.9,26.7,42
							C26.8,42,26.8,42,26.7,42z"/>
						<polygon class="st0" points="28.5,39.3 28.5,40.1 28.5,37.4 						"/>
						<path class="st0" d="M32.7,38.5h0.2c0.6,0.2,1,0.3,1.6,0.6C33.8,38.8,33.3,38.7,32.7,38.5z"/>
						<path class="st0" d="M37.8,36.3c-0.2-0.1,2.5-0.2,3.2-0.4C40.4,36.1,38.8,36.1,37.8,36.3z"/>
						<path class="st0" d="M21.2,33.5h2.6C21.8,33.6,23.3,33.5,21.2,33.5z"/>
					</g>
				</g>
			</g>
		</g>
	</g>
</g>
<g>
	<g>
		<g>
			<g>
				<g>
					<path class="st0" d="M53.5,29.4c0.1,0.1,0.3,0,0.2-0.2L53.4,29L53.5,29.4z"/>
					<path class="st0" d="M54.2,27.8c-0.2-0.2-0.6-0.6-0.9-0.3c0.3,0.2,0.2,0.3,0.7,0.6c0,0.2-0.1,0.4-0.2,0.3
						c0.1,0.1-0.1,0.3,0.2,0.4c0.2-0.3,0.2-0.7,0-1.1C53.9,27.7,54,27.8,54.2,27.8z"/>
					<path class="st0" d="M43.4,7.7L43.4,7.7C43.5,7.7,43.5,7.7,43.4,7.7z"/>
					<path class="st0" d="M29.5,2.5c0.1,0,0.2,0,0.2,0C29.6,2.5,29.5,2.5,29.5,2.5z"/>
					<path class="st0" d="M27,2.1h0.1C27,2.1,27,2.1,27,2.1z"/>
					<path class="st0" d="M43.4,7.7l-0.2-0.3C43,7.4,43.3,7.5,43.4,7.7z"/>
					<path class="st0" d="M52.8,24.8c0,0.1,0.1,0.1,0.1,0.2L52.8,24.8L52.8,24.8z"/>
					<path class="st0" d="M48.5,11.9L48.5,11.9c0.1,0.1,0.2,0.1,0.2,0.1L48.5,11.9z"/>
					<path class="st0" d="M51.4,15.9c0-0.1-0.3,0-0.5,0c0.1,0,0.2,0,0.3,0.1C51.3,16,51.4,16,51.4,15.9z"/>
					<path class="st0" d="M53.8,23.4l0.1,0.1C53.9,23.5,53.9,23.5,53.8,23.4z"/>
					<path class="st0" d="M46,9.2V9C46,9.2,46,9.2,46,9.2z"/>
					<path class="st0" d="M52.1,34.8C52.2,34.8,52.2,34.8,52.1,34.8C52.2,34.7,52.1,34.7,52.1,34.8z"/>
					<path class="st0" d="M54.3,29.4L54.3,29.4c0.1,0.1,0.1,0.1,0.2,0.1L54.3,29.4z"/>
					<path class="st0" d="M22.1,2.2L22.1,2.2C22.3,2.2,22.3,2.2,22.1,2.2z"/>
					<path class="st0" d="M0.6,35.2c0.1-0.6,0.6,0.7,0.7-0.1C1.1,35.2,0.6,34.7,0.6,35.2z"/>
					<path class="st0" d="M52.9,24.7c0-0.1,0-0.1,0-0.2C52.8,24.5,52.8,24.7,52.9,24.7z"/>
					<path class="st0" d="M1.2,35.1L1.2,35.1L1.2,35.1L1.2,35.1z"/>
					<path class="st0" d="M12,6.7h0.1C12.3,6.7,12.1,6.7,12,6.7z"/>
					<path class="st0" d="M19.6,3.5h-0.2C19.5,3.5,19.5,3.5,19.6,3.5z"/>
					<path class="st0" d="M9.1,9.6C9,9.6,9,9.6,8.9,9.8c0,0,0,0,0.1,0C8.9,9.7,9,9.7,9.1,9.6z"/>
					<path class="st0" d="M6.1,12.9C6.1,12.9,6.1,12.8,6.1,12.9c0.1-0.1,0.1-0.1,0.1-0.1L6.1,12.9z"/>
					<path class="st0" d="M46.9,45.4c0.1,0,0.2,0,0.3,0C47,45.4,47.3,45,46.9,45.4z"/>
					<path class="st0" d="M53,24.8c-0.1,0-0.1,0-0.1-0.1L53,24.8L53,24.8z"/>
					<path class="st0" d="M10.7,11.5l-0.5,0.3C10.3,11.9,10.4,11.7,10.7,11.5z"/>
					<path class="st0" d="M20.8,53.3h0.1H20.8z"/>
					<path class="st0" d="M8.9,13.3c-0.1,0-0.3,0.1-0.5,0.1v0.1L8.9,13.3z"/>
					<path class="st0" d="M47.2,45.6L47.2,45.6L47.2,45.6z"/>
					<path class="st0" d="M49,41.7c-0.3,0.4,0.2,0.4,0.3,0.7c-0.2,0.7-0.5,0.1-0.8,0.2c-0.1,0.4,0,0.9-0.2,1.2c-0.1,0-0.1,0-0.1-0.1
						c0,0.6-0.8,1.1-0.9,1.8c-0.1,0-0.1,0-0.1,0c0.2,0.1,0.5,0.2,0.5,0.3c-0.2,0.2-0.1,0.6-0.5,0.4c0.1-0.1,0-0.2,0-0.3l-0.1,0.3
						c-0.5-0.1,0.1-0.3,0-0.6c-0.2,0.4-0.5,1.2-0.9,1.5c-0.3-0.2,0.6-0.8,0-0.7l0.6-0.3c-0.8,0,0.3-0.2-0.5-0.3
						c-0.7,0.6-0.5,0.9-1.1,1.3c0,0.3,0.2,0.2,0.2,0.4c-0.7,1.1-1.4-0.1-1.7,0.9c0,0.3,0.2,0.8-0.5,1L43.1,49
						c-0.7,0.4,0,0.8-0.9,1.1c0-0.2,0.5-0.6,0.3-0.4c-0.7,0.1-0.2,0.4-0.6,0.7l-0.3-0.2c-0.8,0.4-1.4,1.3-2.3,1.8
						c0-0.1,0.1-0.3-0.1-0.3c-0.6,0.3-1.1,0.7-1.7,0.9c-0.7,0.1-1.4,0.2-1.9,0.3l-0.3,0.4c-0.1,0-0.2-0.1-0.1-0.2
						c-0.5,0,0,0.2-0.1,0.3c-0.2,0.1-0.5-0.1-0.2-0.2c-0.7,0.4-2.2,1.2-3.1,0.9l0.1-0.1c-0.7,0-0.7,0.8-1.4,0.6l0.1-0.1
						c-1.5,0-3.2,0.3-4.3-0.2c-0.2,0.4-1.5-0.3-1.6,0.3c-0.8-0.4-0.6-0.6-1.7-0.9c-0.3-0.1-0.6,0.3-0.9,0.3l0.1-0.3L21.7,54
						l-0.2-0.4h-0.3c0.1,0,0.2,0.2,0.2,0.3c-0.3,0-0.7-0.1-0.9-0.3c-0.2-0.2-0.3-0.4-0.3-0.4L18.8,53c0.1-0.1,0.3-0.1,0.6-0.1
						c-0.8,0.1,0-0.3-0.7-0.3c0,0.1-0.1,0.2-0.1,0.2c-0.2-0.3-0.9-0.7-1.5-0.8l0.2-0.2c-0.9-0.4-1.9-0.9-2.8-1.5
						c0.3,0.3,0,0.6-0.3,0.4l0.1-0.3c-0.3,0.1,0.2,0.3-0.3,0.3c-0.3-0.3,0-0.6,0.2-0.4l-0.5-0.2c0-0.1,0.1-0.1,0.2-0.2
						c-0.3,0.1-0.5-0.8-0.9-0.7v-0.1c-0.9-0.7-1.4-0.9-2-1.6c-0.2,0.2-0.5-0.1-0.8-0.1c-0.3-0.6-0.7-1.3-1.2-1.9
						c-0.5-0.3-0.3,0-0.7,0c0.2-0.2-0.3-0.9,0.1-0.7c-0.3-0.3-0.6-0.6-0.8-0.9c-0.2-0.2-0.6-0.6-0.9-1c0,0.2,0,0.3-0.1,0.3
						c-0.1-0.2-0.1-0.6,0-0.6l0,0c-0.6-0.4-0.8-1.2-0.9-2s-0.3-1.5-0.8-1.9l0,0l-0.7-1C4,37,4.4,37.8,4.4,37.4
						c-0.6,0-0.7-0.2-0.8-0.6c-0.1-0.2-0.1-0.4-0.1-0.7c-0.1-0.4-0.1-0.9-0.5-1.3c0.3-0.4,0.2-1.1,0-1.8c-0.1-0.3-0.2-0.7-0.2-1
						s0-0.7,0.1-0.9l-0.2,0.1c-0.2-0.2,0.1-0.3,0.1-0.6c-0.1,0-0.1,0.3-0.3,0.1c-0.2-1.1,0-2.4,0.1-3.6C2.7,26.6,3,26,3.1,25.3
						l0.2-0.9l0.3-0.8c0.2-0.8-0.9-0.8-0.1-1.7l0.2,0.4c0-0.9,0.3-1.7,0.7-2.6c0.3-0.8,0.8-1.6,1-2.5c0,0.1,0.1,0.2,0,0.3
						c0.5-0.2,0.7-1.1,0.6-1.2c0.1-0.2,0.2,0,0.3,0c0.3-0.2,0.2-1,0.6-1c0.1,0,0,0.1,0,0.2c0-0.2,0.7-0.9,0.3-0.9
						c0.6-0.4,0.6-1.1,1.1-1.3c0-0.4,0.9-0.7,0.6-1.1c0.3,0.3,1-0.6,1.2-1c0,0.2,0.3-0.1,0.5,0.1c0.3-0.3,0.6-0.7,0.3-0.8
						c1-0.1,1-1.5,1.9-1.1c0.2-0.2,0.5-0.6,0.7-0.8s0.6-0.4,0.8-0.7c0.6-0.4,1-0.9,1.6-1.1c0.2,0.4-1.2,0.7-0.9,1.1
						c0.5-0.4,0.8-0.8,1.1-1c0.3-0.3,0.8-0.6,1.4-0.8c0.3-0.1-0.1,0.2-0.1,0.4c0.5-0.3,1-0.6,1.6-0.7c0.6-0.2,1-0.4,1.5-0.7
						c0,0-0.1,0.1-0.2,0.2c0.2-0.1,0.5,0,0.5-0.2l-0.2,0.1c-0.5-0.2,0.7-0.9,0.7-1c-0.2,0.7,1.1-0.1,0.7,0.9c0,0.1,0.1,0,0.1-0.1
						c0.2,0,0.3,0.1,0.1,0.3c0.7-0.6,0.5-0.8,1.1-0.9c0,0.1-0.1,0.2-0.1,0.3c0.3-0.2,0.6-0.6,1.2-0.6c0,0.1,0,0.1-0.1,0.2
						c1-0.2,1.6-0.7,2.7-0.6c-0.3,0.4,0.3,0.1,0.3,0.6c0.2-0.1,0.3-0.1,0.6-0.1L27.7,4c0.6,0,1-0.2,1.5-0.1L29,4.1h1l-0.6-0.2
						c0.6-0.2,0-0.6,0.7-0.3c-0.1,0,0.6,0,0.8,0.3l0,0c0.2-0.1,0.6-0.2,0.9,0c0.1,0.1-0.1,0.4-0.1,0.6c0.3-0.3,1.2,0.1,1.6-0.2
						c-0.1,0.1-0.2,0.2-0.1,0.3l0.2-0.2c0.2,0.1,0.2,0.2,0.1,0.3c0.7,0.2-0.1-0.6,0.7-0.1c-0.1,0,0,0-0.2,0.1
						c0.8,0.3,1.7,0.2,2.4,0.7c0.1,0.4-0.7-0.1-0.6,0.3c0.6,0.1,1.1,0.2,1.7,0.3c0.6,0.1,1.1,0.3,1.6,0.6L39,6.5
						C39.4,6,39.5,7,40.2,7.1c-0.1,0-0.3,0.2-0.2,0.1c0.6,0.4,1.4,0.7,2.5,1.1h-0.2c0.2,0.3,0.9,0.8,1.2,1.1c0.2,0,0.5,0.1,0.5-0.1
						c0.3,0.8,0.9,1.2,1.5,1.6c0.6,0.3,1.2,0.8,1.4,1.5c-0.1-0.1-0.3-0.2-0.2-0.1l0.9,0.7c0.1-0.2,0-0.2,0-0.6
						c0.2,0,0.6,0.1,0.7,0.3c-0.5-0.2-0.3,0.2-0.3,0.6c0-0.1,0.1-0.1,0.2-0.1c0,0.8,0.5-0.2,0.7,0.6h-0.1c0.2,0.2,0.6,0.3,0.7,0.6
						c-0.1,0.3-0.3-0.2-0.6,0c0.2,0.3,1,0.3,1,0.9c-0.2-0.1-0.3-0.3-0.6-0.4c0,0.6,0,0.6,0.2,0.9l0,0l0.2,0.8v-0.2
						c0.9,0.1,0.8,0.9,1.6,1.3c-0.8-0.4-0.3,0-0.7,0.1c0,0.2,0,0.6-0.1,0.4c0.5,0.2,0.1,0.7,0.7,0.9c0,0,0.2,0.3-0.1,0.3
						c0.2,0.3,0.1-0.2,0.2-0.2c0.7,0.6,0.2,1.7,1,2.5c0.5,0.8,0.8,0.9,1.2,1.7c-0.1,0.3-0.5-0.1-0.5-0.1c0,0.4,0.1,0.8,0.2,1.2
						c-0.1-0.1-0.2,0-0.2,0.2c0.1,0.3,0.5,0.1,0.3,0.7c-0.1-0.1-0.3-0.1-0.5-0.2c0.1,0.3,0.5,0.8,0.6,1.1c-0.2,0.1-0.3-0.2-0.5-0.3
						c0.1,0.4,0.3,1.1,0.7,1.2l0.1-0.3c0,0.2-0.2,0.1-0.3,0c-0.3-0.3,0-0.6,0.1-0.7l0.1,0.3c0.6-0.3-0.3-1.2-0.3-1.8l0.5,0.1
						l-0.5-0.6c0.1-0.1,0.3-0.3,0.5,0c0.1-0.4-0.2-0.3-0.1-0.8c0,0,0,0,0.1,0l-0.2-0.3c0.1,0.1,0.3-0.1,0.3,0.1
						c0.1-0.8-0.7-1.1-0.3-1.5l0,0c-0.5-1-0.3,0-1-0.7l0.6-0.8h-0.3c0-0.1-0.1-0.3,0.1-0.3c-0.3-0.3-0.1,0.1-0.5,0
						c0-0.3-0.1-0.7-0.2-0.9c-0.1-0.3-0.2-0.6,0-0.7c-0.3-0.1,0,0.6-0.3,0.1c0.5-0.4-0.3-0.6-0.3-1.1c0.3,0,0.5,0.4,0.5-0.1
						c-0.6,0-0.3-0.9-0.7-1.2c-0.3,0.2-0.6-0.7-1.1-1.2c0.2-0.1-0.6-1.2-0.9-1.8h0.1c-0.5,0.1-0.7-0.4-1.1-0.8
						c0.2-0.1,0.3-0.1,0.6,0c-0.1-0.1-0.2-0.2-0.3-0.3c-0.2,0-0.3-0.1-0.6-0.2l0.3-0.1c-0.5-0.4-1.1-0.7-1.5-1.3
						c-0.2,0.2-0.1,1-0.9,0.6c0.1-0.1,0.2-0.3,0.5-0.2c-0.1,0-0.2-0.1-0.3-0.2h0.5c-0.2-0.3-0.3,0-0.5-0.2c0.1-0.1,0-0.2,0.1-0.3
						c0.1,0,0.1,0.2,0.2,0.2c-0.2-0.2-0.5-0.6-0.5-0.8c0,0.1-0.1,0.2-0.3,0.1c-0.5-0.4,0-0.3-0.2-0.7c-0.2,0-0.5-0.3-0.7-0.1
						c-0.1-0.1-0.1-0.2-0.1-0.3c-0.3-0.1-1.2-0.9-1.1-0.3v0.1l0,0l0,0l0,0c-1-0.3-1.7-1.3-2.7-1.8V6c-0.6-0.2-1.2-0.6-1.8-0.6
						C39.1,5.3,38.9,5.1,39,5c-0.5-0.1-0.6-0.1-1.1-0.4c0.6,0-0.1-0.2,0.6,0c-0.6-0.3-0.6-0.6-1.4-0.4c0.7-0.1,0-0.4-0.3-0.4L36.7,4
						c-0.3-0.1-0.6-0.2-0.9-0.3L36,3.3c-1.1-0.8-2.4,0.1-3.2-0.8c-0.3,0.2,0.7,0.3,0.3,0.6C32.6,3,32,2.3,31.9,2.3
						c-0.8-0.3-0.8,0.4-1.6,0.2c0.1,0.1,0.1,0.4-0.5,0.6c-0.6-0.1-0.7-0.6-0.3-0.7c0.1,0,0.2,0,0.2,0.1c0.2,0,0.5-0.1,0.2-0.2
						l-0.1,0.1c-0.2-0.1-1.1-0.2-0.9-0.3c-0.5,0.1-0.2,0.2,0.1,0.3c-0.8-0.2-1.1-0.1-1.9-0.2c0.1,0.1,0.2,0.2,0.1,0.2
						c-1.1-0.1-0.5,0.2-1.2,0.3c-0.5-0.2,0.1-0.4-0.7-0.3c-0.5-0.1-0.1-0.3,0-0.4c-0.7,0.2-1.4,0-1.8,0l0.3-0.1
						C23.6,2,23.4,2,23.3,2l0.2,0.2c-0.2,0-0.5,0-0.5-0.1c-0.2,0.2,0.2,0.4-0.1,0.7c-0.3-0.1-0.8,0.2-1,0c0.9,0-0.2-0.3,0.6-0.6
						c-0.1,0.1-0.3,0.1-0.6,0.1c0,0,0-0.1,0.1-0.1c-0.9-0.1-0.3,0.4-1.2,0.7c0.1-0.2-0.3-0.3-0.5-0.2c0.3-0.1,0.2,0.2,0,0.6
						c-0.6,0-0.6,0.2-0.9,0.3h0.3C19.6,3.8,19.4,3.8,19,4c-0.1-0.1,0.3-0.2,0.1-0.2c-0.3,0.4-1,0-1.6,0.4c-0.3,0-0.1-0.3-0.5-0.3
						c-0.6,0.4-0.8,0-1.5,0.6c0.5,0,0.5,0,0.2,0.5l1-0.7L16.1,5c0.6-0.2,0.9-0.6,1.1-0.6c-0.3,0.3-0.2,0.2,0,0.3
						c-0.6-0.1-0.8,0.7-1.5,0.7l-0.2-0.7C15,4.8,14.7,5,14.4,5.3c-0.3,0.3-0.7,0.7-1.1,0.9l0.3-0.1c0,0.3-0.6,0.3-0.8,0.7
						c-0.1-0.2-0.3-0.1-0.6-0.2c0.1,0.1-0.7,0.4-0.5,0.9l-0.6,0.1C10.3,8,10.6,8.7,10,9.2c0-0.3-0.3-0.2,0-0.8
						C9.8,8.7,9.5,8.9,9.7,9C9.4,9,9.2,9.8,8.9,9.8c0,0.1,0.1,0.3-0.1,0.6c-0.1,0-0.1-0.1-0.1-0.1c0.1,0.1-0.2,0.4,0.1,0.4
						C7.6,11,7,12.5,6.1,12.9c-0.3,0.6-0.7,1.2-1,1.7c0-0.1-0.1-0.1,0-0.1c-0.6,0.4,0.3,0.7-0.3,1.3c-0.6,0.2,0.1-0.6-0.2-0.3
						c-0.7-0.2-0.5,1-1.1,1.3v-0.1C3,17,3.2,17.8,2.7,18.5c0,0,0-0.1-0.1,0c0.1,0.6-0.1,1.6-0.2,2.2c-0.2-0.3,0-0.3-0.3-0.3
						c-0.1,0.3,0.5,0.1,0.3,0.7c-0.2,0.1-0.6,0.6-0.8,0.6c0-0.2,0.1-0.3,0.2-0.6c-0.6,0-0.2,0.6-0.5,0.9l-0.1-0.1
						c-0.2,0.9,0.2,1,0,2h0.1c0.3,0.7-0.3,0.4-0.1,1L0.8,25C0.9,25.3,1,26.3,1,27c-0.3-0.4-0.3-1.1-0.5-1.7c-0.1,0.3-0.1,1.2,0,1.5
						c0-0.1-0.1-0.3,0-0.4c0.2,0.4,0.5,1.1,0.3,1.8C0,27.9,0.6,30.1,0,30.5c0.2,0.4,0.2,1.1,0.2,1.8c0,0.7,0,1.3,0.2,2.1
						c0.6-0.7,0.1,0.4,0.8,0.2c0,0.3,0,0.4,0,0.4l-0.1,1.1C1,36.6,0.9,35.9,0.8,36c0.1,0.8-0.2,0.3-0.2,0.9C0.8,36.8,1,37,1,37.6
						l0.1-0.7c0.6,0.9-0.2,1.1,0.5,2l-0.3-0.2c0.3,0.4,0.7,2,1.5,2.2c0,0.1-0.1,0.3-0.3,0.1c0.2,0.7,0.7,1.2,1.1,1.8s0.9,1.1,1,1.6
						H4.3c0.2,0.2,0.5,0.2,0.6,0.6c-0.1,0-0.2,0-0.1,0.1s0.7,0.3,0.8,0.7l-0.3-0.1c0.3,0.6,0.7,0.9,1.1,1.2c0.5,0.2,0.9,0.4,1.2,0.8
						c-0.3,0.3,0.2,1.2,0.6,1.6H8.1c0.6,0.6,1.1,0.9,1.7,1.2c0.6,0.3,1.1,0.6,1.8,0.9c0.2,0.4,0.8,1,1.5,1.3c0.7,0.4,1.5,0.9,2,1.3
						c-0.1-0.2,0.2-0.3,0.5-0.2c0.2,0.2,1,0.1,0.7,0.4h-0.1c0,0.4,0.7,0.7,1.2,0.9l0.3-0.6c0.5,0.7,1.4,0.9,2.2,1
						c0.8,0.1,1.6,0.2,1.8,0.7c0.3,0,0.8,0,1.1-0.1l-0.1,0.3c0.9,0.2,1.4,0.3,2.5,0.3L25,57.1c0.7,0,0.9-0.9,1.5-0.9l0.1,0.4
						c1.1,0.1,2.3,0.3,3.4-0.1c0,0.1,0,0.2-0.2,0.2c0.6,0,2.2,0.1,1.8-0.6c0.1,0.4,1.1-0.1,1.7-0.4V56c0.5-0.6,0.5-0.7,1-0.9
						c0.2,0,0.2,0.2,0,0.2c0.6,0,0.3-0.4,1-0.4l-0.2,0.2c0.6-0.1,0.5-0.2,0.7-0.6c0.3-0.2,1-0.3,1.2-0.1c0-0.2,0.2-0.6,0.6-0.6
						c0.1,0.1,0,0.2,0,0.2c1-0.1,1.1-0.9,1.9-0.9c0.1,0.1,0.1,0.1,0.2,0.1c-0.7,0.3-1.2,0.6-1.2,0.6c0.1,0.2,0.7,0,0.5,0.7
						c0.3-0.4,0.9-1.2,1.6-1.3h0.1l0,0c0.1,0,0.2-0.1,0.3-0.2c0.2-0.1,0.3-0.1,0.5-0.2c0.2,0.2,0.7-0.2,0.9-0.4
						c-0.2-0.2,0.2-0.4-0.2-0.4c0,0,0,0.1-0.2,0.2l-0.1,0.1l0,0c-0.2,0.1-0.3,0.2-0.7,0.4c0.1-0.2,0.2-0.6,0.7-0.6
						c0-0.2,0.1-0.6,0.1-0.7c0.6,0.1,1.5-0.1,1.7,0.1c0.7-0.7,1.8-1.3,1.8-2.2c0.1-0.2,0.3-0.1,0.5-0.1c-0.1,0.1-0.2,0.2-0.2,0.3
						c0.3-0.4,1.1-1.1,0.9-1.5c0.6-0.3,0,0.6,0.6-0.1v0.2c0.9-0.4,1.1-1.2,1.5-1.9c0.3-0.8,0.6-1.5,1.5-2c-0.1,0.1-0.2,0.1-0.2,0.1
						c1.6-1.7,2.2-4.2,3.4-6.1c0.3-0.6,0.1-0.7,0-1.1h0.3c-0.1-0.2-0.1-0.6-0.2-0.8c0-0.4,0.2-0.8,0.6-1.2c0.3-0.3,0.6-0.8,0.3-1.5
						L54,33.9c0.1-0.4,0.1-1.3,0.3-1.2c0,0-0.2-0.2-0.1-0.3h0.2c0-0.3-0.1-0.7-0.2-1.1c0.2-0.8,0.7,0.2,0.8-1c0-0.4-0.5-1.2-0.6-1.1
						c0,0.2-0.1,0.4-0.3,0.4h0.2c-0.6-0.1-1-0.3-1.5,0.6l0.3,0.7L53,31v-0.6c-0.2,0.3,0,0.4,0.1,0.7c-0.1,0-0.2,0.1-0.3,0.2l0.5,0.7
						c-0.2,0-0.3-0.3-0.6,0.1c0.2,0.3,0.5-0.2,0.6,0.2c-0.3,0.3-0.5,0.1-0.3,0.6c-0.1,0-0.2-0.1-0.2-0.2c0.1,0.3-0.1,0.9,0.2,1
						c-0.3,0.2-0.1,1.1-0.6,1c0.1,0.1,0.2,0.7,0.2,0.9c-0.5-0.7-0.3,1.1-0.9,0.8c0.5,0.6-0.2,1.5-0.2,2.1c0,0-0.1-0.1,0-0.2
						c-0.2,0.3-0.3,0.4-0.6,0.6c0.3,0.2,0.2,0.8,0.3,1.2c-0.6,0.2-0.3-0.4-0.8-0.6c0.3,0.1,0,0.9,0.3,0.9c-0.5,0.2-0.2,0.2-0.7,0.2
						c0.5,0.3,0,0.3,0.1,0.8c-0.6,0.3-0.6-0.1-0.7,0.4C48.9,42.3,49,41.7,49,41.7z M39.5,52L39.5,52c0.1-0.1,0.2-0.1,0.2-0.1
						S39.6,51.9,39.5,52z M38.4,52.5c0.1,0,0.3-0.1,0.5-0.2c0.1,0.1,0.1,0.2,0,0.2C38.9,52.4,38.6,52.5,38.4,52.5z M41.8,53.2
						c-0.1,0.1-0.2,0.1-0.3,0.1c0.1,0,0.2-0.1,0.3-0.2l0,0C41.8,53.1,41.8,53.1,41.8,53.2z"/>
					<path class="st0" d="M41.9,52.6C41.9,52.6,42,52.6,41.9,52.6C41.9,52.5,41.9,52.5,41.9,52.6L41.9,52.6L41.9,52.6z"/>
					<path class="st0" d="M43.5,7.8L43.5,7.8L43.5,7.8L43.5,7.8z"/>
					<polygon class="st0" points="22.1,53.5 22.1,53.6 22.3,53.5 					"/>
					<path class="st0" d="M47.8,13.2v0.1C47.8,13.3,47.8,13.3,47.8,13.2z"/>
					<path class="st0" d="M49.5,15.7l0.1,0.4C49.5,15.9,49.5,15.8,49.5,15.7z"/>
					<path class="st0" d="M50.4,17.6C50.5,17.6,50.5,17.6,50.4,17.6L50.4,17.6L50.4,17.6z"/>
					<path class="st0" d="M20.3,5.4C20.3,5.6,20.3,5.6,20.3,5.4C20.1,5.7,20.2,5.6,20.3,5.4z"/>
					<path class="st0" d="M30.8,3.9c-0.1,0-0.2,0.1-0.3,0.1C30.5,4,30.8,4,30.8,3.9z"/>
					<path class="st0" d="M10.7,11.5L10.7,11.5L10.7,11.5z"/>
					<path class="st0" d="M29.9,3.9c0.2,0.1,0.3,0.1,0.5,0C30.2,3.9,30.1,3.9,29.9,3.9z"/>
					<path class="st0" d="M53.1,26.7L53.1,26.7c0,0.1,0,0.1,0,0.1V26.7z"/>
					<path class="st0" d="M53.1,26.8v0.1C53.2,26.9,53.1,26.9,53.1,26.8z"/>
					<path class="st0" d="M53.2,27.2L53.1,27C53.2,27,53.2,27.1,53.2,27.2z"/>
					<path class="st0" d="M52.8,23.9L52.8,23.9C52.7,23.9,52.7,23.9,52.8,23.9z"/>
					<path class="st0" d="M52.5,23c0,0.2-0.1,0.6,0,0.8h0.1C52.5,23.8,52.7,23.1,52.5,23z"/>
					<path class="st0" d="M52.7,18.9c0.1,0.2,0.1,0.6,0.2,0.8c0.1-0.2,0.1-0.4,0.3-0.1C53.1,18.6,52.9,19.9,52.7,18.9z"/>
					<path class="st0" d="M51.8,16.7c0.2,0.3,0.1-0.1,0.2-0.1C51.8,16.3,51.7,16.3,51.8,16.7z"/>
					<path class="st0" d="M38.8,4.8l0.1-0.2C38.7,4.4,38.9,4.7,38.8,4.8z"/>
					<path class="st0" d="M35.2,5.1c0.1,0,0.2,0.1,0.2,0.2l0.2-0.2C35.5,5.1,35.4,5.1,35.2,5.1z"/>
					<polygon class="st0" points="33.8,2.6 33.9,2.6 33.4,2.5 					"/>
					<path class="st0" d="M6.4,12.1l0.3,0.1C6.8,12,6.5,11.6,6.4,12.1z"/>
					<path class="st0" d="M1,23.8c-0.2,0.1-0.3,0.4-0.2,0.7C0.8,24.2,1,23.9,1,23.8z"/>
					<polygon class="st0" points="18.1,55.3 17.8,55.3 18.3,55.4 					"/>
				</g>
			</g>
		</g>
	</g>
</g>
<g class="st1">
	<path d="M82.7,23.7c3.4-0.3,6-0.1,7.8,0.6c0.8,0.6,1.2,0.9,1.2,1c0,0.1-0.2,0.5-0.6,1.2c-0.7,3.3-1.3,5.8-1.9,7.6
		c-0.4,0.8-1,2.3-1.9,4.2c-0.2,1.2-1,1.2-2.3,0.1L82.4,37c-0.3-0.2-0.7-0.3-1.2-0.3c-3.4,0.1-6.1,0.4-8,1c-0.2,0.1-0.3,0.2-0.3,0.3
		c-0.1,0.1-0.4,0.2-0.9,0.3c-0.7,0.2-1.4-0.4-2-1.8c-1.5-3.1-2.2-6.3-2.3-9.6c-0.1-0.9,0.3-1.3,1.2-1c0.4,0.1,0.8,0.1,1.3,0.1
		C73.2,25,77.4,24.2,82.7,23.7z M86.1,25.5c-0.6-0.1-1.4-0.2-2.4-0.1c-0.7,0-1.1,0.4-1.2,1c-0.1,0.7-0.1,1.4-0.2,2.2
		c-0.3,1.1,0,1.6,1,1.7c0.4,0,1-0.3,1.7-0.8c1.4,0.6,1.6,1.2,0.5,1.9c-1.4,0.5-2.7,0.6-4,0.3c-0.8-0.3-1.2-1-1.2-2.2c0-1,0-2,0.1-3
		c0-0.5-0.3-0.7-1-0.6l-0.8,0.1c-0.5,0.1-0.9,0.4-1.1,1.1C77.3,28,77,29,76.8,30c0,0.4-0.1,0.8-0.3,1.3c-0.9,1-1.8,1.5-2.8,1.7
		c-0.8,0.2-0.8-0.1,0-0.7c1-0.9,1.5-1.7,1.6-2.6c0.1-0.6,0.2-1.3,0.1-2c-0.1-0.5-0.4-0.8-1-0.6c-1,0.3-1.9,0.7-2.9,1.1
		c-0.5,0.3-0.8,0.7-0.9,1.2c-0.3,1.6-0.1,3.4,0.7,5.3c0.2,0.5,0.6,0.7,1.3,0.6c3.7-0.5,6.6-0.8,8.7-1c0.7-0.2,1.1-0.3,1.4-0.2
		c0.3,0.2,0.5,0.5,0.6,1c0.2,0.6,0.4,0.8,0.5,0.8c0.9,0,1.7-0.8,2.3-2.2c1-2.3,1.6-4.4,1.7-6.3C87.9,26.5,87.3,25.8,86.1,25.5z"/>
	<path d="M115.5,30.2c0.7-0.2,1.6-0.1,2.7,0.4c0.8,0.4,0.9,0.8,0.2,1.4c-1.3,1.3-2.2,2.3-2.5,3c0,0.1,0.4,0.2,1,0.3l2.6,0.4
		c0.8,0.1,1,0.6,0.6,1.2c-0.9,2.2-2.3,4.5-4.3,7c-0.4,0.6-0.7,1-0.8,1c-0.4-0.2-0.8-0.4-1.1-0.5c-1.2-0.4-2.4-1.5-3.5-3.1
		c-0.6-0.9-0.6-1.1,0.1-0.8c1,0.5,1.8,0.8,2.3,0.9c0.9,0.3,1.7,0,2.4-1c1-1,1.6-2,1.9-3c0.3-0.6,0-1-0.6-1.2
		c-0.5-0.1-1.1-0.2-1.9-0.2c-0.6-0.1-0.7-0.4-0.2-1.1c0.8-1,1.1-2,0.9-3c-0.2-0.3-0.5-0.5-1-0.4c-1,0.1-1.9,0.3-2.5,0.5
		c-0.5,0.2-0.7,0.4-0.5,0.6c0.1,0.2-0.1,0.6-0.6,1.2c-1.1,1.9-2.1,3.5-3.1,4.8c-0.4,0.3-0.5,0.7-0.3,1.1c0.1,0.2-0.1,0.6-0.7,1.1
		c-1.9,1.3-3.6,2.1-5.3,2.3c-0.7,0-0.7-0.2,0-0.7c3.7-2.7,6.2-5.5,7.3-8.6c0.3-0.6,0-0.7-0.6-0.5c-0.2,0.1-0.5,0.2-0.7,0.3
		c-0.6,0.3-1,0.4-1.1,0.4c-0.3-0.2-0.6-0.6-0.7-1.2c-0.1-0.5-0.2-0.9-0.1-1C107.7,31.6,111.2,31,115.5,30.2z M116.2,16.6
		c0.6-0.4,1.1-0.2,1.3,0.8c0.2,0.7,0.3,1.1,0.2,1.2c-0.1,0.1-0.6,0.1-1.4,0.1c-1.1,0.1-2.1,0.2-3.2,0.4c-0.7,0.2-1,0.3-1.1,0.4
		c0,0.1,0.2,0.2,0.6,0.3c0.4,0.1,0.6,0.2,0.7,0.3c0.1,0.1,0,0.5-0.1,1c-0.1,0.7,0.1,1,0.6,1c0.4-0.1,1.2-0.2,2.3-0.2
		c1.1-0.1,2.1-0.3,3.1-0.7c0.6-0.1,1-0.1,1.1-0.1c0.2,0.2,0.5,0.7,0.7,1.4c0.2,0.7,0.2,1.2,0.1,1.2c-2.3-0.2-4.4-0.1-6.3,0.2
		c-0.7,0.1-0.7,0.3-0.1,0.6c0.8,0.4,1.7,1,2.5,1.6c1.2,0.7,2.8,1.3,5,1.7l0.7,0.4c0.7,0.6,0.8,0.9,0,1.2c-0.6,0.1-1.8,0.2-3.4,0.1
		c-0.2,0-0.4,0-0.6,0c-0.6-0.1-1-0.3-1.2-0.6c-0.3-0.3-0.6-0.6-1-0.8c-1.2-0.8-2.2-1.4-3-1.7c-0.5-0.2-0.8-0.1-0.9,0.4l-0.1,2.1
		c0.2,1-0.3,1.4-1.6,1.1c-0.3-0.1-0.5-0.5-0.5-1.3l-0.1-1.7c0-0.5-0.4-0.5-1-0.1c-1.6,1.1-3.1,2.1-4.7,3.3c-1,0.9-1.9,1.1-2.5,0.6
		c-0.3-0.1-0.6-0.3-0.7-0.5c0-0.1,0.3-0.3,0.9-0.7c2-0.9,4-2.3,6-4.2c0.4-0.5,0.3-0.7-0.3-0.7c-1.5,0.3-2.9,0.6-4.1,1
		c-0.6,0.2-1.1,0.2-1.3,0.1c-0.7-0.8-1-1.3-1-1.7c0.2-0.2,0.5-0.3,1.1-0.3c1.6-0.1,3.9-0.5,6.8-1c0.5-0.1,0.8-0.4,0.7-1.1v-0.5
		c0-0.5-0.3-0.7-0.9-0.5l-2.3,0.3c-0.9,0.1-1.6,0.2-2.3,0.1c-0.1-0.1,0.2-0.3,0.8-0.7c3-1.8,5.6-2.8,7.6-3.1
		C114.8,17,115.6,16.9,116.2,16.6z"/>
	<path d="M138.4,19.7c0.3-1.3,0.9-1.6,1.8-0.9c0.7,0.5,0.8,1.1,0.3,1.8c-1.5,2.1-3,4.4-4.5,7c-0.2,0.5,0,0.9,0.6,1.2
		c1,0.4,1.4,0.9,1.2,1.6c-0.3,5.5-0.3,9.2-0.2,11.1c0.4,1.1-0.2,1.5-1.7,1.2c-0.3-0.1-0.5-0.5-0.4-1.2c0.2-3.2,0.2-6.5,0.1-9.8
		c-0.1-0.6-0.2-1.1-0.3-1.5c-0.3-0.5-0.5-0.4-0.7,0.3c-0.3,0.6-0.8,1.1-1.7,1.6c-1,0.6-2.1,0.9-3.3,0.7c-0.1-0.1,0.2-0.4,0.8-0.9
		C133.4,28.9,136.1,24.8,138.4,19.7z M150,20.4c1.4-0.4,2.7-0.2,3.8,0.7c1.9,1,2.1,1.8,0.7,2.6c-1.1,0.6-2.6,1.5-4.4,2.8
		c-0.6,0.5-0.8,1-0.4,1.6c0.3,0.6,0.8,0.9,1.4,0.8l5.2-0.7l0.3-0.1c0.7-0.1,1.1,0.1,1.4,0.7c0.5,0.7,0.7,1.4,0.6,2
		c-0.1,0.2-0.4,0.2-1.1,0c-1.3-0.6-3.4-0.7-6.3-0.3c-0.5,0-0.8,0.4-0.7,1c0.1,3.6,0,7.2-0.5,11.1c-0.1,0.8-0.5,1.1-1.2,0.9
		c-1-0.1-1.7-0.3-2.3-0.5c-0.9-0.4-2-1.2-3.3-2.6c-0.5-0.7-0.7-1.1-0.4-1.1c0.5,0.2,1.1,0.4,1.6,0.8c1,0.4,1.8,0.6,2.4,0.8
		c0.5,0.1,0.8,0,0.9-0.1c0.7-2.2,1-5.2,0.7-9.1c-0.1-0.6-0.4-0.9-0.9-0.8c-2.3,0.3-4.3,0.7-6.1,1.2c-0.7,0.3-1.2,0.1-1.5-0.6
		c-0.2-0.8,0-1.3,0.6-1.3c0.4,0,1.3-0.1,2.6-0.3c1.3-0.2,2.5-0.4,3.8-0.5c0.5-0.1,0.6-0.4,0.3-1c-0.4-0.6-1-1-1.6-1.3
		c-0.7-0.3-1-0.5-0.9-0.6c1-0.9,1.9-1.2,3-0.8c0.7,0.6,1.2,0.6,1.7,0.1c0.6-0.8,1.1-1.5,1.6-2.3c0.6-0.8,0.9-1.5,0.8-2
		c-0.2-0.3-0.4-0.5-0.8-0.5c-0.7-0.1-1.6,0.3-2.9,1c-1.4,0.6-2.9,1.6-4.7,2.8c-0.4-0.1-0.8-0.6-1.1-1.4c-0.4-0.8-0.3-1.3,0.3-1.4
		c1.1-0.2,2.7-0.5,4.8-1.1C148.3,20.7,149.2,20.5,150,20.4z"/>
</g>
</svg>
