<?xml version="1.0" encoding="utf-8"?>
<!-- Generator: Adobe Illustrator 23.0.3, SVG Export Plug-In . SVG Version: 6.00 Build 0)  -->
<svg version="1.1" id="圖層_1" xmlns="http://www.w3.org/2000/svg" xmlns:xlink="http://www.w3.org/1999/xlink" x="0px" y="0px"
	 viewBox="0 0 51.2 51.2" style="enable-background:new 0 0 51.2 51.2;" xml:space="preserve">
<style type="text/css">
	.st0{fill:none;stroke:#FFFFFF;stroke-miterlimit:10;}
	.st1{fill:#FFFFFF;}
</style>
<path class="st0" d="M13.1,11.8c0.4-0.2,0.6-0.3,1-0.4C22,6.6,29,6.6,36.8,11.3c0.2,0,0.3,0,0.5,0c0.6,0.5,0.9,0.8,1.5,1.3
	c0.1,0.1,0.2,0.1,0.2,0.2c0.1,0.1,0,0.1-0.2,0s-0.3-0.1-0.2-0.1c2.5,3.8,3.5,6.3,4.1,11.4c0,0.1-0.2,0.1-0.4,0.2
	c-1.3,0-1.6,0-1.6-0.4s-0.1-0.6-0.1-1c-9.8-1.1-20.3-1.1-30.1,0c-0.1,0.4-0.1,0.6-0.1,1c0,0.2-0.5,0.3-1.6,0.5
	c-0.3,0-0.4-0.1-0.3-0.4C9,18.5,10.1,15.9,13.1,11.8z M10.5,22.5c9.7-1.3,20.3-1.3,29.9,0c-0.7-4.8-1.4-7-3.4-10.7
	c-2.6-1.5-4.1-2.1-7.2-2.6c0.4,2.7,0.6,4.2,0.9,7.4c0.1,0.1,0.1,0.1,0.2,0.2c0.1,0,0.2,0.1,0.4,0.1c1.5,0.1,2.2,0.2,3.6,0.4
	c1.3,0.1,1.5-0.1,1.5-0.7c0-0.5,0-0.7,0-1.1c0,0,0.1,0,0.3,0s0.3,0.1,0.3,0.2c0.1,0.5,0.2,0.7,0.3,1.2s0.3,0.8,0.7,0.9
	s0.6,0.3,0.6,0.5c0,0,0.1,0.6-1.4,0.3c-2.8-0.5-4.3-0.7-7.4-0.9c-0.1,0-1.1-0.3-1.1-0.9c-0.1-3.4-0.3-5-0.5-7.9
	c-2.4-0.3-3.6-0.2-6,0.1c-0.7,4.4-1.7,6.9-4.7,8.6c-1.9,1.1-5,2.4-5.4,2.5c-0.2,0-0.4,0-0.4-0.1s0.1-0.1,0.2-0.2
	c6.5-3.1,7.4-5.1,8.5-10.5c-2.7,0.6-4,1.2-6.4,2.5C12,15.5,11.2,17.7,10.5,22.5z"/>
<g>
	<path class="st0" d="M13.1,11.8c0.4-0.2,0.6-0.3,1-0.4C22,6.6,29,6.6,36.8,11.3c0.2,0,0.3,0,0.5,0c0.6,0.5,0.9,0.8,1.5,1.3
		c0.1,0.1,0.2,0.1,0.2,0.2c0.1,0.1,0,0.1-0.2,0s-0.3-0.1-0.2-0.1c2.5,3.8,3.5,6.3,4.1,11.4c0,0.1-0.2,0.1-0.4,0.2
		c-1.3,0-1.6,0-1.6-0.4s-0.1-0.6-0.1-1c-9.8-1.1-20.3-1.1-30.1,0c-0.1,0.4-0.1,0.6-0.1,1c0,0.2-0.5,0.3-1.6,0.5
		c-0.3,0-0.4-0.1-0.3-0.4C9,18.5,10.1,15.9,13.1,11.8z M10.5,22.5c9.7-1.3,20.3-1.3,29.9,0c-0.7-4.8-1.4-7-3.4-10.7
		c-2.6-1.5-4.1-2.1-7.2-2.6c0.4,2.7,0.6,4.2,0.9,7.4c0.1,0.1,0.1,0.1,0.2,0.2c0.1,0,0.2,0.1,0.4,0.1c1.5,0.1,2.2,0.2,3.6,0.4
		c1.3,0.1,1.5-0.1,1.5-0.7c0-0.5,0-0.7,0-1.1c0,0,0.1,0,0.3,0s0.3,0.1,0.3,0.2c0.1,0.5,0.2,0.7,0.3,1.2s0.3,0.8,0.7,0.9
		s0.6,0.3,0.6,0.5c0,0,0.1,0.6-1.4,0.3c-2.8-0.5-4.3-0.7-7.4-0.9c-0.1,0-1.1-0.3-1.1-0.9c-0.1-3.4-0.3-5-0.5-7.9
		c-2.4-0.3-3.6-0.2-6,0.1c-0.7,4.4-1.7,6.9-4.7,8.6c-1.9,1.1-5,2.4-5.4,2.5c-0.2,0-0.4,0-0.4-0.1s0.1-0.1,0.2-0.2
		c6.5-3.1,7.4-5.1,8.5-10.5c-2.7,0.6-4,1.2-6.4,2.5C12,15.5,11.2,17.7,10.5,22.5z"/>
	<g>
		<g>
			<g>
				<path class="st0" d="M11.1,19c0,0.1,0,0.2-0.1,0.3C11.1,19,11.2,18.9,11.1,19z"/>
				<path class="st0" d="M10.5,22.5c0.1-0.9,0.4-2.4,0.6-3.3C10.9,20,10.6,22.2,10.5,22.5z"/>
				<path class="st0" d="M11.3,18.9c-0.1,0.4-0.2,0.7-0.3,1.1C11.2,19.3,11.2,19.4,11.3,18.9z"/>
				<polygon class="st0" points="11.2,19.2 11.1,19.2 11.3,18.6 				"/>
				<path class="st0" d="M28.8,15.5c0-0.1,0-0.2,0.1-0.1L28.8,15.5z"/>
				<path class="st0" d="M29.6,17.5c0.2,0.1,0.4,0,0.5,0.1C29.9,17.5,29.8,17.6,29.6,17.5z"/>
				<path class="st0" d="M28.6,13.1v0.5V13.1z"/>
				<path class="st0" d="M14.1,18.8c0.4-0.2,0.8-0.4,1.1-0.5C14.4,18.8,14.3,18.7,14.1,18.8z"/>
				<path class="st0" d="M37.5,15.8l-0.1-0.1C37.4,15.6,37.4,15.5,37.5,15.8z"/>
				<path class="st0" d="M30.1,18.1C30.1,18.1,30.2,18.1,30.1,18.1h0.2H30.1z"/>
				<path class="st0" d="M28.4,11.2L28.4,11.2v-0.4C28.5,11,28.5,11.1,28.4,11.2z"/>
				<path class="st0" d="M35.3,16.8c-0.2,0-0.3-0.1-0.4-0.1C35.2,16.8,35.3,16.8,35.3,16.8z"/>
				<path class="st0" d="M30.2,17.6L30.2,17.6C30.1,17.6,30.1,17.6,30.2,17.6C30.1,17.6,30.1,17.6,30.2,17.6z"/>
				<path class="st0" d="M28.1,15c0,0.2,0,0.4,0,0.6C28.1,15.3,28.1,15.1,28.1,15z"/>
				<path class="st0" d="M14.1,18.8c-0.1,0.1-0.2,0.1-0.3,0.2C13.9,18.9,14,18.9,14.1,18.8z"/>
				<path class="st0" d="M11.9,16c0.1-0.3,0.2-0.4,0.2-0.5C12.1,15.7,12,15.9,11.9,16z"/>
				<path class="st0" d="M11.4,22.6h-0.1C11.4,22.6,11.4,22.6,11.4,22.6z"/>
				<path class="st0" d="M25.6,21.8c0.1,0,0.1,0,0.2,0C25.7,21.8,25.6,21.8,25.6,21.8z"/>
				<path class="st0" d="M38.7,21.8c-0.9-0.1-1.9-0.3-2.7-0.3l0.3,0.1l-0.8-0.1v0.1c-1.3-0.1-3-0.2-3.5-0.3l0.2,0.1l-1.4-0.1
					l0.8,0.1c-1.6-0.1-4.1-0.2-4.4-0.2h0.1c-0.3,0-0.5,0-0.7,0l0.2,0.1c-2.4,0-3.1,0.1-5.8,0.1c-0.7,0,0.4,0,0.4,0
					c-0.4,0.1-1.4,0.1-1.6,0c0.2,0.1,1.4,0,0.5,0.1c-0.6,0,0.4,0.1-0.7,0.1l-0.4-0.1c-0.6,0.1-0.1,0.1-1.1,0.1
					c-1.1,0,1.3-0.2-0.4-0.1c-0.9,0.1-1.8,0.4-3.5,0.5c-1.5,0.1,0.8,0-1.2,0.2l1.3-0.1c-0.3,0.1-0.1,0.1-1,0.2c-0.3,0-0.8,0-1.3,0.1
					c1.9-0.2-1.6,0.3,0.1,0.2l-0.7,0.1c0.1,0,0.1,0,0.1,0l-0.9,0.1c0.5,0,1.8-0.2,1.2,0L10.5,23c0.3,0-0.1,0.1,0,0.1
					c1.2-0.1,2.5-0.2,3.7-0.3c-0.1,0-0.7,0-0.5,0c1-0.1,0.8,0,1.7-0.1H15c0.1,0,0.2,0,0,0c-0.3,0.1-0.5,0-0.5,0
					c0.3-0.1,1.3-0.1,1.5-0.1c1.2-0.1,0.2-0.1,0.5-0.2c0.6,0,2-0.1,2.8-0.1h-0.5c0.9-0.1,1.7-0.1,2.3-0.1h-0.2
					c1.3,0,1.9-0.2,2.9-0.1h-0.1c0.5,0,1.3-0.1,1.8,0c0,0,0.1,0,0.3-0.1c0.3,0.1,0.8,0,1.6,0c-0.5,0-0.3-0.1-0.9-0.1
					c1.2-0.1,1.1,0.1,2.1,0.1c0.6,0-0.5-0.1-0.7-0.1c1.5,0.1,3.2-0.1,4.2,0.1h-0.7c0.6,0.1,0.9,0.1,0.9,0.1c-0.2,0-0.3,0-0.3,0
					c1.9,0,2.9,0.3,4.8,0.5c-0.1,0-0.4-0.1-0.4-0.1c0.9,0,0.8,0.3,2.2,0.3l-0.3-0.1c0.5,0,0.8,0.1,0.7,0.1c0,0,0.2,0,0.5,0
					c0.2,0,0.4,0,0.7,0.1c0.1,0,0.3,0,0.4,0c0-0.1,0-0.3-0.1-0.4c0-0.3-0.1-0.5-0.1-0.8l-0.1-0.6c-0.1-0.4-0.2-0.8-0.3-1
					c0-0.7-0.4-2.6-0.7-3.2c-0.4-0.8,0.1,0.8,0,0.5c-0.2-0.6-0.2-1-0.6-1.9c0.1-0.1,0.9,1.8,0.2,0V15c0.1,0.2,0.2,0.4,0.3,0.7
					c0.1,0.5-0.2-0.3-0.2-0.4c-0.2-0.6-0.5-1.3-0.8-1.9c0-0.2,0.5,0.9,0.6,1.1c-0.3-0.7-0.8-1.5-1.2-2.3c-0.1-0.2-0.2-0.4-0.4-0.6
					c-0.2-0.1-0.4-0.2-0.6-0.3c-0.4-0.2-0.7-0.4-1.1-0.6l0.1,0.1c-1.7-0.9-1.1-0.3-2.4-1c-0.8-0.2,0.3,0.2-0.9-0.2
					c-0.3-0.1-0.1-0.1-0.1-0.1c-0.7-0.2-0.9-0.2-1-0.2c-0.2,0-0.2,0-1-0.2c0.1,0.1,0.2,0.1,0.3,0.2c-0.2,0-0.4-0.1-0.6-0.1
					c0,0.2,0,0.4,0,0.6c0,0.4,0,0.8,0.1,1.2c0,0.8,0.1,1.6,0.2,2.3c0.1-0.1,0-1,0-1.3c0,1,0.2,2.1,0.3,3.2c0,0.3,0.1,0.6,0.1,0.8
					l0.1,0.4c0,0.1,0,0.2,0.1,0.2l0.2,0.2c0.1,0.1,0.3,0.1,0.4,0.2c0.2,0,0.3,0,0.4,0.1c0.2,0,0.5,0.1,0.7,0.1
					c-0.5,0,0.8,0.2-0.3,0.2c-0.1-0.1-0.3-0.1-0.6-0.1c0,0-0.2,0-0.3,0c-0.1,0-0.1,0-0.2-0.1c-0.1,0-0.2-0.1-0.3-0.2
					c-0.1-0.1-0.2-0.2-0.2-0.2c0,0.1,0.1,0.2,0.2,0.3c0,0.1,0.1,0.1,0.1,0.1c0.1,0,0.1,0.1,0.2,0.1s0.1,0.1,0.3,0.1
					c0.1,0,0.2,0,0.3,0c0.4,0.1,0.9,0.1,1.4,0.1c0.9,0.1,1.8,0.2,1.9,0.3c0.1,0,0.2,0,0.3-0.1c0.3,0.1,1.1,0,0.5,0.1
					c0.2,0,0.4-0.1,0.7-0.2c0.2-0.2,0.3-0.5,0.3-0.7c0-0.4,0-0.7,0-1c0,0.2,0,0.4,0,0.6s0,0.6-0.3,0.9s-0.6,0.3-0.8,0.3
					s-0.4,0-0.5,0c-0.6-0.1,0.8,0,0.3-0.1c0.7,0.1,1-0.2,1-0.4c0.1-0.3,0-0.5,0-1.1c0.1,0.3,0.1,0,0.1-0.5h-0.2c0,0,0.1,0.1,0.1,0.2
					l0,0h0.1c0.1,0,0.1,0,0.1,0s0.1,0,0.1,0.1l0,0c0-0.1,0.1-0.1,0.1-0.1h-0.2c0,0.1,0,0.2,0,0.2c0.1,0.2,0.1,0.6,0.2,0.9
					c0,0.4,0.2,0.8,0.4,0.9c0.1,0.1,0.4,0.3,0.6,0.4c0.1,0,0.2,0.1,0.3,0.1l0.1,0.1c0,0,0,0,0.1,0l0.2-0.1c-0.2,0.1-0.2,0-0.2,0l0,0
					c0,0,0,0-0.1,0l0,0c0,0-0.1,0-0.2,0.1c-0.2,0-0.4,0-0.6,0c-0.4,0-0.8-0.1-1.2-0.2c0.5,0.1,1.2,0.3,1.1,0.3
					c-0.6-0.1-1.3-0.2-1.4-0.2c1.1,0.3,1.2,0.2,1.4,0.2c0.1,0,0.1,0,0.3-0.1c0.1,0,0.2,0,0.3,0s0.3-0.1,0.3-0.1l0,0c0,0-0.1,0,0.2,0
					h-0.2c0-0.1-0.2-0.3-0.5-0.4s-0.6-0.4-0.7-0.9c0.2,0.4,0.2,0.2,0.3,0.4c0.1,0.2,0.2,0.4,0.5,0.5c0.2,0.1,0.5,0.2,0.6,0.5l0,0
					c0,0.3-0.4,0.4-0.6,0.4c-0.3,0-0.6,0-0.8,0c-0.6-0.1-1.1-0.2-1.7-0.3c-0.7-0.2-0.1-0.2-1.7-0.4l1.3,0.1
					c-1.5-0.2-0.3-0.1-1.5-0.3L34,18c-0.7-0.1-1-0.1-1.4-0.2l0.6,0.2c-0.4,0-1.1-0.1-1.1-0.1c-0.1,0-0.1,0-0.1,0
					c-0.1,0-0.3,0-0.7-0.1c0.3,0,0.5,0,0.5,0.1c-1.8-0.2-0.4,0.1-1.5,0c0.2,0-0.2,0.1-0.5,0c0.1-0.1-0.5-0.2-0.8-0.6
					c-0.1-0.1,0-0.5-0.1-0.8c0-0.3,0-0.5,0-0.7l0,0v-1.5c0,0.3-0.1,0-0.1-0.5v0.1c-0.1-0.5-0.1,0.6-0.2-0.9v-0.8c0,0.1,0,0,0-0.1
					v-0.8c-0.1-0.6-0.1-1.1-0.1-1.7c0-0.2,0-0.4,0-0.6V8.8c0,0,0-0.1-0.1-0.1h-0.3c-0.2,0-0.4,0-0.6-0.1c-0.2,0-0.3,0-0.5,0
					c0.2,0,0.5,0,0.6,0.1c0.2,0,0.3,0.1,0.1,0.1c-0.3,0-0.7-0.1-0.9-0.1h0.1c-0.9-0.1-1.8-0.1-2.7-0.1c0.2,0,1.7,0,1,0.1
					c-0.4,0.1-1.2,0-1.6,0.1c0.1,0,0.9-0.2,0-0.1c-0.1,0-0.9,0.2-0.5,0.2c-0.2,0-0.4,0-0.8,0.1c-0.1,0-0.2,0-0.3,0h-0.2l-0.1,0.5
					c-0.1,0.5-0.2,1-0.4,1.4c0,0.3,0.1-0.1,0.1-0.3v-0.1c0.1-0.5,0.1-0.1,0.3-1.1c0.2-0.1-0.2,1.5-0.5,2.4c0.2-0.5,0.3-0.9,0.4-1.4
					c-0.2,1.2-0.5,2.7-1.3,4c-0.7,1.3-1.9,2.3-2.9,2.9c0.6-0.4,1.1-0.8,1-0.8c-0.6,0.5-0.9,0.6-1.2,0.8C17,17.5,16.7,17.7,16,18
					l0.1-0.1c-0.7,0.4-1.7,0.8-2.1,1.1c0.3-0.1,1-0.5,1.1-0.4c-0.6,0.3-1.2,0.5-1.8,0.8c0.6-0.2,1.8-0.8,2.5-1.1
					c0.5-0.2-1,0.5-0.8,0.3c1.6-0.8,2-0.9,2.8-1.3c0.5-0.2-0.6,0.5-0.9,0.6c-1.4,0.6-2.7,1.2-4.3,1.9c-0.3,0.1-0.6,0.3-0.9,0.3
					c-0.1-0.1,0.1-0.1,0.1-0.2c0.1,0,0.1,0,0.2-0.1c0.1,0,0.2,0,0.3-0.1c0.2-0.1,0.5-0.2,1.2-0.5L13,19.4c0.3-0.2,0.5-0.3,0.7-0.4
					c-0.6,0.3-1.3,0.6-1.9,0.8c0.8-0.5,2.4-1.1,3.5-1.8c-0.1,0-0.5,0.3-0.6,0.3c0.9-0.5,1.7-1.1,2.5-1.7c0.7-0.6,1.3-1.4,1.7-2.1
					c0.1-0.3,0,0-0.2,0.3s-0.5,0.6-0.4,0.5c0.5-0.6,0.8-1.5,1-1.7c-0.2,0.3,0.6-1.8,0-0.3c0.3-0.7,0.4-1.4,0.6-2.2
					c0.1-0.4,0.2-0.7,0.2-1.1l0.1-0.5c0-0.1,0,0-0.1,0H20l-0.3,0.1c-1.5,0.3-3,0.8-4.3,1.5c0.1,0,0.2,0,0.1,0.1c0.9-0.5,2.3-1,2.9-1
					c-0.6,0.2-1.5,0.4-1.7,0.6c0.3-0.1,0.9-0.3,1-0.3c-0.8,0.3-1.3,0.5-1.8,0.7l0.3-0.2c-1.5,0.7-1.1,0.4-2.2,1
					c-0.1,0.2-0.2,0.3-0.3,0.6c-0.3,0.7,0.1,0,0.1,0c-0.3,0.4-0.9,1.8-1.1,2.2c0.2-0.4,0.3-0.7,0.5-1.1c-0.4,0.8-0.7,1.5-1,2
					c0,0,0.1-0.1,0.2-0.3c-0.3,0.6-0.6,1.4-0.7,1.8v0.2c0.1-0.4,0.5-1.5,0.6-1.7c0,0.1-0.4,1.3-0.6,1.8c0.4-1.1,0.6-1.7,0.9-2.2
					c0.3-0.5,0.5-0.9,0.9-1.8l-0.2,0.3c0.2-0.6,0.6-1.2,0.9-1.7c0.5-0.3,1-0.5,1.5-0.8c-0.3,0.2-0.3,0.2-0.2,0.2
					c1-0.6,2.1-1,3.3-1.4c0.3-0.1,0.6-0.2,0.8-0.2l0.3-0.1H20h0.1v0.1c0,0.2-0.1,0.4-0.1,0.7c-0.1,0.3-0.1,0.6-0.2,1
					c-0.1,0.3-0.2,0.5-0.3,0.8l0.1,0.1c-0.4,1.3-0.2,0.2-0.4,1c0.1-0.3,0.1-0.2,0.1-0.3c-0.3,0.7-0.4,0.9-0.4,1s0,0.2-0.2,0.5
					c0.3-0.3,0.7-1.5,0.7-1.1c-0.3,0.7-0.8,1.6-1.3,2.2s-1,1-1.2,1c-1,0.9-2.4,1.8-3.8,2.4c-0.3,0.2-0.7,0.3-1,0.5
					c0,0-0.1,0-0.2,0.1c-0.1,0-0.1,0.1-0.2,0.1c0,0-0.1,0.1-0.1,0.3c0,0.2,0.1,0.3,0.2,0.4c0.2,0.1,0.2,0.1,0.3,0.1
					c0.3,0,0.5-0.1,0.7-0.1c0.7-0.3,1.3-0.5,1.9-0.8c0.3-0.2-0.2,0.1-0.1,0c0.5-0.2,1.2-0.5,1.8-0.8c0.6-0.3,1.1-0.6,1.1-0.6
					c0.4-0.3,0.5-0.4,0.6-0.5c0.6-0.3,1.2-0.7,1.8-1.3c-0.1,0.1-0.3,0.3-0.4,0.4v-0.1c0.2-0.2,0.4-0.4,0.6-0.6l0,0
					c0.7-0.7,1.2-1.7,1.6-2.7s0.6-2,0.9-2.9c-0.3,1,0-0.3-0.2,0.2c0.1-0.2,0.2-0.5,0.2-0.9c0.1-0.4,0-0.6,0.3-0.6
					c0.8-0.1,1.8-0.2,2.6-0.2c0,0,0.1-0.1-0.1-0.1c0.3,0,0.7,0,1,0.1L26,9c0.4,0,0.9,0,1.4,0.1c0.3,0,0.3,0,0.4,0.1v0.1v0.2
					c0,0.9,0.1,1.7,0.1,2.3c0-0.7,0-0.7,0-0.8c0.1,1.3,0.2,2.5,0.2,4c0-0.1,0-0.1,0-0.1c0,0.4,0,0.9,0,1.3l0.1,0.1
					c0,0.2,0,0.4,0,0.6c0,0.3,0.2,0.6,0.5,0.8c0.2,0.2,0.5,0.3,0.7,0.4C29.8,18,30,18,30.2,18c0.4-0.1,2.2,0.2,3.3,0.3
					c0.4,0.1-0.9-0.2,0.3,0c0.1,0.2,1.5,0.2,1.5,0.4l1,0.1l0.2,0.1c0.4,0,0.7,0.1,1.1,0.1c0.2,0,0.4,0,0.6,0c0.1,0,0.3,0,0.5-0.1
					s0.6-0.3,0.4-0.9l0,0c-0.1-0.3-0.2-0.4-0.4-0.5c0.1,0.1,0.2,0.3,0.1,0.2c-0.2-0.3-0.7-0.5-0.8-0.5c-0.1-0.1-0.1-0.1,0.1,0
					c-0.2-0.1-0.4-0.3-0.5-0.9c-0.1-0.5-0.2-0.8-0.1-0.3c0-0.1,0.2,0.9,0.3,1c0,0-0.1-0.1-0.2-0.4c-0.1-0.3-0.2-0.6-0.2-0.7
					c0-0.1,0-0.2,0-0.3l-0.1-0.1v-0.1l0,0l0,0c-0.1-0.2-0.2-0.2-0.2-0.3L37,15c-0.1,0-0.1-0.1-0.2-0.1c-0.1,0-0.2,0-0.2,0h-0.1h-0.1
					h-0.1c0,0-0.1,0-0.1,0.1c-0.1,0.1-0.1,0.2-0.1,0.4v-0.1c0,0.3,0,0.5,0,0.7s0,0.5,0,0.6s-0.1,0.1-0.2,0.1c-0.1,0-0.3,0-0.5,0
					c-0.1,0-0.2,0-0.7,0v-0.1l-1.3-0.2l0.6,0.2c-0.7-0.1-1.4-0.2-2-0.3l-0.4-0.1c-0.1,0,0,0-0.1,0s-0.2-0.1-0.1-0.1
					c0-0.1,0,0.1,0-0.3c-0.2-0.3-0.2-2.4-0.5-3.4l0.1,1c-0.1-1-0.2-1.6-0.3-2.2c0-0.3-0.1-0.6-0.1-0.9c0-0.2,0-0.3-0.1-0.5
					c0-0.2,0-0.1,0-0.2c0,0.1,0,0.1,0,0.1c0,0.2,0,0.3,0.1,0.4c0,0.3,0.1,0.5,0.1,0.7c0.1,0.5,0.2,1,0.4,2.2c-0.4-1-0.5-2-0.6-3V9.8
					c0-0.1,0,0,0,0l0,0l0,0c0.4,0.1,0.7,0.1,1.1,0.2c-0.1,0-0.6-0.2-0.1-0.1c0.4,0.1,1.9,0.5,1.6,0.5c0.6,0.2,0.7,0.2,1.1,0.3
					c0.7,0.3,1.3,0.7,1.9,1.1H36c0.2,0.1,0.4,0.2,0.6,0.3c0,0,0,0,0.1,0.1l0.2,0.3c0.2,0.4,0.4,0.8,0.6,1.2c0.4,0.8,0.7,1.6,1,2.4
					c0.5,1.6,0.9,3.4,1.2,5.2v-0.1v0.4c0,0,0,0,0,0.1c0-0.1,0.1,0.1,0.1,0.2h-0.1l0,0h-0.2h-0.3L38,21.7
					C38,21.6,38.1,21.7,38.7,21.8z M34.5,16.8c0.2,0,0.4,0.1,0.6,0.1c0.1,0,0.2,0,0.3,0c-0.1,0-0.2,0-0.3,0
					C34.8,16.9,34.6,16.9,34.5,16.8z M15.5,17.4c0.3-0.1-0.3,0.2-0.5,0.3c0.3-0.2,0.5-0.3,0.8-0.5C15.9,17.1,15.7,17.4,15.5,17.4z
					 M34.5,17.4h-0.3l-0.4-0.1L34.5,17.4z M30.1,12.3l0.1,0.8V13L30.1,12.3L30.1,12.3z M35.3,11.2c0,0-0.1,0-0.1-0.1
					C35.2,11.1,35.3,11.2,35.3,11.2c0.5,0.3,0.8,0.4,1.2,0.7C36,11.7,35.6,11.4,35.3,11.2z M31.7,16.5c0.3,0,0.4,0.1,0.6,0.1
					c-0.1-0.1-0.7-0.2-0.3-0.1c0.3,0.1,1.2,0.2,1.2,0.3C32.4,16.6,31.8,16.7,31.7,16.5z M29.8,18H30c-0.1,0-0.2,0-0.4-0.1
					c-0.1,0-0.3-0.1-0.4-0.1C29.4,17.9,29.6,18,29.8,18z M28.2,14.9c0-0.4,0-1.5-0.1-2.2c-0.1-0.2-0.1,0.6,0,1.4
					C28.1,15.2,28.2,14.5,28.2,14.9z M30.3,11.2v0.2V11.2V12c-0.1-0.5-0.1-1-0.2-1.4c0-0.3,0-0.7,0-0.9c0,0.2,0,0.6,0.1,1
					S30.3,11.3,30.3,11.2z M26.7,8.9c-0.7-0.1-2.1-0.1-2-0.2c0,0.1,1,0.1,1.4,0.1C26.3,8.9,26.4,8.9,26.7,8.9z M26.7,8.8
					c1,0.2,1.3,0,1.2,0.7c0-0.3,0-0.3,0-0.5c-0.1,0-0.2,0-0.2-0.1c-0.1,0-0.2-0.1-0.1-0.1c-0.7-0.1-0.6,0-1,0L26.7,8.8z M27.7,9.1
					h0.1v0.1c0,0.1,0.1,0.3,0.1,0.5s0,0.4,0,0.8l-0.1-1.2V9.2C27.8,9.1,27.7,9.1,27.7,9.1z M21.7,12.3c0.1-0.1,0.1-0.3,0.2-0.4
					C21.7,12.3,21.7,12.4,21.7,12.3l-0.1,0.4C21.8,11.7,21.7,12.2,21.7,12.3z M25.7,8.9c0.4,0,0.8,0,1.3,0.1
					C26.9,9,26.1,8.9,25.7,8.9z M21.7,12c0.1-0.5,0.4-1.9,0.4-1.7C22.1,10.4,21.8,11.7,21.7,12z M20.1,9.4c0.1,0,0.1,0,0.2,0v0.2
					l-0.1,0.3c0-0.1,0-0.2,0-0.3l0.1-0.2C20.2,9.4,20.1,9.4,20.1,9.4z M16.2,17.3l0.1-0.1c0.1-0.1,0.2-0.2,0.4-0.3
					C16.5,17,16.3,17.1,16.2,17.3z M14.8,18.9C14.8,19,14.8,19,14.8,18.9c0.2,0,0.3-0.1,0.4-0.1C15.1,18.9,14.9,18.9,14.8,18.9
					c-0.3,0.2-0.7,0.4-0.9,0.5c0.1,0,0.6-0.3,0.8-0.3C14,19.5,12.2,20,12.8,20c-0.2,0-0.5,0.2-0.8,0.2c-0.2,0-0.3,0-0.4-0.1
					c-0.1-0.1,0-0.1,0-0.1s0,0.1,0.1,0.1c0.3,0.1,0.6,0,0.8-0.1c0.3-0.1,0.6-0.2,0.9-0.4C14,19.4,14.5,19.1,14.8,18.9
					c0,0,0.1-0.1,0.2-0.1C15,18.8,14.9,18.9,14.8,18.9z M21.8,10.3c0.1-0.3,0.1-0.5,0.1-0.5C22,9.5,22,9.3,22,9.4c0,0.6,0,0.2,0,0.4
					C21.9,9.9,21.9,10.1,21.8,10.3z M22.8,8.8c-0.3,0.1-0.9-0.1-0.8,0.5c0.1-0.2,0-0.4,0.3-0.4c-0.1,0-0.2,0-0.2,0v0.2L22,9.5
					l-0.2,0.8c0.1-0.5,0.1-0.9,0.3-1.4c0-0.1,0.1-0.1,0.1-0.1h0.2c0.1,0,0.2,0,0.3,0C22.7,8.8,22.8,8.8,22.8,8.8z M23.2,8.7h0.2
					H23.2L23.2,8.7L23.2,8.7c0.6-0.1,1.2-0.1,1.8-0.1C24.4,8.6,23.8,8.7,23.2,8.7z M33.9,18c0.7-0.1-1.6-0.3-1.9-0.4
					c-0.1,0.1-0.8,0.1,1,0.3c-1.5-0.1-1-0.2-1.9-0.1c0.7,0,1.6,0.2,1.7,0.2L32,17.9C32.5,18,33.3,17.9,33.9,18z M36.4,16
					c0,0.4,0.1,0.8-0.1,1.1C36.5,16.8,36.4,16.4,36.4,16L36.4,16z M39.5,17.4c0-0.1,0.5,1.3,0.5,1.7C39.8,18.3,39.6,17.6,39.5,17.4z
					 M33.6,21.8l1.3,0.1c-0.3,0.1-1.1-0.1-1.7-0.1C32.9,21.8,33.4,21.9,33.6,21.8z M25.2,21.6h-0.4H25.2L25.2,21.6z M25.8,21.7
					c-0.3,0,0.6,0.1,0.8,0.1L25.8,21.7z M18.3,22h0.5H18.3L18.3,22z M19.1,21.9c0.1,0.1,0.1,0.1,1.3,0c0-0.1-0.3-0.1,0.2-0.2
					c-0.4,0-0.7,0-0.9,0.1c0.3,0,0.6,0,0.7,0C19.9,21.8,19.4,21.9,19.1,21.9c0,0-0.1,0-0.3,0C18.8,21.8,18.9,21.9,19.1,21.9z
					 M23.6,21.6c0.2,0,0.3,0,0.4,0h0.1C23.8,21.6,23.7,21.6,23.6,21.6c-0.2,0-0.4,0-0.6,0c-0.1,0.1,0.7,0.1,0.9,0.1
					c-0.4,0-0.7-0.1-1.3,0c0.1,0,0,0,0.3,0h-0.7c-0.8-0.1,0-0.1,0.7-0.1c0,0,0.1,0,0.2,0C23.3,21.6,23.4,21.6,23.6,21.6z M17.7,21.7
					h0.4c0.2,0,0.1,0,0.2,0.1C17.7,21.8,17.1,21.8,17.7,21.7z M40.2,21.2c0.1,0.3,0-0.4-0.1-0.9l0.1,0.3c0,0,0.1,1.2,0.2,1.4
					C40.4,22.1,40.3,21.6,40.2,21.2z M33.5,17.1c0.2,0.1,1.7,0.3,2.1,0.3C34.8,17.4,33,17.1,33.5,17.1z M36.1,17.1
					c0.3-0.2,0.2-0.4,0.2-0.3c0.1-0.2,0-0.5,0-0.7c0,0.4,0,0.6,0,0.7C36.3,16.9,36.2,17,36.1,17.1c-0.1,0-0.2,0.1-0.3,0.1
					C35.9,17.2,36,17.1,36.1,17.1z M33.1,10l0.5,0.3c0.3,0.1,0.5,0.2,0.8,0.3C34,10.4,33.6,10.2,33.1,10z M38.9,16.4
					c0-0.1,0.3,0.9,0.4,1.1c0-0.1-0.2-0.7-0.3-1.2c0-0.1,0-0.2-0.1-0.3c0,0.1,0.1,0.2,0.1,0.3C39,16.5,38.9,16.4,38.9,16.4l-0.1-0.3
					l0.2,0.7L38.9,16.4z M30.3,21.3c-0.6,0-0.7,0-1.1,0C29.3,21.3,29.9,21.3,30.3,21.3z M36.8,12c0.4,0.8-0.1-0.4,0.2,0.1l-0.1-0.2
					l-0.2-0.1c0.1,0.1,0.1,0.1,0.2,0.1c0,0.1,0,0.1,0.1,0.1c0,0.1,0.1,0.2,0.1,0.2c0,0.1,0.1,0.2,0.2,0.5l-0.2-0.4
					c-0.2-0.3,0.3,0.6,0.2,0.7c-0.1-0.2-0.3-0.5-0.4-0.8C36.8,12,36.8,12,36.8,12L36.8,12z M29.3,21.2c-1,0-0.8-0.1-1.4-0.1
					C28.7,21.1,28.6,21.2,29.3,21.2z M39.1,17.8L39.1,17.8c0,0.2,0.1,0.5,0.1,0.7v0.1L39.1,17.8z"/>
				<path class="st0" d="M28.1,21.8c-0.2,0-0.4,0-0.5,0C27.7,21.8,27.9,21.8,28.1,21.8z"/>
				<path class="st0" d="M36.8,15.7l0.1-0.1l-0.2,0.1c0,0,0,0.1,0.1,0.2c0,0,0,0-0.1-0.2l0.2-0.1C36.9,15.6,36.8,15.6,36.8,15.7z"/>
				<path class="st0" d="M37.3,17.6L37.3,17.6c0.1,0.1,0.1,0.1,0.1,0.1C37.3,17.7,37.3,17.6,37.3,17.6z"/>
				<path class="st0" d="M12.1,15.4c-0.2,0.4,0.1-0.4,0.3-0.7C12.2,15,12.2,15.2,12.1,15.4z"/>
				<path class="st0" d="M13.3,13c-0.1,0.2-0.2,0.4-0.4,0.7C13,13.6,13.1,13.4,13.3,13z"/>
				<path class="st0" d="M12.3,15c0.2-0.5,0.4-0.9,0.5-1.2C12.7,14.1,12.6,14.3,12.3,15z"/>
				<path class="st0" d="M19.2,9.5C18.8,9.6,18,9.8,18,9.8c1.7-0.5-0.4,0-0.5,0C18.5,9.6,18.6,9.6,19.2,9.5z"/>
				<path class="st0" d="M20.1,10.4c0-0.2,0.1-0.4,0.1-0.5C20.2,10.1,20.1,10.3,20.1,10.4z"/>
				<path class="st0" d="M20,11.1c-0.2,0.6-0.3,0.8-0.4,1c0.2-0.7,0.3-1.1,0.5-1.7C20,10.8,19.9,11.2,20,11.1z"/>
				<path class="st0" d="M16.8,17.6c-0.1,0.1-0.4,0.2-0.4,0.2c0.3-0.2,0.6-0.3,0.9-0.5C17.6,17.1,16.9,17.5,16.8,17.6z"/>
				<path class="st0" d="M19.7,15.4c0.5-0.6,0.2-0.3,0.4-0.7l0.1,0.1C20,15.1,19.8,15.3,19.7,15.4z"/>
				<path class="st0" d="M19.8,16.1l-0.2,0.2C19.6,16.2,19.7,16.1,19.8,16.1L19.8,16.1z"/>
				<path class="st0" d="M21.2,12l-0.3,0.5C21.2,11.8,21.2,11.9,21.2,12z"/>
				<path class="st0" d="M21.8,8.8l-0.1,0.7L21.8,9c0-0.1,0-0.2,0.1-0.3h0.3L23,8.5l-0.5,0.1l-0.4,0.1C22,8.7,21.8,8.6,21.8,8.8z"/>
				<path class="st0" d="M25.7,8.4h0.1c0.3,0,0.7,0,1,0.1C26.5,8.4,26.1,8.4,25.7,8.4z"/>
				<path class="st0" d="M30.5,9c0.1,0,0,0-0.2,0c-0.1,0-0.2,0-0.3,0c-0.1,0-0.1,0-0.2,0h-0.1v0.1c0.1,0.5,0.1,1.1,0.2,1.4
					c-0.1-0.2-0.1-0.4-0.1-0.9V9.3V9.1l0,0h0.1C30,9,30.3,9,30.5,9z"/>
				<path class="st0" d="M29.5,21.8l1.5,0.1C29.8,21.9,30.7,21.9,29.5,21.8z"/>
			</g>
		</g>
	</g>
	<g>
		<g>
			<g>
				<path class="st0" d="M11.8,13.7l0.1-0.1C11.8,13.7,11.8,13.8,11.8,13.7z"/>
				<path class="st0" d="M13.2,11.9c-0.3,0.5-0.8,1.2-1.2,1.7C12.2,13.1,13,11.9,13.2,11.9z"/>
				<path class="st0" d="M11.6,13.7l0.4-0.6C11.8,13.5,11.8,13.4,11.6,13.7z"/>
				<polygon class="st0" points="11.9,13.5 11.9,13.6 11.6,13.9 				"/>
				<path class="st0" d="M33.4,22.1C33.3,22.1,33.3,22,33.4,22.1L33.4,22.1z"/>
				<path class="st0" d="M35.1,22.4c0.2,0,0.3,0,0.4,0C35.3,22.4,35.2,22.4,35.1,22.4z"/>
				<path class="st0" d="M31.8,22h0.3C32,22,31.9,22,31.8,22z"/>
				<path class="st0" d="M12.9,22.6c-0.3,0-0.6,0-0.8,0C12.7,22.5,12.8,22.6,12.9,22.6z"/>
				<path class="st0" d="M41.9,24.8L41.9,24.8C42,24.7,42.1,24.8,41.9,24.8z"/>
				<path class="st0" d="M35.4,22.9C35.4,22.9,35.5,22.9,35.4,22.9C35.5,22.9,35.5,22.9,35.4,22.9L35.4,22.9z"/>
				<path class="st0" d="M30.6,22L30.6,22h-0.3C30.5,22,30.6,22,30.6,22z"/>
				<path class="st0" d="M42.9,22.5c0-0.1,0-0.2,0-0.3C42.9,22.4,42.9,22.6,42.9,22.5z"/>
				<path class="st0" d="M35.5,22.4L35.5,22.4C35.5,22.4,35.4,22.4,35.5,22.4C35.4,22.4,35.5,22.4,35.5,22.4z"/>
				<path class="st0" d="M33,22.7c0.1,0,0.2,0,0.4,0C33.2,22.8,33.1,22.7,33,22.7z"/>
				<path class="st0" d="M12.9,22.6c0.1,0,0.2,0,0.2,0C13,22.6,13,22.6,12.9,22.6z"/>
				<path class="st0" d="M10.9,15.4c-0.1,0.2-0.2,0.3-0.2,0.3C10.7,15.6,10.8,15.5,10.9,15.4z"/>
				<path class="st0" d="M13.7,11.8L13.7,11.8L13.7,11.8z"/>
				<path class="st0" d="M22.1,8.4h0.1H22.1z"/>
				<path class="st0" d="M30.5,8c-0.6-0.1-1.2-0.3-1.7-0.4L29,7.7l-0.5-0.1v0.1c-0.4-0.1-0.9-0.1-1.4-0.2c-0.4,0-0.8,0-0.9-0.1
					l0.1,0.1c-0.3,0-0.6-0.1-0.9-0.1c0.2,0,0.4,0,0.5,0.1c-0.5,0-1.2,0-1.8,0c-0.6,0.1-1,0.1-1.1,0.1h0.1c-0.2,0-0.3,0-0.5,0.1h0.1
					c-1.6,0.3-2,0.5-3.6,1c-0.4,0.2,0.3-0.1,0.3-0.1c-0.2,0.1-0.8,0.3-1,0.3c0.2,0,0.8-0.2,0.3,0c-0.4,0.1,0.3,0-0.4,0.2H18
					c-0.4,0.2,0,0.1-0.6,0.3c-0.7,0.2,0.7-0.5-0.3,0c-0.5,0.3-1,0.7-2,1.2c-0.8,0.5,0.5-0.1-0.6,0.5l0.8-0.4c-0.2,0.1,0,0.1-0.5,0.4
					c-0.2,0-0.5,0.2-0.8,0.3c0.3-0.1,0.4-0.1,0.4-0.1s-0.1,0.1-0.3,0.2c-0.3,0.1-0.5,0.2,0,0.1c-0.1,0-0.3,0.1-0.4,0.1
					c0,0,0.1,0,0,0c-0.2,0.1-0.3,0.1-0.5,0.2c0.3-0.2,1-0.4,0.7-0.2c-0.2,0.1-0.4,0.2-0.7,0.3c0.2-0.1,0,0.1,0,0.1
					c0.2-0.1,0.3-0.2,0.5-0.2l0.3-0.1h0.1c0.1,0,0.2,0,0.3-0.1l1-0.6c-0.1,0-0.4,0.2-0.3,0.1c0.5-0.3,0.5-0.2,1-0.5L16,10.9
					c0,0,0.1,0,0,0C15.8,11,15.7,11,15.7,11c0.1-0.2,0.7-0.4,0.9-0.4c0.7-0.4,0.1-0.2,0.2-0.3c0.4-0.1,1.2-0.5,1.6-0.7l-0.3,0.1
					c0.5-0.3,1-0.4,1.3-0.5h-0.1c0.8-0.3,1.1-0.5,1.7-0.5h-0.1c0.3-0.1,0.8-0.3,1.1-0.3c0,0,0.1-0.1,0.2-0.1c0.2,0,0.5-0.1,1-0.2
					C22.9,8.1,23,8,22.6,8c0.7-0.2,0.7,0,1.3-0.1c0.4-0.1-0.3,0-0.4,0c1-0.1,2-0.3,2.6-0.1h-0.4C26.2,8,26.4,8,26.4,8
					c-0.1,0-0.2,0-0.2,0c0.6,0,1.1,0.1,1.5,0.1c0.5,0.1,0.9,0.2,1.5,0.3C29.1,8.3,29,8.3,29,8.3c0.5,0.1,0.5,0.3,1.4,0.4l-0.2-0.1
					c0.3,0.1,0.5,0.2,0.4,0.2c0.1-0.2,1.8,0.6,2.4,0.7c0.2,0.1,0.6,0.3,0.9,0.5c0.4,0.2,0.7,0.4,0.9,0.5c0.5,0.2-0.4-0.3-0.2-0.3
					c0.4,0.2,0.6,0.4,1.1,0.7c0,0.1-1.2-0.5-0.2,0.2h0.2c-0.1-0.1-0.3-0.1-0.4-0.2C35,10.7,35.5,11,35.6,11l0.6,0.3
					c0.2,0.1,0.3,0.2,0.6,0.3c0,0,0,0-0.1,0s-0.2-0.1-0.3-0.1c-0.2-0.1-0.4-0.2-0.4-0.2c0.1,0.1,0.2,0.1,0.3,0.2l0.2,0.1
					c0.1,0.1,0.2,0.1,0.3,0.1c0.2,0,0.2,0,0.3,0l0.3,0.2c0.2,0.2,0.4,0.4,0.6,0.5c0.2,0.2,0.3,0.3,0.4,0.4l0,0
					c0.1,0.1,0.1,0.1,0.1,0.2c-0.1,0-0.1-0.1-0.2-0.1l-0.1-0.1l0,0l0,0v0.1l0,0c0.1,0.1,0.2,0.2,0.4,0.6c0.3,0.4,0-0.2,0.4,0.4
					c0.1,0.2,0,0.1,0,0.1c0.5,0.8,0.3,0.3,0.7,1.1v-0.2c0.5,0.9,0.8,2,1.1,2.8c0.1-0.1-0.2-0.6-0.2-0.8c0.4,1.2,1,2.8,1.1,3.9
					c-0.1-0.3,0,0.5-0.2-0.1c0.1-0.2-0.1-0.5-0.2-0.9c0,0.6,0.6,2.5,0.5,2.7l0.1,0.2c0,0.2,0,0.6,0,0.3l0.1,0.5v0.3v0.1V24v-0.1
					c0,0,0-0.4,0-0.7c0-0.3,0-0.5-0.1-0.6c0-0.4,0.1,0.5,0.2,0.2c0,0.8,0.1,0.6,0.2,1.2v0.1c0-0.1-0.1-0.1-0.1-0.1s0,0.1-0.1,0.1
					c-0.2,0-0.4,0-0.4,0c-0.3,0-1,0-1-0.1l-0.1,0.1c0,0,0.1-0.1,0.1,0c0,0,0-0.2,0-0.3c0-0.3-0.1-0.6-0.1-1c-0.3,0-0.6-0.1-0.8-0.1
					s-0.4,0-0.6-0.1c0.3,0.1,0.8,0.2,0.7,0.2c-0.4-0.1-0.8-0.1-0.9-0.1c1.2,0.3,0.6,0,1.5,0.1c0,0.1,0,0.3,0,0.5s0,0.3,0,0.6
					c0,0.1,0,0.2,0.1,0.2c0.1,0.1,0.2,0.1,0.4,0.1c-0.3,0-0.2,0.1-0.3,0.1s-0.2-0.1-0.3-0.2c0-0.1,0-0.2,0-0.3c0-0.2,0-0.5-0.1-0.8
					c-0.6-0.1-1.2-0.1-1.7-0.2c-0.4-0.1-0.1-0.2-1.1-0.3h0.9c-0.9,0-0.2-0.1-1-0.2l0.3,0.1c-0.5,0-0.6-0.1-0.9-0.1l0.4,0.1
					c-0.3,0-0.7,0-0.7-0.1c-0.1,0-0.1,0-0.1,0.1c0,0-0.2,0-0.5-0.1c0.2,0,0.3,0,0.3,0.1c-1.1-0.1-0.3,0.1-1,0c0.1,0-0.1,0-0.3,0
					c0-0.2-1.4-0.3-1.7-0.4l0,0l-1-0.1c0.2,0,0,0.1-0.3,0.1l0,0c-0.3,0,0.4,0.2-0.6,0.1L31.2,22c0.1,0,0,0,0,0h-0.6
					c-0.8,0.1-1.4-0.1-2.3-0.1c0.3,0,0.6,0,0.5,0.1c-0.2,0-0.4,0-0.6,0l0,0l-1.7-0.1c0.1,0.1,1.1,0.1,0.7,0.1c-0.3,0.1-0.7,0-1,0
					c0,0,0.6-0.1,0-0.1c-0.1,0-0.6,0.1-0.4,0.1c-0.6,0-1.4-0.1-1.9-0.1c-0.2,0,0.1,0,0.2,0l0,0c0.4,0,0.1,0.1,0.7,0.1
					c0.1,0.1-1,0-1.6,0.1l1,0.1c-1.6,0.2-3.8,0.1-5.4,0.1c0.5-0.1,0.9,0,0.8-0.1c-1,0-0.9,0-1.9,0h0.1c-0.5,0.1-1.2,0-1.5,0.1
					c0.2,0,0.7-0.1,0.7,0l-1.3,0.1c0.4,0,1.3-0.1,1.7-0.1c0.3,0-0.7,0-0.5-0.1c1.2-0.1,1.4,0,2,0.1c0.4,0.1-0.5,0.1-0.7,0.1
					c-0.7-0.1-1.8-0.1-3,0.1l-0.6,0.1c-0.6,0-0.3-0.2-1.4-0.1h0.3c-0.2,0-0.4,0.1-0.5,0.1c0.4,0,0.9,0,1.3,0
					c-0.6,0.2-1.7,0.1-2.6,0.2c0,0,0.3,0,0.4,0c-0.5,0.1-1,0.1-1.4,0.1c-0.2,0.1-0.6-0.1-0.6,0.3c0,0.2-0.1,0.5-0.1,0.7
					c0,0.1-0.1,0.2-0.2,0.2c-0.1,0-0.2,0.1-0.3,0.1c-0.2,0.1,0,0,0.2,0s0.4-0.2,0.3-0.1c-0.2,0.2-0.5,0.2-0.7,0.3
					c-0.2,0.1-0.4,0.1-0.5,0.1c0.1,0-0.2,0.1-0.4,0.1c-0.1,0-0.2,0-0.2,0s0.1,0,0.3,0c-0.1,0-0.3,0.1-0.4,0c-0.1,0-0.2-0.2-0.2-0.3
					C7.9,24,8,23.8,8,23.5c0.1-0.5,0.1-1,0.2-1.5c0.2-1,0.4-2,0.7-2.9c-0.1,0.1-0.1,0.1-0.1,0c-0.2,0.6-0.4,1.5-0.5,1.9
					c0-0.4,0.3-1,0.3-1.1c-0.1,0.2-0.2,0.6-0.2,0.6c0.1-0.6,0.2-0.8,0.3-1.2v0.2c0.4-1.2,0.4-0.6,0.7-1.8c0.1-0.5-0.1,0-0.1,0
					c0.1-0.3,0.4-1.2,0.6-1.5c-0.1,0.2-0.2,0.5-0.3,0.7c0.2-0.5,0.5-1,0.7-1.3c0,0-0.1,0-0.1,0.1c0.2-0.4,0.5-0.9,0.6-1v-0.2
					c-0.1,0.2-0.5,0.9-0.6,1c0-0.1,0.4-0.8,0.5-1.1c-0.8,1.3-0.9,1.3-1.4,2.5l0.1-0.2c-0.3,0.8-0.6,1.5-0.8,2.2c0-0.2,0-0.2,0-0.2
					c-0.4,1.5-0.7,3-0.8,4.8c0,0.2-0.1,0.5-0.1,0.7h0.1c0.1,0.3,0.3,0.3,0.4,0.3c0.1,0,0.1,0,0.1,0s-0.1,0.1,0.3,0
					c-0.3,0-0.2,0-0.3,0c0.2,0,0.3,0,0.4,0c0.1,0,0.2,0,0.2,0c0.1,0,0.2,0,0.2-0.1c0.1,0,0.1-0.1,0.4-0.1c-0.1,0-0.4,0.1-0.6,0.1
					c-0.2,0-0.4,0.1-0.2,0c0.3,0,0.5-0.1,0.8-0.1c0.2,0,0.7-0.2,0.7-0.5c0-0.2,0-0.3,0.1-0.4c0-0.1,0-0.2,0-0.2c0-0.1,0.1-0.1,0.1,0
					h0.1c0,0,0.4-0.1,0.6-0.1c0.2,0,0.5-0.1,0.7-0.1c0.5,0,1-0.1,1.5-0.1c1-0.1,2-0.1,2.7-0.2c0.2,0-0.1,0-0.1,0
					c0.6,0.1,2.1-0.2,2.1-0.1c0.3,0,0.4-0.1,0.5-0.1c0.4,0,0.9,0,1.4,0h-0.4l0,0H20l0,0c1.2,0,2.7-0.1,3.8,0
					c-0.7-0.1,0.2-0.1-0.1-0.1c0.6,0.1,2,0.1,3.1,0.1c0,0,0.1-0.1,0-0.1l0.6,0.1h-0.1c1.2,0,2.4,0.2,3.2,0.2c-0.5,0-0.5-0.1-0.5-0.1
					c0.8,0,1.6,0.1,2.6,0.2c-0.1,0-0.1,0-0.1,0c0.3,0,0.6,0.1,0.8,0.1v-0.1c0.5,0.1,1.1,0.1,1.7,0.2c0.2-0.1,1.4,0.2,2.1,0.2
					c0.3,0-0.6-0.1,0.2-0.1c0.1,0.2,0.9,0.1,1,0.3h0.6l0.1,0.1c0.2,0,0.3,0,0.5,0c0.1,0,0.1,0,0.1,0.1v0.1l0,0c0,0.1,0,0.1,0,0.2
					v-0.1c0,0.1,0,0.2,0,0.2c0,0.1,0,0.2,0,0.3c0,0.1,0.1,0.3,0.1,0.2c0,0-0.1-0.2-0.2-0.4c0,0.1,0,0.3,0.2,0.5s0.4,0.3,0.5,0.3
					c0.3,0.1,0.5,0.1,0.7,0.1c0.4,0,0.6,0,0.2-0.1c0,0-0.5,0-0.9-0.1c0.1,0,0.8,0,1,0c0,0,0.1,0,0.2,0h0.1c0.5,0.1,1.1-0.2,1-0.7
					c0-0.3-0.1-0.6-0.1-0.9c0-0.2,0-0.4,0-0.6c0,0-0.1-0.2-0.1-0.5h0.1c-0.1-0.3-0.1-0.6-0.2-0.9v0.4C42,20.7,42,20,41.8,19.2
					c-0.2-0.2-0.4-1.5-0.8-2.1l0.2,0.6c-0.5-1.2-0.6-1.4-1.2-2.5c0.5,0.9,0.5,0.9,1.2,2.3c-0.6-1.4-1-2.5-1.8-3.6
					c0,0.1,0.2,0.4,0,0.1c-0.1-0.3-0.7-1.1-0.5-1c-0.1-0.2-0.2-0.3-0.3-0.3l-0.1-0.1l0,0l0,0l-0.3,0.2l0,0l0,0l0,0l0,0l0.4-0.1l0,0
					l0,0h0.2h0.1l0,0l0,0v0.1l0.1,0.1l0,0l0,0h-0.2c-0.1,0-0.1,0-0.1,0l0,0l0,0l0,0l0,0l0,0l0,0l0,0l0,0c0.2,0-0.4,0,0.4,0l0,0l0,0
					l0,0l0,0L39,12.7c0-0.1-0.2-0.3-0.4-0.4l-0.4-0.4l0,0c-0.2-0.2-0.5-0.4-0.7-0.6c-0.1-0.1-0.3-0.2-0.4-0.4
					c-0.2-0.1-0.6-0.1-0.5-0.1l0,0l0,0l-0.2-0.1L36,10.5c-0.2-0.2-0.5-0.3-0.7-0.5c-0.5-0.3-1-0.6-1.5-0.8C33.5,9,33,8.7,32.4,8.5
					v0.1l-0.6-0.3c0.4,0.2-0.2,0-0.3,0c-0.5-0.2-1-0.4-1.5-0.6C30,7.8,30.1,7.9,30.5,8z M42.8,22l0.1,0.4c0,0.1,0,0.2,0,0.2v-0.2
					C42.8,22.2,42.7,22.1,42.8,22z M11.7,23.2c-0.2,0,0.3,0,0.4-0.1l-0.6,0.1C11.4,23.2,11.6,23.2,11.7,23.2z M42.2,22.1l-0.1-0.2
					v-0.3L42.2,22.1z M40.9,17.1c0.1,0.2,0.1,0.3,0.2,0.5l0,0C40.9,17.4,40.9,17.2,40.9,17.1L40.9,17.1z M39.2,12.6v0.1
					C39.2,12.7,39.2,12.7,39.2,12.6c-0.2-0.2-0.4-0.4-0.5-0.5c-0.2-0.1-0.2-0.2-0.3-0.3C38.6,11.9,39.1,12.4,39.2,12.6z M42.3,20.2
					c0,0.2,0,0.3,0.1,0.4c0-0.1,0-0.5,0.1-0.2c0,0.2,0.1,0.8,0.1,0.8C42.5,20.7,42.2,20.3,42.3,20.2z M35.2,22.8L35.2,22.8l-0.4-0.1
					L35.2,22.8z M33,22.6c-0.3-0.1-1-0.1-1.4-0.1c-0.1,0.1,0.4,0.2,0.9,0.2C33.1,22.7,32.7,22.6,33,22.6z M40.9,16.4v0.1V16.4
					c0,0.2,0.1,0.4,0.1,0.5c-0.3-0.6-0.4-1.1-0.6-1.4C40.6,15.7,40.9,16.6,40.9,16.4z M28.2,22.4c-0.5-0.1-1.3-0.1-1.3-0.2
					c0,0.1,0.7,0.1,0.9,0.2C27.9,22.4,28,22.4,28.2,22.4z M28.2,22.2c0.7,0.1,0.7,0.1,1.3,0.2c-0.7,0-0.9-0.1-0.8-0.2
					c-0.5-0.1-0.4,0-0.6,0H28.2z M29,22.5h0.3c0.3,0,0.4-0.1,0.9,0h-0.9C29.2,22.5,29.1,22.5,29,22.5z M23.1,22.5h0.3
					C23.1,22.5,23.1,22.5,23.1,22.5h-0.2C23.5,22.4,23.2,22.5,23.1,22.5z M27.6,22.5h0.8C28.3,22.4,27.8,22.4,27.6,22.5z M23.3,22.4
					c0.3,0,1,0,1.1,0C24.3,22.4,23.5,22.4,23.3,22.4z M8.6,22.3l-0.1,0.5v-0.3L8.6,22.3z M11.3,23h-0.1h-0.3H11.3z M16.8,22.5
					L16.8,22.5c0.1,0,0.2,0.1,0.2,0.1C17,22.5,16.9,22.5,16.8,22.5c-0.2,0-0.5,0.1-0.7,0.1c0.1,0,0.4,0,0.6,0
					c-0.5,0.1-1.7,0-1.3,0.2c-0.2,0-1,0-0.7-0.1C15.3,22.7,16.4,22.5,16.8,22.5c0,0,0.1,0,0.2,0C17,22.5,16.9,22.5,16.8,22.5z
					 M24.4,22.1c0.2,0,0.3,0,0.3,0c0.2,0,0.3,0,0.3,0.1c-0.4,0-0.2-0.1-0.3-0.1C24.6,22.2,24.5,22.1,24.4,22.1z M25.7,22.1H25h0.3
					l-1-0.1C24.9,22,25.6,22.1,25.7,22.1z M26,22.1l0.1,0.1L26,22.1L26,22.1L26,22.1h1.1H26z M37.9,22.8c0.5-0.1-1-0.2-1.2-0.3
					c-0.1,0.1-0.5,0.1,0.6,0.2c-1,0-0.6-0.2-1.2-0.1c0.5,0,1,0.1,1.1,0.1h-0.6C36.9,22.8,37.5,22.7,37.9,22.8z M42.6,24L42.6,24
					l-0.1-0.7L42.6,24L42.6,24L42.6,24z M34.5,10.1c0,0.1-0.8-0.3-1-0.4C33.9,9.8,34.4,10.1,34.5,10.1z M27.1,7.9L27.9,8
					c-0.2,0.1-0.7-0.1-1.1-0.1C26.7,7.9,27,7.9,27.1,7.9z M21.8,8.2h-0.3H21.8L21.8,8.2z M22.2,8.3c-0.2,0.1,0.4,0,0.5,0H22.2z
					 M17.7,9.8L18,9.7h-0.3V9.8z M18.1,9.5c0.1,0,0.1,0.1,0.8-0.2c0-0.1-0.2,0,0.1-0.2c-0.2,0.1-0.4,0.2-0.6,0.2
					c0.2-0.1,0.4-0.2,0.4-0.1C18.6,9.4,18.3,9.5,18.1,9.5c0,0-0.1,0-0.2,0C18,9.6,18,9.6,18.1,9.5z M20.8,8.5c0.1,0,0.2-0.1,0.2-0.1
					l0,0C21,8.5,20.9,8.5,20.8,8.5s-0.2,0.1-0.4,0.1c-0.1,0.1,0.5,0,0.6,0c-0.2,0.1-0.5,0.1-0.8,0.2c0,0,0,0,0.2,0L20,8.9
					c-0.5,0.1,0-0.1,0.4-0.2c0,0,0,0,0.1-0.1C20.6,8.5,20.7,8.5,20.8,8.5z M17.2,9.7l0.2-0.1c0.1,0,0.1,0,0.1,0
					C17.3,9.8,16.9,9.9,17.2,9.7z M32.3,9c-0.2,0,0.2,0.1,0.5,0.3h-0.2c0-0.1-0.7-0.3-0.8-0.4C31.7,8.8,32,9,32.3,9z M42.3,21.5
					c-0.1,0.2,0.1,1.1,0.1,1.3C42.4,22.3,42.1,21.2,42.3,21.5z M42.6,23.1c0,0.3,0.1,0.3,0,0.3c0,0.1,0,0.3,0,0.4c0,0,0,0,0,0.1
					c0,0,0,0,0-0.1C42.5,23.4,42.6,23.4,42.6,23.1c0-0.1,0-0.1,0-0.2C42.6,23,42.6,23.1,42.6,23.1z M39.1,13.3L38.9,13l-0.2-0.2
					v-0.1l0,0l0,0l0,0l-0.1,0.1l0,0l0,0h0.2l0,0l0,0l0,0h0.1l0,0l0,0l0.1,0.1l-0.1-0.1l0,0l0,0l0,0h-0.1l0,0l0,0h-0.2l0,0l0,0l0,0
					l0,0h0.1l0,0l0,0l0,0l0,0l0.1,0.2L39.1,13.3z M35.3,10.2c0,0.1-0.6-0.2-0.7-0.3C34.6,10,35,10.2,35.3,10.2
					c0.1,0.1,0.1,0.2,0.2,0.2C35.4,10.4,35.4,10.3,35.3,10.2C35.2,10.2,35.3,10.2,35.3,10.2l0.2,0.1L35,10L35.3,10.2z M25,7.5
					c-0.4,0.1-0.4,0-0.7,0C24.4,7.5,24.7,7.5,25,7.5z M38.1,11.7c-0.5-0.4,0.2,0.3-0.2,0l0.3,0.2c-0.5-0.3-0.3-0.3-0.6-0.5l0.2,0.2
					c0.2,0.1-0.2-0.3-0.3-0.4c0.2,0.2,0.3,0.3,0.5,0.4C38.1,11.7,38.2,11.7,38.1,11.7z M24.4,7.5c-0.6,0.1-0.5,0-0.9,0
					C24,7.4,23.9,7.5,24.4,7.5z M34.6,9.6L34.6,9.6l-0.4-0.3l0,0L34.6,9.6z"/>
				<path class="st0" d="M23.6,8.1c-0.2,0-0.3,0-0.3,0C23.4,8.2,23.5,8.1,23.6,8.1z"/>
				<path class="st0" d="M42,24L42,24L42,24z"/>
				<path class="st0" d="M41,23.9L41,23.9L41,23.9L41,23.9z"/>
				<path class="st0" d="M10.8,15.8c0.2-0.2-0.1,0.2-0.2,0.4C10.7,16.1,10.7,16,10.8,15.8z"/>
				<path class="st0" d="M10,17.3c0.1-0.1,0.2-0.3,0.2-0.5C10.1,17,10.1,17.1,10,17.3z"/>
				<path class="st0" d="M10.5,16.1c-0.1,0.3-0.2,0.6-0.3,0.8C10.3,16.6,10.3,16.5,10.5,16.1z"/>
				<path class="st0" d="M8.8,21.7C8.9,21.4,9,20.9,9,20.9c-0.2,1.1,0.1-0.2,0.2-0.3C9,21.3,8.9,21.3,8.8,21.7z"/>
				<path class="st0" d="M8.5,23.2c0-0.1,0-0.2,0-0.3C8.6,23,8.6,23.1,8.5,23.2z"/>
				<path class="st0" d="M8.5,23.6c-0.1,0.4-0.1,0.5-0.2,0.7c0-0.5,0.1-0.8,0.2-1.1C8.5,23.4,8.5,23.7,8.5,23.6z"/>
				<path class="st0" d="M18.3,22.1c-0.1,0-0.3,0-0.3,0h0.6C18.9,22,18.5,22,18.3,22.1z"/>
				<path class="st0" d="M20.7,22.1c0.5,0,0.2-0.1,0.5-0.1v0.1H20.7z"/>
				<path class="st0" d="M20.5,22.6h-0.2C20.4,22.6,20.4,22.6,20.5,22.6L20.5,22.6z"/>
				<path class="st0" d="M23.2,21.9l-0.4-0.1C23.3,21.8,23.3,21.9,23.2,21.9z"/>
				<polygon class="st0" points="25.2,21.8 24.9,21.8 25.9,21.8 				"/>
				<polygon class="st0" points="27.6,21.9 27.7,21.9 28.3,21.9 				"/>
				<path class="st0" d="M39.7,15c0-0.1,0.5,0.8,0.6,1.1C40.2,15.9,40,15.3,39.7,15z"/>
				<path class="st0" d="M24.5,8h1C24.7,8.1,25.3,8,24.5,8z"/>
			</g>
		</g>
	</g>
</g>
<path class="st0" d="M23.9,32.2c0-0.8,0-1.2,0-2c-2.8,0.1-6.8,0.1-11-0.3c-1.3-0.1-2.5-0.3-3.6-0.4c-0.3,0-0.5-0.1-0.5-0.3
	c0-0.1,0.2-0.2,0.4-0.1c5.8,0.5,20.4,0.5,27.8-1.4c0.8,0.2,1.3,0.3,2.1,0.5c0.3,0.1,0.5,0.2,0.4,0.2c0,0.1-0.3,0.2-0.7,0.3
	c-0.1,0-1.1,0-1.3,0c-3.2,0.6-7,1.1-11.2,1.3c0,0.9,0,1.3,0,2.1c5.9,0,8.7-0.3,13.6-0.9c1.1-0.5,1.6-0.8,2.6-1.2
	c0.9,0.2,1.4,0.3,2.2,0.4c0.2,0,0.3,0.1,0.2,0.2c0,0.2-0.3,0.4-0.9,0.5c-5.6,1.2-9.1,1.6-16.4,1.8c3.9,1.8,8,2.2,10.3,2
	c1.9-0.1,3.7-0.4,5.2-0.9c0.1,0,0.3,0,0.2,0c0,0.1-0.3,0.2-0.8,0.5c-0.4,0.2-0.8,0.4-0.8,0.6c-0.1,0.2-0.3,0.3-0.4,0.4
	c-0.4,0.1-8.8,1.3-14.9-2.5c-0.1,0-0.1,0-0.1,0c0,1.8,0,2.6,0,4.3c0,0.3-1.4,0.3-1.7,0.3c-0.4,0-0.5-0.1-0.5-0.4
	c0-1.7-0.1-2.5-0.1-4.3c-0.1,0-0.2,0-0.3,0c-4.4,3.4-15.1,2-15.7,1.8c-0.1,0-0.3-0.1-0.3-0.2c0,0,0-0.1,0.1-0.1
	c4.2,1.3,10.8,0.2,13.3-1.6c-6.4-0.3-9.4-0.7-14.3-1.7c-0.2-0.2-0.2-0.3-0.4-0.5C12.2,31.6,16,32.1,23.9,32.2z M29.4,37.6
	c0.3-0.2,0.4-0.3,0.7-0.4c0.6,0.1,0.9,0.2,1.4,0.3c0.2,0,0.4,0.1,0.3,0.2S31.6,38,31.3,38c-0.3,0.1-0.5,0.2-0.6,0.3
	c-0.4,0.6-0.6,1-1,1.6c2.8-0.3,4.1-0.6,6.6-1.3c0.4-0.3,0.5-0.5,0.9-0.7c0.6,0,0.8,0,1.4,0c0.3,0,0.4,0,0.3,0.1
	c0,0.1-0.3,0.4-0.8,0.6c-0.3,0.1-0.5,0.3-0.6,0.4c-0.5,0.8-1.2,1.5-1.8,2.3c-1.1,1.3-2,2.7-5.4,3.7c-0.1-0.5-0.8-0.5-2.7-0.5
	c-0.2,0-0.3-0.1-0.3-0.2c0-0.1,0.1-0.2,0.4-0.2c0.1,0,0.1,0,0.2,0c1.4,0,2.5-0.1,3.1-0.3c1.9-0.5,2.7-1.5,3.4-2.5
	c0.5-0.7,0.7-1,1.2-1.7c0.1-0.2,0.2-0.2,0.3-0.4c-2.5,0.8-3.8,1-6.6,1.3c-0.3,0.5-0.5,0.7-0.8,1.1c-0.3,0.1-0.4,0.1-0.6,0.2
	c-1.2,0.1-1.3,0.1-1.3,0c0,0,0-0.1,0.1-0.1c1-1.1,1.9-2.3,2.5-3.5c-3.4,0.3-5.2,0.2-8.5-0.1c-0.1,1.3-1,3.3-3,3.9
	c-2.6,0.7-5.9-1.9-6-1.9c-0.1-0.1-0.3-0.2-0.3-0.3c-0.1,0,0,0,0.1,0c3.6,3,6.9,1.5,7.1-2c-2.2-0.3-3.3-0.5-5.3-1.1
	c-0.1-0.2-0.2-0.4-0.4-0.6C18.9,37.7,22.7,38.1,29.4,37.6z"/>
<g>
	<path class="st0" d="M23.9,32.2c0-0.8,0-1.2,0-2c-2.8,0.1-6.8,0.1-11-0.3c-1.3-0.1-2.5-0.3-3.6-0.4c-0.3,0-0.5-0.1-0.5-0.3
		c0-0.1,0.2-0.2,0.4-0.1c5.8,0.5,20.4,0.5,27.8-1.4c0.8,0.2,1.3,0.3,2.1,0.5c0.3,0.1,0.5,0.2,0.4,0.2c0,0.1-0.3,0.2-0.7,0.3
		c-0.1,0-1.1,0-1.3,0c-3.2,0.6-7,1.1-11.2,1.3c0,0.9,0,1.3,0,2.1c5.9,0,8.7-0.3,13.6-0.9c1.1-0.5,1.6-0.8,2.6-1.2
		c0.9,0.2,1.4,0.3,2.2,0.4c0.2,0,0.3,0.1,0.2,0.2c0,0.2-0.3,0.4-0.9,0.5c-5.6,1.2-9.1,1.6-16.4,1.8c3.9,1.8,8,2.2,10.3,2
		c1.9-0.1,3.7-0.4,5.2-0.9c0.1,0,0.3,0,0.2,0c0,0.1-0.3,0.2-0.8,0.5c-0.4,0.2-0.8,0.4-0.8,0.6c-0.1,0.2-0.3,0.3-0.4,0.4
		c-0.4,0.1-8.8,1.3-14.9-2.5c-0.1,0-0.1,0-0.1,0c0,1.8,0,2.6,0,4.3c0,0.3-1.4,0.3-1.7,0.3c-0.4,0-0.5-0.1-0.5-0.4
		c0-1.7-0.1-2.5-0.1-4.3c-0.1,0-0.2,0-0.3,0c-4.4,3.4-15.1,2-15.7,1.8c-0.1,0-0.3-0.1-0.3-0.2c0,0,0-0.1,0.1-0.1
		c4.2,1.3,10.8,0.2,13.3-1.6c-6.4-0.3-9.4-0.7-14.3-1.7c-0.2-0.2-0.2-0.3-0.4-0.5C12.2,31.6,16,32.1,23.9,32.2z M29.4,37.6
		c0.3-0.2,0.4-0.3,0.7-0.4c0.6,0.1,0.9,0.2,1.4,0.3c0.2,0,0.4,0.1,0.3,0.2S31.6,38,31.3,38c-0.3,0.1-0.5,0.2-0.6,0.3
		c-0.4,0.6-0.6,1-1,1.6c2.8-0.3,4.1-0.6,6.6-1.3c0.4-0.3,0.5-0.5,0.9-0.7c0.6,0,0.8,0,1.4,0c0.3,0,0.4,0,0.3,0.1
		c0,0.1-0.3,0.4-0.8,0.6c-0.3,0.1-0.5,0.3-0.6,0.4c-0.5,0.8-1.2,1.5-1.8,2.3c-1.1,1.3-2,2.7-5.4,3.7c-0.1-0.5-0.8-0.5-2.7-0.5
		c-0.2,0-0.3-0.1-0.3-0.2c0-0.1,0.1-0.2,0.4-0.2c0.1,0,0.1,0,0.2,0c1.4,0,2.5-0.1,3.1-0.3c1.9-0.5,2.7-1.5,3.4-2.5
		c0.5-0.7,0.7-1,1.2-1.7c0.1-0.2,0.2-0.2,0.3-0.4c-2.5,0.8-3.8,1-6.6,1.3c-0.3,0.5-0.5,0.7-0.8,1.1c-0.3,0.1-0.4,0.1-0.6,0.2
		c-1.2,0.1-1.3,0.1-1.3,0c0,0,0-0.1,0.1-0.1c1-1.1,1.9-2.3,2.5-3.5c-3.4,0.3-5.2,0.2-8.5-0.1c-0.1,1.3-1,3.3-3,3.9
		c-2.6,0.7-5.9-1.9-6-1.9c-0.1-0.1-0.3-0.2-0.3-0.3c-0.1,0,0,0,0.1,0c3.6,3,6.9,1.5,7.1-2c-2.2-0.3-3.3-0.5-5.3-1.1
		c-0.1-0.2-0.2-0.4-0.4-0.6C18.9,37.7,22.7,38.1,29.4,37.6z"/>
	<g>
		<g>
			<g>
				<path class="st0" d="M26.7,37.7c0.1,0,0.1,0,0.2,0C26.7,37.8,26.6,37.8,26.7,37.7z"/>
				<path class="st0" d="M29.4,37.6c-0.7,0.1-1.8,0.1-2.5,0.1C27.5,37.7,29.2,37.5,29.4,37.6z"/>
				<path class="st0" d="M26.6,37.6h0.9C26.9,37.6,27,37.6,26.6,37.6z"/>
				<polygon class="st0" points="26.9,37.7 26.9,37.7 26.4,37.7 				"/>
				<path class="st0" d="M23.7,38c-0.1,0-0.1,0-0.1-0.1L23.7,38z"/>
				<path class="st0" d="M25.8,38.2c0.2,0,0.3,0,0.4,0C26.1,38.2,25.9,38.2,25.8,38.2z"/>
				<path class="st0" d="M21.9,37.9h0.4C22.1,37.9,22,37.9,21.9,37.9z"/>
				<path class="st0" d="M18.8,38.2c0-0.1,0-0.2,0.1-0.3c0-0.1,0.1-0.2-0.1-0.2s-0.4-0.1-0.5-0.1c0.2,0,0.4,0.1,0.5,0.1
					s0.2,0,0.1,0.1v0.1C18.9,38,18.8,38.1,18.8,38.2z"/>
				<path class="st0" d="M28,42.3c0,0,0.1,0,0.1-0.1c0.1,0,0.1,0,0.1,0C28.2,42.3,28.2,42.3,28,42.3z"/>
				<path class="st0" d="M26.3,38.7L26.3,38.7c0.1,0,0.1,0,0.2,0H26.3z"/>
				<path class="st0" d="M20.5,38.3L20.5,38.3c0,0.2-0.1,0.3-0.1,0.4C20.4,38.6,20.5,38.4,20.5,38.3z"/>
				<path class="st0" d="M30.2,41c0.1,0,0.3,0,0.4,0C30.3,41,30.2,41,30.2,41z"/>
				<path class="st0" d="M26.2,38.2L26.2,38.2L26.2,38.2L26.2,38.2z"/>
				<path class="st0" d="M23.3,38.7c0.2,0,0.3,0,0.5,0C23.6,38.7,23.4,38.7,23.3,38.7z"/>
				<path class="st0" d="M18.8,38.2c0,0.1,0,0.2-0.1,0.3C18.8,38.4,18.8,38.3,18.8,38.2z"/>
				<path class="st0" d="M24.3,37.9c-0.3,0-0.4,0-0.4,0C24.1,37.8,24.2,37.8,24.3,37.9z"/>
				<path class="st0" d="M30.1,37.4L30.1,37.4L30.1,37.4z"/>
				<path class="st0" d="M35.4,39.3C35.5,39.3,35.5,39.3,35.4,39.3L35.4,39.3z"/>
				<path class="st0" d="M35.3,42.6c0.5-0.6,1-1.1,1.4-1.6l-0.2,0.1l0.4-0.5l0,0c0.4-0.5,0.8-1,1.1-1.4h-0.1c0.1,0,0.2-0.1,0.4-0.1
					c0.1,0,0.2-0.1,0.4-0.1h-0.2c0.2-0.1,0.3-0.1,0.5-0.3c0.1-0.1,0.2-0.1,0.2-0.2l0.1-0.1c0-0.1,0.1,0,0.2-0.3v0.1
					c0-0.1,0.1-0.1,0.1-0.3c0-0.1-0.1-0.3-0.2-0.4c-0.2-0.1-0.3-0.1-0.3-0.2c0.1,0,0.2,0,0.3,0.2c0.1,0.1,0.2,0.2,0.2,0.4
					c0,0.1,0,0.2-0.1,0.3v-0.1c-0.1,0.2-0.1,0.2-0.2,0.3l-0.1,0.1c-0.1,0.1-0.2,0.1-0.2,0.2c0.1-0.1,0.1-0.1,0.2-0.2l0.1-0.1
					c0-0.1,0.1,0,0.2-0.2v0.1c0-0.1,0.1-0.2,0-0.4s-0.2-0.3-0.3-0.3c-0.1-0.1-0.2-0.1-0.3-0.1s-0.2,0-0.3,0h-0.4c-0.1,0-0.3,0-0.4,0
					h-0.2c-0.1,0-0.3,0-0.4,0c-0.5,0.4-0.9,0.7-1,0.7c0,0,0,0,0.1,0c-0.1,0.1,0,0-0.1,0.1c-0.1,0-0.2,0-0.3,0.1h0.2
					c-1.8,0.5-2.2,0.8-4.3,1c-0.6,0.1,0.3,0,0.3,0c-0.1,0-0.4,0.1-0.6,0.1s-0.5,0-0.5,0s0.3,0,0.4,0c0.2,0,0.2,0-0.1,0.1
					c-0.2,0-0.2,0-0.1,0l0,0c-0.1,0-0.2,0-0.3,0c-0.1,0-0.1-0.1-0.1-0.1c-0.1,0-0.2,0-0.2,0.1h-0.1h-0.1c0,0-0.1,0,0,0
					c0.2-0.2,0.1-0.1,0.1-0.1h0.1c0,0,0,0,0.1-0.2c0-0.1,0.1-0.1,0.1-0.2V39l0.1-0.2c0.1-0.1,0.1-0.3,0.2-0.4l0,0l0,0
					c0,0,0.2-0.2,0.3-0.2c0.2-0.1,0.4-0.1,0.7-0.3c0.1-0.1,0.1-0.3,0-0.3c-0.1-0.1-0.1-0.1-0.2-0.1c-0.1,0-0.1,0-0.1,0s0,0,0.1,0.1
					c0.1,0.1,0.1,0-0.6-0.1c0.2,0,0.3,0.1,0.5,0.1c0.2,0,0.3,0.2,0.2,0.3c0.1-0.1,0-0.1,0-0.1s-0.1-0.1-0.5-0.1
					c-0.2-0.1-0.6-0.2-1-0.3c0.7,0.2,0.4,0.2,0.1,0.1c-0.3,0-0.5,0,0,0.1h-0.2c-0.1,0-0.1,0-0.2,0l0,0l-0.5,0.3
					c0.2-0.1,0.5-0.3,0.6-0.3s0.2,0.1,0.1,0.1s-0.1,0-0.2,0.1l-0.4,0.3c0.3-0.1,0,0.1,0,0.1l0.3-0.2c0.1-0.1,0.2-0.1,0.2-0.1l0,0
					l0.3,0.1l0.7,0.2c0.1,0,0.1,0,0.2,0.1l0,0l0,0v-0.1c0.1-0.2,0.2-0.3,0.2-0.3l0,0l0,0l0,0l0,0h0.1l0,0l0,0l0,0
					c0,0-0.1-0.1-0.2-0.1l0.1,0.1c0,0,0,0,0.1,0l0,0l0,0l0,0l0,0l0,0h-0.1l0,0l0,0c0,0,0,0-0.1,0.1s-0.1,0.3-0.1,0.2l0,0
					c0.1-0.3,0.2-0.3,0.2-0.3l0,0l0,0l0,0h0.1l0,0l0,0l0,0l0,0c0,0-0.1,0-0.1-0.1c-0.1,0-0.2-0.2-0.2-0.2h-0.1c-0.1,0-0.1,0-0.2,0
					s-0.3,0.1-0.5,0.2c0.2-0.1,0.3-0.1,0.4-0.1c-0.1,0-0.2,0,0,0c0.3-0.1,0.3-0.1,0.3-0.1c-0.1,0.1-0.1,0.1-0.4,0.2
					c-0.2,0.1-0.5,0.1-0.7,0.5v-0.1c-0.1,0.1-0.1,0.2-0.2,0.2c-0.2,0.3-0.3,0.6-0.3,0.5c0.1-0.1,0.2-0.2,0.1-0.1
					c-0.3,0.3-0.6,0.9-1,1.4l0.1,0.2v0.1h0.1c0.2,0,0.3,0,0.5-0.1c0.3,0,0.6-0.1,0.8-0.1h-0.5c0.3-0.1,0.6-0.1,0.8-0.1
					c0.2,0,0.4-0.1,0.6-0.1c0.3,0,0.6-0.1,0.8-0.1h-0.2c1-0.1,1.4-0.4,2.2-0.4H34c0.4-0.1,1-0.3,1.4-0.4c0,0,0.1-0.1,0.2-0.1
					c0.1,0,0.3,0,0.5-0.1c0.1,0,0.2-0.1,0.4-0.1c0.2-0.1,0.3-0.2,0.4-0.3c-0.3,0.2-0.3,0.2-0.7,0.2c0.1,0,0.2-0.1,0.3-0.1
					c0.1-0.1,0.1-0.1,0.2-0.2c0.1-0.1,0.2-0.1,0.3-0.2c0.2-0.1,0.4-0.3,0.6-0.3c0.1,0,0.1,0,0.1,0h-0.1c-0.1,0-0.1,0-0.2,0.1
					c-0.1,0.1-0.1,0.1-0.2,0.1c0.2-0.1,0.2-0.3,0.4-0.2c0.2,0,0.4,0,0.6,0c0.2,0,0.4,0,0.6,0c0.1,0,0.2,0,0.3,0s0.2,0,0.1,0l0,0
					c-0.2,0.3-0.5,0.5-0.8,0.5c0.1-0.1,0.3-0.2,0.4-0.3c-0.4,0.2-0.6,0.3-0.6,0.3c0.1-0.1,0.2-0.1,0.2-0.1c-0.3,0.1-0.6,0.3-0.8,0.5
					l0,0c-0.6,0.7-1.1,1.2-1.8,2.1c0.1-0.1,0.2-0.2,0.3-0.2c-0.4,0.5-0.5,0.4-1.2,1.2l0.2-0.1c-0.2,0.3-0.4,0.4-0.4,0.4
					c0,0.1-0.3,0.5-0.8,0.9s-1.1,0.7-1.4,1c-0.4,0.1-1.3,0.4-1.9,0.6l0.3,0.2c-0.1-0.4-0.4-0.5-0.5-0.5c-0.4-0.1-0.2,0,0,0.1
					s0.4,0.4,0.2,0.3c-0.2-0.2-0.4-0.2-0.6-0.3s-0.5-0.1-0.9-0.1c0-0.1,1.6-0.1,0.1-0.2H29c0.2,0,0.4,0,0.6,0c0.4,0.1-0.3,0-0.4,0.1
					h-0.8H28c-0.1,0-0.1,0-0.2,0l0,0l-0.1,0.1c0,0,0,0,0.1-0.1c0-0.1,0.1,0,0.2,0c0.2,0,0.5,0,0.5,0c-0.2,0-0.4,0-0.7,0
					c-0.1,0,0,0-0.1,0.1l0,0c0,0,0.1,0,0.1,0.1c0,0,0.1-0.1,0.2-0.1c0,0,0.1,0,0.2,0l0,0c0.8,0,1.6-0.1,2.3-0.1h-0.1
					c0.7-0.1,0.9-0.2,1.1-0.2c0.2-0.1,0.3-0.1,0.9-0.3c0.6-0.3-0.2,0,0.6-0.4c0.2-0.1,0.1,0,0.1,0c0.5-0.3,0.6-0.4,0.6-0.5
					c0.1-0.1,0.2-0.2,0.5-0.5L34,42.6c0.9-0.9,1.7-2,2.3-2.8c0,0-0.2,0.1-0.3,0.3s-0.3,0.3-0.4,0.4c0.2-0.3,0.5-0.6,0.8-0.9l0.4-0.3
					L36,39.1c-1.2,0.4-2.6,0.8-3.6,0.9c0.4-0.1-0.6,0,0.2-0.2c0.2,0.1,0.6-0.1,1.1-0.2c-0.8,0-3,0.7-3.3,0.5l-0.2,0.1
					c-0.2,0-0.7,0-0.4,0l-0.5,0.1c-0.1,0-0.2,0.1-0.2,0.2l-0.2,0.2l-0.4,0.6c0.1-0.1,0.2-0.2,0.3-0.4l0.2-0.2
					c0.1-0.1,0.2-0.2,0.3-0.3c0.3,0,0.5,0,0.6,0c0.2,0,0.3,0,0.4-0.1c0.4,0-0.6,0.1-0.2,0.2c-0.3,0-0.4,0-0.6,0c-0.1,0-0.1,0-0.2,0
					c0,0,0,0.1-0.1,0.1c-0.1,0.2-0.1,0.3-0.5,0.7c0.1-0.2-0.1,0-0.3,0.2c-0.1,0.1-0.6,0.2-0.5,0.1c-0.2,0.1-0.6,0.1-0.6,0
					c0,0,0-0.1,0.1-0.1c0.3-0.4,0.8-1.1,1.2-1.6c-0.2,0.3-0.6,0.7-0.6,0.6c0.3-0.4,0.6-0.8,0.6-0.9C28,40.2,28,40.3,28,40.4
					c0,0.1,0,0.1-0.1,0.2c-0.1,0.1-0.2,0.3-0.4,0.5c-0.1,0.1-0.3,0.2-0.4,0.4c-0.1,0.1-0.2,0.2-0.2,0.3c0.1,0.1,0.3,0,0.4,0
					C26.9,42,27,42,26.8,42c-0.1,0-0.2,0-0.1-0.2c0-0.1,0.1-0.2,0.2-0.3c0.7-0.7,1.3-1.7,1.9-2.5c0.2-0.2,0.2-0.3,0.4-0.4
					c0.1-0.1,0.1-0.2,0.2-0.3s0.1-0.2,0.2-0.3c0.2-0.2-0.1-0.1-0.3-0.1h0.4c0,0.1-0.1,0.2-0.1,0.3l-0.3,0.6c0.4-0.7,0.4-0.8,0.5-0.9
					c0,0,0.1-0.1,0.1-0.2c-0.1,0-0.2,0-0.6,0h0.5c-0.8,0.1-1.1,0.1-1.6,0l0.7,0.1c-0.2,0-0.5,0-0.7,0.1c-0.2,0-0.3,0-0.3,0
					c-0.1,0-0.1,0-0.1,0.1c-0.1,0-0.2,0-0.6,0c0.2,0,0.4,0,0.4,0c-1.4,0-0.3,0.1-1.2,0.1c0.1,0-0.1,0.1-0.4,0.1
					c0-0.1-1.7-0.2-2.1-0.3l0,0l-1.1-0.1c0.2,0,0,0.1-0.4,0h0.1c-0.4,0,0.4,0.2-0.7,0.1H21c0.1,0,0,0,0,0c-0.1,0-0.2,0-0.3,0
					c0,0.1-0.1,0.3-0.1,0.5s0,0.3,0,0.4c0,0.1,0,0.2-0.1,0.3c-0.1,0.2-0.2,0.4-0.3,0.6c-0.2,0.4-0.5,0.7-0.8,1.1
					c0.2-0.2,0.4-0.6,0.4-0.4c-0.1,0.2-0.3,0.4-0.4,0.5l0,0c-0.5,0.5-1,0.8-1.6,0.9c0.1,0,0.4-0.1,0.6-0.2c0.2-0.1,0.3-0.2,0.1,0
					c-0.2,0.2-0.8,0.3-1.1,0.4c0,0,0.6-0.2,0-0.1c-0.1,0-0.7,0.1-0.4,0.1c-0.7,0-1.6-0.2-2.1-0.5c-0.2-0.1,0.1,0.1,0.2,0.1l0,0
					c0.4,0.1,0,0.1,0.8,0.3c0,0.2-1.1-0.2-1.8-0.6c0.3,0.2,0.7,0.4,1,0.5c-0.9-0.2-2-0.7-2.9-1.4c-0.2-0.2-0.4-0.3-0.6-0.6
					c0,0,0-0.1-0.1-0.1l0,0c0,0,0,0.1,0,0l0,0l0,0l0,0l0.2,0.1l0.3,0.3c0.4,0.3,0.9,0.6,1.3,0.8c-0.5-0.2-0.9-0.5-0.9-0.4
					c1,0.7,0.9,0.6,2.1,0.9h-0.1c0.6,0.1,1.6,0.2,2-0.1c-0.3,0-0.9,0.2-0.9,0.1c0.5,0,1-0.1,1.5-0.4c-0.2,0.1-0.6,0.2-1,0.3
					c-0.2,0-0.4,0-0.6,0.1c-0.2,0-0.4,0-0.5,0c-0.4,0,0.9,0.1,0.7,0.1c-0.7,0-1.2-0.1-1.5-0.3c-0.3-0.1-0.6-0.3-0.8-0.5
					c-0.3-0.3,0.6,0.2,0.8,0.3c0.4,0.2,0.9,0.4,1.6,0.3c0.6,0,1.3-0.2,1.9-0.7c0.2-0.2,0.3-0.4,0.5-0.6c0.2-0.2,0.3-0.3,0.5-0.4
					c0.1-0.1,0.1-0.2,0.2-0.3s0.2-0.4,0.2-0.7L18.8,39c0.1-0.3,0.1-0.5,0.1-0.6c-0.2,0.5-0.4,1.1-0.7,1.4c0.1-0.3,0.4-0.8,0.5-1.3
					c0.1-0.3,0.1-0.5,0.2-0.8c-0.2-0.1-0.6-0.1-0.8-0.2c0,0,0.4,0.1,0.5,0.1c-1.6-0.2-3.1-0.7-4.2-1c-0.5-0.1,1,0.3,0.7,0.3
					c-0.6-0.2-1.3-0.3-1.4-0.4c0,0.4-0.8-1.2-0.2-0.1L13,36.2l-0.1-0.1H13c2.1,0.5,4.3,1.1,6.4,1.4c-0.1,0-0.1-0.1,0-0.1
					c-0.8-0.1-1.9-0.3-2.3-0.5c0.5,0,1.2,0.3,1.3,0.3c-0.3-0.1-0.8-0.2-0.8-0.2c0.7,0.1,1,0.2,1.5,0.3h-0.3c1.4,0.3,0.8,0.3,2.3,0.4
					c0.6,0,0-0.1,0-0.1c0.4,0.1,1.5,0,1.9,0.1h-0.9c0.7,0.1,1.3,0.1,1.7,0.1c0,0-0.1,0-0.2,0c0.5,0,1.2,0,1.5,0.1l0.1-0.1
					c-0.3,0.1-1.2,0.1-1.4,0c0.1-0.1,1,0,1.4,0c-1.8,0-1.8-0.2-3.4-0.2h0.3c-1,0-1.9-0.2-2.7-0.3c0.2,0,0.3,0,0.2,0
					c-1.8-0.2-3.6-0.6-5.7-1L13.4,36l0,0c-0.1,0-0.2-0.1-0.3-0.1l-0.5-0.1l0.3,0.5c0.1,0.2,0.1,0.2,0.1,0.2s0,0,0,0.1
					c0,0,0,0.1,0.2,0.3c-0.1-0.2-0.1-0.2-0.1-0.2s0,0,0-0.1c0.1,0.2,0.2,0.3,0.2,0.4c0.2,0,0.3,0.1,0.4,0.1c0.1,0,0.2,0,0.2,0
					c0.1,0,0.1,0,0.5,0.1c-0.1-0.1-0.5-0.2-0.7-0.2c-0.4,0-0.4-0.3-0.3-0.2c1.2,0.5,3,0.8,3.2,1c0.6,0.1,1.1,0.2,1.7,0.3h0.2
					c0,0,0,0.1,0,0.2v0.1l-0.1,0.2c0,0.1-0.1,0.3-0.1,0.4c-0.4,1.1-1.2,1.8-2,2c-0.2,0.1,0.1,0,0.1,0c-0.3,0.1-0.9,0.1-1.4,0.1
					c-0.5-0.1-0.9-0.2-0.9-0.2c-0.3-0.1-0.5-0.1-0.6-0.1c-0.2-0.1-0.4-0.2-0.6-0.4c-0.2-0.1-0.4-0.3-0.7-0.5l0.3,0.3l0,0L12,39.8
					l0,0c-0.1-0.1-0.1-0.1-0.2-0.2l0,0l0,0c0,0,0,0-0.1,0s-0.2,0-0.2,0s-0.2,0.1-0.2,0.3s0,0.1,0,0.1l0,0c0.1,0.1,0,0.1,0.1,0.1
					l0.1,0.1l0.1,0.1c0.1,0.1,0.1,0.1,0.2,0.2l0.2,0.2c0.3,0.2,0.7,0.5,1,0.7c0.7,0.4,1.4,0.8,2.1,1c-0.8-0.3,0.2,0-0.1-0.2
					c0.3,0.2,0.9,0.4,1.6,0.5s1.6-0.1,2.2-0.5c0,0,0.1-0.1-0.1,0c0.3-0.1,0.5-0.3,0.7-0.4h-0.1c0.6-0.5,1.1-1.1,1.4-1.7
					c0.2-0.3,0.3-0.6,0.4-0.9c0.1-0.4,0.1-0.3,0.1-0.4l0,0l0,0c0,0.2-0.1,0.1-0.1,0.2c0-0.1,0-0.2,0.1-0.3c0.7,0.1,1.4,0.1,2.2,0.2
					c-0.1,0-0.1,0-0.1,0c0.3,0,0.7,0.1,1,0.1v-0.1c0.6,0.1,1.4,0,2.1,0.1c0.1,0,0.6,0,1.1,0c0.2,0,0.5,0,0.7,0c0.1,0,0.2,0,0.3,0
					c0.1,0-0.2-0.1,0.2-0.1V39l-0.1,0.1c0,0.1-0.1,0.2-0.2,0.1l0,0l-0.1,0.2H28l-0.2,0.1c-0.1,0.3-0.3,0.5-0.5,0.7
					c-0.1,0.1-0.2,0.2-0.3,0.3c-0.1,0.1-0.2,0.2-0.3,0.4c-0.1,0.1-0.3,0.3-0.4,0.5c0-0.1,0.2-0.2,0.2-0.1c-0.1,0.1-0.1,0.2-0.2,0.3
					s-0.1,0.2-0.1,0.3c0,0.2,0,0.3-0.1,0.1c0,0.1,0,0.1,0,0.2c0,0.1,0.1,0.2,0.2,0.3s0.5,0.2,0.9,0.2c0.8-0.1,1.3-0.1,0.5-0.1
					c0.1,0-0.3,0.1-0.7,0.1c-0.4,0-0.7-0.1-0.7-0.2c0,0,0.2,0.1,0.5,0.1s0.8-0.1,1-0.1c0,0,0.2,0,0.3,0l0.1-0.1
					c0.1,0,0.3-0.1,0.4-0.1s0.2,0,0.3-0.1l0.2-0.2c0.1-0.2,0.3-0.4,0.4-0.6l0.1-0.2h0.1c0.1,0,0.4,0,0.5,0c0,0,0.2-0.1,0.5-0.1v0.1
					l1-0.2h-0.5c1.1-0.2,2-0.2,2.9-0.4c0.2-0.1,1.2-0.3,1.9-0.6l-0.5-0.9c-0.2,0.2-0.3,0.3-0.4,0.6c0.2-0.2,0.3-0.3,0.5-0.5l0.4,0.7
					h-0.1H36l-0.4-0.7c-0.1,0.1-0.3,0.3-0.4,0.4c-0.1,0.1-0.2,0.2-0.3,0.4s-0.3,0.4-0.4,0.6c-0.2,0.4-0.5,0.7-0.9,1.2
					c0.3-0.5,0.5-0.8,0.7-1.1c0.1-0.2,0.2-0.3,0.4-0.6c0.1-0.1,0.2-0.2,0.2-0.4c0.1-0.1,0.1-0.1,0.2-0.3c0.1-0.1,0.1-0.2,0.2-0.3
					c-0.1,0.1-0.2,0.2-0.2,0.3c-0.1,0.2-0.1,0.2-0.2,0.3c-0.1,0.2-0.2,0.3-0.4,0.5c-0.2,0.3-0.5,0.6-0.7,0.9
					c-0.5,0.6-0.9,1.1-1.4,1.6c0.1,0,0.4-0.2,0.1,0c-0.1,0.1-0.4,0.3-0.7,0.4c-0.3,0.1-0.5,0.2-0.4,0.1c-0.4,0.2-0.5,0.3-0.8,0.4
					c-0.5,0.1-1.1,0.1-1.6,0.1h0.1c-0.5,0.1-0.9,0.1-1.4,0.1h-0.1V44l0,0v-0.1v-0.1l0,0l0,0c-0.1,0-0.1,0-0.2,0s-0.2,0-0.4,0.1
					c-0.1,0-0.1,0.1-0.2,0.1c-0.1,0.1-0.2,0.2-0.2,0.5s0.2,0.4,0.3,0.5c0.1,0.1,0.2,0.1,0.2,0.1c0.1,0,0.2,0,0.3,0
					c0.3,0,0.6,0,0.9,0.1c0.3,0,0.6,0,0.9,0.1c0.1,0,0.3,0.1,0.3,0.1s0,0.1,0.1-0.1c0.1-0.1,0.1,0,0,0l0.6,0.5c1-0.3,2-0.6,3-1.2
					h-0.1c0.2-0.1,0.5-0.2,0.7-0.4C33.3,44.5,34,44,34,43.9c0.5-0.4,1-0.9,1.5-1.3C35.7,42.2,35.6,42.2,35.3,42.6z M30.8,40.9h-0.4
					c-0.1,0-0.2,0-0.3,0h0.3C30.6,40.9,30.8,40.8,30.8,40.9z M17.5,38c-0.2-0.1,0.3,0,0.5,0.1L17.3,38C17.1,37.9,17.4,37.9,17.5,38z
					 M30.7,40.3l0.2-0.1h0.3L30.7,40.3z M35.5,40c0.1-0.2,0.2-0.3,0.4-0.5l0,0C35.7,39.7,35.6,39.9,35.5,40L35.5,40z M30,43.6h0.1
					C30.1,43.6,30.1,43.6,30,43.6c-0.5,0-0.7,0.1-1,0C29.5,43.6,29.8,43.6,30,43.6z M33,40.4c-0.2,0-0.3,0-0.5,0.1
					c0.1,0,0.5,0,0.2,0.1c-0.2,0-0.9,0.1-1,0.1C32.5,40.6,32.9,40.3,33,40.4z M26,38.7h0.2h-0.6H26z M23.3,38.5
					c-0.3-0.1-1.1-0.1-1.7-0.2c-0.2,0,0.4,0.2,1.1,0.2C23.4,38.7,23,38.5,23.3,38.5z M34.8,40.4L34.8,40.4L34.8,40.4l0.4-0.5
					c-0.4,0.7-0.9,1.1-1.1,1.4C34.3,41.1,35,40.4,34.8,40.4z M19.6,41.1c-0.4,0.5-1.4,0.9-1.4,0.8c0,0.1,0.8-0.2,1-0.4
					C19.4,41.3,19.5,41.3,19.6,41.1z M19.5,41c0.6-0.6,0.6-0.7,1-1.2c-0.3,0.8-0.6,0.9-0.6,0.8c-0.4,0.4-0.3,0.4-0.5,0.6L19.5,41z
					 M20.3,40.4c0.1-0.1,0.1-0.2,0.2-0.3c0.2-0.4,0.1-0.5,0.4-1c-0.1,0.4-0.2,0.7-0.4,1C20.4,40.2,20.4,40.3,20.3,40.4z M13.7,41.6
					l0.3,0.2C13.7,41.6,13.6,41.6,13.7,41.6l-0.2-0.2C14.1,41.7,13.8,41.6,13.7,41.6z M19,41.7c0.3-0.2,0.6-0.4,0.8-0.7
					C19.8,41,19.3,41.5,19,41.7z M13.9,41.6c0.4,0.2,1.4,0.5,1.3,0.5S14.1,41.8,13.9,41.6z M15.7,36.8l-0.6-0.1h0.3L15.7,36.8z
					 M17.1,37.6h-0.2l-0.4-0.1L17.1,37.6z M15.7,41.4L15.7,41.4c-0.1,0-0.2,0-0.3-0.1C15.5,41.3,15.6,41.3,15.7,41.4
					c0.2,0,0.6-0.2,0.8-0.2c-0.1,0-0.5,0.1-0.6,0.1c0.1,0,0.3-0.1,0.5-0.1c0.2-0.1,0.4-0.1,0.5-0.2c0.3-0.2,0.5-0.3,0.3-0.3
					c0.2-0.1,0.8-0.7,0.6-0.5c-0.2,0.3-0.6,0.6-1,0.9C16.4,41.2,16,41.4,15.7,41.4c0,0-0.1,0-0.2,0C15.5,41.4,15.6,41.4,15.7,41.4z
					 M15.2,41.8c0.2,0.1,0.3,0.1,0.4,0.1C15.8,42,16,42,15.9,42c-0.5,0-0.1,0-0.3,0C15.5,41.9,15.4,41.9,15.2,41.8z M16.8,42.1
					c-0.3,0-0.5-0.1-0.8-0.1c0.1,0,0.3,0.1,0.4,0.1c-0.4-0.1-0.8-0.2-1.2-0.3C15.9,41.9,16.7,42,16.8,42.1z M17.1,42h0.2H17.1
					L17.1,42L17.1,42c0.4,0,0.9-0.1,1.3-0.3C18,41.9,17.5,42,17.1,42z M29.1,38.2c0.4-0.1,0.2-0.1-0.3-0.1c-0.2,0-0.5,0-0.7,0
					s-0.4,0-0.4,0c0,0.1-0.6,0.2,0.8,0.1c-1.2,0.1-0.8-0.1-1.5,0.1c0.6,0,1.3,0,1.3,0h-0.7c0.2,0,0.5,0,0.7,0
					C28.6,38.3,28.9,38.2,29.1,38.2z M28.9,41.3l0.5-0.7L28.9,41.3L28.9,41.3z M30.4,44.9c-0.1,0,1-0.4,1.2-0.5
					C31.1,44.6,30.5,44.8,30.4,44.9z M37.4,39.2L36.8,40c0-0.2,0.5-0.6,0.7-1l0,0l0.1-0.1c0.1,0,0,0-0.1,0.1l0,0l0,0
					C37.4,39,37.4,39.1,37.4,39.2z M35,39.1l-0.3,0.1L35,39.1L35,39.1z M35.5,39.1C35.3,39.2,36,39,36.1,39L35.5,39.1z M29.3,40.3
					C29.2,40.3,29.3,40.3,29.3,40.3h0.2h0.3c-0.1,0-0.3,0-0.4-0.1L29.3,40.3z M30.3,40.1c0,0,0,0.1,0.2,0.1c0.1,0,0.2,0,0.4,0
					c0.1,0,0.2,0,0.3,0c0.1,0,0.2,0,0.3-0.1c0-0.1-0.2,0,0.1-0.2c-0.3,0-0.6,0.1-0.8,0.1c0.3,0,0.5-0.1,0.6,0c-0.1,0-0.2,0-0.3,0
					c-0.1,0-0.2,0-0.3,0C30.6,40.1,30.4,40.1,30.3,40.1c0,0-0.1,0-0.2,0C30,40.1,30.1,40.1,30.3,40.1z M33.8,39.5
					c0.1,0,0.2-0.1,0.3-0.1h0.1C34,39.4,33.9,39.4,33.8,39.5c-0.1,0-0.3,0.1-0.4,0.1c-0.1,0.1,0.6,0,0.7,0c-0.3,0.1-0.6,0.1-1,0.2
					c0.1,0,0,0,0.3,0l-0.6,0.1c-0.7,0,0-0.1,0.5-0.2c0,0,0.1,0,0.2-0.1C33.6,39.5,33.7,39.5,33.8,39.5z M30.1,39.6l-0.2,0.3
					c-0.1,0.2-0.1,0.1-0.2,0.2C30,39.6,30.3,39.2,30.1,39.6z M33.1,43.8c0.2-0.1-0.3,0.1-0.7,0.3l0.2-0.2c0,0.1,0.8-0.4,0.9-0.5
					C33.7,43.4,33.4,43.6,33.1,43.8z M31.5,40.4c-0.2-0.1-1.3,0.1-1.6,0.1C30.6,40.4,31.9,40.2,31.5,40.4z M29.5,40.7
					c-0.1,0-0.1,0-0.1,0.1c0,0,0,0.1-0.1,0.1h-0.1c-0.1,0.1-0.2,0.3-0.3,0.5c0.2-0.3,0.3-0.4,0.3-0.5l0.1-0.1
					C29.4,40.7,29.5,40.7,29.5,40.7c0.1,0,0.2,0,0.3,0C29.7,40.7,29.6,40.7,29.5,40.7z M31.9,43.4c-0.1,0-0.3,0.1-0.4,0.1
					c-0.2,0.1-0.4,0.1-0.6,0.2C31.2,43.6,31.6,43.5,31.9,43.4z M29.7,44.8c0,0,0.1,0,0.3,0c0.2,0,0.2,0.1,0.2,0.2v0.2l0.3-0.1
					c0,0,0,0,0.1,0c0,0,0,0-0.1,0h-0.3v-0.2c0,0,0-0.1-0.1-0.2C29.9,44.8,29.7,44.7,29.7,44.8c-0.1-0.1-0.2-0.1-0.3-0.1
					C29.4,44.7,29.5,44.7,29.7,44.8C29.7,44.7,29.6,44.8,29.7,44.8h-0.2c0.2,0,0.4,0.1,0.5,0.1C29.8,44.8,29.7,44.8,29.7,44.8z
					 M38.6,37.6c-0.4,0.1-0.5,0-0.8,0C37.8,37.6,38.2,37.6,38.6,37.6z M28.7,43.8c-0.8,0,0.4,0.1-0.1,0.1H29c-0.7,0.1-0.5-0.1-0.9,0
					h0.3c0.2,0-0.2,0-0.4-0.1h-0.1h-0.1h0.1c0,0,0,0.1,0,0v-0.1H28C28.3,43.7,28.9,43.8,28.7,43.8z M37.8,37.6c-0.2,0-0.3,0-0.5,0
					c-0.1,0-0.1,0-0.2,0c-0.1,0-0.1,0.1-0.1,0.1c-0.2,0.1-0.2,0.1-0.4,0.3c0.1-0.1,0.2-0.2,0.3-0.2c0.1-0.1,0.2-0.2,0.3-0.2
					s0.2,0,0.3,0C37.6,37.6,37.7,37.6,37.8,37.6z M30.7,45.3L30.7,45.3c0.2,0,0.4-0.1,0.6-0.1l0,0C31.1,45.2,30.9,45.3,30.7,45.3z"
					/>
				<path class="st0" d="M37.1,38.4c-0.1,0.1-0.2,0.2-0.3,0.3C36.9,38.5,37,38.4,37.1,38.4z"/>
				<path class="st0" d="M28.1,41.5c0,0-0.1,0-0.2,0.1C28,41.6,28,41.6,28.1,41.5z"/>
				<path class="st0" d="M27.4,41.6L27.4,41.6C27.3,41.6,27.3,41.6,27.4,41.6C27.3,41.6,27.4,41.6,27.4,41.6z"/>
				<path class="st0" d="M23.9,37.9c0.3,0.1-0.3,0-0.6,0C23.6,37.9,23.7,37.9,23.9,37.9z"/>
				<path class="st0" d="M21.9,37.7c0.2,0,0.4,0.1,0.6,0.1C22.3,37.8,22.1,37.8,21.9,37.7z"/>
				<path class="st0" d="M23.5,37.8c-0.4,0-0.7,0-1,0C22.7,37.8,23,37.8,23.5,37.8z"/>
				<path class="st0" d="M16.4,37c0.3,0.1,0.9,0.2,0.9,0.2c-1.3-0.2,0.2,0.1,0.4,0.2C16.9,37.2,16.9,37.2,16.4,37z"/>
				<path class="st0" d="M14.7,36.6c0.1,0,0.2,0.1,0.4,0.1C14.9,36.7,14.8,36.7,14.7,36.6z"/>
				<path class="st0" d="M14.2,36.5c-0.4-0.1-0.6-0.2-0.8-0.3c0.6,0.1,0.9,0.3,1.3,0.4C14.4,36.5,14.1,36.5,14.2,36.5z"/>
				<path class="st0" d="M13.8,41.5c0.1,0,0.4,0.1,0.4,0.1c-0.3-0.1-0.5-0.2-0.8-0.3C13.1,41.2,13.6,41.5,13.8,41.5z"/>
				<path class="st0" d="M11.5,39.7L11.5,39.7c0.1-0.1,0.1-0.1,0.1-0.1l0,0l0,0l0,0c0,0,0,0,0.1,0.1l0.1,0.1l0.1,0.1
					c0,0,0,0,0.1,0.1l0,0c-0.1,0-0.1-0.1-0.2-0.2l-0.1-0.1v-0.1l0,0l0,0l0,0L11.5,39.7z"/>
				<path class="st0" d="M11.9,39.7l0.1,0.1C12,39.8,12,39.7,11.9,39.7L11.9,39.7z"/>
				<path class="st0" d="M14.1,41.1c-0.1-0.1-0.2-0.2-0.3-0.3C14.2,41.1,14.2,41.2,14.1,41.1z"/>
				<path class="st0" d="M16.2,41.7l-0.3-0.1c0.3,0.1,0.7,0.1,1,0.1C16.7,41.8,16.5,41.8,16.2,41.7z"/>
				<path class="st0" d="M18.7,41.2L18.7,41.2c0.3-0.2,0.4-0.4,0.6-0.5C19.2,40.9,19,41.1,18.7,41.2z"/>
				<path class="st0" d="M33.8,42.4c-0.1,0,0.7-0.9,0.9-1.2C34.6,41.5,34.1,42,33.8,42.4z"/>
				<path class="st0" d="M38,38.1h0.6h0.3H39c0.1-0.2,0.1-0.1,0-0.2h0.1c-0.1,0-0.1,0-0.1-0.1l0,0l0,0l0,0c0,0,0,0,0.1,0h0.1h-0.1
					c0.2,0,0.1,0,0,0.1c0,0.1,0,0-0.1,0h-0.1c-0.1,0-0.1,0-0.1,0C38.5,38.1,38.4,38.1,38,38.1z"/>
			</g>
		</g>
	</g>
	<g>
		<g>
			<g>
				<path class="st0" d="M18.6,32c0.1,0,0.3,0,0.4,0C18.7,32,18.5,32,18.6,32z"/>
				<path class="st0" d="M23.9,32.2c-1.4,0-3.5-0.1-4.9-0.2C20.2,32.1,23.5,32.1,23.9,32.2z"/>
				<path class="st0" d="M18.4,31.8l1.7,0.1C19.1,31.9,19.3,31.9,18.4,31.8z"/>
				<polygon class="st0" points="19,32 18.9,32 18,31.9 				"/>
				<path class="st0" d="M42.1,34.2c-0.2,0.1-0.3,0.1-0.2,0.1L42.1,34.2z"/>
				<path class="st0" d="M40.8,34.6c-0.4,0.1-0.6,0.1-0.8,0.1C40.2,34.7,40.4,34.6,40.8,34.6z"/>
				<path class="st0" d="M39,35.2h0.7C39.5,35.2,39.2,35.2,39,35.2z"/>
				<path class="st0" d="M9.8,34.8c0.6,0.1,1.3,0.2,1.7,0.2C10.3,35,10.2,34.9,9.8,34.8z"/>
				<path class="st0" d="M32.2,33.1h0.2C32.6,33,32.7,33,32.2,33.1z"/>
				<path class="st0" d="M39.8,34.2L39.8,34.2l-0.3,0.1L39.8,34.2z"/>
				<path class="st0" d="M36.3,35.3L36.3,35.3c-0.2,0-0.4,0-0.6-0.1C36,35.3,36.2,35.3,36.3,35.3z"/>
				<path class="st0" d="M37.7,32.6c0.2,0,0.5,0,0.7,0C37.9,32.7,37.7,32.7,37.7,32.6z"/>
				<path class="st0" d="M39.9,34.7L39.9,34.7C39.9,34.7,40,34.7,39.9,34.7L39.9,34.7z"/>
				<path class="st0" d="M42,35.3L42,35.3L42,35.3l0.2-0.2c0.1-0.1,0.2-0.1,0.3-0.2c-0.1,0.1-0.3,0.2-0.4,0.2
					C42,35.1,42.1,35.1,42,35.3z"/>
				<path class="st0" d="M9.8,34.8c-0.2,0-0.4-0.1-0.5-0.1C9.5,34.8,9.7,34.8,9.8,34.8z"/>
				<path class="st0" d="M14.1,31.8c-0.5-0.1-0.7-0.1-0.8-0.1C13.6,31.7,13.9,31.7,14.1,31.8z"/>
				<path class="st0" d="M24.1,30.8V31C24.1,31,24.1,30.9,24.1,30.8z"/>
				<path class="st0" d="M13.8,29.7c0.1,0,0.2,0,0.3,0C13.9,29.7,13.8,29.7,13.8,29.7z"/>
				<path class="st0" d="M33,28c-1.3,0.2-2.7,0.3-3.9,0.4h0.4l-1.2,0.1v0.1c-2,0.1-4.4,0.3-5.2,0.2l0.2,0.1h-2.1h1.2
					c-2.4,0.1-5.9,0-6.4,0h0.2c-0.4,0-0.7,0-1.1,0l0.3,0.1c-1.5,0-2.5,0-3.5-0.1c-0.5,0-1,0-1.5-0.1c-0.3,0-0.5,0-0.8-0.1
					c-0.1,0-0.3,0-0.4,0c-0.1,0-0.2,0-0.3,0s-0.1,0-0.2,0.1c-0.1,0-0.3,0.3-0.2,0.5l0,0c0,0.3,0.2,0.4,0.3,0.4
					c0.1,0.1,0.2,0.1,0.3,0.1c0.2,0.1,0.3,0.1,0.5,0.1c0.3,0,0.6,0.1,0.9,0.1c1.1,0.1-0.6-0.1-0.6-0.1c0.6,0,2,0.2,2.3,0.3
					c-0.3-0.1-2-0.3-0.7-0.2c0.9,0.1-0.6-0.1,1,0l0.6,0.2c0.9,0.1,0.2-0.1,1.6,0c1.6,0.1-2,0,0.6,0.2c1.3,0.1,2.7-0.1,5.2,0
					c2.2-0.1-1.1-0.1,1.9-0.1l-1.9-0.1c0.5,0,0.2-0.1,1.5-0.1c0.4,0,1.2,0.1,1.9,0.1c-1.4,0-0.8,0-0.1-0.1c0.1,0,0.2,0,0.3,0h0.1
					v0.1c0,0.2,0,0.3,0,0.3s0,0,0-0.1s0-0.2,0-0.3c0-0.1-0.1-0.1-0.2-0.1s-0.2,0-0.3,0H24h0.1v0.2v0.6c0-0.1,0-0.2,0-0.1V32
					c0-0.4,0-1.2,0-1.7c0-0.2,0-0.3,0-0.4c-0.1,0-0.2,0-0.2,0c-0.1,0,0-0.1,0.3,0v2.2c0.1-0.5,0.1,0.2,0.1,0.1v-1.4v-0.6v-0.3
					c0-0.1,0-0.1,0-0.2h-0.2H23c-0.9,0-1.8,0-2.7,0c0.2,0,1,0.1,0.7,0.1c-1.5,0-1.2-0.1-2.6,0l0.6,0.1c-0.1,0-0.3,0,0,0
					c0.5,0,0.7,0,0.7,0c-0.5,0.1-1.9,0-2.3-0.1c-1.8-0.1-0.4,0.1-0.8,0.1c-0.9-0.1-3-0.1-4.1-0.3c0.2,0,0.5,0.1,0.7,0.1
					c-1.4,0-2.6-0.3-3.3-0.4l0.3,0.1c-0.3,0-0.6-0.1-0.9-0.1c-0.1,0-0.3,0-0.3,0H8.9c0-0.1-0.1,0.1-0.2,0.1l0,0l0,0l0.1,0.1
					c0,0,0,0,0.1,0s0.2,0,0.3,0c0.2,0,0.4,0,0.6,0c0.4,0,0.8,0.1,1.3,0.2h-0.2c0.8,0,2,0,2.7,0.1c0,0,0.2,0,0.5,0
					c0.4,0.1,1.2,0,2.4,0c-0.8,0-0.5-0.1-1.3-0.1c1.8-0.1,1.6,0.1,3.1,0.1c0.9,0-0.8,0-1-0.1c2.3,0.1,4.7-0.3,6.1-0.2l-1,0.1
					c0.9,0,1.4,0,1.3,0c-0.3,0-0.4,0-0.5,0c2.7-0.2,4.3-0.1,7.1-0.4c-0.2,0-0.6,0-0.6,0C31,29,31,29.3,33,28.9h-0.4
					c0.7-0.1,1.2-0.1,1.1-0.1c0-0.1,1.1-0.2,2.3-0.5c0.2,0,0.3-0.1,0.5-0.1l0.2-0.1c0,0,0.1,0,0.2,0c0.3,0.1,0.6,0.1,0.9,0.2
					c0.6,0.1,1.2,0.2,1.4,0.3c0.1-0.1-0.1,0-0.3,0.1c-0.2,0-0.3,0-0.6,0c-0.2,0-0.4,0-0.7,0h-0.4c-0.2,0-0.2,0-0.4,0.1
					c-0.9,0.1-1.9,0.3-2.3,0.4c-1.2,0.3,1.1-0.1,0.7,0.1c-1,0.2-1.5,0.1-3,0.4c0-0.1,2.9-0.6,0.1-0.2l-0.4,0.1
					c0.3,0,0.7-0.1,1.1-0.1c0.8-0.1-0.5,0.1-0.7,0.2c-1,0.1-2,0.2-3,0.3c-0.2-0.1,1.6-0.2,1.7-0.3c-0.8,0.1-1.7,0.2-2.5,0.3
					c-0.4,0-0.9,0.1-1.3,0.1c-0.5,0-1,0.1-1.5,0.1c0,0.4,0,0.8,0,1.3c0,0.4,0,0.8,0,1.2h0.2h-0.2v-0.1v0.1c0.9,0,1.3,0,1.6,0
					c0.3,0,0.5,0,0.7-0.1c0.3,0,0.6-0.1,1.7,0c1.2-0.1-0.4-0.1,1.4-0.2c0.5,0,0.2,0,0.1,0c2.2-0.1,1-0.1,3-0.2l-0.4-0.1
					c1.2-0.1,2.4-0.1,3.6-0.2c0.6,0,1.2-0.1,1.7-0.2c0.1,0,0.3,0,0.4-0.1c0.2,0,0.3-0.1,0.4-0.2c0.2-0.1,0.5-0.2,0.7-0.3
					c-0.1,0-0.4,0.1-0.8,0.3l-0.3,0.1c-0.1,0-0.2,0-0.3,0c-0.2,0-0.4,0-0.5,0l0.5-0.1c0.2,0,0.4-0.1,0.6-0.2
					c0.4-0.2,0.7-0.3,1.1-0.5c0.4-0.2,0.7-0.3,1.1-0.5c0.1-0.1,0.2,0,0.2,0h0.3l0.5,0.1c0.3,0.1,0.7,0.1,1,0.2
					c0.1,0,0.1,0.1,0.1,0.2s-0.1,0.1-0.2,0.2c-0.1,0.1-0.3,0.1-0.4,0.2c-0.3,0.1-0.6,0.1-0.9,0.2c-0.3,0.1-0.7,0.1-1,0.2
					c0.7-0.2-1.2,0.1,0.4-0.3c0.6,0,0.8-0.1,1.3-0.2c-0.3,0-0.5,0.1-0.8,0.1c-0.6,0.1-1.3,0.3-2,0.4c-1.3,0.3-2.6,0.5-2.8,0.4
					L37.3,32c-0.4,0-1.4,0.1-0.7,0c-0.9,0.1-1.9,0.2-2.8,0.3c1,0,3.1-0.1,3.8-0.3c0.8,0-1.2,0.2-0.4,0.2c-1.9,0.1-1.2,0.2-3.1,0.3
					c0.9-0.2-2,0-1.9-0.1c-0.6,0.1-2.1,0.1-2.6,0c-0.5,0-1.3,0-2.2,0.1h-1.3l1.2,0.5c1,0.5,2.3,0.9,3.3,1.2
					c-0.7-0.2-1.7-0.6-1.6-0.7c0.8,0.4,1.8,0.6,2,0.6c-1.5-0.5-1.8-0.6-2-0.6s-0.4,0-1.6-0.6l-0.8-0.4h0.9h0.1c0.7,0.1,1.5,0.1,3,0
					c-0.7,0.1-0.4,0.1-0.7,0.2c-0.7,0-1.6,0-2.5,0h-0.1h0.1c1.4,0.7,3,1.1,4.4,1.5c1,0.2,0.2,0.3,2.5,0.6c-0.7,0-1.3-0.1-2-0.2
					c2.2,0.3,0.5,0.2,2.3,0.4l-0.7-0.1C35,35,35.3,35,36,35.1c-0.3,0-0.6-0.1-0.9-0.1c0.6,0,1.7,0,1.7,0.1c0.2,0,0.2,0,0.2-0.1
					c0.1,0,0.4,0,1.1,0c-0.4,0-0.7,0-0.7,0c2.6-0.2,0.6-0.1,2.2-0.3c-0.3,0,0.2-0.1,0.8-0.2c0,0.1,0.4,0,0.9-0.1
					c0.3,0,0.6-0.1,0.9-0.2l0.5-0.1l0.2-0.1H43l0,0v-0.1c0-0.1,0.1-0.1,0-0.1l0,0l-0.2-0.1l0,0h-0.1l-0.2,0.1
					c-0.1,0-0.2,0.1-0.3,0.1c-0.2,0.1-0.3,0.2-0.5,0.2l0,0c-0.2,0.1-0.3,0.2-0.5,0.4s-0.2,0.3-0.3,0.3c-0.1,0.1-0.6,0.1-0.9,0.1
					c0.4,0,0,0.1-0.7,0.1h0.1c-0.7,0.1,0.8,0.1-1.2,0.2c-0.4,0-0.7,0-1.1,0c0.2,0,0,0-0.1,0c-0.4,0-0.7-0.1-1.1-0.1
					c-1.7,0-3.2-0.4-5.2-0.8c0.6,0.2,1.4,0.3,1,0.3c-0.4-0.1-1-0.2-1.2-0.3h0.1c-1.2-0.4-2.4-0.9-3.5-1.5c0.2,0.2,2.2,1.1,1.3,0.7
					c-0.3-0.1-0.7-0.3-1-0.4c-0.2-0.1-0.4-0.2-0.6-0.3s-0.5-0.3-0.6-0.3c0-0.1,1.7,0.8,0-0.1c0,0-0.1-0.1-0.3,0
					c-0.1,0-0.1,0.1-0.1,0.2c0,0.1,0,0.1,0,0.2c0,0.3,0,0.6,0,0.2c0,1.1-0.1,2.5-0.1,3.7c0,0.1,0,0.1-0.1,0.1s-0.1,0-0.2,0
					c-0.2,0-0.1,0,0,0s0.2,0,0.2,0l0,0c0.1,0,0-0.1,0.1-0.1c0-0.1,0-0.1,0-0.3c0-0.1,0-0.4,0-1.1c0.1-0.1,0.1,0.6,0.1,1.3
					c0,0.1,0,0.1,0,0.2c-0.1,0-0.1,0.1-0.2,0.1S25.3,37,25.1,37c-0.4,0-0.8,0.1-1,0c0.2,0.1,0.6,0,1,0c0.2,0,0.4,0,0.5-0.1
					c0.1,0,0.3-0.1,0.3-0.2c0,0.1,0,0.2-0.1,0.2S25.6,37,25.5,37c-0.2,0-0.5,0.1-0.7,0.1c-0.3,0-0.5,0.1-0.7,0
					C24,37.2,24,36.9,24,36.7c0-1.1,0-2.1-0.1-3.2v-0.4c0-0.1,0-0.3-0.2-0.3c-0.1,0-0.1,0-0.2,0l-0.2,0.1c0,0-0.1,0.1-0.3,0.1
					c-0.4,0.3-1,0.5-1.4,0.7c-1,0.3-1.9,0.6-2.8,0.7c1-0.2,1.9-0.5,1.8-0.5c-1.1,0.3-1.6,0.3-2.1,0.4c-0.5,0.1-1,0.1-2.1,0.2h0.2
					c-1.2,0.2-2.8,0.1-3.5,0.2c0.5,0.1,1.7-0.1,1.7,0c-1,0-1.9,0-2.9,0c0.9,0.1,2.9,0.1,4,0c0.8,0-1.6,0.1-1.2,0
					c2.7-0.1,3.3-0.2,4.6-0.3c0.8-0.1-1.1,0.3-1.6,0.3c-1.7,0.1-4.2,0.1-6.9,0c-0.5,0-1,0-1.5,0c-0.5-0.1-0.7-0.2-0.9-0.2
					c-0.1,0-0.2-0.1-0.3-0.1c-0.1,0-0.3-0.1-0.3-0.2l0,0l-0.1,0.1c-0.1,0.1-0.1,0,0,0.1c0,0.1,0,0.1,0,0.1H7.6
					c0.3,0.1,0.7,0.2,1.2,0.3c-0.2-0.1-0.5-0.1-0.7-0.2c0.5,0.1,0.9,0.1,1.1,0.2c-0.5-0.1-1.1-0.3-1.6-0.4l0,0H7.5l0,0
					c0.1,0.2,0.3,0.3,0.5,0.3s0.4,0.1,0.6,0.1c-0.2,0-0.4,0-0.6-0.1c-0.2,0-0.5-0.1-0.6-0.3l0,0c0,0,0-0.2,0.1-0.2h0.1l0,0l0,0
					c1.3,0.4,3,0.7,4.4,0.7c-0.1,0-0.8,0-1-0.1c1.5,0.1,3,0,4.4-0.2c0.7-0.1,1.4-0.2,2.1-0.4s1.2-0.3,1.9-0.6c0.5-0.3,0,0-0.6,0.2
					c-0.4,0.2-1,0.3-0.8,0.2c0.3-0.1,0.6-0.2,0.9-0.3s0.6-0.2,0.8-0.3c0.5-0.2,0.9-0.4,1.1-0.5c-0.2,0.1-0.1,0,0,0s0.1-0.1,0.2-0.1
					h0.1c0,0,0,0-0.1,0h-0.2c-0.6,0-1.1-0.1-0.2,0h0.1h-0.2c-1.9-0.1-4.3-0.2-6.5-0.5s-4.5-0.7-6.6-1.2c0.2,0.1,0.2,0.1,0,0.1
					c1.4,0.3,3.3,0.7,4.4,0.9c-1-0.1-2.3-0.5-2.6-0.5c0.5,0.1,1.5,0.3,1.5,0.3c-1.3-0.2-2-0.4-2.8-0.6l0.5,0.1
					c-0.9-0.2-1.3-0.3-1.7-0.4c-0.1,0-0.2,0-0.2-0.1s-0.1-0.1-0.1-0.2c-0.1-0.1-0.2-0.2-0.2-0.3l-0.1,0.1C6.4,30.6,7,30.7,8,30.9
					c1.1,0.1,0-0.1,0-0.1c0.7,0.2,2.9,0.5,3.6,0.6l-1.8-0.3c1.2,0.2,2.4,0.4,3.3,0.5c-0.1,0-0.2-0.1-0.4-0.1c1,0.2,2.3,0.3,2.8,0.4
					l0.3-0.1c-0.6,0-2.4-0.2-2.7-0.3c0.2-0.1,2,0.2,2.7,0.2c-3.5-0.3-3.5-0.5-6.4-0.9l0.5,0.1c-1.3-0.2-2.6-0.5-3.8-0.7l-0.5-0.1
					l0.3,0.4l0.2,0.3L6.5,31l0.1,0.1h0.1c0.3,0.1,0.5,0.1,0.7,0.2c-0.4-0.1-0.5-0.1-0.3,0c3.5,0.7,7,1.3,11,1.4l0.6,0.1l0.3,0.1
					l0.1-0.1c1.1,0,0.3,0.1,0.5,0.1c0,0,0.2,0,0,0l0,0l0,0l0,0l0,0c0,0,0,0,0.1,0h0.1c0,0,0,0-0.1,0S19.6,33,19.6,33
					c-0.1,0-0.1,0.1-0.2,0.1s-0.1,0.1-0.1,0.1s0,0.1-0.4,0.2c0.2,0,0.6-0.2,0.9-0.3s0.6-0.3,0.5-0.2c-0.4,0.3-0.9,0.5-1.4,0.6
					c-0.5,0.2-1.2,0.4-1.8,0.5c-1.2,0.3-2.1,0.4-2.3,0.3c-2.2,0.3-4.8,0.3-7.1-0.4H7.6l0,0c0,0-0.1,0-0.2,0c0,0-0.1,0-0.2,0.2
					s0,0.3,0,0.3l0,0c0.2,0.3,0.3,0.3,0.5,0.4C7.9,34.9,8.1,35,8.2,35c0.3,0,0.6,0.1,0.8,0.1c0.5,0.1,1,0.1,1.5,0.2
					c1,0.1,1.9,0.1,2.7,0.1c0.5,0-0.3,0-0.1,0c0.7,0.1,1.9,0,2.9-0.1s1.9-0.2,1.9-0.2c0.7-0.1,1-0.2,1.1-0.3c0.9-0.1,2-0.4,3.1-0.9
					c-0.3,0.1-0.5,0.2-0.8,0.3h0.1c0.4-0.1,0.8-0.3,1.1-0.5l0,0c0.2-0.1,0.3-0.1,0.5-0.3l0.3-0.2c0.1,0,0.1-0.1,0.2-0.1
					c0,0,0,0,0.1,0v0.1v0.1c0,0.7,0,1.4,0,2c0,0.4,0,0.7,0,1.1v0.3c0,0.1,0,0.3,0,0.4c0.1,0.3,0.4,0.4,0.6,0.5c0.3,0,0.4,0,0.6,0
					s0.4,0,0.5,0c0.2,0,1.2-0.1,1.1-0.7v-0.1c0,0.1,0,0.1,0,0.1c0,0.3-0.1,0.4-0.3,0.5c-0.1,0.1-0.2,0.1-0.2,0.1
					c-0.1,0,0.1,0,0.2-0.1s0.2-0.2,0.2-0.3s0,0-0.1,0.2c0.1-0.1,0.1-0.2,0.1-0.3c0-0.4,0.1-0.9,0.1-1.4s0-1.1,0-1.7
					c0-0.1,0-0.3,0-0.4c0-0.1,0.1,0,0.1,0l0.1,0.1l0.3,0.2c0.1,0.1,0.3,0.1,0.4,0.2c0.3,0.1,0.6,0.3,0.9,0.4c0,0,0.2,0-0.1-0.1
					c0.5,0.2,0.9,0.4,1.4,0.6l-0.2-0.1c1.3,0.4,2.7,0.8,4,1s2.5,0.3,3.4,0.3C35.6,36,35.6,36,35.5,36c1,0.1,1.9,0.1,2.9,0.1
					c0.5,0,1,0,1.5-0.1c0.3,0,0.5,0,0.8-0.1c0.1,0,0.3,0,0.5-0.1s0.3-0.2,0.4-0.4c-0.1,0.1-0.2,0.2-0.2,0.2c0.2-0.1,0.3-0.3,0.3-0.4
					c0.1-0.1,0.2-0.2,0.3-0.2c0.2-0.1,0.6-0.3,0.8-0.4v-0.1l0.1-0.1l0.1-0.1c0,0,0.1,0,0.1-0.2v0.1c0,0,0.1-0.2,0-0.4
					c-0.1-0.1-0.2-0.1-0.2-0.1c-0.1,0-0.1,0-0.1,0c-0.1,0-0.1,0-0.2,0l-0.2,0.1c-0.1,0-0.3,0.1-0.4,0.1c-0.3,0.1-0.6,0.1-0.9,0.2
					c-0.6,0.1-1.2,0.2-1.9,0.3c-0.3,0.1-1.1,0.2-2,0.2s-2-0.1-2.8-0.1c-0.6-0.1,1.3,0.2-0.4,0c-0.2-0.1-2.1-0.3-2.2-0.5
					c-0.5-0.1-0.9-0.2-1.4-0.3l-0.3-0.2c-1-0.2-1.6-0.5-2.8-1.1l-0.2,1c0.2,0,0.5,0,0.7,0c-0.1,0-0.3,0-0.2,0c0.6,0,2,0,0.9,0
					c1,0,4.4-0.1,2.9-0.2c0.1,0-1.3,0.1-1.9,0.1c0.1-0.1,1.6-0.1,1.9-0.2c0.1,0,0.2,0,0.4,0L32,33c1.9,0,3.8-0.3,5.1-0.3
					c0.1,0,0.4-0.1,1-0.2v0.1c0.7-0.1,1.3-0.2,2-0.3h-0.9c1.1-0.2,2-0.3,2.9-0.5l0.4-0.1c0.2,0,0.3-0.1,0.5-0.1
					c0.4-0.1,0.7-0.2,1.1-0.3c0.2,0,0.3-0.1,0.4-0.2c0.1-0.1,0.2-0.1,0.2-0.2c0.1-0.1,0.2-0.3,0.2-0.6c0,0,0,0-0.1-0.1l0,0h-0.1
					c-0.2-0.1-0.4-0.1-0.6-0.2c-0.5-0.1-1.1-0.3-1.7-0.5c-0.1,0-0.1,0-0.3-0.1c-0.1,0-0.2-0.1-0.4,0l-0.5,0.2
					c-0.2,0.1-0.5,0.2-0.7,0.3c-0.5,0.2-0.9,0.4-1.2,0.6l1.3-0.6c-0.3,0.2-0.6,0.3-0.9,0.4c-0.3,0.1-0.5,0.3-0.6,0.3
					c-0.5,0.1-0.9,0.1-1.3,0.2c-0.8,0.1-1.6,0.2-3,0.3c1.2-0.2,1.8-0.2,2.5-0.3c0.4-0.1,0.7-0.1,1.3-0.2c0.1,0,0.3,0,0.4-0.1
					c0.1,0,0.1,0,0.2,0c0.1,0,0,0,0.1,0c0.3-0.2,0.6-0.3,1-0.5c-0.4,0.2-0.7,0.3-1,0.5c-0.4,0.1-0.7,0.1-1.1,0.1
					c-0.8,0.1-1.5,0.2-2.2,0.2c-1.4,0.1-2.8,0.2-4.4,0.4c0.2,0,1,0,0.2,0.1c-0.6,0-3,0.1-2.5,0c-1,0.1-1.1,0.1-1.7,0.2
					c-0.5,0-1.4,0-1.2,0v-0.1l0,0v-0.2v-0.8v0.1c0-0.2,0-0.1,0-0.1v-0.1h0.1h0.4c0.3,0,0.7-0.1,1-0.1c0.7-0.1,1.3-0.1,1.9-0.2
					c1.3-0.1,2.5-0.2,3.8-0.4l1.9-0.2l0.9-0.1l0.5-0.1c0.2,0,0.2,0,0.4,0h1c0.2,0,0.4,0,0.6-0.1c0.1,0,0.2-0.1,0.4-0.2
					c0,0,0.1-0.1,0.2-0.2c0.1-0.1,0.2-0.4,0.1-0.6c-0.2-0.4-0.3-0.3-0.4-0.4c-0.5-0.2-0.7-0.2-1.1-0.3c-0.3-0.1-0.6-0.2-1-0.2
					l0.1,0.1l-0.3-0.1c-0.1,0-0.3-0.2-0.6-0.1L36,27.4c1.1-0.2-0.4,0.2-0.5,0.2c-1.2,0.2-2.3,0.3-3.5,0.5C31.9,28.1,32.1,28.2,33,28
					z M38.9,32.4L38,32.5c-0.2,0-0.3,0.1-0.5,0.1l0.5-0.1C38.5,32.5,38.8,32.4,38.9,32.4z M12.8,34.5c0.4,0-0.6,0-0.9,0
					c0.5,0,0.9,0,1.4,0C13.5,34.5,13,34.5,12.8,34.5z M38.8,31.9l0.5-0.1l0.6-0.1L38.8,31.9z M39.6,31.4c0.1,0,0.2,0,0.3-0.1
					l0.3-0.1l0.6-0.2h-0.1l-0.5,0.2c-0.1,0-0.2,0.1-0.3,0.1L39.6,31.4L39.6,31.4z M26.6,31.8L26.6,31.8
					C26.6,31.8,26.7,31.8,26.6,31.8C26.7,31.8,26.6,31.8,26.6,31.8L26.6,31.8c0-0.1,0-0.1,0-0.3c0-0.2,0-0.3,0-0.5
					c0-0.1,0-0.3,0-0.4s0-0.1,0-0.2l0,0l0,0c0,0.1,0,0.1,0,0.3c0,0.2,0,0.4,0,0.5C26.7,31.7,26.6,31.7,26.6,31.8z M43.1,31.6
					c-0.5,0.1-0.6,0.1-0.9,0.2c0.2,0,1-0.1,0.4,0c-0.4,0-1.8,0.3-1.8,0.2C42,31.8,42.8,31.5,43.1,31.6z M40.3,34.2H40
					c0.4,0,0.7-0.1,1.1-0.1L40.3,34.2z M41.8,35.2c-0.1,0.1-0.4,0.3-0.7,0.3s-0.6,0.1-0.9,0.1c-0.6,0-1.3,0.1-1.8,0.1
					c-0.3,0.1,0.8,0.1,2.1,0c0.4,0,0.6-0.1,0.8-0.1c0.2-0.1,0.2-0.1,0.2-0.1C41.6,35.4,41.6,35.5,41.8,35.2z M38.1,31.2h0.3H38.1
					l1.2-0.1c-1.5,0.3-2.7,0.3-3.5,0.3C36.6,31.5,38.5,31.3,38.1,31.2z M30.8,34.9c-1.1-0.3-2.9-1.2-2.7-1.1c-0.1,0,0.3,0.2,0.7,0.4
					c0.4,0.2,0.9,0.4,1.1,0.5C30.2,34.7,30.4,34.8,30.8,34.9z M30.9,34.7c1.5,0.5,1.6,0.5,2.8,0.8c-1.6-0.2-2-0.5-1.8-0.5
					c-1.1-0.3-0.9-0.2-1.4-0.3H30.9z M32.4,35.4l0.7,0.1c0.8,0.1,0.9,0,2,0.2c-0.7-0.1-1.3-0.1-2-0.2C32.9,35.5,32.7,35.4,32.4,35.4
					z M23.7,37.2c0,0.3,0.4,0.5,0.7,0.6C23.9,37.7,23.7,37.4,23.7,37.2C23.7,37.1,23.7,37.1,23.7,37.2c0-0.1,0-0.3,0-0.4v-0.3
					c0,0.3,0,0.7,0.1,0.8s0.2,0.2,0.1,0.2C23.9,37.5,23.7,37.3,23.7,37.2z M29.3,34.5c0.6,0.2,1.2,0.4,1.8,0.6
					C31.1,35,29.9,34.7,29.3,34.5z M24.1,37.5c0.1,0.1,0.4,0.1,0.6,0.1s0.4,0,0.6,0s0.4,0,0.7-0.1c0.1,0,0.2-0.1,0.3-0.2
					c0.1-0.1,0.1-0.2,0.1-0.3c0-0.4,0-0.5,0-0.4c0,0,0,0.1,0,0.4c0,0.1,0,0.2-0.1,0.3s-0.2,0.2-0.3,0.2c-0.3,0.1-0.5,0.1-0.7,0.1
					s-0.4,0-0.6,0S24.2,37.6,24.1,37.5z M14.7,32.4l1.2,0.1h-0.6L14.7,32.4z M13.7,34.7l0.3-0.1l0.7-0.1
					C14.3,34.7,14,34.7,13.7,34.7z M14.2,35.1C14.1,35.1,14.2,35.1,14.2,35.1c0.3,0.1,0.4,0.1,0.5,0.1
					C14.5,35.1,14.4,35.1,14.2,35.1c-0.4,0-1.2,0-1.6,0.1c0.2,0,1,0,1.3,0.1c-1.2,0.1-3.8-0.3-3.1,0C10.3,35.2,8.6,35,9.2,35
					C10.6,35.1,13.2,35.1,14.2,35.1c0.1,0,0.2,0,0.4,0C14.5,35,14.4,35,14.2,35.1z M26.2,36.6c0-0.5,0-0.7,0-0.8
					c0-0.4,0-0.7,0.1-0.6c0,1-0.1,0.4-0.1,0.6C26.2,36.1,26.2,36.4,26.2,36.6z M26.2,33.5l-0.1,1.6l0.1-0.8l-0.1,2.4
					C26.1,35.4,26.2,33.8,26.2,33.5z M26.2,32.9c0-0.1,0-0.2,0.2-0.2h-0.1L26.2,32.9v0.2V32.9L26.2,32.9L26.2,32.9
					c0-0.1,0-0.2,0.1-0.2s0.2,0.1,0.3,0.1c0.2,0.1,0.5,0.3,0.7,0.4c0.4,0.2,0.8,0.4,1.2,0.6c-0.4-0.2-0.8-0.3-1.2-0.6
					c-0.2-0.1-0.4-0.2-0.6-0.3c-0.1,0-0.2-0.1-0.3-0.1C26.2,32.7,26.2,32.8,26.2,32.9z M34.3,34.6c-0.5,0,0.1,0.2,0.9,0.2
					c0.8,0.1,1.8,0.1,2,0.1c0.1,0,0.3-0.1,0.3-0.1c-0.1,0-0.5,0-1.8-0.1c2.3,0,1.4,0.2,2.8-0.1c-1.1,0.1-2.4,0-2.6,0
					c0.4,0,0.9,0,1.3,0C36.4,34.7,35.2,34.8,34.3,34.6z M34.5,32.5l1.7-0.1L34.5,32.5L34.5,32.5z M35.8,29c-0.1,0,2-0.5,2.5-0.3
					c-0.3,0-0.6,0-0.8,0c-0.3,0-0.5,0.1-0.8,0.1C36.3,28.9,36,29,35.8,29z M25.5,29.3c0.6,0,1.3,0,1.9-0.1c-0.4,0.1-1.7,0.1-2.6,0.2
					C24.5,29.3,25.2,29.3,25.5,29.3z M13.2,29.4h-0.6H13.2L13.2,29.4z M14,29.6c-0.4,0,0.9,0.1,1.2,0.1L14,29.6z M14.4,29.8h-0.8
					H14.4L14.4,29.8z M13.2,29.8c-0.2-0.1-0.1-0.2-1.9-0.3c-0.1,0.1,0.4,0.1-0.3,0.1c0.6,0.1,1.1,0.1,1.4,0.1
					c-0.4-0.1-0.9-0.1-1-0.1C12.1,29.7,12.8,29.7,13.2,29.8c0.1,0,0.2,0.1,0.4,0.1C13.6,29.9,13.4,29.8,13.2,29.8z M10.7,29.3
					c0.2,0,0.4,0,0.5,0h0.1C11.2,29.4,10.9,29.4,10.7,29.3c-0.3,0-0.6,0-0.9,0c-0.2,0,1,0.2,1.4,0.2c-0.6,0-1.1-0.1-1.9-0.2
					c0.1,0,0,0,0.5,0.1H9.3c-0.1,0-0.2,0-0.2,0H9l0,0l-0.1-0.1l0,0l0,0L9,29.2l0,0c0,0,0.1,0,0.1,0.1h0.1c0,0-0.2-0.1-0.3-0.1l0,0
					l0,0c0,0,0,0.1,0,0c0,0,0,0,0.1,0s0.2,0,0.3,0c0.2,0,0.4,0,0.6,0c0,0,0.1,0,0.3,0C10.4,29.3,10.6,29.3,10.7,29.3z M15.3,30.1
					L14.7,30c-0.3,0-0.1-0.1-0.2-0.1C15.2,30.1,16.1,30.2,15.3,30.1z M37.5,27.9c-0.4-0.1,0.5,0.2,1.3,0.4h-0.5c0,0-0.4-0.1-0.9-0.3
					c-0.2,0-0.5-0.1-0.6-0.1c-0.2,0-0.3,0.1-0.4,0.1c-0.2,0-0.1,0,0.1-0.1C36.9,27.7,37.2,27.8,37.5,27.9z M40.3,31.8
					c-0.3,0-2.6,0.4-3.1,0.4C38.4,32,41,31.6,40.3,31.8z M36.4,32.4c-0.6,0.1-0.8,0.1-0.7,0c-0.3,0-0.8,0.1-1.1,0.1
					C35.8,32.4,35.7,32.4,36.4,32.4c0.2,0,0.3,0,0.6-0.1C36.7,32.4,36.6,32.4,36.4,32.4z M30,32h-0.8h-1.3H30z M34.3,29.5
					c-0.1,0,1.4-0.2,1.7-0.3c-0.1,0-1.1,0.1-1.9,0.2c-0.1,0-0.3,0-0.5,0.1c0.2,0,0.3,0,0.5-0.1c0.3,0,0.1,0,0.1,0.1l-0.4,0.1
					l1.1-0.1L34.3,29.5z M20.6,29.1c-0.9,0.1-1,0-1.6,0C19.2,29.1,20,29.1,20.6,29.1z M27,30.3c1.5-0.1-0.7,0,0.3-0.1h-0.7
					c0.1,0,0.2,0,0.3,0c0.1,0,0.2,0,0.3,0c0.2,0,0.3,0,0.3,0c0.2,0,0.3,0,0.8,0l-0.6,0.1c-0.5,0.1,0.9,0,1,0
					C28,30.3,26.4,30.4,27,30.3z M19.2,29.1c-1.4,0-1.2-0.1-2.1-0.1C18.3,28.9,18.1,29.1,19.2,29.1z M36.3,29.4L36.3,29.4l1.1-0.1
					h0.1L36.3,29.4z"/>
				<path class="st0" d="M17.4,29.7c-0.4,0-0.6,0-0.8,0C16.8,29.7,17.1,29.7,17.4,29.7z"/>
				<path class="st0" d="M32.8,32.3c0,0-0.2,0-0.3,0C32.5,32.3,32.5,32.3,32.8,32.3z"/>
				<path class="st0" d="M29.9,32.4h-0.1h-0.1H29.9z"/>
				<path class="st0" d="M13.2,31.7c0.6,0.1-0.6-0.1-1.1-0.1C12.6,31.7,12.8,31.6,13.2,31.7z"/>
				<path class="st0" d="M9.4,31c0.3,0.1,0.7,0.2,1.2,0.2C10.3,31.2,9.9,31.2,9.4,31z"/>
				<path class="st0" d="M12.5,31.6c-0.8-0.1-1.4-0.2-1.9-0.3C11.1,31.4,11.5,31.4,12.5,31.6z"/>
				<path class="st0" d="M13.3,32.1c-0.6-0.1-1.8-0.3-1.8-0.3c2.5,0.3-0.5-0.2-0.7-0.2C12.4,31.9,12.4,31.9,13.3,32.1z"/>
				<path class="st0" d="M16.7,32.4c-0.3,0-0.5,0-0.7,0C16.3,32.4,16.5,32.4,16.7,32.4z"/>
				<path class="st0" d="M17.7,32.5c0.9,0.1,1.2,0.1,1.6,0.2c-1,0-1.7-0.1-2.5-0.2C17.3,32.5,18,32.5,17.7,32.5z"/>
				<path class="st0" d="M17.6,34.5c-0.2,0-0.7,0.1-0.7,0.1c0.5-0.1,1-0.1,1.5-0.2C19,34.3,17.9,34.5,17.6,34.5z"/>
				<path class="st0" d="M22.8,33.1c0.6-0.4,0.8-0.5,0.8-0.5c0.1,0,0.1-0.1,0.4,0c0,0-0.1,0-0.1,0.1h-0.3c-0.1,0-0.2,0.1-0.3,0.1
					C23.2,32.8,22.9,33,22.8,33.1z"/>
				<path class="st0" d="M22.5,33.8L22.1,34C22.2,33.9,22.4,33.8,22.5,33.8L22.5,33.8z"/>
				<path class="st0" d="M24.3,37.1c-0.1-0.1,0-0.2,0-0.6c0,0.1,0,0.2,0,0.3v0.1C24.3,37,24.4,37,24.3,37.1
					C24.4,37.1,24.4,37.1,24.3,37.1z"/>
				<polygon class="st0" points="25.9,34.7 25.9,35.4 25.9,33 				"/>
				<path class="st0" d="M29.6,34h0.2c0.5,0.2,0.9,0.3,1.4,0.5C30.6,34.3,30.1,34.2,29.6,34z"/>
				<path class="st0" d="M34.1,32.1c-0.2-0.1,2.2-0.2,2.8-0.4C36.4,31.9,35,31.9,34.1,32.1z"/>
				<path class="st0" d="M19.5,29.6h2.3C20,29.7,21.3,29.6,19.5,29.6z"/>
			</g>
		</g>
	</g>
</g>
<g>
	<path class="st1" d="M47.9,25.9c0.1,0.1,0.3,0,0.2-0.2l-0.3-0.1L47.9,25.9z"/>
	<path class="st1" d="M48.5,24.5c-0.2-0.2-0.5-0.5-0.8-0.3c0.3,0.2,0.2,0.3,0.6,0.5c0,0.2-0.1,0.4-0.2,0.3c0.1,0.1-0.1,0.3,0.2,0.4
		c0.2-0.3,0.2-0.6,0-1C48.3,24.4,48.4,24.5,48.5,24.5z"/>
	<path class="st1" d="M39,6.6L39,6.6C39.1,6.6,39.1,6.6,39,6.6z"/>
	<path class="st1" d="M26.8,2C26.9,2,27,2,27,2C26.9,2,26.8,2,26.8,2z"/>
	<path class="st1" d="M24.6,1.6h0.1C24.6,1.6,24.6,1.6,24.6,1.6z"/>
	<path class="st1" d="M39,6.6l-0.2-0.3C38.7,6.3,38.9,6.4,39,6.6z"/>
	<path class="st1" d="M47.3,21.8c0,0.1,0.1,0.1,0.1,0.2L47.3,21.8L47.3,21.8z"/>
	<path class="st1" d="M43.5,10.3L43.5,10.3c0.1,0.1,0.2,0.1,0.2,0.1L43.5,10.3z"/>
	<path class="st1" d="M46.1,13.9c0-0.1-0.3,0-0.4,0c0.1,0,0.2,0,0.3,0.1C46,14,46.1,14,46.1,13.9z"/>
	<path class="st1" d="M48.2,20.6l0.1,0.1C48.3,20.7,48.3,20.7,48.2,20.6z"/>
	<path class="st1" d="M41.3,7.9L41.3,7.9L41.3,7.9z"/>
	<path class="st1" d="M46.7,30.7C46.8,30.7,46.8,30.7,46.7,30.7C46.8,30.6,46.7,30.6,46.7,30.7z"/>
	<path class="st1" d="M48.6,25.9L48.6,25.9c0.1,0.1,0.1,0.1,0.2,0.1L48.6,25.9z"/>
	<path class="st1" d="M20.3,1.7L20.3,1.7C20.4,1.7,20.4,1.7,20.3,1.7z"/>
	<path class="st1" d="M1.3,31.1c0.1-0.5,0.5,0.6,0.6-0.1C1.8,31.1,1.3,30.6,1.3,31.1z"/>
	<path class="st1" d="M47.4,21.7c0-0.1,0-0.1,0-0.2C47.3,21.6,47.3,21.7,47.4,21.7z"/>
	<path class="st1" d="M1.9,31L1.9,31L1.9,31L1.9,31z"/>
	<path class="st1" d="M11.4,5.7h0.1C11.6,5.7,11.5,5.7,11.4,5.7z"/>
	<path class="st1" d="M18.1,2.9h-0.2C18,2.9,18,2.9,18.1,2.9z"/>
	<path class="st1" d="M8.8,8.3c-0.1,0-0.1,0-0.2,0.2c0,0,0,0,0.1,0C8.6,8.4,8.7,8.4,8.8,8.3z"/>
	<path class="st1" d="M6.2,11.2C6.2,11.2,6.2,11.1,6.2,11.2c0.1-0.1,0.1-0.1,0.1-0.1L6.2,11.2z"/>
	<path class="st1" d="M42.1,40.2c0.1,0,0.2,0,0.3,0C42.2,40.2,42.5,39.8,42.1,40.2z"/>
	<path class="st1" d="M47.5,21.8c-0.1,0-0.1,0-0.1-0.1L47.5,21.8L47.5,21.8z"/>
	<path class="st1" d="M10.2,10l-0.4,0.3C9.9,10.3,10,10.2,10.2,10z"/>
	<path class="st1" d="M19.1,47.2h0.1H19.1z"/>
	<path class="st1" d="M8.6,11.6c-0.1,0-0.3,0.1-0.4,0.1v0.1L8.6,11.6z"/>
	<path class="st1" d="M42.4,40.3L42.4,40.3L42.4,40.3z"/>
	<path class="st1" d="M44,36.9c-0.3,0.4,0.2,0.4,0.3,0.6c-0.2,0.6-0.4,0.1-0.7,0.2c-0.1,0.4,0,0.8-0.2,1.1c-0.1,0-0.1,0-0.1-0.1
		c0,0.5-0.7,1-0.8,1.6c-0.1,0-0.1,0-0.1,0c0.2,0.1,0.4,0.2,0.4,0.3c-0.2,0.2-0.1,0.5-0.4,0.4c0.1-0.1,0-0.2,0-0.3L42.3,41
		c-0.4-0.1,0.1-0.3,0-0.5c-0.2,0.4-0.4,1.1-0.8,1.3c-0.3-0.2,0.5-0.7,0-0.6l0.5-0.3c-0.7,0,0.3-0.2-0.4-0.3c-0.6,0.5-0.4,0.8-1,1.2
		c0,0.3,0.2,0.2,0.2,0.4c-0.6,1-1.2-0.1-1.5,0.8c0,0.3,0.2,0.7-0.4,0.9l-0.1-0.4c-0.6,0.4,0,0.7-0.8,1c0-0.2,0.4-0.5,0.3-0.4
		c-0.6,0.1-0.2,0.4-0.5,0.6l-0.3-0.2c-0.7,0.4-1.2,1.2-2,1.6c0-0.1,0.1-0.3-0.1-0.3c-0.5,0.3-1,0.6-1.5,0.8
		c-0.6,0.1-1.2,0.2-1.7,0.3l-0.3,0.4c-0.1,0-0.2-0.1-0.1-0.2c-0.4,0,0,0.2-0.1,0.3c-0.2,0.1-0.4-0.1-0.2-0.2
		c-0.6,0.4-1.9,1.1-2.7,0.8l0.1-0.1c-0.6,0-0.6,0.7-1.2,0.5l0.1-0.1c-1.3,0-2.8,0.3-3.8-0.2c-0.2,0.4-1.3-0.3-1.4,0.3
		c-0.7-0.4-0.5-0.5-1.5-0.8c-0.3-0.1-0.5,0.3-0.8,0.3l0.1-0.3l-0.5,0.2l-0.2-0.4h-0.3c0.1,0,0.2,0.2,0.2,0.3c-0.3,0-0.6-0.1-0.8-0.3
		c-0.2-0.2-0.3-0.4-0.3-0.4l-1.2-0.2c0.1-0.1,0.3-0.1,0.5-0.1c-0.7,0.1,0-0.3-0.6-0.3c0,0.1-0.1,0.2-0.1,0.2
		c-0.2-0.3-0.8-0.6-1.3-0.7l0.2-0.2c-0.8-0.4-1.7-0.8-2.5-1.3c0.3,0.3,0,0.5-0.3,0.4l0.1-0.3c-0.3,0.1,0.2,0.3-0.3,0.3
		c-0.3-0.3,0-0.5,0.2-0.4l-0.4-0.2c0-0.1,0.1-0.1,0.2-0.2c-0.3,0.1-0.4-0.7-0.8-0.6v-0.1c-0.8-0.6-1.2-0.8-1.8-1.4
		c-0.2,0.2-0.4-0.1-0.7-0.1c-0.3-0.5-0.6-1.2-1.1-1.7c-0.4-0.3-0.3,0-0.6,0c0.2-0.2-0.3-0.8,0.1-0.6c-0.3-0.3-0.5-0.5-0.7-0.8
		c-0.2-0.2-0.5-0.5-0.8-0.9c0,0.2,0,0.3-0.1,0.3c-0.1-0.2-0.1-0.5,0-0.5l0,0c-0.5-0.4-0.7-1.1-0.8-1.8c-0.1-0.7-0.3-1.3-0.7-1.7l0,0
		l-0.6-0.9c-0.1-0.5,0.3,0.2,0.3-0.2c-0.5,0-0.6-0.2-0.7-0.5c-0.1-0.2-0.1-0.4-0.1-0.6c-0.1-0.4-0.1-0.8-0.4-1.2
		c0.3-0.4,0.2-1,0-1.6c-0.1-0.3-0.2-0.6-0.2-0.9s0-0.6,0.1-0.8l-0.2,0.1C3,27.3,3.3,27.2,3.3,27c-0.1,0-0.1,0.3-0.3,0.1
		c-0.2-1,0-2.1,0.1-3.2c0.1-0.5,0.3-1,0.4-1.6l0.2-0.8L4,20.8c0.2-0.7-0.8-0.7-0.1-1.5l0.2,0.4c0-0.8,0.3-1.5,0.6-2.3
		C5,16.7,5.4,16,5.6,15.2c0,0.1,0.1,0.2,0,0.3c0.4-0.2,0.6-1,0.5-1.1c0.1-0.2,0.2,0,0.3,0c0.3-0.2,0.2-0.9,0.5-0.9
		c0.1,0,0,0.1,0,0.2c0-0.2,0.6-0.8,0.3-0.8c0.5-0.4,0.5-1,1-1.2c0-0.4,0.8-0.6,0.5-1C9,11,9.6,10.2,9.8,9.8c0,0.2,0.3-0.1,0.4,0.1
		c0.3-0.3,0.5-0.6,0.3-0.7c0.9-0.1,0.9-1.3,1.7-1c0.2-0.2,0.4-0.5,0.6-0.7c0.2-0.2,0.5-0.4,0.7-0.6c0.5-0.4,0.9-0.8,1.4-1
		c0.2,0.4-1.1,0.6-0.8,1c0.4-0.4,0.7-0.7,1-0.9c0.3-0.3,0.7-0.5,1.2-0.7c0.3-0.1-0.1,0.2-0.1,0.4c0.4-0.3,0.9-0.5,1.4-0.6
		c0.5-0.2,0.9-0.4,1.3-0.6c0,0-0.1,0.1-0.2,0.2c0.2-0.1,0.4,0,0.4-0.2l-0.2,0.1c-0.4-0.2,0.6-0.8,0.6-0.9c-0.2,0.6,1-0.1,0.6,0.8
		c0.1-0.1,0.2-0.2,0.2-0.3c0.2,0,0.3,0.1,0.1,0.3c0.6-0.5,0.4-0.7,1-0.8c0,0.1-0.1,0.2-0.1,0.3c0.3-0.2,0.5-0.5,1.1-0.5
		c0,0.1,0,0.1-0.1,0.2c0.9-0.2,1.4-0.6,2.4-0.5C24.4,3.6,25,3.3,25,3.7c0.2-0.1,0.3-0.1,0.5-0.1l-0.2-0.2c0.5,0,0.9-0.2,1.3-0.1
		l-0.3,0.1h0.9l-0.5-0.2c0.5-0.2,0-0.5,0.6-0.3c-0.1,0,0.5,0,0.7,0.3l0,0c0.2-0.1,0.5-0.2,0.8,0c0.1,0.1-0.1,0.4-0.1,0.5
		c0.3-0.3,1.1,0.1,1.4-0.2C30,3.6,29.9,3.7,30,3.8l0.2-0.2c0.2,0.1,0.2,0.2,0.1,0.3c0.6,0.2-0.1-0.5,0.6-0.1c-0.1,0,0,0-0.2,0.1
		c0.7,0.3,1.5,0.2,2.1,0.6c0.1,0.4-0.6-0.1-0.5,0.3c0.5,0.1,1,0.2,1.5,0.3c0.5,0.1,1,0.3,1.4,0.5l-0.1-0.1c0.4-0.4,0.5,0.5,1.1,0.6
		c-0.1,0-0.3,0.2-0.2,0.1c0.5,0.4,1.2,0.6,2.2,1H38c0.2,0.3,0.8,0.7,1.1,1c0.2,0,0.4,0.1,0.4-0.1c0.3,0.7,0.8,1.1,1.3,1.4
		c0.5,0.3,1.1,0.7,1.2,1.3c-0.1-0.1-0.3-0.2-0.2-0.1l0.8,0.6c0.1-0.2,0-0.2,0-0.5c0.2,0,0.5,0.1,0.6,0.3c-0.4-0.2-0.3,0.2-0.3,0.5
		c0-0.1,0.1-0.1,0.2-0.1c0,0.7,0.4-0.2,0.6,0.5h-0.1c0.2,0.2,0.5,0.3,0.6,0.5c-0.1,0.3-0.3-0.2-0.5,0c0.2,0.3,0.9,0.3,0.9,0.8
		c-0.2-0.1-0.3-0.3-0.5-0.4c0,0.5,0,0.5,0.2,0.8l0,0l0.2,0.7v-0.2c0.8,0.1,0.7,0.8,1.4,1.2c-0.7-0.4-0.3,0-0.6,0.1
		c0,0.2,0,0.5-0.1,0.4c0.4,0.2,0.1,0.6,0.6,0.8c0,0,0.2,0.3-0.1,0.3c0.2,0.3,0.1-0.2,0.2-0.2c0.6,0.5,0.2,1.5,0.9,2.2
		c0.4,0.7,0.7,0.8,1.1,1.5c-0.1,0.3-0.4-0.1-0.4-0.1c0,0.4,0.1,0.7,0.2,1.1c-0.1-0.1-0.2,0-0.2,0.2c0.1,0.3,0.4,0.1,0.3,0.6
		c-0.1-0.1-0.3-0.1-0.4-0.2c0.1,0.3,0.4,0.7,0.5,1c-0.2,0.1-0.3-0.2-0.4-0.3c0.1,0.4,0.3,1,0.6,1.1l0.1-0.3c0,0.2-0.2,0.1-0.3,0
		c-0.3-0.3,0-0.5,0.1-0.6l0.1,0.3c0.5-0.3-0.3-1.1-0.3-1.6l0.4,0.1l-0.4-0.5c0.1-0.1,0.3-0.3,0.4,0c0.1-0.4-0.2-0.3-0.1-0.7
		c0,0,0,0,0.1,0L48,20.3c0.1,0.1,0.3-0.1,0.3,0.1c0.1-0.7-0.6-1-0.3-1.3l0,0c-0.4-0.9-0.3,0-0.9-0.6l0.5-0.7h-0.3
		c0-0.1-0.1-0.3,0.1-0.3c-0.3-0.3-0.1,0.1-0.4,0c0-0.3-0.1-0.6-0.2-0.8c-0.1-0.3-0.2-0.5,0-0.6c-0.3-0.1,0,0.5-0.3,0.1
		c0.4-0.4-0.3-0.5-0.3-1c0.3,0,0.4,0.4,0.4-0.1c-0.5,0-0.3-0.8-0.6-1.1c-0.3,0.2-0.5-0.6-1-1.1c0.2-0.1-0.5-1.1-0.8-1.6h0.1
		c-0.4,0.1-0.6-0.4-1-0.7c0.2-0.1,0.3-0.1,0.5,0c-0.1-0.1-0.2-0.2-0.3-0.3c-0.2,0-0.3-0.1-0.5-0.2l0.3-0.1c-0.4-0.4-1-0.6-1.3-1.2
		c-0.2,0.2-0.1,0.9-0.8,0.5c0.1-0.1,0.2-0.3,0.4-0.2c-0.1,0-0.2-0.1-0.3-0.2h0.4c-0.2-0.3-0.3,0-0.4-0.2c0.1-0.1,0-0.2,0.1-0.3
		c0.1,0,0.1,0.2,0.2,0.2c-0.2-0.2-0.4-0.5-0.4-0.7c0,0.1-0.1,0.2-0.3,0.1c-0.4-0.4,0-0.3-0.2-0.6c-0.2,0-0.4-0.3-0.6-0.1
		C40,7.2,40,7.1,40,7c-0.3-0.1-1.1-0.8-1-0.3v0.1l0,0l0,0l0,0c-0.9-0.3-1.5-1.2-2.4-1.6V5.1c-0.5-0.2-1.1-0.5-1.6-0.5
		c-0.1-0.1-0.3-0.3-0.2-0.4c-0.4-0.1-0.5-0.1-1-0.4c0.5,0-0.1-0.2,0.5,0c-0.5-0.3-0.5-0.5-1.2-0.4c0.6-0.1,0-0.4-0.3-0.4l0.3,0.3
		c-0.3-0.1-0.5-0.2-0.8-0.3l0.2-0.3c-1-0.7-2.1,0.1-2.8-0.7c-0.3,0.2,0.6,0.3,0.3,0.5c-0.5-0.1-1-0.7-1.1-0.7
		c-0.7-0.3-0.7,0.4-1.4,0.2c0.1,0.1,0.1,0.4-0.4,0.5c-0.5-0.1-0.6-0.5-0.3-0.6c0.1,0,0.2,0,0.2,0.1c0.2,0,0.4-0.1,0.2-0.2l-0.1,0.1
		c-0.2-0.1-1-0.2-0.8-0.3c-0.4,0.1-0.2,0.2,0.1,0.3c-0.7-0.2-1-0.1-1.7-0.2c0.1,0.1,0.2,0.2,0.1,0.2c-1-0.1-0.4,0.2-1.1,0.3
		c-0.4-0.2,0.1-0.4-0.6-0.3c-0.4-0.1-0.1-0.3,0-0.4c-0.6,0.2-1.2,0-1.6,0l0.3-0.1c-0.2,0.1-0.4,0.1-0.5,0.1l0.2,0.2
		c-0.2,0-0.4,0-0.4-0.1C20.9,1.8,21.3,2,21,2.2c-0.3-0.1-0.7,0.2-0.9,0c0.8,0-0.2-0.3,0.5-0.5c-0.1,0.1-0.3,0.1-0.5,0.1
		c0,0,0-0.1,0.1-0.1c-0.8-0.1-0.3,0.4-1.1,0.6c0.1-0.2-0.3-0.3-0.4-0.2c0.3-0.1,0.2,0.2,0,0.5c-0.5,0-0.5,0.2-0.8,0.3h0.3
		c-0.1,0.2-0.3,0.2-0.6,0.4c-0.1-0.1,0.3-0.2,0.1-0.2c-0.3,0.4-0.9,0-1.4,0.4c-0.3,0-0.1-0.3-0.4-0.3c-0.5,0.4-0.7,0-1.3,0.5
		c0.3,0.1,0.3,0.1,0,0.5l0.9-0.6L15,4.2c0.5-0.2,0.8-0.5,1-0.5C15.7,4,15.8,3.9,16,4c-0.5-0.1-0.7,0.6-1.3,0.6L14.5,4
		c-0.4,0.1-0.7,0.3-1,0.5c-0.3,0.3-0.6,0.6-1,0.8l0.3-0.1c0,0.3-0.5,0.3-0.7,0.6c-0.1-0.2-0.3-0.1-0.5-0.2C11.7,5.7,11,6,11.2,6.4
		l-0.5,0.1c-0.7,0.4-0.4,1-1,1.4c0-0.3-0.3-0.2,0-0.7C9.4,7.5,9.2,7.7,9.3,7.8c-0.2,0-0.4,0.7-0.7,0.7c0,0.1,0.1,0.3-0.1,0.5
		C8.4,9,8.4,8.9,8.4,8.9C8.5,9,8.2,9.3,8.5,9.3c-1,0.2-1.5,1.6-2.3,1.9c-0.3,0.5-0.6,1.1-0.9,1.5c0-0.1-0.1-0.1,0-0.1
		C4.8,13,5.6,13.2,5,13.8c-0.5,0.2,0.1-0.5-0.2-0.3c-0.6-0.2-0.4,0.9-1,1.2v-0.1c-0.4,0.3-0.2,1-0.6,1.6c0,0,0-0.1-0.1,0
		c0.1,0.5-0.1,1.4-0.2,2c-0.2-0.3,0-0.3-0.3-0.3C2.5,18.2,3,18,2.9,18.5C2.7,18.6,2.4,19,2.2,19c0-0.2,0.1-0.3,0.2-0.5
		c-0.5,0-0.2,0.5-0.4,0.8l-0.1-0.1c-0.2,0.8,0.2,0.9,0,1.8L2,21c0.3,0.6-0.3,0.4-0.1,0.9L1.5,22c0.1,0.3,0.2,1.2,0.2,1.8
		c-0.3-0.4-0.3-1-0.4-1.5c-0.1,0.3-0.1,1.1,0,1.3c0-0.1-0.1-0.3,0-0.4c0.2,0.4,0.4,1,0.3,1.6c-0.8-0.2-0.3,1.7-0.8,2.1
		C1,27.3,1,27.9,1,28.5s0,1.2,0.2,1.9c0.5-0.6,0.1,0.4,0.7,0.2c0,0.3,0,0.4,0,0.4l-0.1,1c-0.1,0.3-0.2-0.3-0.3-0.2
		c0.1,0.7-0.2,0.3-0.2,0.8c0.2-0.1,0.4,0.1,0.4,0.6l0.1-0.6c0.5,0.8-0.2,1,0.4,1.8l-0.3-0.2c0.3,0.4,0.6,1.8,1.3,2
		c0,0.1-0.1,0.3-0.3,0.1c0.2,0.6,0.6,1.1,1,1.6s0.8,1,0.9,1.4H4.6c0.2,0.2,0.4,0.2,0.5,0.5c-0.1,0-0.2,0-0.1,0.1s0.6,0.3,0.7,0.6
		l-0.3-0.1c0.3,0.5,0.6,0.8,1,1.1c0.4,0.2,0.8,0.4,1.1,0.7c-0.3,0.3,0.2,1.1,0.5,1.4H7.9c0.5,0.5,1,0.8,1.5,1.1s1,0.5,1.6,0.8
		c0.2,0.4,0.7,0.9,1.3,1.2c0.6,0.4,1.3,0.8,1.8,1.2c-0.1-0.2,0.2-0.3,0.4-0.2c0.2,0.2,0.9,0.1,0.6,0.4H15c0,0.4,0.6,0.6,1.1,0.8
		l0.3-0.5c0.4,0.6,1.2,0.8,1.9,0.9c0.7,0.1,1.4,0.2,1.6,0.6c0.3,0,0.7,0,1-0.1l-0.1,0.3c0.8,0.2,1.2,0.3,2.2,0.3l-0.2,0.2
		c0.6,0,0.8-0.8,1.3-0.8l0.1,0.4c1,0.1,2,0.3,3-0.1c0,0.1,0,0.2-0.2,0.2c0.5,0,1.9,0.1,1.6-0.5c0.1,0.4,1-0.1,1.5-0.4v0.3
		c0.4-0.5,0.4-0.6,0.9-0.8c0.2,0,0.2,0.2,0,0.2c0.5,0,0.3-0.4,0.9-0.4l-0.2,0.2c0.5-0.1,0.4-0.2,0.6-0.5c0.3-0.2,0.9-0.3,1.1-0.1
		c0-0.2,0.2-0.5,0.5-0.5c0.1,0.1,0,0.2,0,0.2c0.9-0.1,1-0.8,1.7-0.8c0.1,0.1,0.1,0.1,0.2,0.1c-0.6,0.3-1.1,0.5-1.1,0.5
		c0.1,0.2,0.6,0,0.4,0.6c0.3-0.4,0.8-1.1,1.4-1.2h0.1l0,0c0.1,0,0.2-0.1,0.3-0.2c0.2-0.1,0.3-0.1,0.4-0.2c0.2,0.2,0.6-0.2,0.8-0.4
		c-0.2-0.2,0.2-0.4-0.2-0.4c0,0,0,0.1-0.2,0.2l-0.1,0.1l0,0c-0.2,0.1-0.3,0.2-0.6,0.4c0.1-0.2,0.2-0.5,0.6-0.5
		c0-0.2,0.1-0.5,0.1-0.6c0.5,0.1,1.3-0.1,1.5,0.1c0.6-0.6,1.6-1.2,1.6-2c0.1-0.2,0.3-0.1,0.4-0.1c-0.1,0.1-0.2,0.2-0.2,0.3
		c0.3-0.4,1-1,0.8-1.3c0.5-0.3,0,0.5,0.5-0.1v0.2c0.8-0.4,1-1.1,1.3-1.7c0.3-0.7,0.5-1.3,1.3-1.8c-0.1,0.1-0.2,0.1-0.2,0.1
		c1.4-1.5,1.9-3.7,3-5.4c0.3-0.5,0.1-0.6,0-1H48c-0.1-0.2-0.1-0.5-0.2-0.7c0-0.4,0.2-0.7,0.5-1.1c0.3-0.3,0.5-0.7,0.3-1.3l-0.2,0.1
		c0.1-0.4,0.1-1.2,0.3-1.1c0,0-0.2-0.2-0.1-0.3h0.2c0-0.3-0.1-0.6-0.2-1c0.2-0.7,0.6,0.2,0.7-0.9c0-0.4-0.4-1.1-0.5-1
		c0,0.2-0.1,0.4-0.3,0.4h0.2c-0.5-0.1-0.9-0.3-1.3,0.5l0.3,0.6l-0.2,0.2v-0.5c-0.2,0.3,0,0.4,0.1,0.6c-0.1,0-0.2,0.1-0.3,0.2
		l0.4,0.6c-0.2,0-0.3-0.3-0.5,0.1c0.2,0.3,0.4-0.2,0.5,0.2c-0.3,0.3-0.4,0.1-0.3,0.5c-0.1,0-0.2-0.1-0.2-0.2
		c0.1,0.3-0.1,0.8,0.2,0.9c-0.3,0.2-0.1,1-0.5,0.9c0.1,0.1,0.2,0.6,0.2,0.8c-0.4-0.6-0.3,1-0.8,0.7c0.4,0.5-0.2,1.3-0.2,1.9
		c0,0-0.1-0.1,0-0.2c-0.2,0.3-0.3,0.4-0.5,0.5c0.3,0.2,0.2,0.7,0.3,1.1c-0.5,0.2-0.3-0.4-0.7-0.5c0.3,0.1,0,0.8,0.3,0.8
		c-0.4,0.2-0.2,0.2-0.6,0.2c0.4,0.3,0,0.3,0.1,0.7c-0.5,0.3-0.5-0.1-0.6,0.4C43.9,37.4,44,36.9,44,36.9z M35.6,46L35.6,46
		c0.1-0.1,0.2-0.1,0.2-0.1S35.7,45.9,35.6,46z M34.6,46.5c0.1,0,0.3-0.1,0.4-0.2c0.1,0.1,0.1,0.2,0,0.2
		C35.1,46.4,34.8,46.5,34.6,46.5z M37.6,47.1c-0.1,0.1-0.2,0.1-0.3,0.1c0.1,0,0.2-0.1,0.3-0.2l0,0C37.6,47,37.6,47,37.6,47.1z"/>
	<path class="st1" d="M37.7,46.6C37.7,46.6,37.8,46.6,37.7,46.6C37.7,46.5,37.7,46.5,37.7,46.6L37.7,46.6L37.7,46.6z"/>
	<path class="st1" d="M39.1,6.7L39.1,6.7L39.1,6.7L39.1,6.7z"/>
	<polygon class="st1" points="20.3,47.4 20.3,47.5 20.4,47.4 	"/>
	<path class="st1" d="M42.9,11.5v0.1C42.9,11.6,42.9,11.6,42.9,11.5z"/>
	<path class="st1" d="M44.4,13.7l0.1,0.4C44.4,13.9,44.4,13.8,44.4,13.7z"/>
	<path class="st1" d="M45.2,15.4C45.3,15.4,45.3,15.4,45.2,15.4L45.2,15.4L45.2,15.4z"/>
	<path class="st1" d="M18.7,4.6C18.7,4.7,18.7,4.7,18.7,4.6C18.5,4.8,18.6,4.7,18.7,4.6z"/>
	<path class="st1" d="M27.9,3.2c-0.1,0-0.2,0.1-0.3,0.1C27.7,3.3,27.9,3.3,27.9,3.2z"/>
	<path class="st1" d="M10.2,10L10.2,10L10.2,10z"/>
	<path class="st1" d="M27.1,3.2c0.2,0.1,0.3,0.1,0.4,0C27.4,3.2,27.3,3.2,27.1,3.2z"/>
	<path class="st1" d="M47.6,23.5L47.6,23.5c0,0.1,0,0.1,0,0.1V23.5z"/>
	<path class="st1" d="M47.6,23.6v0.1C47.7,23.7,47.6,23.7,47.6,23.6z"/>
	<path class="st1" d="M47.7,24l-0.1-0.2C47.7,23.8,47.7,23.9,47.7,24z"/>
	<path class="st1" d="M47.3,21L47.3,21C47.2,21,47.2,21,47.3,21z"/>
	<path class="st1" d="M47,20.2c0,0.2-0.1,0.5,0,0.7h0.1C47,20.9,47.2,20.3,47,20.2z"/>
	<path class="st1" d="M47.2,16.6c0.1,0.2,0.1,0.5,0.2,0.7c0.1-0.2,0.1-0.4,0.3-0.1C47.6,16.3,47.4,17.5,47.2,16.6z"/>
	<path class="st1" d="M46.4,14.6c0.2,0.3,0.1-0.1,0.2-0.1C46.4,14.3,46.3,14.3,46.4,14.6z"/>
	<path class="st1" d="M35,4l0.1-0.2C34.9,3.7,35.1,3.9,35,4z"/>
	<path class="st1" d="M31.8,4.3c0.1,0,0.2,0.1,0.2,0.2l0.2-0.2C32.1,4.3,32,4.3,31.8,4.3z"/>
	<polygon class="st1" points="30.6,2.1 30.7,2.1 30.2,2 	"/>
	<path class="st1" d="M6.4,10.5l0.3,0.1C6.8,10.4,6.5,10.1,6.4,10.5z"/>
	<path class="st1" d="M1.7,20.9c-0.2,0.1-0.3,0.4-0.2,0.6C1.5,21.3,1.7,21,1.7,20.9z"/>
	<polygon class="st1" points="16.7,49 16.5,49 16.9,49.1 	"/>
</g>
</svg>
