<?xml version="1.0" encoding="utf-8"?>
<!-- Generator: Adobe Illustrator 23.0.3, SVG Export Plug-In . SVG Version: 6.00 Build 0)  -->
<svg version="1.1" id="圖層_1" xmlns="http://www.w3.org/2000/svg" xmlns:xlink="http://www.w3.org/1999/xlink" x="0px" y="0px"
	 viewBox="0 0 167.7 46" style="enable-background:new 0 0 167.7 46;" xml:space="preserve">
<style type="text/css">
	.st0{enable-background:new    ;}
	.st1{fill:#FFFFFF;}
</style>
<g class="st0">
	<path class="st1" d="M17.4-1.7c0.4-1.1,1.2-1.3,2.4-0.4c0.5,0.3,1.1,0.6,1.6,1.1C21.9-0.6,22.1-0.2,22,0c-0.1,0.1-0.6,0.4-1.4,0.7
		c-0.6,0.3-1.4,1-2.5,2.3c-0.6,0.7-0.4,1,0.6,0.9c3.4-0.5,6.3-1,8.7-1.7c0.8-0.2,1.3-0.3,1.4-0.1c0.4,0.8,0.2,1.5-0.4,2.3
		c-0.2,0.3-0.6,0.5-1.2,0.6c-0.3,0.1-0.6,0.2-1,0.3c-0.7,0.2-1.1,0.7-1.4,1.5c-0.2,0.8-0.3,1.7-0.3,2.5c0,0.7,0.3,0.9,1.1,0.7
		c1.5-0.1,2.8-0.3,3.8-0.7c1-0.2,1.8,0.1,2.3,0.9l0.4,1c0.3,0.9,0.4,1.4,0.2,1.6c-1.7-0.1-3.3-0.1-5,0c-0.7,0-1.4,0.1-2.1,0.2
		c-0.6,0.1-0.9,0.5-1,1.2l-0.1,3.1c0,0.7,0.4,1,1.3,0.9l6.1-0.7c1.2-0.1,2.5-0.3,3.7-0.5c0.8-0.1,1.4,0.3,1.7,1.2
		c0.7,1,1,2.1,1.2,3.4c-0.2,0.3-0.7,0.3-1.6,0c-1.3-0.5-2.5-0.8-3.4-0.9c-2.3,0-5,0.1-8,0.3c-0.7,0.1-1,0.5-1.1,1.3
		c-0.1,3.2-0.1,6.4-0.1,9.7l0.3,2.3c-0.5,0.4-1.1,0.5-1.8,0.3c-0.7,0-1.1-0.2-1.3-0.5c0.1-0.5,0.2-1,0.1-1.6l-0.1-10
		c0-0.7-0.4-1-1.3-0.9c-5.3,0.5-9.5,1.1-12.7,1.9c-1,0.3-1.7,0-2.1-0.9L4.8,22c-0.2-0.8-0.2-1.3,0-1.4c0.3-0.1,0.8-0.2,1.7-0.2
		c2-0.3,4.1-0.5,6.1-0.7c0.7-0.1,1-0.5,0.8-1.3c-0.3-1.6-0.6-3.2-0.8-5c-0.1-0.9-0.1-1.4,0-1.5c0.2-0.1,0.8-0.2,1.6-0.2
		c0.9,0.3,2,0.3,3.3-0.1l2.4-0.5c0.7-0.1,1-0.5,1-1.2c-0.1-0.8-0.1-1.7,0-2.5c0-0.7-0.4-1-1.3-0.8C19.1,6.8,18.6,6.9,18,7
		c-0.9,0.2-1.4,0.1-1.6-0.5c-0.1-0.6-0.6-0.5-1.3,0.3c-0.8,0.9-1.6,1.9-2.3,2.8c-0.4,0.6-0.9,0.8-1.5,0.5c-0.6-0.2-0.5-0.7,0.2-1.4
		c1.2-2.7,2.3-4.8,3.3-6.4C16,0.8,16.9-0.6,17.4-1.7z M19.7,14l-0.4,0.1l-1.7,0.5c-0.9,0.3-1.3,0.5-1.4,0.6l0.1,3.2
		c0,0.7,0.5,0.9,1.4,0.8l2.1-0.2c0.8-0.1,1.2-0.5,1.2-1c-0.1-1.1-0.1-2.2,0-3.3C21,14,20.6,13.8,19.7,14z"/>
</g>
<g class="st0">
	<path class="st1" d="M57.8-1.2c0.7-1,1.2-1.4,1.6-1c0.5,0.6,0.9,1.3,1,2.1C60.4,0,60,0.4,59.1,1l-1.2,1.2c-0.7,0.8-0.7,1.1,0.1,0.9
		c1.4-0.4,2.9-0.8,4.3-1.3c0.9-0.2,1.4,0.1,1.5,0.9c0.1,0.4-0.1,0.7-0.7,0.9l-2.4,0.8c-0.7,0.2-1,0.8-0.8,1.5
		c0.1,0.5,0.3,0.9,0.7,1.1c0.7,0.6,0.9,1.1,0.7,1.5c-0.9,0.6-2,0.4-3.4-0.5C57,7.6,57,6.9,57.7,6.1c0.6-0.7,0.5-0.9-0.4-0.7
		c-1,0.4-1.6,0.5-1.8,0.3c-0.1-0.1-0.3-0.1-0.4,0.1c0,0.2,0,0.4,0,0.7c0.1,0.6-0.4,1.2-1.5,1.9c-1.1,0.6-2.1,1-3,1.2
		c-0.9,0-0.9-0.4-0.2-1.3c1.7-2.1,3.4-4.1,5.2-6.1C56.5,1,57.2-0.1,57.8-1.2z M55.7,11.1c3.1-1,5.7-1.3,8-1c0.5,0.1,0.8,0.3,0.9,0.6
		c0.1,0.2,0,0.3-0.2,0.5c-0.9,1.3-1.5,3.4-1.7,6.3c0.2,1.3-0.5,1.9-2.2,1.7c-0.2-0.1-0.7,0-1.6,0.4c-2.1,0.7-3.6,1.2-4.4,1.6
		c-0.7,0.4-1.1,1-1,1.8c0.1,1.2,0.2,2,0.5,2.5c0.7,0.4,1.7,0.2,3.1-0.5c0.9-0.4,1.3-1,1.4-1.8c0.1-0.8,0.4-1.5,0.9-2.1
		c0.2-0.2,0.7,0.2,1.4,1.3c0.4,0.6,0.9,1.1,1.4,1.6c0.9,1.2,0.8,1.9-0.1,2.2c-0.6,0.2-1.4,0.1-2.4-0.5c-0.6-0.4-1.2-0.1-1.8,0.7
		c-1.7,2-3.3,3.4-4.7,4c-0.6-0.1-0.9-0.5-1.2-1.2c-0.8-2.1-1-4.7-0.7-7.8c0.4-3.2,0.5-6.4,0.3-9.8c0.1-0.1,0.6-0.2,1.4-0.1
		C54.1,11.7,54.9,11.6,55.7,11.1z M58.9,11.4c-1,0.1-2.1,0.5-3.3,1.1c-0.7,0.4-1.1,0.8-1.2,1.3c-0.1,0.6,0.3,0.9,1.1,0.7
		c0.5-0.2,1.1-0.3,1.7-0.5c0.9-0.2,1.4-0.1,1.4,0.3c0,0.5-0.5,1-1.3,1.4c-0.5,0.3-1.2,0.6-2.1,0.9c-0.9,0.5-1.3,1-1.4,1.6
		c-0.1,0.6,0.4,0.8,1.3,0.5l4.1-1.3c0.7-0.2,1-0.7,1-1.4v-3.2c0-0.7,0-1.1-0.1-1.2C59.8,11.4,59.3,11.3,58.9,11.4z M70.2-3.4
		c0.3-0.2,0.7,0.1,1.4,1.1c0.3,0.9,0,1.7-0.7,2.3c-0.5,0.5-0.9,1-1.3,1.5c-0.6,0.7-0.5,1,0.3,0.9c2-0.5,4-1.2,6-1.8
		c0.9-0.2,1.3,0.1,1.4,0.9c0.2,0.5,0,0.8-0.7,1.1c-1.4,0.8-2.8,1.3-4.3,1.6c-0.7,0.2-0.9,0.5-0.9,0.9C71.4,5.8,72,6.6,73,7.4
		c0.7,0.5,1,1.1,1,1.8c-0.6,0.4-1.7,0.3-3.1-0.2c-0.8-0.5-1.1-1.1-1-1.9c0.2-0.6,0.4-1.3,0.6-1.9c-0.1-0.1-0.4-0.1-0.9,0
		c-0.6,0.2-1,0-1.3-0.4C68,4.1,67.8,4,67.6,4.2c-0.1,0.2-0.2,0.5-0.2,0.8c0,0.3-0.3,0.8-1.1,1.6C65.7,7,65,7.4,64.3,7.6
		c-0.8,0.1-1.2,0-1.2-0.1c1.3-2,2.9-4.2,4.7-6.8C68.3,0,69.1-1.4,70.2-3.4z M68.4,11.8c2.9-1,5.2-1.1,7.1-0.5c1.2,0.5,1.9,1,2.1,1.5
		c-0.7,1.6-1.2,3.9-1.5,6.8c-0.2,1.5-0.6,3.5-1.3,5.8c-0.3,0.9-0.9,1.2-1.9,0.9c-1.6-0.8-3.1-2-4.4-3.8c-0.6-0.8-0.8-0.8-0.8,0V33
		c0.1,1-0.3,1.6-1.2,1.7c-1-0.2-1.4-0.4-1.2-0.7c0.1-0.2,0.2-0.7,0.2-1.4c-0.2-6.4-0.3-12.7-0.4-19.1c-0.1-0.8-0.1-1.3,0-1.4
		c0.3-0.2,0.8-0.3,1.5-0.2C67.3,12,67.8,12,68.4,11.8z M70.4,12.9c-0.7,0.1-1.5,0.3-2.3,0.7c-0.1,0.1-0.2,0.3-0.2,0.6
		c-0.1,1.8-0.1,3.7,0,5.5c0,0.7,0.4,1.2,1.2,1.7c0.9,0.5,1.8,0.8,2.7,0.9c0.2,0,0.4-0.5,0.7-1.4c0.4-2,0.7-4.1,0.7-6.3
		C73.4,12.9,72.5,12.3,70.4,12.9z"/>
</g>
<g class="st0">
	<path class="st1" d="M99.6,23.6c0.8-0.8,1.4-1,1.7-0.6c0,0.1-0.2,0.5-0.5,1c-1.5,2.1-2.6,4-3.4,5.5c-0.5,0.9-0.9,1.3-1.4,1.1
		c-0.6-0.3-1.3-1.1-1.9-2.3c-0.3-0.4-0.3-0.7-0.2-1c0.5-0.2,1-0.5,1.5-0.8L99.6,23.6z M113.9-1c0.9-0.3,1.3-0.4,1.5-0.3
		c0.1,0.1,0.3,0.4,0.6,1c0.3,1.1,0.4,1.7,0.2,1.7c-2.3,0.1-5,0.4-8,1c-0.7,0.2-0.9,0.4-0.7,0.7c0.2,0.2,0.5,0.6,0.7,1.2
		c0.2,0.7-0.2,1.3-1.1,1.9c-1.4,0.9-2.7,1.9-3.9,3c-0.7,0.5-1,0.8-1,0.9c0.1,0.1,0.1,0.3,0.2,0.4c0.8,0.1,2.4,0.1,4.7-0.1
		c0.7,0,1.4-0.4,2.2-1.2l1.8-1.8c0.7-0.8,1.2-1.2,1.6-1.3c1-0.1,2,0.2,3.1,0.9c0.9,0.7,0.9,1.2,0,1.5c-2.2,0.8-4.2,2.1-6.2,3.8
		c-2.8,2-4.9,3.4-6.4,4.3c-0.7,0.4-1,0.7-1,0.8c0.2,0.5,0.6,0.7,1.3,0.5c2.4-0.2,4.6-0.6,6.6-1c0.7-0.2,1.2-0.5,1.6-0.9
		c1.1-1.3,2.2-1.7,3.3-1.4c1.7,0.6,2.9,2,3.5,4.2c0.2,0.7,0.3,1.3,0.1,1.8c-0.6,0.4-1.6,0.2-3.2-0.5c-1.1-0.5-1.2-1-0.4-1.6
		c1.1-0.8,1.3-1.6,0.7-2.6c-1.2-0.7-2.3-0.4-3.4,1c0,0.1,0,0.5,0,0.9c0.2,0.6-0.2,0.9-1,1l-1.9,0.2c-0.7,0.1-1,0.3-0.8,0.5
		c0.3,0.2,0.5,0.5,0.6,1c0,3.5,0,6.9-0.1,10.4c0,0.9-0.2,1.7-0.7,2.3c-0.4,0-1-0.2-1.8-0.7c-0.6-0.3-1.1-0.6-1.7-0.7
		c-0.8-0.3-1.9-1-3.3-2.1c-1-0.8-1.4-1.3-1.2-1.4c0.2-0.1,0.4,0,0.8,0l3.3,0.4c1,0.3,1.6-0.2,1.8-1.5c0-1.8,0-3.6-0.1-5.4
		c-0.1-0.5-0.4-1.1-0.7-1.6c-0.4-0.4-1.1-0.6-2-0.4c-2,0.4-3.7,0.9-5.2,1.4c-0.8,0.3-1.4,0-1.7-0.9l-0.2-0.7
		c-0.2-0.8-0.3-1.3-0.2-1.4c0.2-0.2,0.7-0.4,1.4-0.6c2.3-0.5,4.5-1.9,6.6-4.1c0.7-0.6,0.6-0.9-0.2-0.9c-1.3,0.1-2.8,0.4-4.5,0.8
		c-1,0.4-1.7,0-2.1-1.2c-0.2-0.6,0.1-1.2,0.9-1.7c1.5-0.9,3.4-2.6,5.5-5.2c0.1-0.2-0.4-0.3-1.3-0.1c-3.5,0.6-5.9,0.8-7.2,0.7
		c-0.2-0.1,0.2-0.4,0.9-0.8c5.1-3,9.5-4.8,13.2-5.4C111.5-0.4,112.8-0.6,113.9-1z M113.2,22.7c0.2-0.5,0.9-0.5,1.9,0l3.3,1.2
		c0.9,0.3,1.4,0.9,1.7,1.7c0.2,1.1,0,2.2-0.5,3.2c-0.3,0.8-0.7,1.4-1.2,1.7c-0.4,0.1-0.8-0.3-1-1.1
		C116.5,27.4,115.1,25.1,113.2,22.7z"/>
	<path class="st1" d="M148.8,3.5c1-0.2,1.6-0.3,1.7-0.1c0.4,0.9,0.3,1.7-0.1,2.2c-0.4,0.5-0.9,0.8-1.7,1l-2,0.5
		c-0.7,0.2-1,0.4-0.9,0.6c0.4,0.4,0.3,0.6-0.2,0.8c-0.2,0.1-0.4,0.4-0.8,0.9l-0.4,0.6c-0.5,0.8-0.3,1.1,0.6,1
		c1.9-0.5,3.7-0.3,5.5,0.7c0.1,0.2-0.2,0.6-0.8,1.4c-0.6,1.1-1.1,2.2-1.4,3.3c-1.6,3.5-3.8,6.8-6.6,9.9c-2.7,2.4-5.2,3.4-7.7,2.9
		c-1-0.2-1-0.5-0.1-0.8c2.6-0.9,5.2-2.7,7.8-5.5c0.6-0.7,0.6-1.4,0-2.2c-0.6-0.8-1.5-1.7-2.6-2.7c-0.2-0.1-0.6,0.3-1.3,1.1
		c-0.9,0.8-2.1,1.2-3.5,1c-0.1-0.1,0.2-0.5,0.9-1.2c1.6-1.5,3.2-3.7,4.7-6.4c0.7-1.1,1.3-2.2,1.8-3.3c0.3-0.8,0.2-1.1-0.5-0.9
		c-0.7,0.1-1.4,0.3-2.2,0.5c-0.8,0.2-1.4-0.1-1.8-0.9l-0.3-1.4c-0.1-0.9-0.1-1.3,0.2-1.4C140.7,4.8,144.6,4.3,148.8,3.5z
		 M146.5,13.7c-0.6-0.9-1.4-1.1-2.5-0.5c-0.8,0.5-1.3,0.7-1.6,0.6c-0.2-0.2-0.7,0.2-1.3,1c-0.1,0.2-0.2,0.3-0.4,0.5
		c-0.6,0.8-0.5,1.4,0.4,1.7c0.7,0.3,1.5,0.7,2.4,1.2c0.6,0.7,1.2,0.6,1.7-0.2C146.1,16.5,146.6,15.1,146.5,13.7z M159.5-0.3
		c0.9-0.3,2.1-0.1,3.7,0.6c0.2,0.2,0.2,0.8,0,1.6c-0.1,0.2-0.2,0.7-0.3,1.6c-0.2,12.7,0.1,21.9,0.8,27.6c0,0.5,0,1.1-0.1,1.8
		c-0.3,0.3-0.8,0.4-1.5,0.2c-2.4-0.4-4.6-1.4-6.6-3.1c-0.6-0.4-1.1-0.8-1.7-1.1c-0.5-0.2-1-0.6-1.5-1.2c-0.1-0.2,0.4-0.1,1.5,0.3
		c1.5,0.6,3.2,0.8,5.1,0.8c0.5,0.1,0.9-0.2,1.2-0.8c0.1-8.3,0.1-16.7,0.1-25c-0.1-0.6-0.2-1.1-0.4-1.7
		C159.6,0.3,159.5-0.2,159.5-0.3z M152.7,9c1.2-0.2,2.1-0.1,2.8,0.3c0.1,0.1,0.1,0.6,0,1.4c-0.1,2.5-0.2,5-0.3,7.5
		c-0.1,0.9-0.5,1.4-1.4,1.5c-0.7-0.1-1.1-0.6-1.2-1.5l-0.1-7.9C152.5,9.5,152.6,9,152.7,9z"/>
</g>
</svg>
