<?xml version="1.0" encoding="utf-8"?>
<!-- Generator: Adobe Illustrator 23.0.3, SVG Export Plug-In . SVG Version: 6.00 Build 0)  -->
<svg version="1.1" id="圖層_1" xmlns="http://www.w3.org/2000/svg" xmlns:xlink="http://www.w3.org/1999/xlink" x="0px" y="0px"
	 viewBox="0 0 178.3 45" style="enable-background:new 0 0 178.3 45;" xml:space="preserve">
<style type="text/css">
	.st0{enable-background:new    ;}
	.st1{fill:#FFFFFF;}
</style>
<g class="st0">
	<path class="st1" d="M10.8,11.4c0.6-0.7,0.8-0.6,0.6,0.5c-0.4,1.5-0.6,3.2-0.8,5c0,0.9-0.1,1.4-0.2,1.5c-1.2,0.2-2.4-0.3-3.6-1.4
		c0-0.1,0.2-0.6,0.7-1.4C8.6,14.1,9.7,12.8,10.8,11.4z M13.5,1.7c0-1,0.4-1.3,1.2-1l0.5,0.2c1,0.5,1.4,1.2,1.2,2.1
		c-0.2,1.5-0.3,3.4-0.3,5.6c0,0.7,0.4,0.9,1.1,0.5c0.4-0.2,0.9-0.5,1.4-0.9c0.7-0.6,1.1-0.5,1.2,0.4c0,0.5,0,1,0,1.4
		c-0.1,0.4-0.6,0.8-1.4,1.1c-1.7,0.5-2.4,1.2-2.1,2.1c-0.1,6.2-0.2,12.5-0.3,18.9c0.1,0.3,0.2,0.6,0.3,0.7c0.2,0.2,0.2,0.4,0,0.5
		c-0.3,0.2-1,0.2-2,0c-0.7-0.2-1.1-0.5-1.2-0.9c0.4-0.5,0.6-1,0.6-1.4V1.7z M23,9.6c4.6-1.3,9-1.9,13.2-1.8c1,0.3,1.8,0.7,2.5,1.1
		c1,0.6,1,1.3,0.1,2.1c-0.7,0.7-1.2,1.4-1.7,2.1c-0.5,0.7-1.3,1-2.4,1.1c-0.9,0.1-1.8,0.3-2.7,0.5c-0.7,0.1-1,0.3-1.1,0.4
		c-0.1,0.4-0.3,1-0.4,1.9l-0.3,3.5c-0.1,0.7,0,1.1,0.2,1.2c0.3,0.2,0.3,0.4,0.1,0.6c-0.3,0.2-0.1,0.6,0.7,1.2l2.1,1.6
		c0.7-0.1,1.4-0.4,2.3-0.9c0.7-0.4,0.8-0.9,0.2-1.5l-3-2.1c-1.2-0.8-1.3-1.1-0.4-1c1.1,0.2,2.2,0.4,3.3,0.7c1.3,0.1,1.9,0.7,1.6,1.8
		c-0.1,0.7-0.2,1,0,1.1l1-0.7c1-0.6,1.7-0.7,2.2-0.4c0.5,0.5,0.8,0.8,0.9,1.1c0.1,0.3-0.2,0.5-1,0.7c-1.8,0.7-3.5,1.2-5.2,1.6
		c-0.7,0.2-0.6,0.6,0.2,1.3c1.9,1.2,4.6,2.3,8.3,3.4c1,0.5,1.1,0.9,0.1,1c-2.1,0.1-3.8,0.1-5.1-0.1c-1.1,0.1-1.9-0.3-2.2-1.2
		c-0.6-0.7-1.7-1.5-3.3-2.4c-1.5-1.3-2.9-2.4-4.2-3c-0.6-0.4-0.9-0.4-0.9-0.2c0.1,0.3,0,0.7-0.2,1c-0.6,1.7-0.8,3.5-0.6,5.5
		c0.3,0.5,0.8,0.7,1.4,0.6c1.1,0,2.2-0.4,3.3-1.2c0.7-0.6,0.8-0.4,0.2,0.5c-1.4,1.8-2.8,3-4.4,3.7c-1,0.6-1.6,0.9-1.8,0.9
		c-0.5-0.3-0.8-1-0.8-2.2c0-1.5,0.1-3.4,0.2-5.8c0-0.7-0.4-0.7-1.2-0.2l-0.8,0.8c-0.2,0.4-0.7,0.8-1.4,1.1c-1.3,0.4-2.5,0.7-3.8,0.7
		c-1-0.1-1-0.4-0.1-0.7c3.1-1.5,6.3-3.9,9.5-7.5c0.2-0.3,0.3-0.7,0.3-1.4v-3.4c0-0.7-0.4-1-1.3-0.9l-1.3,0.2
		c-0.8,0.2-1.4,0.2-1.8-0.1c-1.3-1-2.2-2.5-2.5-4.5c-0.3-1,0-1.5,0.8-1.3C22.1,9.8,22.5,9.8,23,9.6z M21.2,16.8
		c-0.1-0.1,0.3-0.2,1.1,0c1,0.1,1.9,0.4,2.9,0.7c0.6,0.1,0.9,0.5,0.7,1.1c0,0.4,0.1,0.6,0.5,0.6c0.3-0.1,0.4,0,0.4,0.2
		c-0.1,0.1-0.3,0.3-0.7,0.6c-1.1,0.8-2.1,1.6-3.2,2.4c-0.9,0.9-1.6,1.2-2.4,0.8c-0.7-0.6-1.1-0.9-1-1c0.1-0.1,0.5-0.4,1.4-0.8l3-1.3
		c0.8-0.3,0.7-0.8-0.1-1.4l-1.4-0.9C21.8,17.4,21.4,17.1,21.2,16.8z M22,5.1L38.2,3c0.3,0.1,0.5,0.4,0.5,0.9c0.1,0.4,0,0.7-0.4,1
		c-2.1,0.2-4.3,0.5-6.4,0.9c-4.3,0.4-7.8,0.9-10.6,1.5C20.6,6.2,20.8,5.4,22,5.1z M25.8,11.5c-0.1-0.7-0.6-0.9-1.4-0.5
		c-1,0.2-1.4,0.6-1.4,0.9c0,0.3,0.1,0.7,0.3,1.3c0.4,0.7,1,1,1.7,0.9c0.9-0.2,1.3-0.6,1-1.4C25.9,12.3,25.8,11.9,25.8,11.5z
		 M27.8-1.4C28.6-2.2,29.2-2,29.6-1c0.2,0.6,0.6,1.1,1.2,1.6c0.5,0.3,0.8,0.8,0.9,1.4c0,0.4-0.3,0.6-0.8,0.6c-1,0.1-2.1-0.2-3.3-0.9
		C26.5,0.9,26.5-0.1,27.8-1.4z M30.6,9.5c-0.7,0.1-1.5,0.2-2.2,0.3c-0.7,0.2-0.9,0.7-0.7,1.6l0.1,1.1c0.1,0.7,0.5,1,1.3,0.9
		c0.8-0.1,1.3-0.6,1.5-1.4l0.2-1.4C30.8,9.9,30.7,9.6,30.6,9.5z M36,9.8c-0.2-0.7-0.9-0.9-2-0.6c-0.7,0.1-1.1,0.2-1.2,0.4
		c-0.3,0.8-0.5,1.5-0.5,2.3c-0.1,0.7,0.2,1.1,1.1,0.9c0.9-0.1,1.5-0.5,1.9-1.1C35.7,10.8,36,10.1,36,9.8z M33.4,17.1
		c1.8-0.9,3-1.7,3.7-2.5c0.1,0.1,0.4,0.3,0.8,0.9c0.4,0.6,0.1,1-0.7,1.4c-1,0.4-2.2,0.8-3.8,1.1C32.5,18,32.5,17.8,33.4,17.1z"/>
</g>
<g class="st0">
	<path class="st1" d="M68.4,7.1c0.4-1,0.9-1.7,1.6-2c0.1,0.1,0.3,0.5,0.6,1.4c0.4,0.5,0.8,1,1.3,1.4c0.1,0.2,0.5,0.3,1.2,0.2
		l5.2-0.6c0.8-0.1,1.3,0.1,1.4,0.5c0,0.5-0.5,0.9-1.5,1.2l-4.9,0.8c-0.8,0.1-1.2,0.4-1.2,0.8c0,0.6,0.4,0.9,1.2,0.8l4.6-0.5
		c0.7,1,0.4,1.5-0.7,1.7c-1.5,0.2-2.9,0.4-4,0.7c-0.7,0.1-1.1,0.4-1.1,0.9c0,0.6,0.5,0.8,1.3,0.7l3.8-0.5c0.8,0,1.2,0.2,1.3,0.6
		c0.1,0.6-0.3,0.9-1.3,0.9c-1.3,0.1-2.7,0.3-4,0.5c-0.7,0.2-1.1,0.5-1.2,0.9c0,0.6,0.4,0.8,1.3,0.7l5.8-0.8c0.9-0.2,1.5,0.2,1.9,0.9
		c0.5,0.6,0.6,1.2,0.4,1.8c-0.1,0-0.6-0.1-1.4-0.4c-1.2-0.4-3.2-0.4-6-0.1c-3.5,0.2-6.9,0.8-10.1,1.8c-0.7,0.3-1,0.5-1,0.7
		c0,0.3,0,0.4-0.1,0.5c-0.9,0.2-1.5,0.2-2,0c-0.1-0.1-0.1-0.6,0-1.4l-0.2-8.3c0-0.7-0.4-0.7-1.3,0.1c-0.4,0.4-0.8,0.8-1.2,1.2
		c-0.2,0.4-0.4,0.6-0.7,0.8c-1.2,0.7-2.5,1-4,1c-1,0-1.1-0.3,0-0.8c3.2-1.9,6.3-4.8,9.2-8.6c0.4-1.2,1.2-1.3,2.2-0.5
		c0.8,0.6,0.8,1.2,0,1.9c-0.7,0.6-0.8,0.9-0.2,0.9c1.5-0.1,2.9-0.3,4.4-0.5c0.6-0.2,0.7-0.3,0.4-0.5C68.6,8,68.3,7.6,68.4,7.1z
		 M74-1.6c0.2-1.1,0.7-1.5,1.4-1.2l0.8,0.4c1,0.7,1.3,1.2,0.9,1.5c-0.4,0.5-0.8,1.1-1,1.8c-0.2,0.7,0.1,0.9,1,0.8c1-0.1,2-0.3,3-0.6
		c0.8-0.1,1.3,0,1.5,0.1c0.5,0.9,0.8,1.7,0.9,2.6c-0.1,0.1-0.6,0.1-1.4,0c-1.7-0.1-3.9-0.1-6.8,0.2c-0.6,0.9-1.2,1.6-1.9,2.1
		c-0.3,0-0.3-0.3-0.2-0.9c0.1-0.6-0.2-0.9-0.9-0.9c-1.3,0-2.5,0.2-3.8,0.4c-0.7,0.1-1,0.4-0.8,0.8c0.3,0.5,0.2,0.7-0.2,0.8
		c-0.3,0.2-0.8,0-1.4-0.7c-0.3-0.4-0.9-0.5-1.7-0.4c-1.5,0.3-3,0.6-4.6,1c-0.8,0.2-1.6-0.1-2.2-0.8c-0.4-0.9-0.1-1.4,0.7-1.5
		c1.2,0,3-0.2,5.2-0.5c0.7-0.1,1-0.2,1.1-0.3c-0.6-1.6-0.8-3-0.7-4.2c0.6-0.3,1.4-0.2,2.5,0.3C66.1-0.6,66.2,0,66,0.8
		c-0.1,0.6-0.1,1.1,0,1.8c0.1,0.2,0.5,0.2,1.4,0.1l4.8-0.5c0.7-0.1,1.1-0.5,1.3-1.4L74-1.6z M65.9,22.8c0.7-0.9,1.4-0.9,2.1-0.1
		c0.6,0.9,0.5,1.5-0.2,1.7c-1.2,0.4-2.4,0.7-3.5,1c-0.7,0.1-1,0.5-1.1,1c0,0.5,0.5,0.6,1.4,0.5c0.6-0.1,1.3-0.2,1.9-0.4
		c0.9-0.2,1.4,0,1.4,0.6L67.7,28c-0.1,0.1-0.6,0.3-1.4,0.4c-0.7,0.1-1.5,0.2-2.2,0.4c-1.1-0.1-1.3,0.5-0.6,1.9
		c0.2,0.7,0.8,1,1.6,0.9c2.1-0.3,4.1-0.6,6.2-0.7c1,0,1.8-0.1,2.4-0.3c0.7-0.1,1.2-0.5,1.4-1.3c0.3-0.9,0-1.3-0.9-1.2l-2,0.2
		c-0.8,0.1-1.3,0-1.6-0.2c-0.1-0.3-0.2-0.6-0.2-0.8c0-0.3,0.4-0.5,1.2-0.6l3.1-0.5c0.7-0.1,1-0.4,1.1-0.9c0.1-0.4,0-0.9-0.4-1.3
		c-0.7-0.2-1.9-0.2-3.5,0.2c-1,0.2-1.5,0-1.7-0.5c0-0.4,0.1-0.7,0.3-0.9c1.2-0.3,2.4-0.5,3.5-0.5c1.9-0.5,3.8,0,5.7,1.4
		c0.1,0.1-0.2,0.6-0.7,1.5c-0.2,0.6-0.4,1.1-0.5,1.7c-0.2,1.1-0.5,2.2-0.8,3.3c-0.1,0.5-0.3,1.1-0.6,1.7c-0.3,0.5-0.5,1.1-0.7,1.7
		c-0.2,0.8-0.8,0.8-1.7,0c-0.6-0.6-1.4-0.9-2.3-0.9c-2.7,0.2-5.1,0.4-7.2,0.8c-0.2,0.1-0.5,0.2-0.8,0.4C64,34,63.6,34,63.2,33.9
		c-1.8-2.3-2.8-5-3-8c-0.4-1.5,0.2-2,1.7-1.4c0.7,0.2,1.5,0,2.3-0.6C64.8,23.6,65.4,23.2,65.9,22.8z M68.8,10.6l-4.7,0.7
		c-0.7,0.1-1.1,0.5-1.2,1.3c-0.2,2.1-0.3,4.3-0.4,6.5c0,0.7,0.4,1,1.3,0.9l4.3-0.7c0.7-0.1,1-0.5,1-1c0-0.6-0.5-0.9-1.3-0.8
		c-0.9,0.1-1.7,0.2-2.6,0.4c-0.9,0.2-1.4,0-1.5-0.4c-0.2-0.4,0-0.7,0.4-1c1.3-0.2,2.6-0.4,3.9-0.5c0.7-0.1,1.1-0.4,1-0.9
		c0-0.6-0.4-0.9-1.3-0.8l-2,0.2c-1,0.2-1.6,0.3-1.8,0.1c-0.4-0.8-0.3-1.3,0.3-1.6c1.2-0.2,2.5-0.4,3.8-0.5c0.7-0.1,1-0.4,1-0.9
		C69,10.9,68.9,10.6,68.8,10.6z"/>
	<path class="st1" d="M105.5,24.6c0.8-0.8,1.4-1,1.7-0.6c0,0.1-0.2,0.5-0.5,1c-1.5,2.1-2.6,4-3.4,5.5c-0.5,0.9-0.9,1.3-1.4,1.1
		c-0.6-0.3-1.3-1.1-1.9-2.3c-0.3-0.4-0.3-0.7-0.2-1c0.5-0.2,1-0.5,1.5-0.8L105.5,24.6z M119.8,0c0.9-0.3,1.3-0.4,1.5-0.3
		c0.1,0.1,0.3,0.4,0.6,1c0.3,1.1,0.4,1.7,0.2,1.7c-2.3,0.1-5,0.4-8,1c-0.7,0.2-0.9,0.4-0.7,0.7c0.2,0.2,0.5,0.6,0.7,1.2
		c0.2,0.7-0.2,1.3-1.1,1.9c-1.4,0.9-2.7,1.9-3.9,3c-0.7,0.5-1,0.8-1,0.9c0.1,0.1,0.1,0.3,0.2,0.4c0.8,0.1,2.4,0.1,4.7-0.1
		c0.7,0,1.4-0.4,2.2-1.2l1.8-1.8c0.7-0.8,1.2-1.2,1.6-1.3c1-0.1,2,0.2,3.1,0.9c0.9,0.7,0.9,1.2,0,1.5c-2.2,0.8-4.2,2.1-6.2,3.8
		c-2.8,2-4.9,3.4-6.4,4.3c-0.7,0.4-1,0.7-1,0.8c0.2,0.5,0.6,0.7,1.3,0.5c2.4-0.2,4.6-0.6,6.6-1c0.7-0.2,1.2-0.5,1.6-0.9
		c1.1-1.3,2.2-1.7,3.3-1.4c1.7,0.6,2.9,2,3.5,4.2c0.2,0.7,0.3,1.3,0.1,1.8c-0.6,0.4-1.6,0.2-3.2-0.5c-1.1-0.5-1.2-1-0.4-1.6
		c1.1-0.8,1.3-1.6,0.7-2.6c-1.2-0.7-2.3-0.4-3.4,1c0,0.1,0,0.5,0,0.9c0.2,0.6-0.2,0.9-1,1l-1.9,0.2c-0.7,0.1-1,0.3-0.8,0.5
		c0.3,0.2,0.5,0.5,0.6,1c0,3.5,0,6.9-0.1,10.4c0,0.9-0.2,1.7-0.7,2.3c-0.4,0-1-0.2-1.8-0.7c-0.6-0.3-1.1-0.6-1.7-0.7
		c-0.8-0.3-1.9-1-3.3-2.1c-1-0.8-1.4-1.3-1.2-1.4c0.2-0.1,0.4,0,0.8,0l3.3,0.4c1,0.3,1.6-0.2,1.8-1.5c0-1.8,0-3.6-0.1-5.4
		c-0.1-0.5-0.4-1.1-0.7-1.6c-0.4-0.4-1.1-0.6-2-0.4c-2,0.4-3.7,0.9-5.2,1.4c-0.8,0.3-1.4,0-1.7-0.9l-0.2-0.7
		c-0.2-0.8-0.3-1.3-0.2-1.4c0.2-0.2,0.7-0.4,1.4-0.6c2.3-0.5,4.5-1.9,6.6-4.1c0.7-0.6,0.6-0.9-0.2-0.9c-1.3,0.1-2.8,0.4-4.5,0.8
		c-1,0.4-1.7,0-2.1-1.2c-0.2-0.6,0.1-1.2,0.9-1.7c1.5-0.9,3.4-2.6,5.5-5.2c0.1-0.2-0.4-0.3-1.3-0.1c-3.5,0.6-5.9,0.8-7.2,0.7
		c-0.2-0.1,0.2-0.4,0.9-0.8c5.1-3,9.5-4.8,13.2-5.4C117.4,0.6,118.8,0.4,119.8,0z M119.1,23.7c0.2-0.5,0.9-0.5,1.9,0l3.3,1.2
		c0.9,0.3,1.4,0.9,1.7,1.7c0.2,1.1,0,2.2-0.5,3.2c-0.3,0.8-0.7,1.4-1.2,1.7c-0.4,0.1-0.8-0.3-1-1.1C122.4,28.4,121,26.1,119.1,23.7z
		"/>
	<path class="st1" d="M154.8,4.5c1-0.2,1.6-0.3,1.7-0.1c0.4,0.9,0.3,1.7-0.1,2.2c-0.4,0.5-0.9,0.8-1.7,1l-2,0.5
		c-0.7,0.2-1,0.4-0.9,0.6c0.4,0.4,0.3,0.6-0.2,0.8c-0.2,0.1-0.4,0.4-0.8,0.9l-0.4,0.6c-0.5,0.8-0.3,1.1,0.6,1
		c1.9-0.5,3.7-0.3,5.5,0.7c0.1,0.2-0.2,0.6-0.8,1.4c-0.6,1.1-1.1,2.2-1.4,3.3c-1.6,3.5-3.8,6.8-6.6,9.9c-2.7,2.4-5.2,3.4-7.7,2.9
		c-1-0.2-1-0.5-0.1-0.8c2.6-0.9,5.2-2.7,7.8-5.5c0.6-0.7,0.6-1.4,0-2.2c-0.6-0.8-1.5-1.7-2.6-2.7c-0.2-0.1-0.6,0.3-1.3,1.1
		c-0.9,0.8-2.1,1.2-3.5,1c-0.1-0.1,0.2-0.5,0.9-1.2c1.6-1.5,3.2-3.7,4.7-6.4c0.7-1.1,1.3-2.2,1.8-3.3c0.3-0.8,0.2-1.1-0.5-0.9
		c-0.7,0.1-1.4,0.3-2.2,0.5c-0.8,0.2-1.4-0.1-1.8-0.9l-0.3-1.4c-0.1-0.9-0.1-1.3,0.2-1.4C146.6,5.8,150.6,5.3,154.8,4.5z
		 M152.4,14.7c-0.6-0.9-1.4-1.1-2.5-0.5c-0.8,0.5-1.3,0.7-1.6,0.6c-0.2-0.2-0.7,0.2-1.3,1c-0.1,0.2-0.2,0.3-0.4,0.5
		c-0.6,0.8-0.5,1.4,0.4,1.7c0.7,0.3,1.5,0.7,2.4,1.2c0.6,0.7,1.2,0.6,1.7-0.2C152.1,17.5,152.5,16.1,152.4,14.7z M165.5,0.7
		c0.9-0.3,2.1-0.1,3.7,0.6c0.2,0.2,0.2,0.8,0,1.6c-0.1,0.2-0.2,0.7-0.3,1.6c-0.2,12.7,0.1,21.9,0.8,27.6c0,0.5,0,1.1-0.1,1.8
		c-0.3,0.3-0.8,0.4-1.5,0.2c-2.4-0.4-4.6-1.4-6.6-3.1c-0.6-0.4-1.1-0.8-1.7-1.1c-0.5-0.2-1-0.6-1.5-1.2c-0.1-0.2,0.4-0.1,1.5,0.3
		c1.5,0.6,3.2,0.8,5.1,0.8c0.5,0.1,0.9-0.2,1.2-0.8c0.1-8.3,0.1-16.7,0.1-25c-0.1-0.6-0.2-1.1-0.4-1.7
		C165.5,1.3,165.4,0.8,165.5,0.7z M158.6,10c1.2-0.2,2.1-0.1,2.8,0.3c0.1,0.1,0.1,0.6,0,1.4c-0.1,2.5-0.2,5-0.3,7.5
		c-0.1,0.9-0.5,1.4-1.4,1.5c-0.7-0.1-1.1-0.6-1.2-1.5l-0.1-7.9C158.4,10.5,158.5,10,158.6,10z"/>
</g>
</svg>
