<?xml version="1.0" encoding="utf-8"?>
<!-- Generator: Adobe Illustrator 23.0.3, SVG Export Plug-In . SVG Version: 6.00 Build 0)  -->
<svg version="1.1" id="圖層_1" xmlns="http://www.w3.org/2000/svg" xmlns:xlink="http://www.w3.org/1999/xlink" x="0px" y="0px"
	 viewBox="0 0 217.7 58" style="enable-background:new 0 0 217.7 58;" xml:space="preserve">
<style type="text/css">
	.st0{enable-background:new    ;}
	.st1{fill:#FFFFFF;}
</style>
<g class="st0">
	<path class="st1" d="M25.6,4.3c0.6-0.2,1.3-0.1,2.1,0.5c1.1,0.7,1.5,1.3,1.2,1.8c-0.4,0.4-0.2,1.2,0.5,2.2c1.4,1.4,2.9,2.7,4.5,4
		c1.4,1.1,2.8,2.3,4.2,3.6c3.1,2.8,5.9,4.7,8.4,5.8c2.8,0.9,4.5,1.9,5.2,3c0,0.1-0.5,0.4-1.6,0.7c-3.7,0.7-6.3,0.8-7.7,0.5
		c-0.6-0.3-1.2-1.2-1.7-2.5c-1.3-2.6-3.7-5.2-7.1-7.9c-3.1-2.5-5.6-4.2-7.3-4.9c-0.9-0.2-1.8,0.1-2.8,1.1l-3.1,3.4
		c-0.8,0.9-0.7,1.3,0.5,1.2c2.8-0.3,5.7-0.6,8.6-1c1.1-0.2,1.7,0.1,1.8,0.9c0,0.7-0.1,1.1-0.2,1.2c-0.3,0.3-1,0.5-1.9,0.7l-8.3,1.7
		c-1,0.2-1.7,0.3-1.8,0.2l-0.6-1.2c-0.2-0.6-0.8-0.5-1.7,0.4c-0.7,0.7-1.2,1.4-1.6,2.1c-0.5,0.7-0.9,1.2-1,1.6
		c-0.1,0.6-0.1,0.9,0.1,0.9c0.4,0.1,1.1,0,2.1-0.3c5.7-1.5,11.1-2.4,16.1-2.7c2.1-0.1,4.2,0.3,6.3,1.5c1,0.5,1.1,1,0.5,1.5
		c-1.2,1.3-2.2,3.6-3.2,6.7c-0.4,1-1.1,1.6-2.1,1.8c-1.9,0.1-4.7,0.6-8.3,1.3l-4.2,0.4c-0.8,0.1-1.4,0.3-1.7,0.5
		c-1.1,0.2-2.2-0.2-3.4-1.2c-1.5-2-2.4-4.4-2.9-7.3c-0.1-0.9-0.6-1.2-1.4-0.6c-2.4,1.4-5.1,2.1-8.1,2.1c-1-0.2-1-0.6,0-1.2
		c5.3-3.1,11-8.3,16.9-15.5C22.5,9,24.2,6.7,25.6,4.3z M21.6,24.6l-1,0.4l-1.9,0.6c-0.8,0.3-1.4,1-1.6,2.1c-0.3,1-0.1,2.2,0.6,3.6
		c0.5,0.9,1.2,1.3,2.2,1.2l2.2-0.3c0.9-0.1,1.3-0.6,1.3-1.5v-1.8c0-0.9-0.5-0.9-1.6,0.1l-0.3,0.4c-0.9,0.9-1.5,1.4-1.6,1.3
		c-0.5-0.2-1.1-0.9-1.8-2c0-0.2,0.6-0.5,2-0.8c0.6-0.2,1.2-0.4,1.9-0.6c0.9-0.2,1.4-0.8,1.4-1.7C23.4,24.6,22.8,24.2,21.6,24.6z
		 M29.2,35.6c1.6-0.5,3.2-0.1,5,0.9c0.1,0.2,0,0.8-0.1,1.8c-0.5,3.1-0.5,7.5,0,13.4c-0.1,0.3-0.2,0.6-0.4,0.9
		c-1.4,0.1-3-0.6-4.7-2.3c-0.7-0.8-1.6-1.1-2.7-0.9c-2.1,0.2-3.7,0.6-4.9,1c-1.3,0.7-2.1,0.9-2.5,0.6c-0.7-0.6-0.9-1.5-0.7-2.7
		c0-2.9,0-5.8-0.1-8.7c-0.2-1-0.3-1.6-0.3-1.8c0.3-0.3,0.8-0.5,1.3-0.4c0.6,0.2,1.3,0.1,2.1-0.3C24,36.7,26.6,36.1,29.2,35.6z
		 M27.7,38.2c-1.3,0.1-2.7,0.4-4.2,0.8c-1.1,0.3-1.8,0.9-2,1.7c-0.1,1,0.2,1.5,1,1.5l3.8-0.5c1.1-0.4,1.7-0.1,1.7,0.9
		c0.1,0.7-0.3,1.1-1.3,1.3L22.6,45c-1.1,0.4-1.7,0.9-1.7,1.5c0.1,1.4,1.1,1.8,2.9,1c1.1-0.3,2.2-0.4,3.4-0.5
		c0.4,0.3,0.8,0.8,1.3,1.5c1.2,0.6,1.7,0.1,1.8-1.6l0.1-3.7c0.3-2.1,0.1-3.7-0.5-4.7C29.5,38.3,28.8,38.2,27.7,38.2z M31.5,23.1
		c-1.2,0-2.3,0.1-3.5,0.2c-0.8,0.1-1.3,0.7-1.5,1.8c-0.1,0.7-0.1,1.4-0.1,2.1c0,0.9,0.5,0.9,1.6-0.2l1.1-0.9c0.8-1,1.6-1.1,2.3-0.3
		c0.6,0.9,0.4,1.5-0.7,1.9l-3,0.9c-0.9,0.3-1.4,0.8-1.5,1.5c0,0.8,0.5,1.1,1.6,1l3-0.4c0.8-0.1,1.5-0.7,1.9-1.8
		c0.5-1.2,0.7-2.5,0.6-3.9C33.5,24.2,32.8,23.5,31.5,23.1z"/>
	<path class="st1" d="M85.2,21.7c2.4-0.3,4.5-0.1,6.2,0.6c1,0.7,1.6,1.1,1.7,1.3c-0.9,3.2-1.6,8.7-2.2,16.7
		c-0.1,1.1-0.2,1.7-0.5,1.8c-0.3,0.1-0.8,0.1-1.5,0.1c-0.8-0.1-1.3-0.6-1.3-1.5c0-0.9-0.5-1.3-1.6-1.2c-1.4,0.2-2.7,0.5-4.1,0.8
		c-0.8,0.1-1.3,0.3-1.3,0.5c0.1,0.4-0.3,1.1-1.3,2.3c-2.6,2.4-4.2,4.3-4.9,5.7c-0.5,0.7-1.1,1.1-2,1.3c-2,0.6-4.4,0.8-7.1,0.6
		c-0.1-0.1,0.3-0.4,1.5-0.8c3.9-1.5,7.1-4.3,9.6-8.4c0-0.2-0.6-0.2-1.6-0.1c-0.9,0.1-1.7,0.3-2.1,0.6c-0.9,0.5-1.4,0.2-1.6-0.9
		c0.1-5.9-0.3-11.3-1-15.9c0-0.7,0.1-1.2,0.2-1.4c0.2-0.6,0.6-0.7,1.2-0.3c0.6,0.2,1.1,0.2,1.5,0.2C76.9,22.8,81,22.2,85.2,21.7z
		 M86,8.4C87.4,8,88.8,8.2,90.4,9c1,0.5,1.7,1,2.2,1.8c0,0.2-0.4,0.8-1.3,1.7c-1.1,1.7-2,3.4-2.8,5.2c-0.6,1-1.2,1.5-1.7,1.5
		l-1.9-0.3c-4.2,0.6-7,1.1-8.4,1.4c-1.3,0.6-2.1,0.8-2.7,0.5c-1.7-1.7-3.3-4.2-4.6-7.7c-0.2-1.3-0.2-2-0.1-2.1
		c0.1-0.1,0.5-0.2,1.1-0.1c0.7,0.1,1.7,0,3-0.4C77.4,9.5,81.7,8.8,86,8.4z M82.6,10.7c-2.5,0.2-5,0.8-7.3,1.6
		c-1,0.7-1.5,1.6-1.5,2.7c0.1,0.9,0.3,1.7,0.7,2.4c0.5,0.7,1.5,0.9,3,0.5l5.2-0.9c1.6-0.2,2.5-1.5,2.6-3.8
		C85.5,10.9,84.6,10.1,82.6,10.7z M84.8,23.7c-3.1,0.3-6.3,1-9.6,2.1c-0.9,0.3-1.4,0.9-1.4,1.7c0,0.8,0.6,1.1,1.8,0.9l8.1-1.4
		c0.7-0.3,1.1-0.1,1.3,0.6c0.2,0.4,0.2,0.9-0.3,1.3c-0.5,0.2-1.3,0.4-2.3,0.5c-2.4,0.5-4.8,0.9-7.2,1.2c-0.9,0.2-1.3,0.8-1.3,1.7
		c0,1,0.6,1.4,1.7,1.2c2.5-0.5,5.1-0.9,7.7-1.3c1.2-0.2,1.9-0.1,2.1,0.4c0.3,0.9-0.1,1.5-1,1.6c-1,0.1-2.4,0.4-4.2,0.9L75.3,36
		c-0.8,0.3-1.3,0.8-1.3,1.6c0.1,0.9,0.5,1.4,1.3,1.3l11.1-1.7c0.9-0.1,1.4-0.6,1.4-1.4v-9.1C88.1,24.6,87.2,23.6,84.8,23.7z
		 M82.6,43.4c0-0.3,0.5-0.3,1.6-0.2c2.6,0.4,5.2,0.8,7.8,1.4c2.1,0.2,2.9,1.1,2.4,2.7c-0.1,1.1-0.2,2.2-0.4,3.2
		c-0.5,1.1-0.8,1.6-1,1.7c-0.2,0-0.8-0.6-1.8-1.6c-2.4-2.5-5.1-4.7-8.1-6.5C82.8,43.8,82.6,43.5,82.6,43.4z"/>
	<path class="st1" d="M128.3,11.9c1.4-0.5,2.7,0,3.9,1.5c0,0.2-0.4,0.9-1.2,2l-3.5,6.9c-0.5,1-0.3,1.4,0.8,1.3
		c2.5-0.5,5.1-1,7.7-1.6c1.1-0.2,1.8,0.2,2,1.3c0.2,0.7-0.1,1.3-0.9,1.6c-2.4,0.8-5,1.4-7.9,1.9c-1,0.3-1.6,0.4-1.8,0.4
		c-0.2-0.1-0.4-0.4-0.6-0.8c-0.4-1.1-0.9-1.2-1.6-0.2c-0.9,1.4-2,2.8-3.1,4.2c-0.7,0.9-1.4,2.3-2.1,4.2c-0.9,1.3-2.6,2-5.1,2.4
		l-2.1,0.4c-1.3-0.1-1.9-0.2-1.8-0.4c0.2-0.3,0.6-0.6,1.2-0.9c4.4-2.7,7.8-5.9,10.4-9.8l1.8-3.1c0.5-1,0.2-1.2-0.8-0.7l-2.4,1.4
		c-1.1,0.7-1.8,1.1-2,1.1c-1.1-0.3-2-1.3-2.5-2.9c0.1-0.4,0.4-0.6,1-0.7c2.2-0.2,4.4-0.4,6.6-0.6c0.8-0.1,1.5-0.6,2-1.7
		c0.4-1,0.6-1.7,0.6-2.1c0-1.3-0.6-1.6-1.7-1c-1.9,0.6-3.2,0.9-4,0.9c-0.5-0.4-0.9-1.3-1.4-2.7c0.1-0.3,0.8-0.6,2.1-0.9
		C123.8,13,125.9,12.6,128.3,11.9z M126.1,31c4-0.8,8.2-1.5,12.7-1.9c1.2,0.1,2.3,0.8,3.4,2.2c0.1,0.3-0.2,0.9-1.2,1.9
		c-0.7,1.1-1.3,2.3-1.7,3.5c-0.5,0.9-0.3,1.8,0.7,2.8l0.4,0.8c0,0.2-0.5,0.8-1.5,1.8c-0.5,0.7-1,1.4-1.6,2.1
		c-0.9,0.8-0.7,1.1,0.5,0.9l5.7-0.5c1.3-0.2,2.1,0.2,2.5,1.2c0.8,1.3,1.2,2.6,1.2,3.8c-0.1,0.2-0.7,0.2-1.8-0.2
		c-0.8-0.3-1.9-0.6-3.2-0.8c-5.9,0-12.4,0.4-19.4,1.4c-1.1,0.2-1.8-0.2-2.3-1.4c-0.2-1.2,0.1-1.8,1-1.9c2.8-0.2,5.6-0.4,8.5-0.7
		c1-0.1,2.1-0.2,3.3-0.4c0.6-0.7,1.2-2.1,1.9-4c0.6-1.3,0.1-2-1.5-2.3c-1.6-0.3-2.9,0.4-3.9,2c-0.4,0.9-0.9,1.8-1.4,2.8
		c-0.9,1-1.8,1.2-2.7,0.5c-0.7-0.9-0.8-2-0.3-3l1.2-2.1c0.3-0.8,0.1-1.8-0.5-2.8c-1.4-2.4-2.1-4.2-1.9-5.3
		C124.5,31,125.1,31,126.1,31z M134.8,31.3c-2.2,0.2-4.1,0.7-5.8,1.5c-0.2,0.2-0.3,0.9-0.2,2c0.2,1.4,0.8,1.9,2,1.6l4.2-0.7
		c0.7,0.1,1.3-0.3,1.8-1.3c0.4-1.5,0.3-2.5-0.1-3C136.5,31.3,135.9,31.3,134.8,31.3z M142.5,8.7c0.7-0.9,1.4-1,2.4-0.1
		c0.7,1.1,0.6,2.1-0.5,2.8c-1.5,1-3.3,2-5.2,2.8c-1.1,0.5-1.3,1.2-0.7,2.2l1.6,2.1c0.6,0.8,1.3,1,2.3,0.5c1.7-0.9,3.2-2.2,4.7-3.7
		c0.6-1,1.4-1.3,2.6-0.7l1,0.8c0.7,1,0.6,1.7-0.5,2.3c-2.3,1.4-4.7,2.4-7,2.8c-0.9,0.1-0.9,0.7-0.1,1.9c1,1.4,2.3,2.8,4,4.2
		c2.8,2.3,6.3,4.6,10.5,7.1c1,0.9,1.4,1.4,1.3,1.5c-3.5,0.1-7.8-0.3-13-1.3c-1.5-0.1-2.1-1-1.8-2.9c-0.1-2.6-1.5-5.4-4.1-8.4
		c-1.5-2.1-3.3-4.2-5.2-6.3c-1-0.8-1.3-1.7-0.9-2.8c0.8-1.4,1.2-2,1.4-2c0.2,0.1,0.5,0.4,0.7,0.9l0.7,1c0.1,0.1,0.8-0.4,1.9-1.4
		C139.8,11.1,141.2,10,142.5,8.7z"/>
	<path class="st1" d="M179.5,14.2c0.2-0.7,0.6-1,1.4-0.9c0.3,0.1,0.9,0.8,1.6,2.1c1.9,3.5,4.3,5.9,7.2,7.1c2.8,1.6,5.7,4.3,8.7,8.1
		c1.5,1.9,2.9,3.2,4.4,4c1.9,0.8,4.6,2.4,7.9,4.8l1.3,1.3c0.7,1,1,1.6,0.8,1.7c-1,0.5-2.6,0.7-4.7,0.6L204,42
		c-1-0.2-2.1-0.4-3.1-0.5c-1.3-0.1-2-0.8-1.9-2.3c0-1.5-0.3-2.9-0.8-4.2c-0.3-1-1.7-2.6-4.1-4.6c-2-1.2-3.9-2.6-5.9-4.1
		c-0.8-0.7-1.8-0.7-2.8-0.1c-2.3,1.8-4.8,4.5-7.4,8.1c-2.1,2.4-4.1,4.9-6.1,7.3c-0.9,1.4-1.9,1.8-3.2,1.1c-0.8-0.4-1.3-0.8-1.4-1
		c0-0.3,0.2-0.5,0.5-0.6c1.3-0.8,2.2-1.9,2.9-3.3c1.7-3,3.7-5.8,6-8.4c2.3-2.5,4.1-4.5,5.3-6.2c0.5-0.8,0.3-1.5-0.5-2
		c-0.8-0.2-1.3-0.4-1.4-0.6C179.1,18.9,179,16.7,179.5,14.2z"/>
</g>
</svg>
