<?xml version="1.0" encoding="utf-8"?>
<!-- Generator: Adobe Illustrator 23.0.3, SVG Export Plug-In . SVG Version: 6.00 Build 0)  -->
<svg version="1.1" id="圖層_1" xmlns="http://www.w3.org/2000/svg" xmlns:xlink="http://www.w3.org/1999/xlink" x="0px" y="0px"
	 viewBox="0 0 212 52" style="enable-background:new 0 0 212 52;" xml:space="preserve">
<style type="text/css">
	.st0{enable-background:new    ;}
	.st1{fill:#FFFFFF;}
</style>
<g class="st0">
	<path class="st1" d="M14.8,11.6c6.9-0.3,14.3-1.4,22-3.1c1.9-0.7,2.3,0,1.4,2.2c-0.3,0.4-1,0.7-2.1,0.9c-0.6,0.1-1.1,0.2-1.7,0.4
		c-1,0.2-0.9,0.6,0.3,1.2c1,0.7,0.9,1.3-0.1,1.8c-1.4,0.5-2.2,1-2.4,1.6c0.1,0.1,0.5,0.3,1,0.4c0.7,0.1,1.4,0.3,2.1,0.5
		c1,0.3,1.5,0.9,1.4,1.8c-0.5,1-0.2,1.5,0.9,1.3c0.8-0.2,1.6-0.4,2.5-0.7c1.4-0.8,2.4,0.1,2.8,2.5c0.2,1,0.3,1.6,0.2,1.8
		c-10.4-0.1-19.2,0.6-26.3,2.2c-0.1,0.1,0.1,0.3,0.5,0.7c0.3,0.4,0.2,1.2-0.5,2.3c-1,3-2.4,6.4-4.1,10.2c-0.1,0.3-0.1,0.7-0.1,1
		c0,0.6-0.2,1.3-0.8,2.1c-1.6,1.3-3.3,2-4.9,2.1c-1.3,0-1.3-0.6-0.1-1.8c2.1-1.9,3.6-3.6,4.5-5.3c0.9-1.8,1.8-4.6,2.8-8.4
		c0.3-1.1,0.1-2.2-0.7-3.1c-0.5-1.1-0.8-1.7-0.7-1.8c0.4-0.3,1.2-0.4,2.4-0.4l4.2-0.6c2.2-0.5,6.2-1.2,12.2-2c1-0.1,1.4-0.3,1.1-0.6
		c-0.7-0.6-2.1-1.2-4.1-1.9c-0.6-0.4-1.6,0-3.1,1.2c-0.7,0.6-1.3,0.9-2,1.2c-2.5,0.7-4.9,0.9-7.4,0.7c-0.2-0.1,0.3-0.3,1.5-0.7
		c2.6-0.8,5-1.9,7.2-3.1c0.1-0.1-0.4-0.4-1.5-0.8c-0.9-0.3-1.8-0.6-2.7-0.8c-1.1-0.4-1.1-0.6,0.2-0.6l6.3,0.5
		c0.4,0.2,1.1-0.1,2.1-0.9l1.7-1.2c0.8-0.7,1.2-1.2,1.1-1.3c-0.1-0.1-0.5-0.1-1.4,0C25,13.3,20.6,14,17,14.7c-1,0.2-1.8-0.2-2.1-1.3
		C14.7,12.4,14.7,11.7,14.8,11.6z M27.5,25.6c1-0.1,2,0.1,3,0.5c0.3,0.2,0.4,0.8,0.2,1.7c-0.1,1,0.5,1.4,1.6,1.2l2.8-0.8
		c1.4-0.4,2.2-0.1,2.6,0.8c0.3,1,0.3,1.5,0.2,1.6c-2,0.5-4.1,0.9-6.1,1.3c-0.8,0.1-1.3,0.8-1.3,1.9v0.7c0,0.9,0.5,1.3,1.6,1.2
		l4.2-0.5c1.1-0.2,1.8,0.1,1.9,0.9c0,0.9-0.5,1.5-1.6,1.8l-5,0.9c-0.8,0.2-1.3,0.8-1.3,1.9c0.1,1.3,0.5,1.9,1.3,1.8
		c2.7-0.2,5.4-0.5,8.1-0.9c1-0.1,1.8,0.3,2.2,1.4c0.8,1.3,1.1,2.4,1,3.2c-0.2,0.3-0.8,0.2-1.8-0.1c-0.9-0.3-1.8-0.5-2.7-0.7
		c-8.6,0.1-15.7,0.6-21.4,1.7c-1.3,0.4-2.1,0-2.6-1.1c-0.3-1.2,0-1.9,1-2c0.6,0.1,1.9,0,3.8-0.3l6-0.6c0.9-0.1,1.4-0.6,1.5-1.7v-0.7
		c-0.1-0.9-0.6-1.3-1.6-1.2l-3.5,0.5c-1,0.2-1.8,0.1-2.3-0.4c-0.4-0.6-0.6-1.3-0.7-2.1c0.2-0.5,0.8-0.6,1.7-0.5l5-0.5
		c0.9-0.1,1.3-0.7,1.3-1.8v-0.6c0-0.9-0.5-1.3-1.6-1.3l-2.9,0.4c-0.7,0.1-1.4,0.5-2,1.2c-0.9,1.6-2,2.3-3,2.1
		c-0.7,0-0.5-0.6,0.6-1.8c1-1.6,2-3.8,3-6.8c0.3-1,0.5-1.6,0.7-1.8c0.2,0,0.8,0.4,1.8,1.3c1.1,0.9,1.3,1.6,0.6,2.1
		c-0.4,0.5,0,0.6,1.2,0.6c1.1-0.1,1.7-0.7,1.7-1.6c0-0.9-0.1-1.5-0.2-1.8C26.1,26.1,26.5,25.7,27.5,25.6z M25.5,2.7
		c0.9-1,1.4-1.5,1.6-1.5c0.1,0.1,0.3,0.7,0.6,1.8c0.2,1,0.9,2.1,2,3.1c0.5,0.7,0.6,1.3,0.4,1.9c-0.5,0.6-1.6,0.6-3.3,0.1
		C23.7,7,23.3,5.2,25.5,2.7z"/>
	<path class="st1" d="M74.4,29.2c2-0.4,3.6,0.4,4.9,2.5c0.1,0.4-0.1,1.2-0.7,2.2c-0.5,1.3-1.1,3.7-1.9,7.2c-0.4,1-0.8,1.5-1.4,1.4
		c-0.6-0.3-1.2-0.3-1.9-0.2c-2.6,0.5-4.7,1.1-6.6,1.8c-0.9-0.4-1.7-1.7-2.6-3.7c-1.3-2.9-2.1-5.7-2.5-8.4c0.1-1,0.9-1.3,2.4-1
		C67.2,30.3,70.6,29.7,74.4,29.2z M72.2,31.8c-1.9,0.2-3.3,0.6-4.2,0.9c-0.5,0.2-0.8,0.5-1.2,1c0,3.1,0.3,5.3,0.9,6.4
		c0.3,0.3,1,0.4,2,0.2l2.8-0.6c0.9-0.1,1.3-1,1.2-2.8l0.1-3.9C73.7,32.1,73.2,31.7,72.2,31.8z M85.3,8.3c1.4-0.3,2.5-0.2,3.2,0.3
		c1.6,0.7,2.7,1.7,3.2,3c0,0.2-0.3,0.7-0.9,1.4c-0.8,1.5-1.9,4.3-3.1,8.4c-0.5,1.1-1.1,1.6-1.7,1.5c-0.6-0.3-1.2-0.5-1.6-0.4
		c-3.5,0.5-6.3,1-8.3,1.5c-0.9,0.5-1.5,0.6-2,0.5c-1.5-1.7-2.9-4.9-4.2-9.5c-0.6-1.9-0.8-3.3-0.6-4.5c0.2-0.2,0.8-0.3,1.8-0.2
		c0.4,0.1,1.1,0,2-0.3C76.6,9.3,80.7,8.8,85.3,8.3z M82.4,11c-2.1,0.1-4.2,0.6-6.6,1.3c-0.8,0.6-1.3,1.4-1.3,2.4
		c0.1,2.3,0.3,3.9,0.6,4.9c0.3,0.5,0.9,0.7,1.7,0.7c1.6-0.1,3.3-0.4,5.1-0.7c0.8-0.1,1.4-0.3,1.6-0.6c0.8-2.2,1.1-4.5,0.8-6.9
		C84.1,11.1,83.4,10.8,82.4,11z M83.3,29c3.8-0.7,7.7-1.2,11.5-1.5c1.5,0,2.8,0.8,3.9,2.4c0.6,0.7,0.5,1.5-0.4,2.2
		c-0.9,2.1-1.9,4.9-3,8.4c-0.2,1.3-0.8,1.6-1.6,1.1c-0.6-0.1-1.2-0.2-1.9-0.1c-2.1,0.2-4.2,0.6-6.3,0.9c-1.3,0.4-2.3,0.1-2.9-1
		c-1.4-4-2.3-7.8-2.7-11.2c-0.1-0.9,0.3-1.3,1.4-0.9C81.8,29.3,82.5,29.2,83.3,29z M91,30.3c-2.2,0.2-4.4,0.7-6.6,1.6
		c-0.1,0.1-0.2,0.7-0.2,1.8c-0.1,2.6,0.1,4.3,0.4,5.1c0.8,0.1,1.5,0.1,2.3,0l3.4-0.3c0.8-0.1,1.4-0.2,1.7-0.5c0.8-2,1.1-4.1,0.9-6.4
		C92.8,30.3,92.1,29.9,91,30.3z"/>
	<path class="st1" d="M132.2,10.2c1.3-0.3,2-0.4,2.1-0.2c0.5,1.2,0.4,2.1-0.2,2.8c-0.5,0.6-1.2,1.1-2.2,1.3l-2.5,0.7
		c-0.9,0.2-1.3,0.5-1.2,0.7c0.5,0.5,0.4,0.8-0.2,1c-0.2,0.1-0.6,0.5-1,1.2l-0.5,0.8c-0.6,1-0.3,1.4,0.8,1.3c2.4-0.6,4.8-0.3,7,0.8
		c0.1,0.2-0.3,0.8-1,1.8c-0.7,1.4-1.3,2.8-1.8,4.2c-2,4.5-4.8,8.7-8.4,12.5c-3.4,3.1-6.6,4.3-9.7,3.7c-1.2-0.3-1.3-0.7-0.2-1
		c3.4-1.1,6.7-3.4,9.9-7c0.7-0.8,0.7-1.8-0.1-2.8c-0.8-1-1.9-2.1-3.3-3.4c-0.2-0.1-0.8,0.4-1.7,1.4c-1.2,1-2.7,1.5-4.4,1.3
		c-0.1-0.1,0.3-0.6,1.2-1.6c2.1-2,4.1-4.7,6-8.2c0.8-1.4,1.6-2.7,2.3-4.1c0.4-1,0.2-1.4-0.7-1.2c-0.9,0.2-1.8,0.4-2.8,0.7
		c-1,0.3-1.8-0.1-2.3-1.2l-0.4-1.7c-0.1-1.1-0.1-1.7,0.2-1.8C121.9,12,126.9,11.3,132.2,10.2z M129.3,23.3c-0.7-1.2-1.8-1.4-3.2-0.6
		c-1,0.6-1.7,0.9-2,0.7c-0.3-0.2-0.8,0.2-1.7,1.3c-0.1,0.2-0.3,0.4-0.5,0.7c-0.7,1-0.6,1.8,0.5,2.2c0.9,0.4,1.9,0.9,3,1.6
		c0.8,0.8,1.5,0.7,2.2-0.3C128.8,26.8,129.4,24.9,129.3,23.3z M145.9,5.4c1.1-0.4,2.7-0.1,4.7,0.7c0.3,0.3,0.3,1-0.1,2
		c-0.1,0.2-0.3,0.9-0.4,2c-0.2,16.1,0.1,27.8,1,35.1c0,0.7,0,1.4-0.1,2.3c-0.4,0.4-1,0.5-1.9,0.3c-3-0.5-5.8-1.7-8.4-3.9
		c-0.7-0.5-1.4-1-2.1-1.4c-0.6-0.2-1.3-0.8-1.9-1.6c-0.1-0.3,0.5-0.1,1.9,0.4c2,0.7,4.1,1.1,6.5,1c0.6,0.1,1.1-0.3,1.5-1
		c0.1-10.6,0.1-21.2,0.1-31.8c-0.1-0.7-0.3-1.4-0.5-2.1C145.9,6.2,145.7,5.5,145.9,5.4z M137.2,17.2c1.5-0.2,2.7-0.1,3.5,0.4
		c0.1,0.2,0.1,0.8-0.1,1.8c-0.2,3.2-0.3,6.4-0.4,9.5c-0.1,1.1-0.6,1.8-1.7,1.9c-0.9-0.1-1.5-0.8-1.5-1.9l-0.1-10
		C136.9,17.9,137,17.3,137.2,17.2z"/>
	<path class="st1" d="M185.1,2c0.9-0.6,2.1-0.8,3.6-0.4c0.4,0.1,0.8,0.3,1,0.5c0.3,0.2,0.2,0.9-0.3,2c-0.2,0.7-0.4,1.7-0.5,3
		c-0.1,0.9,0.4,1.2,1.5,1.1l3.7-0.5c1-0.2,1.6-0.2,1.8-0.1c0.6,1.5,0.4,2.4-0.6,2.8c-1.3,0.5-3.1,0.9-5.5,1.4
		c-0.8,0.1-1.3,0.7-1.5,1.8l-0.1,1.2c0,0.8,0.5,1.2,1.4,0.9c1.9-0.5,3.8-0.9,5.8-1.2c0.2,0.1,0.4,0.7,0.6,1.8
		c0.2,0.6-0.1,1.1-0.9,1.5c-1.9,0.5-3.8,1-5.8,1.4c-0.9,0.1-1.3,0.6-1.3,1.5l0.1,1.5c0.1,0.9,0.7,1.3,1.8,1c2.6-0.2,5.3-0.8,8.2-2
		c0.6,0,1.2,0.9,1.7,2.5c0.4,1.3,0.6,2,0.4,2.1c0,0.1,0.4,0.5,1.4,1c1,0.7,1,1.3-0.1,2c-1.2,0.8-2.4,1.6-3.6,2.5
		c-1,1-1.8,1.5-2.3,1.7c-0.6,0.1-0.3,0.6,0.8,1.5c2.7,2.3,4.6,3.8,5.9,4.3c2,0.6,4.4,1.7,7.3,3.4c1,0.9,1,1.5-0.1,1.8l-2.2,0.3
		c-1.6,0.1-2.8,0-3.6-0.3c-1-0.2-2.1-0.4-3.1-0.5c-1.3-0.1-2.1-0.3-2.3-0.6c0-1.4-0.5-2.7-1.3-4c-1.2-1.3-2.6-2.2-4.1-2.9
		c-1.8-0.8-4.2-2.1-7.2-4c-0.9-0.5-1.5-0.1-1.9,1c-1.1,3.3-1.4,6-0.9,8.2c0.4,1.9,1.3,2.4,2.6,1.6c2.2-1,4.2-2.4,5.9-4
		c1-1,1.6-1.4,1.6-1.3c-3,5.2-6.5,8.9-10.4,11.3c-0.3,0.1-0.6,0-1-0.3c-1.8-2.8-2.2-5.9-1.2-9.2c0.4-1.3,0.6-3,0.6-5.1
		c0-0.9-0.5-1-1.4-0.2c-1.6,1.4-3.1,2.9-4.6,4.6c-0.7,0.6-1.1,1.1-1.3,1.5c-0.1,0.3-0.3,0.7-0.6,0.9c-2.2,1.2-4.6,1.8-7.1,1.8
		c-1.1-0.1-1.1-0.5,0-1c5-2.9,9.7-7.1,14.2-12.7c0.7-0.9,0.4-1.3-0.8-0.9c-1.6,0.4-3.2,1-4.9,1.6c-1.1,0.4-1.8,0.5-2,0.4
		c-0.8-0.7-1.3-1.7-1.7-2.9c0.4-0.3,1.2-0.5,2.3-0.6c2-0.2,5.1-0.9,9.4-1.9c1-0.1,1.5-0.6,1.6-1.4l0.2-2.1c0-0.9-0.5-1.2-1.4-1
		l-2.8,0.6c-1.6,0.9-2.6,0.1-3-2.4c0-0.2,0.6-0.4,1.6-0.6c1.5-0.2,2.9-0.4,4.4-0.7c0.8-0.2,1.3-0.8,1.5-1.8c0.1-0.3,0.2-0.6,0.2-1
		c0-1-0.3-1.4-1.1-1.3c-1.3,0.2-2.5,0.5-3.8,0.8c-1.6,0.9-2.7,0.2-3-2.1c-0.1-0.7-0.1-1.1-0.1-1.3c0.1-0.1,0.7-0.2,1.7-0.3l5.2-0.7
		c0.9-0.1,1.4-0.7,1.5-1.7c0-1.2,0.1-2.5,0.2-3.7C185.1,2.7,185,2.1,185.1,2z M197.5,25.7c-1.3-0.1-3.8,0.1-7.5,0.5l-3.5,0.4
		c-0.8,0.1-0.9,0.7-0.2,1.7c2,1.8,3.8,2.9,5.6,3.2c0.8,0.3,1.8,0.1,2.8-0.7c1.9-1.6,3.3-3.1,4.3-4.7C199,26,198.5,25.9,197.5,25.7z"
		/>
</g>
</svg>
