<?xml version="1.0" encoding="utf-8"?>
<!-- Generator: Adobe Illustrator 23.0.3, SVG Export Plug-In . SVG Version: 6.00 Build 0)  -->
<svg version="1.1" id="圖層_1" xmlns="http://www.w3.org/2000/svg" xmlns:xlink="http://www.w3.org/1999/xlink" x="0px" y="0px"
	 viewBox="0 0 169.7 44" style="enable-background:new 0 0 169.7 44;" xml:space="preserve">
<style type="text/css">
	.st0{enable-background:new    ;}
	.st1{fill:#FFFFFF;}
</style>
<g class="st0">
	<path class="st1" d="M7.2,20.2c0.8-0.8,1.1-0.8,0.9,0c-0.2,1.2-0.3,2.4-0.4,3.7c-0.1,1.1-0.2,1.6-0.4,1.7c-0.7,0-1.4-0.2-2.1-0.6
		c-0.8-0.5-0.9-1.3-0.2-2.3C5.7,21.8,6.4,21,7.2,20.2z M25.8-2.3c0.4-0.9,0.7-1.3,0.8-1.3c0.2,0.1,0.4,0.2,0.7,0.5
		C28.4-2.2,29-1.5,28.9-1c-0.3,0.2-0.6,0.5-0.9,0.8l-1.4,1.5c-0.6,0.6-0.9,1-0.9,1.2c0.1,0.1,0.6,0.2,1.4,0.1
		c3.3-0.6,5.8-0.5,7.4,0.2c0.8,0.4,1.4,0.7,1.8,1.1C36.3,4,36,4.5,35.3,5.3c-0.7,1.8-1.3,3.5-1.7,5c-0.3,1-0.9,1.5-1.8,1.6
		c-0.8,0-1.3,0-1.7-0.2c-0.1-0.1-0.3-0.1-0.7-0.1l-0.5,0.1c-0.7,0.1-0.9,0.3-0.5,0.6c0.1,0.2,0.1,0.6-0.1,1.2
		c-0.1,0.6,0.3,0.9,1,0.8c2.6-0.2,4.7,0,6.4,0.5c0.4,0.1,0.9,0.4,1.4,0.9c0.1,0.2,0,0.7-0.3,1.5c-0.4,3.2-1.1,5.8-1.9,7.8
		c-0.3,1.1-0.5,1.7-0.7,1.7c-0.6-0.1-1.7-0.8-3.2-1.9c-0.6-0.2-1.1-0.6-1.8-1.2c-0.9-0.9-1.3-0.9-1.3-0.2c-0.2,2.5-0.3,5.3-0.3,8.3
		c0,0.7,0.1,1.1,0.2,1.3c0.2,0.3,0.1,0.5-0.3,0.5c-1.1,0.1-1.9-0.2-2.3-0.8c0-0.1,0-0.3,0.1-0.4c0.3-0.6,0.4-1.5,0.2-2.9l-0.1-12.1
		c0-0.7-0.4-0.9-1.1-0.6c-0.7,0.2-1.3,0.5-2,0.8c-0.7,0.4-1,0.9-1.1,1.8c-0.1,1.5,0.1,3.1,0.4,4.8c0.1,0.9,0.1,1.3-0.2,1.4
		c-0.4,0.1-0.6,0-0.7-0.1c-0.4-0.4-0.8-1.1-1.1-2c-0.5-1.3-0.8-2.9-1.1-4.7c-0.1-0.7-0.5-1.1-1.4-1.2l-0.9-0.4
		c-0.8-0.4-0.8-0.8,0-1.2c0.5-0.3,0.7-0.7,0.6-1.2c-0.1-1.3-0.7-1.6-1.7-1.1c-1,0.4-1.4,1.1-1.2,2c0.1,0.4,0.1,0.7,0,0.8
		c-1.7,0.2-3.7,0.7-6,1.6c-0.8,0.4-1.4,0.2-1.8-0.6l-0.3-0.8c-0.4-0.7-0.2-1.2,0.5-1.4c1.3-0.3,2.5-1.2,3.6-2.7
		c0.6-0.7,0.4-1-0.6-0.7c-0.7,0.2-1.5,0.4-2.2,0.8c-0.3,0.2-0.7,0.1-1-0.2c-0.3-0.5-0.6-1.1-0.7-1.7c0.1-0.1,0.5-0.5,1.3-1.1
		c1.5-1.7,3.3-4.5,5.4-8.3c0.1-0.5,0.5-0.9,1.1-1.3c0.8,0.2,1.2,0.9,1.4,2c0,0.3-0.3,0.7-0.8,1.2c-1.3,1.5-2.5,3.1-3.6,5
		C9.6,8.7,9.4,9.2,9.4,9.3c0.1,0.1,0.6,0.1,1.4,0.1l0.4-0.1c0.7-0.1,1.2-0.4,1.6-0.8L14,6.9c0.5-1,1-1.4,1.4-1.4
		c0.3,0,0.8,0.2,1.3,0.4c0.9,0.6,0.8,1.2,0,1.7C16,8,15.2,8.8,14.2,10c-1.3,1.5-2.5,2.6-3.4,3.3c-0.7,0.6-0.9,1-0.8,1.1
		c0.4,0.2,1.3,0.1,2.5-0.2c0.2-0.1,0.5-0.3,0.8-0.6c2.1-2,3.6-1.5,4.5,1.4c0.2,0.6,0.5,0.8,0.7,0.6c0.4-0.1,0.9-0.1,1.5,0.1
		c0.5,0.2,1,0.1,1.7-0.1l2.7-0.7c0.7-0.2,1-0.7,1-1.6c-0.1-0.9-0.6-1.3-1.4-1.1l-0.6,0.1c-0.9,0.2-1.7-0.2-2.5-1.2
		c-0.9-1.7-1.4-3.6-1.7-5.8c-0.1-1,0-1.6,0.1-1.7c0.1-0.1,0.4-0.1,0.7-0.1c1.2,0.3,2.2-0.1,3-1.2C24.1,1.1,25-0.5,25.8-2.3z
		 M11,19.6c0.4-1,0.7-0.9,0.8,0.2c0.1,0.7,0.3,1.2,0.5,1.7c0.4,0.8,0.6,1.4,0.6,1.8c0.2,1-0.4,1.2-1.6,0.6c-0.7-0.4-1-0.7-1-0.9
		C10.3,22.1,10.5,21,11,19.6z M15.1,18.7c0.4-1,0.8-1,0.9-0.2c0.1,0.6,0.4,1.3,0.9,2c0.5,0.5,0.7,1.1,0.7,1.9
		c-0.1,0.2-0.3,0.3-0.7,0.3c-0.8,0-1.6-0.3-2.4-0.9C14.4,21.2,14.6,20.2,15.1,18.7z M29.3,3.4c-2.2,0.2-4.2,0.7-6.1,1.4
		c-0.7,0.3-1,0.7-1.1,1.2c0,0.6,0.4,0.9,1.2,0.8l4.1-0.6c0.9-0.1,1.4,0,1.4,0.4c0,0.4-0.5,0.8-1.3,1.2c-1.2,0.4-2.6,0.7-4.3,0.9
		c-0.7,0.2-0.9,0.6-0.7,1.2c0.2,0.6,0.4,0.9,0.5,0.9c2.2-0.3,4.4-0.6,6.6-1c0.7-0.1,1.1-0.6,1.4-1.4c0.4-1.1,0.5-2.2,0.5-3.4
		C31.2,3.8,30.5,3.3,29.3,3.4z M32.1,16.1c-0.9-0.4-1.9-0.5-3-0.4c-0.7,0.1-1.1,0.5-1.2,1.3v4c0,0.8,0.4,1.4,1.3,1.6
		c1.1,0.3,1.8,0.4,2.2,0.3c0.5-0.2,0.8-0.7,0.9-1.2c0.5-1.4,0.7-2.8,0.8-4.1C33.2,17,32.9,16.5,32.1,16.1z"/>
</g>
<g class="st0">
	<path class="st1" d="M68.3,6.3c0.4-0.8,1.2-1,2.2-0.7c0.5,0.4,0.9,0.7,1,0.8c0.1,0.2-0.2,0.6-1,1.4c-0.5,0.5-0.9,1-1.2,1.6
		c-0.4,0.7-0.3,1.3,0.5,2c1.3,1,2.4,2.4,3.1,4.2c0.2,0.6,0.6,1.2,0.9,1.7c0.4,0.7,0.2,1.1-0.7,1.2c-2.8,0.7-5.8,0.3-9.1-0.9
		c-0.8-0.6-1.6-0.7-2.4-0.2c-1.1,0.7-2.2,1.4-3.3,2.1l-0.8,0.8c-0.4,0.5-0.9,0.8-1.5,0.9c-0.7,0.2-2.1,0.2-4.3,0.1
		c-0.8-0.1-1.3-0.3-1.4-0.4c-0.1-0.2,0.2-0.4,0.7-0.5c3.5-0.5,6.7-2,9.6-4.4c0.6-0.5,0.6-1.2,0-2.1L60,12.6
		c-0.5-0.7-0.9-0.8-1.3-0.2c-0.6,1-1.4,2-2.2,3c-0.5,0.9-0.8,1.3-1,1.2c-0.2-0.1-0.5-0.4-0.7-0.7l-0.4-0.5c-0.6-0.9-0.5-1.5,0.3-2
		c1.1-0.7,2.3-1.4,3.4-2c0.7-0.3,0.8-0.9,0.2-1.8c-0.8-0.8-0.7-1.3,0.2-1.4c1-0.1,1.5,0.3,1.7,1.2c0.7,1.4,1.3,2.5,1.9,3.3
		c0.7,0.8,1.4,0.8,2.2,0C65.9,11.1,67.2,8.9,68.3,6.3z M54.1,6.9c1.1-0.8,1.6-0.7,1.4,0.3c-0.2,0.8-0.3,1.6-0.4,2.4
		c0,0.8-0.1,1.3-0.2,1.4c-0.7,0.2-1.6,0.1-2.7-0.5C51.4,10,51,9.7,51,9.6c0.1-0.1,0.2-0.3,0.5-0.6C52.4,8.2,53.2,7.5,54.1,6.9z
		 M64.2,19.5c0.3-0.2,0.8-0.3,1.7-0.2c1,0.3,1.4,0.9,1.3,1.8c-0.1,1.8-0.2,3.7-0.2,5.5c0,0.7,0,1,0.1,1.1c1.1-0.1,2.2-0.2,3.3-0.3
		c0.7,0,1.2-0.5,1.5-1.3c0.8-1.4,0.8-2.7,0.2-3.9c0.2-0.5,0.6-0.6,1.3-0.4c1.3,0.1,2.3,0.4,3.1,0.9c0.1,0.2,0,0.7-0.5,1.5
		c-1,2.6-1.6,4.6-2,6.1c-0.1,0.8-0.6,1.2-1.7,1.2c-1.1,0-1.7-0.3-1.6-1.1c0-0.5-0.4-0.7-1.3-0.7c-3.6,0.1-6.9,0.6-9.8,1.4
		c-1,0.4-1.6,0.6-1.8,0.5c-0.5-0.6-1-1.6-1.5-3.1c-0.7-2.1-0.9-3.6-0.6-4.7c0.1-0.3,0.3-0.5,0.7-0.7c1.1,0.1,2.3,0.4,3.4,1.2
		c0.1,0.2-0.3,0.7-1.2,1.7c-0.3,0.5-0.4,0.9-0.4,1.2c0.1,1.2,0.8,1.6,2.2,1.2l2.1-0.2c0.6-0.1,1-0.7,1-1.6c0.1-1.9,0.2-3.8,0.2-5.7
		C64,20.1,64.1,19.6,64.2,19.5z M59.2,3.9c5.6-1.5,10.7-2.2,15.2-2c1.7,0.1,3.2,0.8,4.6,1.9c1.1,1.9,1.5,3.2,1.2,3.9
		c-0.2,0.1-0.7,0.1-1.5,0.1h-3.9c-0.8,0-1.2-0.1-1.1-0.2c1.8-0.7,2.9-1.7,3.3-3c0-0.4-0.1-0.6-0.3-0.7c-0.7-0.3-1.6-0.4-2.9-0.5
		c-3.9-0.1-8.4,0.5-13.4,1.9c-0.7,0.2-1.1,0.4-1.3,0.6c-0.3,0.3-0.6,0.5-0.8,0.4C56.9,4.9,57.2,4.1,59.2,3.9z M65.4,6.9
		c1-0.1,1,0.2,0.2,1c-0.4,0.4-0.8,0.8-1.1,1.3c-0.6,0.8-1,1.2-1.2,1.1c-0.2-0.1-0.5-0.4-0.9-0.7c-0.9-1.1-0.9-1.7,0-1.9
		C63.4,7.3,64.4,7.1,65.4,6.9z M64.4-3.4c0.2-0.6,0.5-1.2,1.2-1.8c0.6-0.5,0.9-0.2,1.2,0.9c0.3,0.8,0.9,1.9,1.7,3.3
		c0.3,0.6,0.2,1.1-0.1,1.4c-1.1,0.6-2.3,0.3-3.5-0.7C63.9-0.7,63.8-1.8,64.4-3.4z M69.4,11.9c-0.5-0.8-0.9-0.9-1.4-0.3
		c-0.7,1.2-1.5,2.2-2.4,2.9c-0.7,0.6-0.6,1,0.2,1.4c1.4,0.6,2.9,0.7,4.5,0.3c0.4-0.2,0.5-0.5,0.4-1C70.4,14.2,69.9,13.1,69.4,11.9z
		 M72.3,10.1c0-0.2,0.5-0.2,1.7,0c1.2,0.2,2.3,0.6,3.3,1.1c1,0.7,1.5,1.1,1.6,1.3c0.2,0.6-0.1,1.5-0.8,2.8c-0.3,0.4-0.7,0.7-1.1,0.7
		c-0.2,0-0.6-0.5-1.2-1.5C75,13.2,73.9,11.8,72.3,10.1z"/>
</g>
<g class="st0">
	<path class="st1" d="M100.6,22.6c0.8-0.8,1.4-1,1.7-0.6c0,0.1-0.2,0.5-0.5,1c-1.5,2.1-2.6,4-3.4,5.5c-0.5,0.9-0.9,1.3-1.4,1.1
		c-0.6-0.3-1.3-1.1-1.9-2.3c-0.3-0.4-0.3-0.7-0.2-1c0.5-0.2,1-0.5,1.5-0.8L100.6,22.6z M114.9-2c0.9-0.3,1.3-0.4,1.5-0.3
		c0.1,0.1,0.3,0.4,0.6,1c0.3,1.1,0.4,1.7,0.2,1.7c-2.3,0.1-5,0.4-8,1c-0.7,0.2-0.9,0.4-0.7,0.7c0.2,0.2,0.5,0.6,0.7,1.2
		c0.2,0.7-0.2,1.3-1.1,1.9c-1.4,0.9-2.7,1.9-3.9,3c-0.7,0.5-1,0.8-1,0.9c0.1,0.1,0.1,0.3,0.2,0.4c0.8,0.1,2.4,0.1,4.7-0.1
		c0.7,0,1.4-0.4,2.2-1.2l1.8-1.8c0.7-0.8,1.2-1.2,1.6-1.3c1-0.1,2,0.2,3.1,0.9c0.9,0.7,0.9,1.2,0,1.5c-2.2,0.8-4.2,2.1-6.2,3.8
		c-2.8,2-4.9,3.4-6.4,4.3c-0.7,0.4-1,0.7-1,0.8c0.2,0.5,0.6,0.7,1.3,0.5c2.4-0.2,4.6-0.6,6.6-1c0.7-0.2,1.2-0.5,1.6-0.9
		c1.1-1.3,2.2-1.7,3.3-1.4c1.7,0.6,2.9,2,3.5,4.2c0.2,0.7,0.3,1.3,0.1,1.8c-0.6,0.4-1.6,0.2-3.2-0.5c-1.1-0.5-1.2-1-0.4-1.6
		c1.1-0.8,1.3-1.6,0.7-2.6c-1.2-0.7-2.3-0.4-3.4,1c0,0.1,0,0.5,0,0.9c0.2,0.6-0.2,0.9-1,1l-1.9,0.2c-0.7,0.1-1,0.3-0.8,0.5
		c0.3,0.2,0.5,0.5,0.6,1c0,3.5,0,6.9-0.1,10.4c0,0.9-0.2,1.7-0.7,2.3c-0.4,0-1-0.2-1.8-0.7c-0.6-0.3-1.1-0.6-1.7-0.7
		c-0.8-0.3-1.9-1-3.3-2.1c-1-0.8-1.4-1.3-1.2-1.4c0.2-0.1,0.4,0,0.8,0l3.3,0.4c1,0.3,1.6-0.2,1.8-1.5c0-1.8,0-3.6-0.1-5.4
		c-0.1-0.5-0.4-1.1-0.7-1.6c-0.4-0.4-1.1-0.6-2-0.4c-2,0.4-3.7,0.9-5.2,1.4c-0.8,0.3-1.4,0-1.7-0.9l-0.2-0.7
		c-0.2-0.8-0.3-1.3-0.2-1.4c0.2-0.2,0.7-0.4,1.4-0.6c2.3-0.5,4.5-1.9,6.6-4.1c0.7-0.6,0.6-0.9-0.2-0.9c-1.3,0.1-2.8,0.4-4.5,0.8
		c-1,0.4-1.7,0-2.1-1.2c-0.2-0.6,0.1-1.2,0.9-1.7c1.5-0.9,3.4-2.6,5.5-5.2c0.1-0.2-0.4-0.3-1.3-0.1c-3.5,0.6-5.9,0.8-7.2,0.7
		c-0.2-0.1,0.2-0.4,0.9-0.8c5.1-3,9.5-4.8,13.2-5.4C112.5-1.4,113.8-1.6,114.9-2z M114.2,21.7c0.2-0.5,0.9-0.5,1.9,0l3.3,1.2
		c0.9,0.3,1.4,0.9,1.7,1.7c0.2,1.1,0,2.2-0.5,3.2c-0.3,0.8-0.7,1.4-1.2,1.7c-0.4,0.1-0.8-0.3-1-1.1
		C117.5,26.4,116.1,24.1,114.2,21.7z"/>
	<path class="st1" d="M149.8,2.5c1-0.2,1.6-0.3,1.7-0.1c0.4,0.9,0.3,1.7-0.1,2.2c-0.4,0.5-0.9,0.8-1.7,1l-2,0.5
		c-0.7,0.2-1,0.4-0.9,0.6c0.4,0.4,0.3,0.6-0.2,0.8c-0.2,0.1-0.4,0.4-0.8,0.9l-0.4,0.6c-0.5,0.8-0.3,1.1,0.6,1
		c1.9-0.5,3.7-0.3,5.5,0.7c0.1,0.2-0.2,0.6-0.8,1.4c-0.6,1.1-1.1,2.2-1.4,3.3c-1.6,3.5-3.8,6.8-6.6,9.9c-2.7,2.4-5.2,3.4-7.7,2.9
		c-1-0.2-1-0.5-0.1-0.8c2.6-0.9,5.2-2.7,7.8-5.5c0.6-0.7,0.6-1.4,0-2.2c-0.6-0.8-1.5-1.7-2.6-2.7c-0.2-0.1-0.6,0.3-1.3,1.1
		c-0.9,0.8-2.1,1.2-3.5,1c-0.1-0.1,0.2-0.5,0.9-1.2c1.6-1.5,3.2-3.7,4.7-6.4c0.7-1.1,1.3-2.2,1.8-3.3c0.3-0.8,0.2-1.1-0.5-0.9
		c-0.7,0.1-1.4,0.3-2.2,0.5c-0.8,0.2-1.4-0.1-1.8-0.9l-0.3-1.4c-0.1-0.9-0.1-1.3,0.2-1.4C141.7,3.8,145.6,3.3,149.8,2.5z
		 M147.5,12.7c-0.6-0.9-1.4-1.1-2.5-0.5c-0.8,0.5-1.3,0.7-1.6,0.6c-0.2-0.2-0.7,0.2-1.3,1c-0.1,0.2-0.2,0.3-0.4,0.5
		c-0.6,0.8-0.5,1.4,0.4,1.7c0.7,0.3,1.5,0.7,2.4,1.2c0.6,0.7,1.2,0.6,1.7-0.2C147.1,15.5,147.6,14.1,147.5,12.7z M160.5-1.3
		c0.9-0.3,2.1-0.1,3.7,0.6c0.2,0.2,0.2,0.8,0,1.6c-0.1,0.2-0.2,0.7-0.3,1.6c-0.2,12.7,0.1,21.9,0.8,27.6c0,0.5,0,1.1-0.1,1.8
		c-0.3,0.3-0.8,0.4-1.5,0.2c-2.4-0.4-4.6-1.4-6.6-3.1c-0.6-0.4-1.1-0.8-1.7-1.1c-0.5-0.2-1-0.6-1.5-1.2c-0.1-0.2,0.4-0.1,1.5,0.3
		c1.5,0.6,3.2,0.8,5.1,0.8c0.5,0.1,0.9-0.2,1.2-0.8c0.1-8.3,0.1-16.7,0.1-25c-0.1-0.6-0.2-1.1-0.4-1.7
		C160.6-0.7,160.5-1.2,160.5-1.3z M153.7,8c1.2-0.2,2.1-0.1,2.8,0.3c0.1,0.1,0.1,0.6,0,1.4c-0.1,2.5-0.2,5-0.3,7.5
		c-0.1,0.9-0.5,1.4-1.4,1.5c-0.7-0.1-1.1-0.6-1.2-1.5l-0.1-7.9C153.5,8.5,153.6,8,153.7,8z"/>
</g>
</svg>
