<?xml version="1.0" encoding="utf-8"?>
<!-- Generator: Adobe Illustrator 23.0.3, SVG Export Plug-In . SVG Version: 6.00 Build 0)  -->
<svg version="1.1" id="圖層_1" xmlns="http://www.w3.org/2000/svg" xmlns:xlink="http://www.w3.org/1999/xlink" x="0px" y="0px"
	 viewBox="0 0 24 24" style="enable-background:new 0 0 24 24;" xml:space="preserve">
<style type="text/css">
	.st0{fill:#814C25;}
</style>
<path id="Path_1" class="st0" d="M4.13,3.14l2.8,15.88c0,0-3.25,3.64,1.22,4.97c0,0,3.66-0.62,1.58-4.51l8.72,0.05
	c0,0-2.12,3.74,1.58,4.46c3.66-0.51,2.21-4.61,1.08-4.92c0,0,0.81-2.36-0.68-2.41l-11.11-0.2l-0.32-1.49l12.01-0.05
	c0,0,0.68,0.2,0.95-0.82l1.99-9.53c0,0,0.36-1.43-1.04-1.43H6.84L6.3,0.89C6.26,0.4,5.85,0.02,5.35,0.02c-0.9-0.05-4.25,0-4.25,0
	s-2.48,1.43,0,2.97l2.94-0.15L4.13,3.14z"/>
</svg>
