<?xml version="1.0" encoding="utf-8"?>
<!-- Generator: Adobe Illustrator 23.0.3, SVG Export Plug-In . SVG Version: 6.00 Build 0)  -->
<svg version="1.1" id="圖層_1" xmlns="http://www.w3.org/2000/svg" xmlns:xlink="http://www.w3.org/1999/xlink" x="0px" y="0px"
	 viewBox="0 0 217.7 57" style="enable-background:new 0 0 217.7 57;" xml:space="preserve">
<style type="text/css">
	.st0{enable-background:new    ;}
	.st1{fill:#FFFFFF;}
</style>
<g class="st0">
	<path class="st1" d="M20.2,9.2c1.2-0.3,2.4,0.1,3.9,1.1c0.1,0.2,0.1,0.8-0.1,1.9c-0.5,2.3-0.9,4.5-1.3,6.8c-0.2,1.4-0.9,2.2-2,2.4
		c-0.6-0.1-1.7,0.1-3.1,0.7l-4,1c-0.8,0.4-1.3,1.1-1.4,2.1c-0.6,7.1-0.7,13.5-0.4,19.1c0.2,1.5-0.5,2.3-1.9,2.6
		c-0.5-0.5-0.6-1.4-0.5-2.7c-0.1-11.6,0.3-22.3,1-32.1c0.2-1.3,0.4-2,0.6-2c0.1,0,0.5,0.1,1,0.3c0.4,0.4,1.1,0.4,2.1,0.1L20.2,9.2z
		 M17.6,11.4l-1,0.3c-0.6,0.2-1.2,0.4-1.8,0.7c-0.9,0.5-1.4,1.1-1.5,2c-0.1,0.9,0.4,1.2,1.5,1l1.7-0.4c1.1-0.3,1.7-0.1,1.7,0.5
		c0,0.7-0.5,1.2-1.5,1.6c-0.8,0.3-1.6,0.5-2.4,0.7c-0.9,0.2-1.4,0.9-1.5,1.8c0,1,0.5,1.4,1.6,1.2l4-0.8c0.8-0.2,1.3-0.8,1.4-1.9
		c0.3-3,0.4-5.1,0.3-6.4C20.1,10.8,19.3,10.7,17.6,11.4z M19,24.1c1-1.2,1.6-1.6,1.9-1.4c0.4,0.5,0.6,0.9,0.6,1.2
		c0,0.2-0.5,0.7-1.6,1.7c-1,1.1-1.6,1.7-1.7,1.8c0.1,0.1,0.7,0.2,1.6,0.2c0.9-0.1,1.9-0.6,2.8-1.7l0.5-0.5c0.9-1,1.4-1.4,1.7-1.3
		c0.2,0.3,0.4,0.6,0.5,1c0.1,0.4-0.3,1-1.3,1.8c-2.1,1.9-3.8,3.6-5,5.2c0.6,0.4,1.5,0.3,2.7-0.2c1.4,0.1,1.7-0.5,0.8-1.6
		c-0.2-0.5,0.2-0.4,1.2,0.2c1.4,0.7,1.8,1.7,1.2,3c-0.3,0.8-0.6,1.2-0.8,1.2c-0.4-0.2-0.6-0.5-0.7-1c-0.1-0.5-0.6-0.6-1.7-0.3
		c-1,0.2-2,0.5-3.1,0.8c-1,0.3-1.4,0.6-1.2,0.7c0.8,0.3,1,1,0.4,1.9c0,1,0.5,1.5,1.6,1.4l0.5-0.1c0.9-0.2,1.4-0.8,1.5-1.7
		c0-1.4,0.6-1.8,1.8-1.2c0.9,0.4,1.3,0.7,1.4,0.9l-1.5,4.5c-0.5,1.1-0.7,2-0.7,2.5c0.1,0.3-0.3,0.7-1.5,1.2
		c-1.3,0.5-2.8,0.8-4.5,1.2c-1,0.1-1.1-0.1-0.2-0.5c2.8-1.1,4.3-2.7,4.5-4.7c0-0.9-0.5-1.1-1.6-0.6c-1,0.4-2.1,1-3.2,1.9
		c-0.2,0-0.5-0.3-0.8-0.8c-0.2-0.7-0.3-1.1-0.2-1.3c0.3-0.3,0.5-0.8,0.7-1.5c0.3-1,0.2-1.9-0.4-2.7c-1.4-1.2-1.2-2.1,0.4-2.8
		c0.7-0.5,1.4-1,2.1-1.6c1-1.1,1.5-1.7,1.4-1.8c-0.8,0-1.6,0.1-2.4,0.3c-1,0.4-1.8,0.5-2.3,0.4c-0.3-0.3-0.6-0.7-0.6-1.1
		c0-0.2,0.6-0.6,1.6-1.3C16.8,26.2,17.9,25.2,19,24.1z M30.8,9c4.3-1.4,8.2-1.7,11.8-0.9c1.2,0.5,1.6,1.3,1,2.3
		c-0.5,1.1-0.7,3-0.7,5.7c0,6,0.1,15.6,0.3,28.9l0.2,2.1c0.1,1.1,0.2,1.9,0.1,2.4c-0.5,0.5-1,0.6-1.7,0.3L37.5,48
		c-1.3-0.7-2.4-1.5-3.1-2.2c-1-1-1.4-1.6-1.3-1.7c1.5,0.7,3,1.1,4.5,1.3c0.8,0.1,1.4-0.3,1.8-1.3c0.8-6.7,1-14.2,0.6-22.3
		c0-1.2-0.6-1.7-1.7-1.7c-2.9,0.3-5,0.8-6.4,1.3c-0.8,0.4-1.1,0.7-0.8,0.8c0.2,0.2,0.3,0.5,0.5,1c0.2,0.5-0.3,1.2-1.4,1.9l-0.7,0.6
		c-0.9,0.8-1.3,1.3-1,1.5c0.3,0,0.8-0.1,1.6-0.2c0.8-0.1,1.6-0.6,2.2-1.5c0.5-0.9,0.9-1.4,1.2-1.4c0.2,0,0.5,0.1,0.9,0.2
		c1.2,0.7,1.2,1.5,0.1,2.4c-0.9,1.1-1.8,2.2-2.8,3.2c-0.8,0.8-1.3,1.3-1.3,1.5c0.3,0.5,0.7,0.6,1.3,0.2c0.7-0.5,1.3-1,1.8-1.7
		c0.8-1.2,1.8-1.2,3.1-0.3c0.6,0.6,1.1,1.5,1.6,2.8c0.1,1.1-0.5,1.5-1.8,1.1c-1.1-0.5-1.4-0.9-0.9-1.3c1.2-0.6,1.4-1.5,0.5-2.5
		c-1.3-0.3-2.1,0.2-2.4,1.7c0.1,0.5-0.4,0.8-1.5,1.2C31,33,29.8,33.4,28.3,34c-1,0.5-1.7,0.4-2-0.3c-0.2-0.9,0.2-1.6,1.4-2.3
		c0.5-0.3,1-1,1.7-1.8c0.6-0.9,0.4-1.2-0.7-1.1c-0.9,0.2-1.8,0.4-2.8,0.7c-0.2,0-0.4-0.3-0.6-0.8c-0.1-0.4,0.4-1,1.5-1.9l2-2.7
		c0.6-0.9,0.8-1.5,0.6-1.6c-0.5-0.4-0.8-0.9-0.7-1.5c-0.1-2.1-0.1-3.8,0.1-5.3c0.3-1.6,0.4-3.7,0.2-6.2C29.2,9,29.8,9,30.8,9z
		 M33.4,36.2c0.1-1,0.3-1.6,0.4-1.7c0.7-0.2,1.5-0.1,2.2,0.2c0.1,0.1,0.1,0.3-0.1,0.5c-0.3,0.6-0.6,1.3-0.7,2.4
		c-0.2,0.8-0.4,1.5-0.5,2.3c-0.2,0.2-0.8,0.3-1.6,0.2c-0.7-0.1-1.4-0.1-2.1,0.1c-0.9,0-1.3,0.5-1.4,1.4l-0.1,3.1
		c0,1-0.1,1.6-0.2,1.7c-0.6,0.1-1.1,0.1-1.7,0c-0.2-0.1-0.2-0.7-0.1-1.9V37c-0.1-1,0-1.6,0.1-1.8c0.7-0.2,1.3-0.2,2,0.1
		c0.5,0.2,0.6,0.8,0.3,1.6c-0.1,0.8,0.5,1.2,1.6,1C32.6,37.9,33.3,37.3,33.4,36.2z M37.7,9.5c-1.7-0.4-3.6,0.1-5.9,1.4l-0.3,1.3
		c-0.1,0.9,0.2,1.2,1,1.1l2.8-0.4c1.2-0.2,1.8,0.1,1.9,0.7c0,0.6,0,0.9-0.1,1c-1.6,0.6-3.1,1-4.7,1.2c-1.4-0.1-1.8,0.8-1.4,2.5
		c0.2,0.3,0.7,0.4,1.6,0.3l5.9-0.9c0.8-0.1,1.2-0.7,1.2-1.8l-0.1-3.8C39.8,10.9,39.2,10,37.7,9.5z"/>
	<path class="st1" d="M86.2,8.7c0.6-0.9,0.9-1.3,1-1.4c0.2-0.1,0.9,0.4,1.9,1.4c0.8,0.8,1.1,1.5,0.8,2.1c-0.7,1-1.5,2.4-2.2,4.2
		c-0.4,1.1-0.2,2.1,0.5,3.1c3.9,4.6,8,8.5,12.4,11.4c1.6,0.6,3.3,1.8,4.9,3.6c0.1,0.2-0.4,0.4-1.6,0.4c-2.1,0-4.3-0.1-6.6-0.5
		c-2-0.1-3-1-3-2.7c-0.1-0.7-0.4-1.4-0.7-2.1c-3.1-3.9-5.8-6.6-8.2-7.9c-2.1,3.8-4.7,7.3-7.9,10.3c-0.5,0.3-0.9,0.9-1.3,1.8
		c-0.6,1.4-1.2,2.8-1.7,4.2C74,38.4,73,40.8,71.3,44c-0.5,1-0.8,1.7-1,1.9c-0.2,0-0.8-0.5-1.7-1.6c-1.3-1.2-2.5-2.6-3.7-4.5
		c-0.6-0.9-1.1-0.7-1.5,0.5c-1.3,1.9-2.9,3-5,3.1c-1.2,0-1.2-0.7,0-1.9c1.1-1.1,2.2-2.5,3.2-4.2c2.3-3.9,4.3-7.7,5.9-11.5
		c0.4-1,0.2-1.4-0.7-1.2c-1.4,0.3-3.2,0.9-5.5,1.6c-1.1,0.2-2.1-0.2-2.8-1.1l-0.9-1.7c0.1-0.2,0.7-0.3,1.7-0.5
		c6-0.7,11.6-2,16.8-3.9c1-0.4,1.9-0.1,2.5,1l0.3,0.5c0.5,1,0.7,1.6,0.7,1.8c-0.2,0.5-0.8,0.7-1.8,0.6l-4.1,0.5
		c-0.9,0.1-1.5,0.6-1.8,1.3c-0.6,0.8-0.4,1.5,0.4,2.1c1,0.7,2,1.3,3.1,1.8c0.8,0.3,1.6,0,2.3-1c2.9-3.7,5.2-7.9,6.7-12.6L86.2,8.7z
		 M70.6,29.1c-1-0.1-1.7,0.1-2.2,0.8c-1.4,2.3-2.6,4.6-3.7,6.9c-0.4,0.8-0.1,1.5,0.7,2.1c1.2,0.8,2.3,1.3,3.2,1.7
		c0.3,0,0.8-0.5,1.6-1.6c1.2-2.5,2-5.2,2.4-7.9c0.1-0.9-0.4-1.5-1.5-1.9L70.6,29.1z M68.5,13.3c0.1-2,0.7-3.5,1.7-4.5
		c0.5-0.5,1-0.1,1.4,1.2c0.3,1.2,1.1,2.7,2.3,4.3c0.2,1.3,0.3,2.1,0.2,2.2c-0.9,0.8-2,0.9-3,0.3C69,15.9,68.2,14.8,68.5,13.3z
		 M79.3,39.6c0.1-0.1,0.8-0.1,2.1,0.2c3,0.8,5.8,1.7,8.4,2.7c1.5,0.6,2.2,1.5,1.9,2.6l-0.4,2.1c-0.5,1.1-0.8,1.6-1,1.6
		c-0.6-0.2-1.4-0.7-2.3-1.6c-2.2-2-4.8-4-7.9-6C79.5,40.7,79.2,40.2,79.3,39.6z M83,29c0.1-0.8,0.5-1,1.2-0.6
		c1.6,1.8,2.9,2.9,3.7,3.4c1.5,0.9,2,1.8,1.3,2.7c-1.6,1-3.3,0.8-5.1-0.6C82.5,32.9,82.1,31.3,83,29z"/>
	<path class="st1" d="M131.7,3.4c0.9-0.4,2.5-0.1,4.9,0.8c0.1,0.1,0.2,0.8,0.1,2.1c-0.1,4,0.3,8.4,1.3,13.1c0.1,0.8,0.8,1,1.9,0.7
		c1.3-0.3,2.7-0.6,4-0.9c1-0.2,1.7,0.3,2,1.3c0.1,0.6,0.1,1.1,0.1,1.5c-0.2,0.5-0.8,0.8-1.8,0.9c-1.3,0.2-2.7,0.5-4,0.8
		c-0.8,0.2-1.2,0.8-1.2,1.8c0.2,1.3,0.5,2.5,0.9,3.8c0.3,0.9,0.8,0.9,1.6-0.3c0.8-2.2,1.8-2.7,3.1-1.4c0.2,0.2,0.4,0.3,0.6,0.4
		c0.7,0.7,1.2,1.2,1.3,1.4c0.1,0.2-0.4,0.6-1.4,1.4c-0.7,0.6-1.5,1.5-2.4,2.8c-0.7,0.8-0.8,1.8-0.3,2.8c1.4,3,3.3,5.6,5.7,7.8
		c2.2,2,3.4,1.9,3.6-0.3c0.3-2.5,0.5-6.1,0.5-10.8c0.1-1.1,0.3-1.1,0.8,0.1c1.3,3.4,2,6.1,1.9,8.3c0.1,2.6,0.4,5.1,0.8,7.5
		c0.6,1.5,0.2,2.2-1.4,2c-6.4-1.5-11.1-5.7-14.2-12.6c-0.5-0.9-1.2-0.9-2.3-0.1c-0.9,0.9-1.5,1.8-1.9,2.9c-0.2,0.5-0.4,0.7-0.5,0.8
		c-0.8,0.5-2.2,0.7-4.2,0.5c-1.1-0.3-1-1,0.3-2.1c1.8-1.2,3.7-3,5.6-5.5c0.6-0.8,0.8-1.8,0.4-2.8c-0.6-1.6-1.1-3.7-1.6-6.2
		c-0.2-0.8-0.3-1.3-0.5-1.4c-1.9,0.4-3.8,0.8-5.7,1.4c-0.8,0.3-1.3,0.8-1.3,1.7v1.1c-0.3,1.4,0.3,1.6,2.1,0.5
		c1.9-0.8,1.8-0.2-0.5,1.8c-1,0.9-1.6,1.8-1.6,2.6c0,5.4,0.2,9.5,0.7,12.4c0,1-0.1,1.6-0.2,1.8c-0.7,0.3-1.8,0.2-3.4-0.4
		c-1.6-0.6-3.3-1.9-5.2-3.8c-0.9-0.9-0.9-1.2-0.1-0.8c0.9,0.3,2.2,0.5,3.7,0.5c1-0.3,1.5-0.8,1.5-1.6c-0.1-1.7-0.2-3.5-0.2-5.2
		c0-0.9-0.6-1-1.7-0.1c-2.4,1.7-4.3,3.1-5.5,4.2c-0.8,1-1.2,1.6-1.4,1.6c-0.8-0.4-1.7-1-2.5-1.8c-1.7-1.3-1.6-2.3,0.5-2.9
		c3.8-1.9,6.9-3.6,9.2-5c0.9-0.5,1.3-1.2,1.3-2v-1.9c0-0.9-0.5-1.1-1.4-0.8c-2,0.8-3.8,1.4-5.5,1.7c-1.5,0.7-2.6-0.3-3.4-3
		c0-0.1,0.6-0.4,1.7-0.8c2.3-0.6,4.7-1.2,7.2-1.7c1.4,0.1,1.8-1,1.2-3.1c-0.3-1.1-1-1.4-2.1-1l-3.6,1.5c-1.2,0.2-1.3-0.3-0.4-1.3
		c2.5-2.4,5.2-4.7,8.1-6.8l1.2-1.2c0.7-1,1.1-1.6,1.3-1.5c0.4,0.2,0.9,0.8,1.6,1.8c0.7,1.1,0.5,2.1-0.6,3.1c-1,0.7-2.1,1.4-3.1,2
		c-1,0.7-0.9,1.2,0.1,1.5c1.6,0.2,1.9,0.9,1,2.3c0,1.1,0.5,1.5,1.5,1.3c1.2-0.3,2.3-0.6,3.5-0.8c0.8-0.2,1.2-0.9,1-1.9
		c-1.1-7-2-11.8-2.8-14.3C131.5,4.2,131.4,3.5,131.7,3.4z M144.4,10.3c0.5-0.8,1-0.8,1.6,0.3c0.4,1.1,1,2.1,1.7,3
		c1.8,1.8,2.5,3.3,2,4.4c-1.7,1.2-3.8,0.9-6-1.1c-0.6-0.6-0.8-1.3-0.6-2.1C143.2,13.2,143.7,11.7,144.4,10.3z"/>
	<path class="st1" d="M176.6,9.2c0.3-2,1.4-2.4,3.3-1.2c1.3,0.8,1.9,1.3,1.8,1.5c-1.3,1.2-2.4,2.5-3.4,4.1l-4.4,8
		c-0.6,0.9-0.4,1.6,0.7,2.1c1.1,0.9,1.6,1.9,1.5,2.9c-0.6,4.5-1.1,10-1.4,16.5c0.3,1.2,0.4,2.2,0.3,2.9c-0.7,0.5-1.7,0.6-3.1,0.3
		c-0.4-0.2-0.5-0.8-0.2-1.9c0.8-4.6,1.1-9.9,0.9-15.8c-0.1-0.8-0.3-1.6-0.5-2.4c-0.5-0.8-1.2-0.9-2.3-0.2c-1,0.6-2.1,1.2-3.1,1.7
		c-1.3,0.5-2,0.6-2.1,0.3c0-0.2,0.3-0.9,1.1-2c3.7-3.6,6.6-7.4,8.6-11.5C175,12.7,175.8,11,176.6,9.2z M187.3,15
		c1.5-0.9,3.1-0.5,4.9,1c-0.5,3.6-1,7.3-1.4,11.1c-0.1,1.1-0.7,1.8-1.8,1.9c-0.3,0-0.6-0.1-0.9-0.2c-0.2-0.2-0.9-0.1-2,0.4
		c-1.6,0.3-2.8,0.8-3.6,1.3c-0.1,0.2-0.2,0.8-0.3,1.8c-0.1,3.3-0.1,6.6,0,10l0.1,1c0.1,1-0.5,1.7-1.9,2.1c-0.8-0.2-1-1.1-0.8-2.6
		c0-9.6,0.2-18,0.6-25.3c0.2-1,0.4-1.6,0.6-1.7c0.1,0,0.4,0,0.7,0.2c0.3,0.1,0.9,0.1,1.6-0.1C184.5,15.7,185.9,15.4,187.3,15z
		 M188,17c-0.5-0.4-1.4-0.2-2.8,0.5c-1.1,0.5-1.7,1.2-1.8,2c-0.2,1,0.2,1.4,1.3,1.2c1.4-0.6,2.1-0.3,2,0.7c0.4,0.8,0.1,1.3-0.9,1.4
		c-1,0.6-2,1-2.9,1.5c-0.1,0.1-0.1,0.6-0.2,1.3v0.6c0,0.8,0.5,1,1.7,0.7l2.5-0.6c0.9-0.2,1.3-0.9,1.4-1.9l0.2-5.2
		C188.5,18.4,188.4,17.7,188,17z M202.3,13c2.2-0.3,4.4-0.1,6.6,0.8c0.1,0.1-0.1,0.8-0.8,1.8c-0.3,0.9-0.6,2.2-0.6,4.1
		c0,7.4,0.1,14.9,0.2,22.4c0.1,2.2,0.3,4.5,0.5,6.8c-0.4,0.7-1,0.9-1.8,0.6c-0.6-0.1-1.3-0.3-2.1-0.8c-2.6-0.9-5-2.2-7.3-4
		c-1.3-1.3-1.9-2-1.7-2c2.2,0.7,4.3,1.2,6.2,1.4c1.3,0.3,2-0.3,2.3-1.8c0.6-4.4,0.7-9,0.5-13.7c0-0.9-0.5-1.2-1.6-1.1
		c-2.5,0.4-4.4,1-5.7,1.8l-1.3,0.4c-0.1-0.1-0.3-0.6-0.4-1.7c-0.4-4.8-0.4-8.9,0.1-12.2c-0.1-1.3,0.3-1.9,1.3-1.8
		c0.6,0.2,1.1,0.2,1.6,0.2C199.6,13.6,201,13.3,202.3,13z M203.8,17c-0.4-2.3-1.7-2.9-4.1-1.7c-0.8,0.5-1.3,1.3-1.5,2.4
		c-0.1,1.1,0.3,1.6,1.4,1.5l0.6-0.1c1-0.1,1.6,0.1,1.8,0.7c0,0.7-0.6,1.2-1.7,1.7c-0.3,0.2-0.7,0.3-1,0.4c-1.1,0.3-1.7,0.8-1.8,1.7
		c-0.1,1.8,0.6,2.5,2.3,1.9c1.1-0.1,2.2-0.3,3.2-0.5c0.8-0.2,1.2-0.8,1.2-1.9L203.8,17z"/>
</g>
</svg>
